# Blender 4.4.3
# www.blender.org
mtllib adult_female_L.mtl
o adult_body_F_L.001
v -0.882932 6.619479 -0.331316 0.8157 0.7294 0.6628
v -1.134220 1.361756 -0.711127 0.3568 0.2902 0.4078
v -0.882932 6.619479 0.231385 0.8157 0.7294 0.6628
v -1.134220 1.361756 0.595614 0.3568 0.2902 0.4078
v -0.617234 1.361756 -0.780132 0.3568 0.2902 0.4078
v -0.421176 6.619479 0.284811 0.6197 0.5569 0.5686
v -0.622152 1.361756 0.631290 0.3568 0.2902 0.4078
v -0.421176 6.619479 -0.433856 0.6197 0.5569 0.5686
v -0.332417 6.619479 0.295081 0.3843 0.3176 0.4235
v -0.304144 6.619479 -0.327914 0.6197 0.5569 0.5686
v -1.326482 1.361756 -1.000000 0.9529 0.9098 0.8274
v -1.326482 1.361756 0.900069 0.8902 0.8274 0.7529
v -0.627590 1.361756 -1.102540 0.9568 0.9137 0.8313
v -0.627590 1.361756 0.953495 0.9137 0.8627 0.7843
v -0.925537 6.160530 0.295614 0.8196 0.7333 0.6667
v -0.925537 6.160530 -0.395545 0.8157 0.7294 0.6628
v -0.441003 6.160530 -0.498085 0.8196 0.7372 0.6706
v -0.441003 6.160530 0.349040 0.8157 0.7294 0.6628
v 0.882931 6.619479 -0.331316 0.8157 0.7294 0.6628
v 1.134220 1.361756 -0.711127 0.3568 0.2902 0.4078
v 0.882931 6.619479 0.231385 0.8157 0.7294 0.6628
v 1.134220 1.361756 0.595614 0.3568 0.2902 0.4078
v -0.000000 1.361756 -1.191795 0.9372 0.8862 0.8078
v -0.000000 6.619479 0.331316 0.2157 0.2118 0.3059
v -0.000000 1.361756 1.000000 0.9568 0.9137 0.8313
v -0.000000 6.619479 -0.523111 0.6197 0.5569 0.5686
v 0.617233 1.361756 -0.780132 0.3568 0.2902 0.4078
v 0.421176 6.619479 0.284811 0.6197 0.5569 0.5686
v 0.622151 1.361756 0.631290 0.3568 0.2902 0.4078
v 0.421176 6.619479 -0.433856 0.6197 0.5569 0.5686
v -0.000000 5.476029 0.491340 0.6197 0.5569 0.5686
v -0.000000 5.668184 0.464448 0.3568 0.2902 0.4078
v 0.332416 6.619479 0.295081 0.3843 0.3176 0.4235
v -0.000000 6.619479 -0.440725 0.3568 0.2902 0.4078
v 0.304143 6.619479 -0.327914 0.6197 0.5569 0.5686
v 1.326481 1.361756 -1.000000 0.9529 0.9098 0.8274
v 1.326481 1.361756 0.900069 0.8902 0.8274 0.7529
v 0.627589 1.361756 -1.102540 0.9568 0.9137 0.8313
v 0.627589 1.361756 0.953495 0.9137 0.8627 0.7843
v -0.000000 1.361756 0.661251 0.3568 0.2902 0.4078
v -0.000000 1.361756 -0.837103 0.3568 0.2902 0.4078
v 0.925536 6.160530 0.295614 0.8196 0.7333 0.6667
v 0.925536 6.160530 -0.395545 0.8157 0.7294 0.6628
v -0.000000 6.160530 -0.587340 0.8392 0.7608 0.6902
v -0.000000 5.126911 0.540198 0.8157 0.7294 0.6628
v 0.441002 6.160530 -0.498085 0.8196 0.7372 0.6706
v 0.441002 6.160530 0.349040 0.8157 0.7294 0.6628
vn -0.0000 1.0000 -0.0000
vn -0.1110 0.1451 0.9832
vn -0.9957 0.0924 -0.0000
vn -0.2007 0.1400 -0.9696
vn -0.0000 -1.0000 -0.0000
vn -0.2094 0.1495 -0.9663
vn -0.1001 0.1403 0.9850
vn -0.1113 0.1366 0.9844
vn -0.1073 0.1378 0.9846
vn -0.0988 0.1248 0.9872
vn -0.1692 0.1334 -0.9765
vn -0.1634 0.1264 -0.9784
vn -0.9965 0.0833 -0.0000
vn -0.0892 0.1298 0.9875
vn 0.1110 0.1451 0.9832
vn 0.9957 0.0924 -0.0000
vn 0.2007 0.1400 -0.9696
vn 0.2094 0.1495 -0.9663
vn 0.1001 0.1403 0.9850
vn 0.1113 0.1366 0.9844
vn 0.1073 0.1378 0.9846
vn 0.0988 0.1248 0.9872
vn 0.1692 0.1334 -0.9765
vn 0.1634 0.1264 -0.9784
vn 0.9965 0.0833 -0.0000
vn 0.0892 0.1298 0.9875
vt 0.808171 0.500000
vt 0.875000 0.500000
vt 0.875000 0.750000
vt 0.808171 0.750000
vt 0.600987 0.933171
vt 0.625000 0.933171
vt 0.625000 1.000000
vt 0.600987 1.000000
vt 0.600987 0.000000
vt 0.625000 0.000000
vt 0.625000 0.250000
vt 0.600987 0.250000
vt 0.600987 0.316829
vt 0.625000 0.316829
vt 0.625000 0.375000
vt 0.600987 0.375000
vt 0.192819 0.508726
vt 0.243178 0.508354
vt 0.243178 0.741698
vt 0.192349 0.741324
vt 0.131822 0.509249
vt 0.131822 0.740804
vt 0.546905 0.875000
vt 0.565172 0.875000
vt 0.750000 0.500000
vt 0.791233 0.542762
vt 0.750000 0.524106
vt 0.575226 0.875000
vt 0.625000 0.920325
vt 0.625000 0.875000
vt 0.795325 0.750000
vt 0.750000 0.750000
vt 0.125000 0.750000
vt 0.125000 0.500000
vt 0.191829 0.500000
vt 0.250000 0.750000
vt 0.191829 0.750000
vt 0.250000 0.500000
vt 0.375000 0.875000
vt 0.375000 0.933171
vt 0.375000 0.250000
vt 0.375000 0.316829
vt 0.375000 0.375000
vt 0.375000 0.000000
vt 0.375000 1.000000
s 0
usemtl vertex_colors
f 8/1/1 1/2/1 3/3/1 6/4/1
f 18/5/2 6/6/2 3/7/2 15/8/2
f 15/9/3 3/10/3 1/11/3 16/12/3
f 17/13/4 8/14/4 26/15/4 44/16/4
f 5/17/5 41/18/5 40/19/5 7/20/5
f 2/21/5 5/17/5 7/20/5 4/22/5
f 16/12/6 1/11/6 8/14/6 17/13/6
f 45/23/7 31/24/7 6/6/7 18/5/7
f 26/25/1 8/1/1 10/26/1 34/27/1
f 6/6/8 31/24/8 32/28/8 9/29/8
f 9/29/9 32/28/9 24/30/9
f 34/27/1 10/26/1 9/31/1 24/32/1
f 10/26/1 8/1/1 6/4/1 9/31/1
f 2/21/5 4/22/5 12/33/5 11/34/5
f 5/17/5 2/21/5 11/34/5 13/35/5
f 7/20/5 40/19/5 25/36/5 14/37/5
f 41/18/5 5/17/5 13/35/5 23/38/5
f 4/22/5 7/20/5 14/37/5 12/33/5
f 25/39/10 45/23/10 18/5/10 14/40/10
f 11/41/11 16/12/11 17/13/11 13/42/11
f 13/42/12 17/13/12 44/16/12 23/43/12
f 12/44/13 15/9/13 16/12/13 11/41/13
f 14/40/14 18/5/14 15/8/14 12/45/14
f 30/1/1 28/4/1 21/3/1 19/2/1
f 47/5/15 42/8/15 21/7/15 28/6/15
f 42/9/16 43/12/16 19/11/16 21/10/16
f 46/13/17 44/16/17 26/15/17 30/14/17
f 27/17/5 29/20/5 40/19/5 41/18/5
f 20/21/5 22/22/5 29/20/5 27/17/5
f 43/12/18 46/13/18 30/14/18 19/11/18
f 45/23/19 47/5/19 28/6/19 31/24/19
f 26/25/1 34/27/1 35/26/1 30/1/1
f 28/6/20 33/29/20 32/28/20 31/24/20
f 33/29/21 24/30/21 32/28/21
f 34/27/1 24/32/1 33/31/1 35/26/1
f 35/26/1 33/31/1 28/4/1 30/1/1
f 20/21/5 36/34/5 37/33/5 22/22/5
f 27/17/5 38/35/5 36/34/5 20/21/5
f 29/20/5 39/37/5 25/36/5 40/19/5
f 41/18/5 23/38/5 38/35/5 27/17/5
f 22/22/5 37/33/5 39/37/5 29/20/5
f 25/39/22 39/40/22 47/5/22 45/23/22
f 36/41/23 38/42/23 46/13/23 43/12/23
f 38/42/24 23/43/24 44/16/24 46/13/24
f 37/44/25 36/41/25 43/12/25 42/9/25
f 39/40/26 37/45/26 42/8/26 47/5/26
o adult_body_Arm_Left.001
v 0.872892 6.167105 -0.257575 0.6197 0.5569 0.5686
v 1.319713 6.017457 -0.257575 0.8117 0.7294 0.6667
v 0.872892 6.167105 0.257575 0.6197 0.5569 0.5686
v 1.319713 6.017457 0.257575 0.8157 0.7294 0.6628
v 1.560262 3.589064 0.327335 0.4157 0.6824 0.6157
v 1.560262 3.589064 -0.327335 0.4157 0.6824 0.6157
v 1.253042 6.393230 -0.226914 0.8117 0.7294 0.6667
v 1.253042 6.393230 0.226914 0.8157 0.7294 0.6628
v 1.188216 3.400423 0.327335 0.4157 0.6824 0.6157
v 0.843769 6.580466 0.226914 0.6197 0.5569 0.5686
v 1.188216 3.400423 -0.327335 0.4078 0.6706 0.6079
v 0.843769 6.580466 -0.226914 0.6197 0.5569 0.5686
v 1.586399 4.514362 0.380220 0.8157 0.7294 0.6628
v 1.586399 4.514362 -0.380220 0.8157 0.7294 0.6628
v 0.989382 4.513659 -0.380220 0.6197 0.5569 0.5686
v 0.989382 4.513659 0.380220 0.6276 0.5647 0.5725
v 1.499317 4.431252 -0.287615 0.2078 0.3647 0.4118
v 1.112546 4.391283 -0.287615 0.2078 0.3647 0.4118
v 1.499317 4.431252 0.287615 0.2078 0.3647 0.4118
v 1.112546 4.391283 0.287615 0.2078 0.3647 0.4118
v 1.512836 4.444155 0.301992 0.6197 0.5569 0.5686
v 1.093425 4.410282 0.301992 0.6197 0.5569 0.5686
v 1.512836 4.444155 -0.301992 0.6236 0.5647 0.5764
v 1.093425 4.410282 -0.301992 0.6197 0.5569 0.5686
vn 0.0112 0.0788 -0.9968
vn 0.0320 0.0813 -0.9962
vn -0.9975 -0.0703 -0.0000
vn 0.0112 0.0788 0.9968
vn -0.0128 0.0423 -0.9990
vn 0.4522 -0.8919 -0.0000
vn 0.4160 0.9094 -0.0000
vn 0.0320 0.0813 0.9962
vn 0.6904 -0.7234 -0.0000
vn 0.0227 -0.6671 0.7446
vn 0.9846 0.1747 -0.0000
vn -0.7048 -0.7094 -0.0000
vn -0.9971 -0.0761 -0.0000
vn -0.0128 0.0423 0.9990
vn 0.9974 0.0722 -0.0000
vn 0.0607 -0.6624 -0.7467
vn 0.0227 -0.6671 -0.7446
vn 0.0607 -0.6624 0.7467
vt 0.600000 0.250000
vt 0.500000 0.250000
vt 0.625000 0.250000
vt 0.500000 0.000000
vt 0.600000 0.000000
vt 0.500000 0.000000
vt 0.473884 0.250000
vt 0.375000 0.250000
vt 0.375000 0.000000
vt 0.625000 0.000000
vt 0.477938 0.000000
vt 0.477938 0.250000
vt 0.477938 0.000000
vt 0.473883 0.000000
vt 0.473884 0.000000
s 0
usemtl vertex_colors
f 48/46/27 49/46/27 61/47/27 62/47/27
f 59/48/28 54/48/28 49/46/28 48/46/28
f 63/49/29 50/50/29 48/46/29 62/47/29
f 63/49/30 60/51/30 51/50/30 50/50/30
f 65/52/31 64/52/31 53/53/31 58/53/31
f 58/53/32 53/53/32 52/54/32 56/54/32
f 57/55/33 55/55/33 54/48/33 59/48/33
f 50/50/29 57/55/29 59/48/29 48/46/29
f 50/50/34 51/50/34 55/55/34 57/55/34
f 68/56/35 70/57/35 61/47/35 60/51/35
f 69/58/36 68/56/36 60/51/36 63/49/36
f 51/50/37 49/46/37 54/48/37 55/55/37
f 69/58/38 63/49/38 62/47/38 71/57/38
f 56/54/39 67/59/39 65/52/39 58/53/39
f 56/54/40 52/54/40 66/60/40 67/59/40
f 52/54/41 53/53/41 64/52/41 66/60/41
f 71/57/42 70/57/42 64/52/42 65/52/42
f 62/47/43 61/47/43 70/57/43 71/57/43
f 67/59/38 69/58/38 71/57/38 65/52/38
f 67/59/44 66/60/44 68/56/44 69/58/44
f 66/60/35 64/52/35 70/57/35 68/56/35
f 60/51/37 61/47/37 49/46/37 51/50/37
o adult_body_Arm_Right.001
v -1.560262 3.589064 0.327335 0.4157 0.6824 0.6157
v -1.560262 3.589064 -0.327335 0.4157 0.6824 0.6157
v -1.253041 6.393230 -0.226914 0.8117 0.7294 0.6667
v -1.253041 6.393230 0.226914 0.8157 0.7294 0.6628
v -1.188216 3.400423 0.327335 0.4157 0.6824 0.6157
v -0.843769 6.580466 0.226914 0.6197 0.5569 0.5686
v -1.188216 3.400423 -0.327335 0.4078 0.6706 0.6079
v -0.843769 6.580466 -0.226914 0.6197 0.5569 0.5686
v -1.586399 4.514362 0.380220 0.8157 0.7294 0.6628
v -1.586399 4.514362 -0.380220 0.8157 0.7294 0.6628
v -0.989381 4.513659 -0.380220 0.6197 0.5569 0.5686
v -0.989381 4.513659 0.380220 0.6276 0.5647 0.5725
v -1.499316 4.431252 -0.287615 0.2078 0.3647 0.4118
v -1.112546 4.391283 -0.287615 0.2078 0.3647 0.4118
v -1.499316 4.431252 0.287615 0.2078 0.3647 0.4118
v -1.112546 4.391283 0.287615 0.2078 0.3647 0.4118
v -1.512836 4.444155 0.301992 0.6197 0.5569 0.5686
v -1.093425 4.410282 0.301992 0.6197 0.5569 0.5686
v -1.512836 4.444155 -0.301992 0.6236 0.5647 0.5764
v -1.093425 4.410282 -0.301992 0.6197 0.5569 0.5686
v -0.872891 6.167105 -0.257575 0.6197 0.5569 0.5686
v -1.319713 6.017457 -0.257575 0.8117 0.7294 0.6667
v -0.872891 6.167105 0.257575 0.6197 0.5569 0.5686
v -1.319713 6.017457 0.257575 0.8157 0.7294 0.6628
vn 0.0128 0.0423 -0.9990
vn -0.4522 -0.8919 -0.0000
vn -0.4160 0.9094 -0.0000
vn 0.9975 -0.0703 -0.0000
vn -0.0320 0.0813 0.9962
vn -0.6904 -0.7234 -0.0000
vn -0.0227 -0.6671 0.7446
vn -0.9846 0.1747 -0.0000
vn 0.7048 -0.7094 -0.0000
vn 0.9971 -0.0761 -0.0000
vn 0.0128 0.0423 0.9990
vn -0.9974 0.0722 -0.0000
vn -0.0607 -0.6624 -0.7467
vn -0.0227 -0.6671 -0.7446
vn -0.0607 -0.6624 0.7467
vn -0.0320 0.0813 -0.9962
vn -0.0112 0.0788 0.9968
vn -0.0112 0.0788 -0.9968
vt 0.473884 0.250000
vt 0.375000 0.250000
vt 0.375000 0.000000
vt 0.625000 0.000000
vt 0.625000 0.250000
vt 0.600000 0.000000
vt 0.600000 0.250000
vt 0.600000 0.000000
vt 0.477938 0.000000
vt 0.500000 0.000000
vt 0.500000 0.250000
vt 0.477938 0.250000
vt 0.477938 0.000000
vt 0.500000 0.000000
vt 0.473883 0.000000
vt 0.473884 0.000000
s 0
usemtl vertex_colors
f 85/61/45 78/62/45 73/62/45 84/61/45
f 78/62/46 76/63/46 72/63/46 73/62/46
f 77/64/47 79/65/47 74/65/47 75/64/47
f 94/66/48 92/67/48 79/65/48 77/64/48
f 94/66/49 77/64/49 75/64/49 95/68/49
f 88/69/50 80/70/50 81/71/50 90/72/50
f 89/73/51 83/74/51 80/70/51 88/69/51
f 95/68/52 75/64/52 74/65/52 93/67/52
f 89/73/53 91/72/53 82/71/53 83/74/53
f 76/63/54 78/62/54 85/61/54 87/75/54
f 76/63/55 87/75/55 86/76/55 72/63/55
f 72/63/56 86/76/56 84/61/56 73/62/56
f 91/72/57 85/61/57 84/61/57 90/72/57
f 82/71/58 91/72/58 90/72/58 81/71/58
f 87/75/53 85/61/53 91/72/53 89/73/53
f 87/75/59 89/73/59 88/69/59 86/76/59
f 86/76/50 88/69/50 90/72/50 84/61/50
f 79/65/60 92/67/60 93/67/60 74/65/60
f 83/74/48 82/71/48 92/67/48 94/66/48
f 83/74/61 94/66/61 95/68/61 80/70/61
f 80/70/52 95/68/52 93/67/52 81/71/52
f 92/67/62 82/71/62 81/71/62 93/67/62
o adult_body_F_L_head.001
v -0.144530 6.533236 0.144528 0.1059 0.1882 0.2118
v -0.638009 7.098902 0.638007 0.4118 0.6785 0.6118
v -0.144530 6.533236 -0.144532 0.1059 0.1882 0.2118
v -0.511490 7.098902 -0.638011 0.1059 0.1882 0.2118
v 0.195625 6.533236 0.131933 0.1059 0.1882 0.2118
v 0.638009 7.098902 0.638007 0.4039 0.6628 0.6000
v 0.144530 6.533236 -0.144532 0.1059 0.1882 0.2118
v 0.511490 7.098902 -0.638011 0.1059 0.1882 0.2118
v -0.428925 8.307114 0.428923 0.2196 0.3843 0.4235
v -0.428925 8.307114 -0.428927 0.2078 0.3647 0.4118
v 0.428925 8.307114 -0.428927 0.2078 0.3647 0.4118
v 0.428925 8.307114 0.428923 0.2823 0.4745 0.4784
v -0.511490 7.816093 -0.638011 0.2078 0.3647 0.4118
v 0.511490 7.816093 -0.638011 0.2078 0.3647 0.4118
v 0.638009 7.816093 0.638007 0.4157 0.6824 0.6157
v -0.638009 7.816093 0.638007 0.4157 0.6824 0.6157
v 0.000000 8.653944 -0.563038 0.4157 0.6824 0.6157
v 0.000000 8.507736 0.203646 0.4157 0.6824 0.6157
v 0.132448 8.307114 0.428923 0.2823 0.4745 0.4784
v 0.428925 8.307114 -0.428927 0.2078 0.3647 0.4118
v -0.428925 8.307114 -0.428927 0.2078 0.3647 0.4118
v -0.132448 8.307114 0.428923 0.2196 0.3843 0.4235
v 0.247618 7.627323 0.873482 0.0000 0.0000 0.0000
v 0.188793 7.771061 0.731909 0.2078 0.3647 0.4118
v 0.183427 7.784173 0.704275 0.4157 0.6824 0.6157
v 0.369359 7.597549 0.873482 0.0000 0.0000 0.0000
v 0.487884 7.697913 0.731909 0.2078 0.3647 0.4118
v 0.498696 7.707067 0.704275 0.4157 0.6824 0.6157
v 0.378663 7.472566 0.873482 0.0235 0.0235 0.0235
v 0.510740 7.390856 0.731909 0.2078 0.3647 0.4118
v 0.522788 7.383403 0.704275 0.4157 0.6824 0.6157
v 0.287999 7.528655 0.906276 0.0000 0.0000 0.0000
v 0.262671 7.425096 0.873482 0.0000 0.0000 0.0000
v 0.225775 7.274233 0.731909 0.2078 0.3647 0.4118
v 0.222409 7.260472 0.704275 0.4157 0.6824 0.6157
v 0.181681 7.520741 0.873482 0.0118 0.0118 0.0118
v 0.026801 7.509213 0.731909 0.2078 0.3647 0.4118
v 0.012673 7.508162 0.704275 0.4157 0.6824 0.6157
v 0.194526 7.757053 0.759046 1.0000 1.0000 1.0000
v 0.476333 7.688132 0.759046 1.0000 1.0000 1.0000
v 0.497868 7.398819 0.759046 1.0000 1.0000 1.0000
v 0.229370 7.288936 0.759046 1.0000 1.0000 1.0000
v 0.041895 7.510336 0.759046 1.0000 1.0000 1.0000
v -0.328279 7.413632 0.838332 0.0000 0.0000 0.0000
v -0.389737 7.504713 0.738174 0.2078 0.3647 0.4118
v -0.395343 7.513021 0.704275 0.4157 0.6785 0.6157
v -0.239666 7.410553 0.838332 0.0000 0.0000 0.0000
v -0.172034 7.497149 0.738174 0.2078 0.3647 0.4118
v -0.165865 7.505047 0.704275 0.4157 0.6824 0.6157
v -0.215212 7.325326 0.838332 0.0235 0.0235 0.0235
v -0.111955 7.287764 0.738174 0.2078 0.3647 0.4118
v -0.102537 7.284337 0.704275 0.4157 0.6824 0.6157
v -0.286092 7.351110 0.861533 0.0000 0.0000 0.0000
v -0.288711 7.275732 0.838332 0.0000 0.0000 0.0000
v -0.292527 7.165922 0.738174 0.2078 0.3647 0.4118
v -0.292875 7.155905 0.704275 0.4157 0.6824 0.6157
v -0.358590 7.330308 0.838332 0.0118 0.0118 0.0118
v -0.464205 7.300004 0.738174 0.2078 0.3647 0.4118
v -0.473839 7.297240 0.704275 0.4157 0.6824 0.6157
v -0.383747 7.495837 0.757372 1.0000 1.0000 1.0000
v -0.178625 7.488709 0.757372 1.0000 1.0000 1.0000
v -0.122018 7.291424 0.757372 1.0000 1.0000 1.0000
v -0.292155 7.176623 0.757372 1.0000 1.0000 1.0000
v -0.453912 7.302958 0.757372 1.0000 1.0000 1.0000
v -0.210351 7.713878 0.823546 0.0000 0.0000 0.0000
v -0.264828 7.772291 0.750737 0.2078 0.3647 0.4118
v -0.269797 7.777619 0.704275 0.4157 0.6824 0.6157
v -0.146376 7.721737 0.823546 0.0000 0.0000 0.0000
v -0.107656 7.791599 0.750737 0.2078 0.3647 0.4118
v -0.104125 7.797972 0.704275 0.4157 0.6824 0.6157
v -0.119132 7.663322 0.823546 0.0235 0.0235 0.0235
v -0.040725 7.648087 0.750737 0.2078 0.3647 0.4118
v -0.033573 7.646697 0.704275 0.4157 0.6824 0.6157
v -0.172955 7.673781 0.840412 0.0000 0.0000 0.0000
v -0.166269 7.619361 0.823546 0.0000 0.0000 0.0000
v -0.156530 7.540083 0.750737 0.2078 0.3647 0.4118
v -0.155642 7.532851 0.704275 0.4157 0.6824 0.6157
v -0.222645 7.650606 0.823546 0.0118 0.0118 0.0118
v -0.295034 7.616846 0.750737 0.2078 0.3647 0.4118
v -0.301637 7.613766 0.704275 0.4157 0.6824 0.6157
v -0.259519 7.766598 0.764693 1.0000 1.0000 1.0000
v -0.111430 7.784791 0.764693 1.0000 1.0000 1.0000
v -0.048366 7.649571 0.764693 1.0000 1.0000 1.0000
v -0.157479 7.547809 0.764693 1.0000 1.0000 1.0000
v -0.287979 7.620135 0.764693 1.0000 1.0000 1.0000
v 0.239798 7.646432 0.856625 0.8117 0.8431 0.7490
v 0.385116 7.610892 0.856625 0.8196 0.8509 0.7568
v 0.396221 7.461703 0.856625 0.8157 0.8470 0.7529
v 0.257766 7.405040 0.856625 0.8196 0.8509 0.7568
v 0.161091 7.519209 0.856625 0.8196 0.8509 0.7568
v -0.215405 7.719297 0.817496 0.8196 0.8509 0.7568
v -0.142784 7.728219 0.817496 0.8196 0.8509 0.7568
v -0.111858 7.661909 0.817496 0.8196 0.8509 0.7568
v -0.165366 7.612006 0.817496 0.8196 0.8509 0.7568
v -0.229361 7.647474 0.817496 0.8196 0.8509 0.7568
v -0.334733 7.423197 0.828912 0.8941 0.9294 0.8235
v -0.232564 7.419647 0.828912 0.8196 0.8509 0.7568
v -0.204368 7.321381 0.828912 0.8862 0.9176 0.8117
v -0.289112 7.264200 0.828912 0.8196 0.8509 0.7568
v -0.369681 7.327126 0.828912 0.8196 0.8509 0.7568
v -0.349822 7.850766 -0.638498 0.2078 0.3647 0.4118
v 0.019084 7.923696 -1.097692 0.4118 0.6745 0.6118
v 0.391526 7.850766 -0.638498 0.2078 0.3647 0.4118
v -0.329961 6.978760 -0.766640 0.2078 0.3647 0.4118
v 0.006466 7.137380 -1.229162 0.3686 0.6079 0.5647
v 0.297093 7.240590 -0.831972 0.2078 0.3647 0.4118
v 0.180159 6.671244 -0.751403 0.2078 0.3647 0.4118
v 0.474751 6.762599 -1.106672 0.4157 0.6824 0.6157
v 0.429253 7.138295 -0.848700 0.2078 0.3647 0.4118
v 0.386609 6.651329 -0.725320 0.2078 0.3647 0.4118
v 0.813747 6.732823 -0.702766 0.2078 0.3647 0.4118
v 0.588255 7.027536 -0.699998 0.2745 0.4667 0.4706
v 0.510898 6.688423 0.332200 0.2078 0.3647 0.4118
v 0.934637 6.791408 0.187138 0.2078 0.3647 0.4118
v 0.709145 7.086121 0.189906 0.4157 0.6824 0.6157
v 0.573896 6.452728 0.411437 0.2078 0.3647 0.4118
v 0.941888 6.539176 0.460521 0.2078 0.3647 0.4118
v 0.744290 6.839053 0.699159 0.4118 0.6785 0.6118
v 0.702305 5.988159 0.546697 0.2078 0.3647 0.4118
v 0.860398 6.010521 0.565995 0.2078 0.3647 0.4118
v 0.769301 6.075226 0.659824 0.4157 0.6824 0.6157
v 0.777335 5.629746 0.590839 0.1373 0.2392 0.2706
vn -0.7943 -0.6041 -0.0642
vn -0.0000 -0.6574 -0.7536
vn 0.8103 -0.5786 -0.0927
vn 0.0058 -0.6620 0.7495
vn -0.0000 -1.0000 -0.0000
vn -0.0000 0.3918 -0.9201
vn -0.0000 1.0000 -0.0000
vn 0.9571 0.2842 -0.0567
vn -0.9571 0.2842 -0.0567
vn -0.0000 0.3918 0.9201
vn -0.0000 -0.0000 1.0000
vn -0.9951 -0.0000 -0.0987
vn 0.9951 -0.0000 -0.0987
vn -0.0000 -0.0000 -1.0000
vn 0.5926 0.7912 0.1509
vn -0.6714 0.7038 0.2320
vn -0.0000 0.7468 0.6651
vn 0.2194 0.8973 0.3831
vn 0.0844 0.3452 0.9347
vn 0.1687 0.6900 0.7039
vn 0.3544 0.0264 0.9347
vn 0.7083 0.0527 0.7039
vn 0.9212 0.0686 0.3831
vn 0.3499 -0.8549 0.3831
vn 0.1346 -0.3289 0.9347
vn 0.2690 -0.6574 0.7039
vn -0.7049 -0.5969 0.3831
vn -0.2712 -0.2297 0.9347
vn -0.5421 -0.4590 0.7039
vn -0.7855 0.4860 0.3831
vn -0.3022 0.1870 0.9347
vn -0.6041 0.3737 0.7039
vn -0.7752 0.4796 0.4113
vn -0.6956 -0.5890 0.4113
vn 0.3452 -0.8436 0.4113
vn 0.9090 0.0677 0.4113
vn 0.2165 0.8854 0.4113
vn 0.0338 0.9720 0.2326
vn 0.0123 0.3552 0.9347
vn 0.0247 0.7099 0.7039
vn 0.3416 0.0980 0.9347
vn 0.6828 0.1959 0.7039
vn 0.9348 0.2682 0.2326
vn 0.5440 -0.8062 0.2326
vn 0.1988 -0.2946 0.9347
vn 0.3973 -0.5888 0.7039
vn -0.5986 -0.7665 0.2326
vn -0.2188 -0.2801 0.9347
vn -0.4372 -0.5598 0.7039
vn -0.9140 0.3325 0.2326
vn -0.3340 0.1215 0.9347
vn -0.6675 0.2428 0.7039
vn -0.8566 0.3116 0.4113
vn -0.5611 -0.7184 0.4113
vn 0.5098 -0.7556 0.4113
vn 0.8762 0.2514 0.4113
vn 0.0317 0.9110 0.4113
vn -0.1210 0.9846 0.1259
vn -0.0433 0.3528 0.9347
vn -0.0866 0.7050 0.7039
vn 0.3221 0.1502 0.9347
vn 0.6437 0.3002 0.7039
vn 0.8991 0.4193 0.1259
vn 0.6766 -0.7255 0.1259
vn 0.2424 -0.2599 0.9347
vn 0.4845 -0.5195 0.7039
vn -0.4809 -0.8677 0.1259
vn -0.1723 -0.3109 0.9347
vn -0.3443 -0.6213 0.7039
vn -0.9738 0.1892 0.1259
vn -0.3489 0.0678 0.9347
vn -0.6973 0.1355 0.7039
vn -0.8948 0.1739 0.4113
vn -0.4419 -0.7972 0.4113
vn 0.6217 -0.6666 0.4113
vn 0.8261 0.3853 0.4113
vn -0.1111 0.9047 0.4113
vn 0.6714 0.7038 0.2320
vn -0.5926 0.7912 0.1509
vn 0.6710 0.3865 -0.6328
vn -0.6708 0.3534 -0.6520
vn -0.0000 -0.4173 0.9088
vn 0.0877 -0.2154 0.9726
vn 0.7866 0.0821 -0.6120
vn -0.8017 0.0890 -0.5911
vn 0.0810 0.1233 0.9891
vn 0.5535 0.5600 -0.6164
vn -0.4251 -0.7203 -0.5482
vn -0.3399 0.2588 0.9041
vn 0.7072 0.4857 -0.5138
vn 0.1129 -0.9605 -0.2542
vn -0.8788 0.4692 0.0868
vn 0.7850 0.6020 -0.1463
vn 0.2147 -0.9765 0.0209
vn -0.8358 -0.0393 0.5477
vn 0.7735 0.5896 0.2327
vn 0.0406 -0.5814 -0.8126
vn -0.8265 -0.0595 0.5598
vn 0.7553 0.0005 0.6553
vn 0.1711 -0.2244 -0.9593
vn -0.8195 -0.1021 0.5639
vn 0.6783 -0.1005 0.7279
vn 0.1337 -0.0935 -0.9866
vn -0.8052 0.5098 0.3029
vn 0.8887 0.3485 0.2980
vn -0.8804 0.4659 0.0889
vn 0.4677 0.0108 0.8838
vn 0.0083 0.9371 0.3489
vn 0.1022 0.4180 0.9027
vn 0.0298 -0.5112 0.8589
vn 0.0799 -0.1953 0.9775
vn -0.3037 0.0256 0.9524
vn -0.1511 0.0717 0.9859
vn -0.0760 0.6189 0.7818
vn -0.1535 -0.1965 0.9684
vt 0.375000 0.000000
vt 0.625000 0.000000
vt 0.625000 0.250000
vt 0.375000 0.250000
vt 0.625000 0.500000
vt 0.375000 0.500000
vt 0.625000 0.750000
vt 0.375000 0.750000
vt 0.625000 1.000000
vt 0.375000 1.000000
vt 0.125000 0.500000
vt 0.125000 0.750000
vt 0.875000 0.500000
vt 0.875000 0.750000
vt 0.800000 0.250000
vt 0.600000 0.250000
vt 0.200000 0.250000
vt 0.000000 0.250000
vt 0.600000 0.500000
vt 0.400000 0.500000
vt 0.400000 0.250000
vt 0.600000 0.750000
vt 0.500000 1.000000
vt 0.400000 0.750000
vt 0.600000 0.720441
vt 0.400000 0.720441
vt 0.300000 1.000000
vt 0.200000 0.750000
vt 0.200000 0.720441
vt 0.200000 0.500000
vt 0.000000 0.500000
vt 0.100000 1.000000
vt 0.000000 0.750000
vt 0.000000 0.720441
vt 1.000000 0.250000
vt 1.000000 0.500000
vt 0.800000 0.500000
vt 1.000000 0.750000
vt 0.900000 1.000000
vt 0.800000 0.750000
vt 1.000000 0.720441
vt 0.800000 0.720441
vt 0.700000 1.000000
vt 0.800000 0.549324
vt 0.600000 0.549324
vt 1.000000 0.549324
vt 0.200000 0.549324
vt 0.000000 0.549324
vt 0.400000 0.549324
vt 0.600000 0.726651
vt 0.400000 0.726651
vt 0.200000 0.726651
vt 0.000000 0.726651
vt 1.000000 0.726651
vt 0.800000 0.726651
vt 0.600000 0.729372
vt 0.400000 0.729372
vt 0.200000 0.729372
vt 0.000000 0.729372
vt 1.000000 0.729372
vt 0.800000 0.729372
s 0
usemtl vertex_colors
f 96/77/63 97/78/63 99/79/63 98/80/63
f 98/80/64 99/79/64 103/81/64 102/82/64
f 102/82/65 103/81/65 101/83/65 100/84/65
f 100/84/66 101/83/66 97/85/66 96/86/66
f 98/87/67 102/82/67 100/84/67 96/88/67
f 109/81/68 108/79/68 105/79/68 106/81/68
f 106/81/69 105/89/69 104/90/69 107/83/69
f 110/83/70 109/81/70 106/81/70 107/83/70
f 108/79/71 111/78/71 104/78/71 105/79/71
f 111/85/72 110/83/72 107/83/72 104/85/72
f 133/91/73 120/92/73 168/93/73 172/94/73
f 99/79/74 97/78/74 111/78/74 108/79/74
f 101/83/75 103/81/75 109/81/75 110/83/75
f 103/81/76 99/79/76 108/79/76 109/81/76
f 115/81/77 112/81/77 113/83/77
f 116/89/78 117/90/78 113/90/78
f 117/90/79 114/83/79 113/90/79
f 120/92/80 119/95/80 122/96/80 123/97/80
f 118/98/81 127/99/81 121/100/81
f 181/101/82 118/98/82 121/100/82 182/102/82
f 121/100/83 127/103/83 124/104/83
f 182/102/84 121/100/84 124/104/84 183/105/84
f 123/97/85 122/96/85 125/106/85 126/93/85
f 126/93/86 125/106/86 129/107/86 130/94/86
f 124/104/87 127/108/87 128/109/87
f 183/105/88 124/104/88 128/109/88 184/110/88
f 130/111/89 129/112/89 132/113/89 133/91/89
f 128/114/90 127/115/90 131/116/90
f 184/117/91 128/114/91 131/116/91 185/118/91
f 133/91/92 132/113/92 119/95/92 120/92/92
f 131/116/93 127/119/93 118/98/93
f 185/118/94 131/116/94 118/98/94 181/101/94
f 132/113/95 138/120/95 134/121/95 119/95/95
f 129/112/96 137/122/96 138/120/96 132/113/96
f 125/106/97 136/123/97 137/124/97 129/107/97
f 122/96/98 135/125/98 136/123/98 125/106/98
f 119/95/99 134/121/99 135/125/99 122/96/99
f 141/92/100 140/95/100 143/96/100 144/97/100
f 139/98/101 148/99/101 142/100/101
f 191/126/102 139/98/102 142/100/102 192/127/102
f 142/100/103 148/103/103 145/104/103
f 192/127/104 142/100/104 145/104/104 193/128/104
f 144/97/105 143/96/105 146/106/105 147/93/105
f 147/93/106 146/106/106 150/107/106 151/94/106
f 145/104/107 148/108/107 149/109/107
f 193/128/108 145/104/108 149/109/108 194/129/108
f 151/111/109 150/112/109 153/113/109 154/91/109
f 149/114/110 148/115/110 152/116/110
f 194/130/111 149/114/111 152/116/111 195/131/111
f 154/91/112 153/113/112 140/95/112 141/92/112
f 152/116/113 148/119/113 139/98/113
f 195/131/114 152/116/114 139/98/114 191/126/114
f 153/113/115 159/120/115 155/121/115 140/95/115
f 150/112/116 158/122/116 159/120/116 153/113/116
f 146/106/117 157/123/117 158/124/117 150/107/117
f 143/96/118 156/125/118 157/123/118 146/106/118
f 140/95/119 155/121/119 156/125/119 143/96/119
f 162/92/120 161/95/120 164/96/120 165/97/120
f 160/98/121 169/99/121 163/100/121
f 186/132/122 160/98/122 163/100/122 187/133/122
f 163/100/123 169/103/123 166/104/123
f 187/133/124 163/100/124 166/104/124 188/134/124
f 165/97/125 164/96/125 167/106/125 168/93/125
f 168/93/126 167/106/126 171/107/126 172/94/126
f 166/104/127 169/108/127 170/109/127
f 188/134/128 166/104/128 170/109/128 189/135/128
f 172/111/129 171/112/129 174/113/129 175/91/129
f 170/114/130 169/115/130 173/116/130
f 189/136/131 170/114/131 173/116/131 190/137/131
f 175/91/132 174/113/132 161/95/132 162/92/132
f 173/116/133 169/119/133 160/98/133
f 190/137/134 173/116/134 160/98/134 186/132/134
f 174/113/135 180/120/135 176/121/135 161/95/135
f 171/112/136 179/122/136 180/120/136 174/113/136
f 167/106/137 178/123/137 179/124/137 171/107/137
f 164/96/138 177/125/138 178/123/138 167/106/138
f 161/95/139 176/121/139 177/125/139 164/96/139
f 138/120/94 185/118/94 181/101/94 134/121/94
f 137/122/91 184/117/91 185/118/91 138/120/91
f 136/123/88 183/105/88 184/110/88 137/124/88
f 135/125/84 182/102/84 183/105/84 136/123/84
f 134/121/82 181/101/82 182/102/82 135/125/82
f 180/120/134 190/137/134 186/132/134 176/121/134
f 179/122/131 189/136/131 190/137/131 180/120/131
f 178/123/128 188/134/128 189/135/128 179/124/128
f 177/125/124 187/133/124 188/134/124 178/123/124
f 176/121/122 186/132/122 187/133/122 177/125/122
f 159/120/114 195/131/114 191/126/114 155/121/114
f 158/122/111 194/130/111 195/131/111 159/120/111
f 157/123/108 193/128/108 194/129/108 158/124/108
f 156/125/104 192/127/104 193/128/104 157/123/104
f 155/121/102 191/126/102 192/127/102 156/125/102
f 114/83/140 115/81/140 113/83/140
f 112/89/141 116/89/141 113/90/141
f 112/81/142 115/81/142 198/81/142 197/81/142
f 116/89/143 112/89/143 197/89/143 196/89/143
f 116/89/144 196/89/144 198/81/144 115/81/144
f 198/81/145 196/89/145 199/89/145 201/81/145
f 197/81/146 198/81/146 201/81/146 200/81/146
f 196/89/147 197/89/147 200/89/147 199/89/147
f 201/81/148 199/89/148 202/89/148 204/81/148
f 200/81/149 201/81/149 204/81/149 203/81/149
f 199/89/150 200/89/150 203/89/150 202/89/150
f 204/81/151 202/89/151 205/89/151 207/81/151
f 203/81/152 204/81/152 207/81/152 206/81/152
f 202/89/153 203/89/153 206/89/153 205/89/153
f 205/89/154 208/89/154 210/81/154
f 206/81/155 207/81/155 210/81/155
f 205/89/156 206/89/156 209/89/156 208/89/156
f 208/89/157 211/89/157 213/81/157
f 209/81/158 210/81/158 213/81/158
f 208/89/159 209/89/159 212/89/159 211/89/159
f 213/81/160 211/89/160 214/89/160 216/81/160
f 212/81/161 213/81/161 216/81/161 215/81/161
f 211/89/162 212/89/162 215/89/162 214/89/162
f 216/81/163 214/89/163 217/81/163
f 215/81/164 216/81/164 217/81/164
f 214/89/165 215/89/165 217/89/165
f 210/81/166 208/89/166 213/81/166
f 212/81/167 209/81/167 213/81/167
f 207/81/168 205/89/168 210/81/168
f 209/81/155 206/81/155 210/81/155
f 168/93/73 120/92/73 165/97/73
f 130/111/73 133/91/73 144/97/73 147/93/73
f 172/94/73 144/97/73 133/91/73
f 141/92/73 144/97/73 172/111/73 175/91/73
f 147/93/73 151/94/73 130/111/73
f 101/83/169 110/83/169 123/97/169 126/93/169
f 110/83/170 111/85/170 165/97/170 120/92/170
f 123/97/171 110/83/171 120/92/171
f 101/83/172 130/111/172 151/94/172 97/85/172
f 130/111/173 101/83/173 126/93/173
f 111/78/174 97/78/174 154/91/174 141/92/174
f 175/91/175 162/92/175 111/78/175 141/92/175
f 165/97/176 111/85/176 162/92/176
f 151/94/177 154/91/177 97/85/177
o adult_body_Feet_Right.001
v -0.392443 1.788869 -0.539819 0.3568 0.2902 0.4078
v -0.392443 1.788869 0.539819 0.3568 0.2902 0.4078
v -0.985410 1.788869 -0.539819 0.3568 0.2902 0.4078
v -0.985410 1.788869 0.539819 0.3568 0.2902 0.4078
v -0.875005 0.000000 -0.227668 0.1255 0.1255 0.1804
v -0.875005 0.000000 0.227668 0.1255 0.1255 0.1804
v -0.502848 0.000000 -0.227668 0.1255 0.1255 0.1804
v -0.502848 0.000000 0.227668 0.1255 0.1255 0.1804
v -0.979276 1.299222 0.522477 0.2157 0.2118 0.3059
v -0.398577 1.299222 0.522477 0.2157 0.2118 0.3059
v -0.979276 1.299222 -0.522477 0.2157 0.2118 0.3059
v -0.398577 1.299222 -0.522477 0.2157 0.2118 0.3059
vn -0.0000 -1.0000 -0.0000
vn -0.0000 -0.2213 0.9752
vn -0.9968 -0.0800 -0.0000
vn 0.9968 -0.0800 -0.0000
vn -0.0000 -0.2213 -0.9752
vn -0.0000 -0.0354 -0.9994
vn 0.9999 -0.0125 -0.0000
vn -0.9999 -0.0125 -0.0000
vn -0.0000 -0.0354 0.9994
vt 0.125000 0.500000
vt 0.375000 0.500000
vt 0.375000 0.750000
vt 0.125000 0.750000
vt 0.125000 0.750000
s 0
usemtl vertex_colors
f 222/138/178 224/139/178 225/140/178 223/141/178
f 227/140/179 226/142/179 223/141/179 225/140/179
f 226/142/180 228/138/180 222/138/180 223/141/180
f 229/139/181 227/140/181 225/140/181 224/139/181
f 228/138/182 229/139/182 224/139/182 222/138/182
f 220/138/183 218/139/183 229/139/183 228/138/183
f 218/139/184 219/140/184 227/140/184 229/139/184
f 221/141/185 220/138/185 228/138/185 226/142/185
f 219/140/186 221/141/186 226/142/186 227/140/186
o adult_body_Feet_Left.001
v 0.392443 1.788869 -0.539819 0.3568 0.2902 0.4078
v 0.392443 1.788869 0.539819 0.3568 0.2902 0.4078
v 0.985409 1.788869 -0.539819 0.3568 0.2902 0.4078
v 0.985409 1.788869 0.539819 0.3568 0.2902 0.4078
v 0.875005 0.000000 -0.227668 0.1255 0.1255 0.1804
v 0.875005 0.000000 0.227668 0.1255 0.1255 0.1804
v 0.502847 0.000000 -0.227668 0.1255 0.1255 0.1804
v 0.502847 0.000000 0.227668 0.1255 0.1255 0.1804
v 0.979275 1.299222 0.522477 0.2157 0.2118 0.3059
v 0.398576 1.299222 0.522477 0.2157 0.2118 0.3059
v 0.979275 1.299222 -0.522477 0.2157 0.2118 0.3059
v 0.398576 1.299222 -0.522477 0.2157 0.2118 0.3059
vn -0.0000 -1.0000 -0.0000
vn -0.0000 -0.2213 0.9752
vn 0.9968 -0.0800 -0.0000
vn -0.9968 -0.0800 -0.0000
vn -0.0000 -0.2213 -0.9752
vn -0.0000 -0.0354 -0.9994
vn -0.9999 -0.0125 -0.0000
vn 0.9999 -0.0125 -0.0000
vn -0.0000 -0.0354 0.9994
vt 0.125000 0.500000
vt 0.125000 0.750000
vt 0.375000 0.750000
vt 0.375000 0.500000
vt 0.125000 0.750000
s 0
usemtl vertex_colors
f 234/143/187 235/144/187 237/145/187 236/146/187
f 239/145/188 237/145/188 235/144/188 238/147/188
f 238/147/189 235/144/189 234/143/189 240/143/189
f 241/146/190 236/146/190 237/145/190 239/145/190
f 240/143/191 234/143/191 236/146/191 241/146/191
f 232/143/192 240/143/192 241/146/192 230/146/192
f 230/146/193 241/146/193 239/145/193 231/145/193
f 233/144/194 238/147/194 240/143/194 232/143/194
f 231/145/195 239/145/195 238/147/195 233/144/195
