# Blender 4.4.3
# www.blender.org
mtllib adult_male_L.mtl
o adult_body_F_L.002
v -0.882932 6.619479 -0.331316 0.8157 0.7294 0.6628
v -1.134220 1.361756 -0.711127 0.3568 0.2902 0.4078
v -0.882932 6.619479 0.231385 0.8157 0.7294 0.6628
v -1.134220 1.361756 0.595614 0.3568 0.2902 0.4078
v -0.617234 1.361756 -0.780132 0.3568 0.2902 0.4078
v -0.421176 6.619479 0.284811 0.6197 0.5569 0.5686
v -0.622152 1.361756 0.631290 0.3568 0.2902 0.4078
v -0.421176 6.619479 -0.433856 0.6197 0.5569 0.5686
v -0.332417 6.619479 0.295081 0.3843 0.3176 0.4235
v -0.304144 6.619479 -0.327914 0.6197 0.5569 0.5686
v -1.326482 1.361756 -1.000000 0.9529 0.9098 0.8274
v -1.326482 1.361756 0.900069 0.8902 0.8274 0.7529
v -0.627590 1.361756 -1.102540 0.9568 0.9137 0.8313
v -0.627590 1.361756 0.953495 0.9137 0.8627 0.7843
v -0.925537 6.160530 0.295614 0.8196 0.7333 0.6667
v -0.925537 6.160530 -0.395545 0.8157 0.7294 0.6628
v -0.441003 6.160530 -0.498085 0.8196 0.7372 0.6706
v -0.441003 6.160530 0.349040 0.8157 0.7294 0.6628
v 0.882931 6.619479 -0.331316 0.8157 0.7294 0.6628
v 1.134220 1.361756 -0.711127 0.3568 0.2902 0.4078
v 0.882931 6.619479 0.231385 0.8157 0.7294 0.6628
v 1.134220 1.361756 0.595614 0.3568 0.2902 0.4078
v -0.000000 1.361756 -1.191795 0.9372 0.8862 0.8078
v -0.000000 6.619479 0.331316 0.2157 0.2118 0.3059
v -0.000000 1.361756 1.000000 0.9568 0.9137 0.8313
v -0.000000 6.619479 -0.523111 0.6197 0.5569 0.5686
v 0.617233 1.361756 -0.780132 0.3568 0.2902 0.4078
v 0.421176 6.619479 0.284811 0.6197 0.5569 0.5686
v 0.622151 1.361756 0.631290 0.3568 0.2902 0.4078
v 0.421176 6.619479 -0.433856 0.6197 0.5569 0.5686
v -0.000000 5.476029 0.491340 0.6197 0.5569 0.5686
v -0.000000 5.668184 0.464448 0.3568 0.2902 0.4078
v 0.332416 6.619479 0.295081 0.3843 0.3176 0.4235
v -0.000000 6.619479 -0.440725 0.3568 0.2902 0.4078
v 0.304143 6.619479 -0.327914 0.6197 0.5569 0.5686
v 1.326481 1.361756 -1.000000 0.9529 0.9098 0.8274
v 1.326481 1.361756 0.900069 0.8902 0.8274 0.7529
v 0.627589 1.361756 -1.102540 0.9568 0.9137 0.8313
v 0.627589 1.361756 0.953495 0.9137 0.8627 0.7843
v -0.000000 1.361756 0.661251 0.3568 0.2902 0.4078
v -0.000000 1.361756 -0.837103 0.3568 0.2902 0.4078
v 0.925536 6.160530 0.295614 0.8196 0.7333 0.6667
v 0.925536 6.160530 -0.395545 0.8157 0.7294 0.6628
v -0.000000 6.160530 -0.587340 0.8392 0.7608 0.6902
v -0.000000 5.126911 0.540198 0.8157 0.7294 0.6628
v 0.441002 6.160530 -0.498085 0.8196 0.7372 0.6706
v 0.441002 6.160530 0.349040 0.8157 0.7294 0.6628
vn -0.0000 1.0000 -0.0000
vn -0.1110 0.1451 0.9832
vn -0.9957 0.0924 -0.0000
vn -0.2007 0.1400 -0.9696
vn -0.0000 -1.0000 -0.0000
vn -0.2094 0.1495 -0.9663
vn -0.1001 0.1403 0.9850
vn -0.1113 0.1366 0.9844
vn -0.1073 0.1378 0.9846
vn -0.0988 0.1248 0.9872
vn -0.1692 0.1334 -0.9765
vn -0.1634 0.1264 -0.9784
vn -0.9965 0.0833 -0.0000
vn -0.0892 0.1298 0.9875
vn 0.1110 0.1451 0.9832
vn 0.9957 0.0924 -0.0000
vn 0.2007 0.1400 -0.9696
vn 0.2094 0.1495 -0.9663
vn 0.1001 0.1403 0.9850
vn 0.1113 0.1366 0.9844
vn 0.1073 0.1378 0.9846
vn 0.0988 0.1248 0.9872
vn 0.1692 0.1334 -0.9765
vn 0.1634 0.1264 -0.9784
vn 0.9965 0.0833 -0.0000
vn 0.0892 0.1298 0.9875
vt 0.808171 0.500000
vt 0.875000 0.500000
vt 0.875000 0.750000
vt 0.808171 0.750000
vt 0.600987 0.933171
vt 0.625000 0.933171
vt 0.625000 1.000000
vt 0.600987 1.000000
vt 0.600987 0.000000
vt 0.625000 0.000000
vt 0.625000 0.250000
vt 0.600987 0.250000
vt 0.600987 0.316829
vt 0.625000 0.316829
vt 0.625000 0.375000
vt 0.600987 0.375000
vt 0.192819 0.508726
vt 0.243178 0.508354
vt 0.243178 0.741698
vt 0.192349 0.741324
vt 0.131822 0.509249
vt 0.131822 0.740804
vt 0.546905 0.875000
vt 0.565172 0.875000
vt 0.750000 0.500000
vt 0.791233 0.542762
vt 0.750000 0.524106
vt 0.575226 0.875000
vt 0.625000 0.920325
vt 0.625000 0.875000
vt 0.795325 0.750000
vt 0.750000 0.750000
vt 0.125000 0.750000
vt 0.125000 0.500000
vt 0.191829 0.500000
vt 0.250000 0.750000
vt 0.191829 0.750000
vt 0.250000 0.500000
vt 0.375000 0.875000
vt 0.375000 0.933171
vt 0.375000 0.250000
vt 0.375000 0.316829
vt 0.375000 0.375000
vt 0.375000 0.000000
vt 0.375000 1.000000
s 0
usemtl vertex_colors
f 8/1/1 1/2/1 3/3/1 6/4/1
f 18/5/2 6/6/2 3/7/2 15/8/2
f 15/9/3 3/10/3 1/11/3 16/12/3
f 17/13/4 8/14/4 26/15/4 44/16/4
f 5/17/5 41/18/5 40/19/5 7/20/5
f 2/21/5 5/17/5 7/20/5 4/22/5
f 16/12/6 1/11/6 8/14/6 17/13/6
f 45/23/7 31/24/7 6/6/7 18/5/7
f 26/25/1 8/1/1 10/26/1 34/27/1
f 6/6/8 31/24/8 32/28/8 9/29/8
f 9/29/9 32/28/9 24/30/9
f 34/27/1 10/26/1 9/31/1 24/32/1
f 10/26/1 8/1/1 6/4/1 9/31/1
f 2/21/5 4/22/5 12/33/5 11/34/5
f 5/17/5 2/21/5 11/34/5 13/35/5
f 7/20/5 40/19/5 25/36/5 14/37/5
f 41/18/5 5/17/5 13/35/5 23/38/5
f 4/22/5 7/20/5 14/37/5 12/33/5
f 25/39/10 45/23/10 18/5/10 14/40/10
f 11/41/11 16/12/11 17/13/11 13/42/11
f 13/42/12 17/13/12 44/16/12 23/43/12
f 12/44/13 15/9/13 16/12/13 11/41/13
f 14/40/14 18/5/14 15/8/14 12/45/14
f 30/1/1 28/4/1 21/3/1 19/2/1
f 47/5/15 42/8/15 21/7/15 28/6/15
f 42/9/16 43/12/16 19/11/16 21/10/16
f 46/13/17 44/16/17 26/15/17 30/14/17
f 27/17/5 29/20/5 40/19/5 41/18/5
f 20/21/5 22/22/5 29/20/5 27/17/5
f 43/12/18 46/13/18 30/14/18 19/11/18
f 45/23/19 47/5/19 28/6/19 31/24/19
f 26/25/1 34/27/1 35/26/1 30/1/1
f 28/6/20 33/29/20 32/28/20 31/24/20
f 33/29/21 24/30/21 32/28/21
f 34/27/1 24/32/1 33/31/1 35/26/1
f 35/26/1 33/31/1 28/4/1 30/1/1
f 20/21/5 36/34/5 37/33/5 22/22/5
f 27/17/5 38/35/5 36/34/5 20/21/5
f 29/20/5 39/37/5 25/36/5 40/19/5
f 41/18/5 23/38/5 38/35/5 27/17/5
f 22/22/5 37/33/5 39/37/5 29/20/5
f 25/39/22 39/40/22 47/5/22 45/23/22
f 36/41/23 38/42/23 46/13/23 43/12/23
f 38/42/24 23/43/24 44/16/24 46/13/24
f 37/44/25 36/41/25 43/12/25 42/9/25
f 39/40/26 37/45/26 42/8/26 47/5/26
o adult_body_Arm_Left.002
v 0.872892 6.167105 -0.257575 0.6197 0.5569 0.5686
v 1.319713 6.017457 -0.257575 0.8117 0.7294 0.6667
v 0.872892 6.167105 0.257575 0.6197 0.5569 0.5686
v 1.319713 6.017457 0.257575 0.8157 0.7294 0.6628
v 1.560262 3.589064 0.327335 0.4157 0.6824 0.6157
v 1.560262 3.589064 -0.327335 0.4157 0.6824 0.6157
v 1.253042 6.393230 -0.226914 0.8117 0.7294 0.6667
v 1.253042 6.393230 0.226914 0.8157 0.7294 0.6628
v 1.188216 3.400423 0.327335 0.4157 0.6824 0.6157
v 0.843769 6.580466 0.226914 0.6197 0.5569 0.5686
v 1.188216 3.400423 -0.327335 0.4078 0.6706 0.6079
v 0.843769 6.580466 -0.226914 0.6197 0.5569 0.5686
v 1.586399 4.514362 0.380220 0.8157 0.7294 0.6628
v 1.586399 4.514362 -0.380220 0.8157 0.7294 0.6628
v 0.989382 4.513659 -0.380220 0.6197 0.5569 0.5686
v 0.989382 4.513659 0.380220 0.6276 0.5647 0.5725
v 1.499317 4.431252 -0.287615 0.2078 0.3647 0.4118
v 1.112546 4.391283 -0.287615 0.2078 0.3647 0.4118
v 1.499317 4.431252 0.287615 0.2078 0.3647 0.4118
v 1.112546 4.391283 0.287615 0.2078 0.3647 0.4118
v 1.512836 4.444155 0.301992 0.6197 0.5569 0.5686
v 1.093425 4.410282 0.301992 0.6197 0.5569 0.5686
v 1.512836 4.444155 -0.301992 0.6236 0.5647 0.5764
v 1.093425 4.410282 -0.301992 0.6197 0.5569 0.5686
vn 0.0112 0.0788 -0.9968
vn 0.0320 0.0813 -0.9962
vn -0.9975 -0.0703 -0.0000
vn 0.0112 0.0788 0.9968
vn -0.0128 0.0423 -0.9990
vn 0.4522 -0.8919 -0.0000
vn 0.4160 0.9094 -0.0000
vn 0.0320 0.0813 0.9962
vn 0.6904 -0.7234 -0.0000
vn 0.0227 -0.6671 0.7446
vn 0.9846 0.1747 -0.0000
vn -0.7048 -0.7094 -0.0000
vn -0.9971 -0.0761 -0.0000
vn -0.0128 0.0423 0.9990
vn 0.9974 0.0722 -0.0000
vn 0.0607 -0.6624 -0.7467
vn 0.0227 -0.6671 -0.7446
vn 0.0607 -0.6624 0.7467
vt 0.600000 0.250000
vt 0.500000 0.250000
vt 0.625000 0.250000
vt 0.500000 0.000000
vt 0.600000 0.000000
vt 0.500000 0.000000
vt 0.473884 0.250000
vt 0.375000 0.250000
vt 0.375000 0.000000
vt 0.625000 0.000000
vt 0.477938 0.000000
vt 0.477938 0.250000
vt 0.477938 0.000000
vt 0.473883 0.000000
vt 0.473884 0.000000
s 0
usemtl vertex_colors
f 48/46/27 49/46/27 61/47/27 62/47/27
f 59/48/28 54/48/28 49/46/28 48/46/28
f 63/49/29 50/50/29 48/46/29 62/47/29
f 63/49/30 60/51/30 51/50/30 50/50/30
f 65/52/31 64/52/31 53/53/31 58/53/31
f 58/53/32 53/53/32 52/54/32 56/54/32
f 57/55/33 55/55/33 54/48/33 59/48/33
f 50/50/29 57/55/29 59/48/29 48/46/29
f 50/50/34 51/50/34 55/55/34 57/55/34
f 68/56/35 70/57/35 61/47/35 60/51/35
f 69/58/36 68/56/36 60/51/36 63/49/36
f 51/50/37 49/46/37 54/48/37 55/55/37
f 69/58/38 63/49/38 62/47/38 71/57/38
f 56/54/39 67/59/39 65/52/39 58/53/39
f 56/54/40 52/54/40 66/60/40 67/59/40
f 52/54/41 53/53/41 64/52/41 66/60/41
f 71/57/42 70/57/42 64/52/42 65/52/42
f 62/47/43 61/47/43 70/57/43 71/57/43
f 67/59/38 69/58/38 71/57/38 65/52/38
f 67/59/44 66/60/44 68/56/44 69/58/44
f 66/60/35 64/52/35 70/57/35 68/56/35
f 60/51/37 61/47/37 49/46/37 51/50/37
o adult_body_Arm_Right.002
v -1.560262 3.589064 0.327335 0.4157 0.6824 0.6157
v -1.560262 3.589064 -0.327335 0.4157 0.6824 0.6157
v -1.253041 6.393230 -0.226914 0.8117 0.7294 0.6667
v -1.253041 6.393230 0.226914 0.8157 0.7294 0.6628
v -1.188216 3.400423 0.327335 0.4157 0.6824 0.6157
v -0.843769 6.580466 0.226914 0.6197 0.5569 0.5686
v -1.188216 3.400423 -0.327335 0.4078 0.6706 0.6079
v -0.843769 6.580466 -0.226914 0.6197 0.5569 0.5686
v -1.586399 4.514362 0.380220 0.8157 0.7294 0.6628
v -1.586399 4.514362 -0.380220 0.8157 0.7294 0.6628
v -0.989381 4.513659 -0.380220 0.6197 0.5569 0.5686
v -0.989381 4.513659 0.380220 0.6276 0.5647 0.5725
v -1.499316 4.431252 -0.287615 0.2078 0.3647 0.4118
v -1.112546 4.391283 -0.287615 0.2078 0.3647 0.4118
v -1.499316 4.431252 0.287615 0.2078 0.3647 0.4118
v -1.112546 4.391283 0.287615 0.2078 0.3647 0.4118
v -1.512836 4.444155 0.301992 0.6197 0.5569 0.5686
v -1.093425 4.410282 0.301992 0.6197 0.5569 0.5686
v -1.512836 4.444155 -0.301992 0.6236 0.5647 0.5764
v -1.093425 4.410282 -0.301992 0.6197 0.5569 0.5686
v -0.872891 6.167105 -0.257575 0.6197 0.5569 0.5686
v -1.319713 6.017457 -0.257575 0.8117 0.7294 0.6667
v -0.872891 6.167105 0.257575 0.6197 0.5569 0.5686
v -1.319713 6.017457 0.257575 0.8157 0.7294 0.6628
vn 0.0128 0.0423 -0.9990
vn -0.4522 -0.8919 -0.0000
vn -0.4160 0.9094 -0.0000
vn 0.9975 -0.0703 -0.0000
vn -0.0320 0.0813 0.9962
vn -0.6904 -0.7234 -0.0000
vn -0.0227 -0.6671 0.7446
vn -0.9846 0.1747 -0.0000
vn 0.7048 -0.7094 -0.0000
vn 0.9971 -0.0761 -0.0000
vn 0.0128 0.0423 0.9990
vn -0.9974 0.0722 -0.0000
vn -0.0607 -0.6624 -0.7467
vn -0.0227 -0.6671 -0.7446
vn -0.0607 -0.6624 0.7467
vn -0.0320 0.0813 -0.9962
vn -0.0112 0.0788 0.9968
vn -0.0112 0.0788 -0.9968
vt 0.473884 0.250000
vt 0.375000 0.250000
vt 0.375000 0.000000
vt 0.625000 0.000000
vt 0.625000 0.250000
vt 0.600000 0.000000
vt 0.600000 0.250000
vt 0.600000 0.000000
vt 0.477938 0.000000
vt 0.500000 0.000000
vt 0.500000 0.250000
vt 0.477938 0.250000
vt 0.477938 0.000000
vt 0.500000 0.000000
vt 0.473883 0.000000
vt 0.473884 0.000000
s 0
usemtl vertex_colors
f 85/61/45 78/62/45 73/62/45 84/61/45
f 78/62/46 76/63/46 72/63/46 73/62/46
f 77/64/47 79/65/47 74/65/47 75/64/47
f 94/66/48 92/67/48 79/65/48 77/64/48
f 94/66/49 77/64/49 75/64/49 95/68/49
f 88/69/50 80/70/50 81/71/50 90/72/50
f 89/73/51 83/74/51 80/70/51 88/69/51
f 95/68/52 75/64/52 74/65/52 93/67/52
f 89/73/53 91/72/53 82/71/53 83/74/53
f 76/63/54 78/62/54 85/61/54 87/75/54
f 76/63/55 87/75/55 86/76/55 72/63/55
f 72/63/56 86/76/56 84/61/56 73/62/56
f 91/72/57 85/61/57 84/61/57 90/72/57
f 82/71/58 91/72/58 90/72/58 81/71/58
f 87/75/53 85/61/53 91/72/53 89/73/53
f 87/75/59 89/73/59 88/69/59 86/76/59
f 86/76/50 88/69/50 90/72/50 84/61/50
f 79/65/60 92/67/60 93/67/60 74/65/60
f 83/74/48 82/71/48 92/67/48 94/66/48
f 83/74/61 94/66/61 95/68/61 80/70/61
f 80/70/52 95/68/52 93/67/52 81/71/52
f 92/67/62 82/71/62 81/71/62 93/67/62
o adult_body_Feet_Right.002
v -0.392443 1.788869 -0.539819 0.3568 0.2902 0.4078
v -0.392443 1.788869 0.539819 0.3568 0.2902 0.4078
v -0.985410 1.788869 -0.539819 0.3568 0.2902 0.4078
v -0.985410 1.788869 0.539819 0.3568 0.2902 0.4078
v -0.875005 0.000000 -0.227668 0.1255 0.1255 0.1804
v -0.875005 0.000000 0.227668 0.1255 0.1255 0.1804
v -0.502848 0.000000 -0.227668 0.1255 0.1255 0.1804
v -0.502848 0.000000 0.227668 0.1255 0.1255 0.1804
v -0.979276 1.299222 0.522477 0.2157 0.2118 0.3059
v -0.398577 1.299222 0.522477 0.2157 0.2118 0.3059
v -0.979276 1.299222 -0.522477 0.2157 0.2118 0.3059
v -0.398577 1.299222 -0.522477 0.2157 0.2118 0.3059
vn -0.0000 -1.0000 -0.0000
vn -0.0000 -0.2213 0.9752
vn -0.9968 -0.0800 -0.0000
vn 0.9968 -0.0800 -0.0000
vn -0.0000 -0.2213 -0.9752
vn -0.0000 -0.0354 -0.9994
vn 0.9999 -0.0125 -0.0000
vn -0.9999 -0.0125 -0.0000
vn -0.0000 -0.0354 0.9994
vt 0.125000 0.500000
vt 0.375000 0.500000
vt 0.375000 0.750000
vt 0.125000 0.750000
vt 0.125000 0.750000
s 0
usemtl vertex_colors
f 100/77/63 102/78/63 103/79/63 101/80/63
f 105/79/64 104/81/64 101/80/64 103/79/64
f 104/81/65 106/77/65 100/77/65 101/80/65
f 107/78/66 105/79/66 103/79/66 102/78/66
f 106/77/67 107/78/67 102/78/67 100/77/67
f 98/77/68 96/78/68 107/78/68 106/77/68
f 96/78/69 97/79/69 105/79/69 107/78/69
f 99/80/70 98/77/70 106/77/70 104/81/70
f 97/79/71 99/80/71 104/81/71 105/79/71
o adult_body_Feet_Left.002
v 0.392443 1.788869 -0.539819 0.3568 0.2902 0.4078
v 0.392443 1.788869 0.539819 0.3568 0.2902 0.4078
v 0.985409 1.788869 -0.539819 0.3568 0.2902 0.4078
v 0.985409 1.788869 0.539819 0.3568 0.2902 0.4078
v 0.875005 0.000000 -0.227668 0.1255 0.1255 0.1804
v 0.875005 0.000000 0.227668 0.1255 0.1255 0.1804
v 0.502847 0.000000 -0.227668 0.1255 0.1255 0.1804
v 0.502847 0.000000 0.227668 0.1255 0.1255 0.1804
v 0.979275 1.299222 0.522477 0.2157 0.2118 0.3059
v 0.398576 1.299222 0.522477 0.2157 0.2118 0.3059
v 0.979275 1.299222 -0.522477 0.2157 0.2118 0.3059
v 0.398576 1.299222 -0.522477 0.2157 0.2118 0.3059
vn -0.0000 -1.0000 -0.0000
vn -0.0000 -0.2213 0.9752
vn 0.9968 -0.0800 -0.0000
vn -0.9968 -0.0800 -0.0000
vn -0.0000 -0.2213 -0.9752
vn -0.0000 -0.0354 -0.9994
vn -0.9999 -0.0125 -0.0000
vn 0.9999 -0.0125 -0.0000
vn -0.0000 -0.0354 0.9994
vt 0.125000 0.500000
vt 0.125000 0.750000
vt 0.375000 0.750000
vt 0.375000 0.500000
vt 0.125000 0.750000
s 0
usemtl vertex_colors
f 112/82/72 113/83/72 115/84/72 114/85/72
f 117/84/73 115/84/73 113/83/73 116/86/73
f 116/86/74 113/83/74 112/82/74 118/82/74
f 119/85/75 114/85/75 115/84/75 117/84/75
f 118/82/76 112/82/76 114/85/76 119/85/76
f 110/82/77 118/82/77 119/85/77 108/85/77
f 108/85/78 119/85/78 117/84/78 109/84/78
f 111/83/79 116/86/79 118/82/79 110/82/79
f 109/84/80 117/84/80 116/86/80 111/83/80
o adult_body_M_head.001
v -0.144530 6.526720 0.144530 0.1059 0.1882 0.2118
v -0.638009 7.092386 0.638009 0.4118 0.6785 0.6118
v -0.144530 6.526720 -0.144530 0.1059 0.1882 0.2118
v -0.511490 7.092386 -0.638009 0.1059 0.1882 0.2118
v 0.144530 6.526720 0.144530 0.1059 0.1882 0.2118
v 0.638009 7.092386 0.638009 0.4039 0.6628 0.6000
v 0.144530 6.526720 -0.144530 0.1059 0.1882 0.2118
v 0.511490 7.092386 -0.638009 0.1059 0.1882 0.2118
v -0.428925 8.300598 0.428925 0.2196 0.3843 0.4235
v -0.428925 8.300598 -0.428925 0.2078 0.3647 0.4118
v 0.428925 8.300598 -0.428925 0.2078 0.3647 0.4118
v 0.428925 8.300598 0.428925 0.2823 0.4745 0.4784
v -0.511490 7.809577 -0.638009 0.2078 0.3647 0.4118
v 0.511490 7.809577 -0.638009 0.2078 0.3647 0.4118
v 0.638009 7.809577 0.638009 0.4157 0.6824 0.6157
v -0.638009 7.809577 0.638009 0.4157 0.6824 0.6157
v 0.000959 8.253935 0.080892 0.2432 0.4118 0.4392
v 0.087448 8.253935 -0.376794 0.2823 0.4706 0.4745
v 0.440571 8.253935 -0.073049 0.2078 0.3647 0.4118
v 0.099896 8.946222 -0.288051 0.4157 0.6824 0.6157
v 0.054665 8.251249 0.328931 0.2078 0.3647 0.4118
v 0.111007 8.251249 0.030780 0.2471 0.4039 0.4392
v 0.341042 8.251249 0.228648 0.2157 0.3725 0.4157
v 0.142571 8.702875 0.336801 0.4157 0.6824 0.6157
v -0.242198 8.194273 0.199922 0.2353 0.3882 0.4235
v -0.155710 8.194273 -0.257764 0.2078 0.3647 0.4118
v 0.197413 8.194273 0.045981 0.2157 0.3725 0.4157
v -0.354248 8.697954 -0.030755 0.3804 0.6197 0.5725
v 0.247618 7.620807 0.873484 0.0000 0.0000 0.0000
v 0.188793 7.764545 0.731911 0.2078 0.3647 0.4118
v 0.183428 7.777657 0.704277 0.4157 0.6824 0.6157
v 0.369360 7.591033 0.873484 0.0000 0.0000 0.0000
v 0.487884 7.691397 0.731911 0.2078 0.3647 0.4118
v 0.498696 7.700552 0.704277 0.4157 0.6824 0.6157
v 0.378663 7.466050 0.873484 0.0235 0.0235 0.0235
v 0.510740 7.384340 0.731911 0.2078 0.3647 0.4118
v 0.522788 7.376887 0.704277 0.4157 0.6824 0.6157
v 0.287999 7.522139 0.906278 0.0000 0.0000 0.0000
v 0.262671 7.418580 0.873484 0.0000 0.0000 0.0000
v 0.225775 7.267717 0.731911 0.2078 0.3647 0.4118
v 0.222409 7.253956 0.704277 0.4157 0.6824 0.6157
v 0.181681 7.514225 0.873484 0.0118 0.0118 0.0118
v 0.026801 7.502697 0.731911 0.2078 0.3647 0.4118
v 0.012673 7.501646 0.704277 0.4157 0.6824 0.6157
v 0.194526 7.750537 0.759048 1.0000 1.0000 1.0000
v 0.476334 7.681616 0.759048 1.0000 1.0000 1.0000
v 0.497868 7.392303 0.759048 1.0000 1.0000 1.0000
v 0.229370 7.282420 0.759048 1.0000 1.0000 1.0000
v 0.041895 7.503820 0.759048 1.0000 1.0000 1.0000
v -0.328279 7.407116 0.838334 0.0000 0.0000 0.0000
v -0.389736 7.498197 0.738176 0.2078 0.3647 0.4118
v -0.395342 7.506505 0.704277 0.4157 0.6785 0.6157
v -0.239666 7.404037 0.838334 0.0000 0.0000 0.0000
v -0.172034 7.490633 0.738176 0.2078 0.3647 0.4118
v -0.165865 7.498531 0.704277 0.4157 0.6824 0.6157
v -0.215212 7.318810 0.838334 0.0235 0.0235 0.0235
v -0.111955 7.281248 0.738176 0.2078 0.3647 0.4118
v -0.102537 7.277821 0.704277 0.4157 0.6824 0.6157
v -0.286091 7.344594 0.861535 0.0000 0.0000 0.0000
v -0.288711 7.269216 0.838334 0.0000 0.0000 0.0000
v -0.292527 7.159406 0.738176 0.2078 0.3647 0.4118
v -0.292875 7.149389 0.704277 0.4157 0.6824 0.6157
v -0.358590 7.323792 0.838334 0.0118 0.0118 0.0118
v -0.464205 7.293488 0.738176 0.2078 0.3647 0.4118
v -0.473839 7.290724 0.704277 0.4157 0.6824 0.6157
v -0.383747 7.489321 0.757374 1.0000 1.0000 1.0000
v -0.178625 7.482193 0.757374 1.0000 1.0000 1.0000
v -0.122018 7.284908 0.757374 1.0000 1.0000 1.0000
v -0.292155 7.170107 0.757374 1.0000 1.0000 1.0000
v -0.453912 7.296442 0.757374 1.0000 1.0000 1.0000
v -0.210350 7.707362 0.823548 0.0000 0.0000 0.0000
v -0.264828 7.765775 0.750739 0.2078 0.3647 0.4118
v -0.269797 7.771103 0.704277 0.4157 0.6824 0.6157
v -0.146376 7.715221 0.823548 0.0000 0.0000 0.0000
v -0.107656 7.785083 0.750739 0.2078 0.3647 0.4118
v -0.104125 7.791456 0.704277 0.4157 0.6824 0.6157
v -0.119132 7.656806 0.823548 0.0235 0.0235 0.0235
v -0.040725 7.641571 0.750739 0.2078 0.3647 0.4118
v -0.033573 7.640181 0.704277 0.4157 0.6824 0.6157
v -0.172955 7.667265 0.840414 0.0000 0.0000 0.0000
v -0.166269 7.612845 0.823548 0.0000 0.0000 0.0000
v -0.156530 7.533567 0.750739 0.2078 0.3647 0.4118
v -0.155642 7.526335 0.704277 0.4157 0.6824 0.6157
v -0.222645 7.644090 0.823548 0.0118 0.0118 0.0118
v -0.295033 7.610330 0.750739 0.2078 0.3647 0.4118
v -0.301637 7.607250 0.704277 0.4157 0.6824 0.6157
v -0.259519 7.760082 0.764695 1.0000 1.0000 1.0000
v -0.111430 7.778275 0.764695 1.0000 1.0000 1.0000
v -0.048366 7.643055 0.764695 1.0000 1.0000 1.0000
v -0.157479 7.541293 0.764695 1.0000 1.0000 1.0000
v -0.287979 7.613619 0.764695 1.0000 1.0000 1.0000
v 0.239798 7.639916 0.856628 0.8117 0.8431 0.7490
v 0.385116 7.604376 0.856628 0.8196 0.8509 0.7568
v 0.396221 7.455187 0.856628 0.8157 0.8470 0.7529
v 0.257766 7.398524 0.856628 0.8196 0.8509 0.7568
v 0.161091 7.512693 0.856628 0.8196 0.8509 0.7568
v -0.215405 7.712781 0.817498 0.8196 0.8509 0.7568
v -0.142784 7.721703 0.817498 0.8196 0.8509 0.7568
v -0.111858 7.655393 0.817498 0.8196 0.8509 0.7568
v -0.165366 7.605490 0.817498 0.8196 0.8509 0.7568
v -0.229361 7.640958 0.817498 0.8196 0.8509 0.7568
v -0.334733 7.416681 0.828914 0.8941 0.9294 0.8235
v -0.232564 7.413131 0.828914 0.8196 0.8509 0.7568
v -0.204368 7.314865 0.828914 0.8862 0.9176 0.8117
v -0.289112 7.257684 0.828914 0.8196 0.8509 0.7568
v -0.369681 7.320610 0.828914 0.8196 0.8509 0.7568
vn -0.7943 -0.6041 -0.0642
vn -0.0000 -0.6574 -0.7536
vn 0.7943 -0.6041 -0.0642
vn -0.0000 -0.6574 0.7536
vn -0.0000 -1.0000 -0.0000
vn -0.0000 0.3918 -0.9201
vn -0.0000 1.0000 -0.0000
vn 0.9571 0.2842 -0.0567
vn -0.9571 0.2842 -0.0567
vn -0.0000 0.3918 0.9201
vn -0.9951 -0.0000 -0.0987
vn 0.9951 -0.0000 -0.0987
vn -0.0000 -0.0000 -1.0000
vn -0.9818 0.0414 -0.1855
vn 0.6497 0.0851 -0.7554
vn 0.3007 0.4147 0.8588
vn -0.9645 0.1909 -0.1823
vn 0.5906 0.4240 -0.6866
vn 0.3294 -0.0805 0.9407
vn -0.9402 -0.2905 -0.1777
vn 0.5595 0.5137 -0.6504
vn 0.2949 0.4513 0.8422
vn -0.0000 -0.0000 1.0000
vn 0.2194 0.8973 0.3831
vn 0.0844 0.3452 0.9347
vn 0.1687 0.6900 0.7039
vn 0.3544 0.0264 0.9347
vn 0.7083 0.0527 0.7039
vn 0.9212 0.0686 0.3831
vn 0.3499 -0.8549 0.3831
vn 0.1346 -0.3289 0.9347
vn 0.2690 -0.6574 0.7039
vn -0.7049 -0.5969 0.3831
vn -0.2712 -0.2297 0.9347
vn -0.5421 -0.4590 0.7039
vn -0.7855 0.4860 0.3831
vn -0.3022 0.1870 0.9347
vn -0.6041 0.3737 0.7039
vn -0.7752 0.4796 0.4113
vn -0.6956 -0.5890 0.4113
vn 0.3452 -0.8436 0.4113
vn 0.9090 0.0677 0.4113
vn 0.2165 0.8854 0.4113
vn 0.0338 0.9720 0.2326
vn 0.0123 0.3552 0.9347
vn 0.0247 0.7099 0.7039
vn 0.3416 0.0980 0.9347
vn 0.6828 0.1959 0.7039
vn 0.9348 0.2682 0.2326
vn 0.5440 -0.8062 0.2326
vn 0.1988 -0.2946 0.9347
vn 0.3973 -0.5888 0.7039
vn -0.5986 -0.7665 0.2326
vn -0.2188 -0.2801 0.9347
vn -0.4372 -0.5598 0.7039
vn -0.9140 0.3325 0.2326
vn -0.3340 0.1215 0.9347
vn -0.6675 0.2428 0.7039
vn -0.8566 0.3116 0.4113
vn -0.5611 -0.7184 0.4113
vn 0.5098 -0.7556 0.4113
vn 0.8761 0.2514 0.4113
vn 0.0317 0.9110 0.4113
vn -0.1210 0.9846 0.1259
vn -0.0433 0.3528 0.9347
vn -0.0866 0.7050 0.7039
vn 0.3221 0.1502 0.9347
vn 0.6437 0.3002 0.7039
vn 0.8991 0.4193 0.1259
vn 0.6766 -0.7255 0.1259
vn 0.2424 -0.2599 0.9347
vn 0.4845 -0.5194 0.7039
vn -0.4809 -0.8677 0.1259
vn -0.1723 -0.3109 0.9347
vn -0.3443 -0.6213 0.7039
vn -0.9738 0.1892 0.1259
vn -0.3489 0.0678 0.9347
vn -0.6973 0.1355 0.7039
vn -0.8948 0.1739 0.4113
vn -0.4419 -0.7972 0.4113
vn 0.6217 -0.6666 0.4113
vn 0.8261 0.3853 0.4113
vn -0.1111 0.9047 0.4113
vn 0.4845 -0.5195 0.7039
vn 0.4677 0.0108 0.8838
vn 0.0083 0.9371 0.3489
vn 0.1022 0.4180 0.9027
vn 0.0298 -0.5112 0.8589
vn 0.0799 -0.1953 0.9775
vn -0.3037 0.0256 0.9524
vn -0.1511 0.0717 0.9859
vn -0.0760 0.6189 0.7818
vn -0.1535 -0.1965 0.9684
vt 0.375000 0.000000
vt 0.625000 0.000000
vt 0.625000 0.250000
vt 0.375000 0.250000
vt 0.625000 0.500000
vt 0.375000 0.500000
vt 0.625000 0.750000
vt 0.375000 0.750000
vt 0.625000 1.000000
vt 0.375000 1.000000
vt 0.125000 0.500000
vt 0.125000 0.750000
vt 0.875000 0.500000
vt 0.875000 0.750000
vt 0.250000 0.490000
vt 0.250000 0.250000
vt 0.457846 0.130000
vt 0.750000 0.490000
vt 0.957846 0.130000
vt 0.542154 0.130000
vt 0.042154 0.130000
vt 0.800000 0.250000
vt 0.600000 0.250000
vt 0.200000 0.250000
vt 0.000000 0.250000
vt 0.600000 0.500000
vt 0.400000 0.500000
vt 0.400000 0.250000
vt 0.600000 0.750000
vt 0.500000 1.000000
vt 0.400000 0.750000
vt 0.600000 0.720441
vt 0.400000 0.720441
vt 0.300000 1.000000
vt 0.200000 0.750000
vt 0.200000 0.720441
vt 0.200000 0.500000
vt 0.000000 0.500000
vt 0.100000 1.000000
vt 0.000000 0.750000
vt 0.000000 0.720441
vt 1.000000 0.250000
vt 1.000000 0.500000
vt 0.800000 0.500000
vt 1.000000 0.750000
vt 0.900000 1.000000
vt 0.800000 0.750000
vt 1.000000 0.720441
vt 0.800000 0.720441
vt 0.700000 1.000000
vt 0.800000 0.549324
vt 0.600000 0.549324
vt 1.000000 0.549324
vt 0.200000 0.549324
vt 0.000000 0.549324
vt 0.400000 0.549324
vt 0.600000 0.726651
vt 0.400000 0.726651
vt 0.200000 0.726651
vt 0.000000 0.726651
vt 1.000000 0.726651
vt 0.800000 0.726651
vt 0.600000 0.729372
vt 0.400000 0.729372
vt 0.200000 0.729372
vt 0.000000 0.729372
vt 1.000000 0.729372
vt 0.800000 0.729372
s 0
usemtl vertex_colors
f 120/87/81 121/88/81 123/89/81 122/90/81
f 122/90/82 123/89/82 127/91/82 126/92/82
f 126/92/83 127/91/83 125/93/83 124/94/83
f 124/94/84 125/93/84 121/95/84 120/96/84
f 122/97/85 126/92/85 124/94/85 120/98/85
f 133/91/86 132/89/86 129/89/86 130/91/86
f 130/91/87 129/99/87 128/100/87 131/93/87
f 134/93/88 133/91/88 130/91/88 131/93/88
f 132/89/89 135/88/89 128/88/89 129/89/89
f 135/95/90 134/93/90 131/93/90 128/95/90
f 123/89/91 121/88/91 135/88/91 132/89/91
f 125/93/92 127/91/92 133/91/92 134/93/92
f 127/91/93 123/89/93 132/89/93 133/91/93
f 136/101/94 139/102/94 137/103/94
f 136/104/85 137/105/85 138/106/85
f 137/103/95 139/102/95 138/107/95
f 138/107/96 139/102/96 136/101/96
f 140/101/97 143/102/97 141/103/97
f 140/104/85 141/105/85 142/106/85
f 141/103/98 143/102/98 142/107/98
f 142/107/99 143/102/99 140/101/99
f 144/101/100 147/102/100 145/103/100
f 144/104/85 145/105/85 146/106/85
f 145/103/101 147/102/101 146/107/101
f 146/107/102 147/102/102 144/101/102
f 163/108/103 150/109/103 198/110/103 202/111/103
f 150/109/104 149/112/104 152/113/104 153/114/104
f 148/115/105 157/116/105 151/117/105
f 211/118/106 148/115/106 151/117/106 212/119/106
f 151/117/107 157/120/107 154/121/107
f 212/119/108 151/117/108 154/121/108 213/122/108
f 153/114/109 152/113/109 155/123/109 156/110/109
f 156/110/110 155/123/110 159/124/110 160/111/110
f 154/121/111 157/125/111 158/126/111
f 213/122/112 154/121/112 158/126/112 214/127/112
f 160/128/113 159/129/113 162/130/113 163/108/113
f 158/131/114 157/132/114 161/133/114
f 214/134/115 158/131/115 161/133/115 215/135/115
f 163/108/116 162/130/116 149/112/116 150/109/116
f 161/133/117 157/136/117 148/115/117
f 215/135/118 161/133/118 148/115/118 211/118/118
f 162/130/119 168/137/119 164/138/119 149/112/119
f 159/129/120 167/139/120 168/137/120 162/130/120
f 155/123/121 166/140/121 167/141/121 159/124/121
f 152/113/122 165/142/122 166/140/122 155/123/122
f 149/112/123 164/138/123 165/142/123 152/113/123
f 171/109/124 170/112/124 173/113/124 174/114/124
f 169/115/125 178/116/125 172/117/125
f 221/143/126 169/115/126 172/117/126 222/144/126
f 172/117/127 178/120/127 175/121/127
f 222/144/128 172/117/128 175/121/128 223/145/128
f 174/114/129 173/113/129 176/123/129 177/110/129
f 177/110/130 176/123/130 180/124/130 181/111/130
f 175/121/131 178/125/131 179/126/131
f 223/145/132 175/121/132 179/126/132 224/146/132
f 181/128/133 180/129/133 183/130/133 184/108/133
f 179/131/134 178/132/134 182/133/134
f 224/147/135 179/131/135 182/133/135 225/148/135
f 184/108/136 183/130/136 170/112/136 171/109/136
f 182/133/137 178/136/137 169/115/137
f 225/148/138 182/133/138 169/115/138 221/143/138
f 183/130/139 189/137/139 185/138/139 170/112/139
f 180/129/140 188/139/140 189/137/140 183/130/140
f 176/123/141 187/140/141 188/141/141 180/124/141
f 173/113/142 186/142/142 187/140/142 176/123/142
f 170/112/143 185/138/143 186/142/143 173/113/143
f 192/109/144 191/112/144 194/113/144 195/114/144
f 190/115/145 199/116/145 193/117/145
f 216/149/146 190/115/146 193/117/146 217/150/146
f 193/117/147 199/120/147 196/121/147
f 217/150/148 193/117/148 196/121/148 218/151/148
f 195/114/149 194/113/149 197/123/149 198/110/149
f 198/110/150 197/123/150 201/124/150 202/111/150
f 196/121/151 199/125/151 200/126/151
f 218/151/152 196/121/152 200/126/152 219/152/152
f 202/128/153 201/129/153 204/130/153 205/108/153
f 200/131/154 199/132/154 203/133/154
f 219/153/155 200/131/155 203/133/155 220/154/155
f 205/108/156 204/130/156 191/112/156 192/109/156
f 203/133/157 199/136/157 190/115/157
f 220/154/158 203/133/158 190/115/158 216/149/158
f 204/130/159 210/137/159 206/138/159 191/112/159
f 201/129/160 209/139/160 210/137/160 204/130/160
f 197/123/161 208/140/161 209/141/161 201/124/161
f 194/113/162 207/142/162 208/140/162 197/123/162
f 191/112/163 206/138/163 207/142/163 194/113/163
f 168/137/118 215/135/118 211/118/118 164/138/118
f 167/139/115 214/134/115 215/135/115 168/137/115
f 166/140/112 213/122/112 214/127/112 167/141/112
f 165/142/108 212/119/108 213/122/108 166/140/108
f 164/138/106 211/118/106 212/119/106 165/142/106
f 210/137/158 220/154/158 216/149/158 206/138/158
f 209/139/155 219/153/155 220/154/155 210/137/155
f 208/140/164 218/151/164 219/152/164 209/141/164
f 207/142/148 217/150/148 218/151/148 208/140/148
f 206/138/146 216/149/146 217/150/146 207/142/146
f 189/137/138 225/148/138 221/143/138 185/138/138
f 188/139/135 224/147/135 225/148/135 189/137/135
f 187/140/132 223/145/132 224/146/132 188/141/132
f 186/142/128 222/144/128 223/145/128 187/140/128
f 185/138/126 221/143/126 222/144/126 186/142/126
f 198/110/103 150/109/103 195/114/103
f 160/128/103 163/108/103 174/114/103 177/110/103
f 202/111/103 174/114/103 163/108/103
f 171/109/103 174/114/103 202/128/103 205/108/103
f 177/110/103 181/111/103 160/128/103
f 125/93/165 134/93/165 153/114/165 156/110/165
f 134/93/166 135/95/166 195/114/166 150/109/166
f 153/114/167 134/93/167 150/109/167
f 125/93/168 160/128/168 181/111/168 121/95/168
f 160/128/169 125/93/169 156/110/169
f 135/88/170 121/88/170 184/108/170 171/109/170
f 205/108/171 192/109/171 135/88/171 171/109/171
f 195/114/172 135/95/172 192/109/172
f 181/111/173 184/108/173 121/95/173
