# Blender 4.4.3
# www.blender.org
mtllib citizen_1.mtl
o kid_body_M
v -0.863690 5.903690 -0.331316 0.3568 0.2902 0.4078
v -0.863690 5.903690 0.231385 0.3568 0.2902 0.4078
v -0.401934 5.903690 0.284811 0.3568 0.2902 0.4078
v -0.401934 5.903690 -0.433856 0.3568 0.2902 0.4078
v -0.313175 5.903690 0.295081 0.3843 0.3176 0.4235
v -0.284902 5.903690 -0.327914 0.3568 0.2902 0.4078
v -1.307239 1.125609 -1.000000 0.1255 0.1255 0.1804
v -1.307239 1.125609 0.900069 0.1255 0.1255 0.1804
v -0.608348 1.125609 -1.102540 0.1255 0.1255 0.1804
v -0.608348 1.125609 0.953495 0.1255 0.1255 0.1804
v -0.906294 5.444740 0.295614 0.3568 0.2902 0.4078
v -0.906294 5.444740 -0.395545 0.3568 0.2902 0.4078
v -0.421761 5.444740 -0.498085 0.3568 0.2902 0.4078
v -0.421761 5.444740 0.349040 0.3568 0.2902 0.4078
v 0.863690 5.903690 -0.331316 0.3568 0.2902 0.4078
v 0.863690 5.903690 0.231385 0.3568 0.2902 0.4078
v 0.000000 1.125609 -1.191795 0.1255 0.1255 0.1804
v 0.000000 5.903690 0.331316 0.2000 0.2353 0.3412
v 0.000000 1.125609 1.000000 0.1255 0.1255 0.1804
v 0.000000 5.903690 -0.523111 0.3568 0.2902 0.4078
v 0.401934 5.903690 0.284811 0.3568 0.2902 0.4078
v 0.401934 5.903690 -0.433856 0.3568 0.2902 0.4078
v 0.000000 4.760239 0.491340 0.3568 0.2902 0.4078
v 0.000000 4.952395 0.464448 0.3568 0.2902 0.4078
v 0.313175 5.903690 0.295081 0.3843 0.3176 0.4235
v 0.000000 5.903690 -0.440725 0.3568 0.2902 0.4078
v 0.284902 5.903690 -0.327914 0.3568 0.2902 0.4078
v 1.307239 1.125609 -1.000000 0.1255 0.1255 0.1804
v 1.307239 1.125609 0.900069 0.1255 0.1255 0.1804
v 0.608348 1.125609 -1.102540 0.1255 0.1255 0.1804
v 0.608348 1.125609 0.953495 0.1255 0.1255 0.1804
v 0.906294 5.444740 0.295614 0.3568 0.2902 0.4078
v 0.906294 5.444740 -0.395545 0.3568 0.2902 0.4078
v 0.000000 5.444740 -0.587340 0.3608 0.2941 0.4078
v 0.000000 4.411122 0.540198 0.3568 0.2902 0.4078
v 0.421761 5.444740 -0.498085 0.3568 0.2902 0.4078
v 0.421761 5.444740 0.349040 0.3568 0.2902 0.4078
vn -0.0000 1.0000 -0.0000
vn -0.1110 0.1451 0.9832
vn -0.9957 0.0924 -0.0000
vn -0.2097 0.1400 -0.9677
vn -0.0000 -1.0000 -0.0000
vn -0.2094 0.1495 -0.9663
vn -0.1044 0.1404 0.9846
vn -0.1138 0.1377 0.9839
vn -0.0869 0.1402 0.9863
vn -0.1689 0.1479 -0.9745
vn -0.1691 0.1402 -0.9756
vn -0.0890 0.1440 0.9856
vn 0.1110 0.1451 0.9832
vn 0.9957 0.0924 -0.0000
vn 0.2097 0.1400 -0.9677
vn 0.2094 0.1495 -0.9663
vn 0.1044 0.1404 0.9846
vn 0.1138 0.1377 0.9839
vn 0.0869 0.1402 0.9863
vn 0.1689 0.1479 -0.9745
vn 0.1691 0.1402 -0.9756
vn 0.0890 0.1440 0.9856
vt 0.808171 0.500000
vt 0.875000 0.500000
vt 0.875000 0.750000
vt 0.808171 0.750000
vt 0.600987 0.933171
vt 0.625000 0.933171
vt 0.625000 1.000000
vt 0.600987 1.000000
vt 0.600987 0.000000
vt 0.625000 0.000000
vt 0.625000 0.250000
vt 0.600987 0.250000
vt 0.600987 0.316829
vt 0.625000 0.316829
vt 0.625000 0.375000
vt 0.600987 0.375000
vt 0.250000 0.500000
vt 0.250000 0.750000
vt 0.191829 0.750000
vt 0.191829 0.500000
vt 0.546905 0.875000
vt 0.565172 0.875000
vt 0.750000 0.500000
vt 0.791233 0.542762
vt 0.750000 0.524106
vt 0.575226 0.875000
vt 0.625000 0.920325
vt 0.625000 0.875000
vt 0.795325 0.750000
vt 0.750000 0.750000
vt 0.125000 0.750000
vt 0.125000 0.500000
vt 0.375000 0.875000
vt 0.375000 0.933171
vt 0.375000 0.250000
vt 0.375000 0.316829
vt 0.375000 0.375000
vt 0.375000 0.000000
vt 0.375000 1.000000
s 0
usemtl vertex_colors
f 4/1/1 1/2/1 2/3/1 3/4/1
f 14/5/2 3/6/2 2/7/2 11/8/2
f 11/9/3 2/10/3 1/11/3 12/12/3
f 13/13/4 4/14/4 20/15/4 34/16/4
f 17/17/5 19/18/5 10/19/5 9/20/5
f 12/12/6 1/11/6 4/14/6 13/13/6
f 35/21/7 23/22/7 3/6/7 14/5/7
f 20/23/1 4/1/1 6/24/1 26/25/1
f 3/6/8 23/22/8 24/26/8 5/27/8
f 5/27/8 24/26/8 18/28/8
f 26/25/1 6/24/1 5/29/1 18/30/1
f 6/24/1 4/1/1 3/4/1 5/29/1
f 8/31/5 7/32/5 9/20/5 10/19/5
f 19/33/9 35/21/9 14/5/9 10/34/9
f 7/35/10 12/12/10 13/13/10 9/36/10
f 9/36/11 13/13/11 34/16/11 17/37/11
f 8/38/3 11/9/3 12/12/3 7/35/3
f 10/34/12 14/5/12 11/8/12 8/39/12
f 22/1/1 21/4/1 16/3/1 15/2/1
f 37/5/13 32/8/13 16/7/13 21/6/13
f 32/9/14 33/12/14 15/11/14 16/10/14
f 36/13/15 34/16/15 20/15/15 22/14/15
f 31/19/5 19/18/5 17/17/5 30/20/5
f 33/12/16 36/13/16 22/14/16 15/11/16
f 35/21/17 37/5/17 21/6/17 23/22/17
f 20/23/1 26/25/1 27/24/1 22/1/1
f 21/6/18 25/27/18 24/26/18 23/22/18
f 25/27/18 18/28/18 24/26/18
f 26/25/1 18/30/1 25/29/1 27/24/1
f 27/24/1 25/29/1 21/4/1 22/1/1
f 28/32/5 29/31/5 31/19/5 30/20/5
f 19/33/19 31/34/19 37/5/19 35/21/19
f 28/35/20 30/36/20 36/13/20 33/12/20
f 30/36/21 17/37/21 34/16/21 36/13/21
f 29/38/14 28/35/14 33/12/14 32/9/14
f 31/34/22 29/39/22 32/8/22 37/5/22
o kid_body_M_Arm_Right.003
v -1.541020 3.774134 0.327335 0.7294 0.1804 0.5373
v -1.541020 3.774134 -0.327335 0.7294 0.1804 0.5373
v -1.233799 5.677442 -0.226914 0.3568 0.2902 0.4078
v -1.233799 5.677442 0.226914 0.3568 0.2902 0.4078
v -1.168974 3.585493 0.327335 0.7294 0.1804 0.5373
v -0.824526 5.864677 0.226914 0.2000 0.2353 0.3412
v -1.168974 3.585493 -0.327335 0.7294 0.1804 0.5373
v -0.824526 5.864677 -0.226914 0.2235 0.2510 0.3490
v -1.567157 4.428299 0.380220 0.3568 0.2902 0.4078
v -1.567157 4.428299 -0.380220 0.3568 0.2902 0.4078
v -0.970139 4.427597 -0.380220 0.2000 0.2353 0.3412
v -0.970139 4.427597 0.380220 0.2235 0.2432 0.3490
v -1.480074 4.345190 -0.287615 0.4902 0.0784 0.4589
v -1.093304 4.305221 -0.287615 0.4902 0.0784 0.4589
v -1.480074 4.345190 0.287615 0.4902 0.0784 0.4589
v -1.093304 4.305221 0.287615 0.4902 0.0784 0.4589
v -1.493594 4.358092 0.301992 0.2157 0.2118 0.3059
v -1.074182 4.324220 0.301992 0.2157 0.2118 0.3059
v -1.493594 4.358092 -0.301992 0.2353 0.2275 0.3137
v -1.074182 4.324220 -0.301992 0.2157 0.2118 0.3059
v -0.897333 5.146137 -0.303567 0.2000 0.2353 0.3412
v -1.400478 5.052870 -0.303567 0.3568 0.2902 0.4078
v -0.897333 5.146137 0.303567 0.2000 0.2353 0.3412
v -1.400478 5.052870 0.303567 0.3568 0.2902 0.4078
vn -0.0368 0.1198 -0.9921
vn 0.0179 0.0595 -0.9981
vn -0.4522 -0.8919 -0.0000
vn -0.4160 0.9094 -0.0000
vn 0.9949 -0.1008 -0.0000
vn -0.0368 0.1198 0.9921
vn -0.6904 -0.7234 -0.0000
vn -0.0227 -0.6671 0.7446
vn -0.9662 0.2578 -0.0000
vn 0.7048 -0.7094 -0.0000
vn 0.9945 -0.1046 -0.0000
vn 0.0179 0.0595 0.9981
vn -0.9944 0.1061 -0.0000
vn -0.0607 -0.6624 -0.7467
vn -0.0227 -0.6671 -0.7446
vn -0.0607 -0.6624 0.7467
vn -0.0097 0.1151 0.9933
vn -0.0097 0.1151 -0.9933
vt 0.625000 0.250000
vt 0.562500 0.250000
vt 0.473884 0.250000
vt 0.375000 0.250000
vt 0.375000 0.000000
vt 0.625000 0.000000
vt 0.562500 0.000000
vt 0.477938 0.000000
vt 0.500000 0.000000
vt 0.500000 0.250000
vt 0.477938 0.250000
vt 0.477938 0.000000
vt 0.500000 0.000000
vt 0.473883 0.000000
vt 0.473884 0.000000
s 0
usemtl vertex_colors
f 45/40/23 58/41/23 59/41/23 40/40/23
f 51/42/24 44/43/24 39/43/24 50/42/24
f 44/43/25 42/44/25 38/44/25 39/43/25
f 43/45/26 45/40/26 40/40/26 41/45/26
f 60/46/27 58/41/27 45/40/27 43/45/27
f 60/46/28 43/45/28 41/45/28 61/46/28
f 54/47/29 46/48/29 47/49/29 56/50/29
f 55/51/30 49/52/30 46/48/30 54/47/30
f 61/46/31 41/45/31 40/40/31 59/41/31
f 55/51/32 57/50/32 48/49/32 49/52/32
f 42/44/33 44/43/33 51/42/33 53/53/33
f 42/44/34 53/53/34 52/54/34 38/44/34
f 38/44/35 52/54/35 50/42/35 39/43/35
f 57/50/36 51/42/36 50/42/36 56/50/36
f 48/49/37 57/50/37 56/50/37 47/49/37
f 53/53/32 51/42/32 57/50/32 55/51/32
f 53/53/38 55/51/38 54/47/38 52/54/38
f 52/54/29 54/47/29 56/50/29 50/42/29
f 49/52/27 48/49/27 58/41/27 60/46/27
f 49/52/39 60/46/39 61/46/39 46/48/39
f 46/48/31 61/46/31 59/41/31 47/49/31
f 58/41/40 48/49/40 47/49/40 59/41/40
o kid_body_Arm_Left.004
v 1.541020 3.774134 0.327335 0.7294 0.1804 0.5373
v 1.541020 3.774134 -0.327335 0.7294 0.1804 0.5373
v 1.233799 5.677442 -0.226914 0.3568 0.2902 0.4078
v 1.233799 5.677442 0.226914 0.3568 0.2902 0.4078
v 1.168974 3.585493 0.327335 0.7294 0.1804 0.5373
v 0.824526 5.864677 0.226914 0.2157 0.2118 0.3059
v 1.168974 3.585493 -0.327335 0.7137 0.2471 0.5451
v 0.824526 5.864677 -0.226914 0.2157 0.2118 0.3059
v 1.567157 4.428299 0.380220 0.3568 0.2902 0.4078
v 1.567157 4.428299 -0.380220 0.3568 0.2902 0.4078
v 0.970139 4.427597 -0.380220 0.2157 0.2118 0.3059
v 0.970139 4.427597 0.380220 0.2157 0.2118 0.3059
v 1.480074 4.345190 -0.287615 0.4902 0.0784 0.4589
v 1.093304 4.305221 -0.287615 0.4902 0.0784 0.4589
v 1.480074 4.345190 0.287615 0.4628 0.1490 0.4550
v 1.093304 4.305221 0.287615 0.4902 0.0784 0.4589
v 1.493594 4.358092 0.301992 0.3568 0.2902 0.4078
v 1.074182 4.324220 0.301992 0.2157 0.2118 0.3059
v 1.493594 4.358092 -0.301992 0.3568 0.2902 0.4078
v 1.074182 4.324220 -0.301992 0.2157 0.2118 0.3059
v 1.400478 5.052870 0.303567 0.3568 0.2902 0.4078
v 0.897333 5.146137 0.303567 0.2157 0.2118 0.3059
v 1.400478 5.052870 -0.303567 0.3568 0.2902 0.4078
v 0.897333 5.146137 -0.303567 0.2157 0.2118 0.3059
vn -0.0179 0.0595 -0.9981
vn 0.4522 -0.8919 -0.0000
vn 0.4160 0.9094 -0.0000
vn -0.9949 -0.1008 -0.0000
vn 0.0368 0.1198 0.9921
vn 0.6904 -0.7234 -0.0000
vn 0.0227 -0.6671 0.7446
vn 0.9662 0.2578 -0.0000
vn -0.7048 -0.7094 -0.0000
vn -0.9945 -0.1046 -0.0000
vn -0.0179 0.0595 0.9981
vn 0.9944 0.1061 -0.0000
vn 0.0607 -0.6624 -0.7467
vn 0.0227 -0.6671 -0.7446
vn 0.0607 -0.6624 0.7467
vn 0.0097 0.1151 -0.9933
vn 0.0368 0.1198 -0.9921
vn 0.0097 0.1151 0.9933
vt 0.473884 0.250000
vt 0.375000 0.250000
vt 0.375000 0.000000
vt 0.625000 0.000000
vt 0.625000 0.250000
vt 0.562500 0.000000
vt 0.562500 0.250000
vt 0.477938 0.000000
vt 0.477938 0.250000
vt 0.500000 0.250000
vt 0.500000 0.000000
vt 0.477938 0.000000
vt 0.500000 0.000000
vt 0.562500 0.250000
vt 0.473883 0.000000
vt 0.473884 0.000000
s 0
usemtl vertex_colors
f 75/55/41 74/55/41 63/56/41 68/56/41
f 68/56/42 63/56/42 62/57/42 66/57/42
f 67/58/43 65/58/43 64/59/43 69/59/43
f 83/60/44 67/58/44 69/59/44 85/61/44
f 83/60/45 82/60/45 65/58/45 67/58/45
f 78/62/46 80/63/46 71/64/46 70/65/46
f 79/66/47 78/62/47 70/65/47 73/67/47
f 82/60/48 84/68/48 64/59/48 65/58/48
f 79/66/49 73/67/49 72/64/49 81/63/49
f 66/57/50 77/69/50 75/55/50 68/56/50
f 66/57/51 62/57/51 76/70/51 77/69/51
f 62/57/52 63/56/52 74/55/52 76/70/52
f 81/63/53 80/63/53 74/55/53 75/55/53
f 72/64/54 71/64/54 80/63/54 81/63/54
f 77/69/49 79/66/49 81/63/49 75/55/49
f 77/69/55 76/70/55 78/62/55 79/66/55
f 76/70/46 74/55/46 80/63/46 78/62/46
f 85/61/56 84/68/56 71/64/56 72/64/56
f 69/59/57 64/59/57 84/68/57 85/61/57
f 70/65/48 71/64/48 84/68/48 82/60/48
f 73/67/58 70/65/58 82/60/58 83/60/58
f 73/67/44 83/60/44 85/61/44 72/64/44
o kid_body_Feet_Right.002
v -0.392443 1.738947 -0.539819 0.3568 0.2902 0.4078
v -0.392443 1.738947 0.539819 0.3568 0.2902 0.4078
v -0.985410 1.738947 -0.539819 0.3568 0.2902 0.4078
v -0.985410 1.738947 0.539819 0.3568 0.2902 0.4078
v -0.875005 -0.049922 -0.227668 0.1255 0.1255 0.1804
v -0.875005 -0.049922 0.227668 0.1255 0.1255 0.1804
v -0.502848 -0.049922 -0.227668 0.1255 0.1255 0.1804
v -0.502848 -0.049922 0.227668 0.1255 0.1255 0.1804
v -0.979276 1.249300 0.522477 0.2157 0.2118 0.3059
v -0.398577 1.249300 0.522477 0.2157 0.2118 0.3059
v -0.979276 1.249300 -0.522477 0.2157 0.2118 0.3059
v -0.398577 1.249300 -0.522477 0.2157 0.2118 0.3059
vn -0.0000 -1.0000 -0.0000
vn -0.0000 -0.2213 0.9752
vn -0.9968 -0.0800 -0.0000
vn 0.9968 -0.0800 -0.0000
vn -0.0000 -0.2213 -0.9752
vn -0.0000 -0.0354 -0.9994
vn 0.9999 -0.0125 -0.0000
vn -0.9999 -0.0125 -0.0000
vn -0.0000 -0.0354 0.9994
vt 0.125000 0.500000
vt 0.375000 0.500000
vt 0.375000 0.750000
vt 0.125000 0.750000
vt 0.125000 0.750000
s 0
usemtl vertex_colors
f 90/71/59 92/72/59 93/73/59 91/74/59
f 95/73/60 94/75/60 91/74/60 93/73/60
f 94/75/61 96/71/61 90/71/61 91/74/61
f 97/72/62 95/73/62 93/73/62 92/72/62
f 96/71/63 97/72/63 92/72/63 90/71/63
f 88/71/64 86/72/64 97/72/64 96/71/64
f 86/72/65 87/73/65 95/73/65 97/72/65
f 89/74/66 88/71/66 96/71/66 94/75/66
f 87/73/67 89/74/67 94/75/67 95/73/67
o kid_body_Feet_Left.002
v 0.392443 1.738947 -0.539819 0.3568 0.2902 0.4078
v 0.392443 1.738947 0.539819 0.3568 0.2902 0.4078
v 0.985409 1.738947 -0.539819 0.3568 0.2902 0.4078
v 0.985409 1.738947 0.539819 0.3568 0.2902 0.4078
v 0.875005 -0.049922 -0.227668 0.1255 0.1255 0.1804
v 0.875005 -0.049922 0.227668 0.1255 0.1255 0.1804
v 0.502847 -0.049922 -0.227668 0.1255 0.1255 0.1804
v 0.502847 -0.049922 0.227668 0.1255 0.1255 0.1804
v 0.979275 1.249300 0.522477 0.2157 0.2118 0.3059
v 0.398576 1.249300 0.522477 0.2157 0.2118 0.3059
v 0.979275 1.249300 -0.522477 0.2157 0.2118 0.3059
v 0.398576 1.249300 -0.522477 0.2157 0.2118 0.3059
vn -0.0000 -1.0000 -0.0000
vn -0.0000 -0.2213 0.9752
vn 0.9968 -0.0800 -0.0000
vn -0.9968 -0.0800 -0.0000
vn -0.0000 -0.2213 -0.9752
vn -0.0000 -0.0354 -0.9994
vn -0.9999 -0.0125 -0.0000
vn 0.9999 -0.0125 -0.0000
vn -0.0000 -0.0354 0.9994
vt 0.125000 0.500000
vt 0.125000 0.750000
vt 0.375000 0.750000
vt 0.375000 0.500000
vt 0.125000 0.750000
s 0
usemtl vertex_colors
f 102/76/68 103/77/68 105/78/68 104/79/68
f 107/78/69 105/78/69 103/77/69 106/80/69
f 106/80/70 103/77/70 102/76/70 108/76/70
f 109/79/71 104/79/71 105/78/71 107/78/71
f 108/76/72 102/76/72 104/79/72 109/79/72
f 100/76/73 108/76/73 109/79/73 98/79/73
f 98/79/74 109/79/74 107/78/74 99/78/74
f 101/77/75 106/80/75 108/76/75 100/76/75
f 99/78/76 107/78/76 106/80/76 101/77/76
o adult_body_M_L_head.001
v -0.142394 5.740895 0.152506 0.3647 0.0353 0.2275
v -0.635873 6.306561 0.645985 0.7294 0.1804 0.5373
v -0.142394 5.740895 -0.136554 0.3647 0.0353 0.2275
v -0.509354 6.306562 -0.630033 0.4902 0.0784 0.4589
v 0.146666 5.740896 0.152506 0.3647 0.0353 0.2275
v 0.640146 6.306561 0.645985 0.7294 0.1804 0.5373
v 0.146666 5.740895 -0.136554 0.3647 0.0353 0.2275
v 0.513626 6.306561 -0.630033 0.4902 0.0784 0.4589
v -0.426789 7.514773 0.436901 0.7294 0.1804 0.5373
v -0.426789 7.514773 -0.420949 0.4902 0.0784 0.4589
v 0.431061 7.514773 -0.420949 0.4902 0.0784 0.4589
v 0.431061 7.514773 0.436901 0.7294 0.1804 0.5373
v -0.509354 7.023753 -0.630033 0.4902 0.0784 0.4589
v 0.513626 7.023753 -0.630034 0.4902 0.0784 0.4589
v 0.640145 7.023753 0.645985 0.7294 0.1804 0.5373
v -0.635873 7.023754 0.645985 0.7294 0.1804 0.5373
v -0.003249 7.440094 0.267043 0.4902 0.0784 0.4589
v 0.100864 7.379904 -0.182951 0.4823 0.1373 0.4589
v 0.427730 7.314839 0.142443 0.4902 0.0784 0.4589
v 0.288902 8.050875 -0.141326 0.7294 0.1804 0.5373
v -0.435233 8.077847 -0.103352 0.6667 0.3647 0.5569
v 0.024539 7.517280 0.237122 0.4902 0.0784 0.4589
v -0.167691 7.437613 -0.179601 0.4353 0.2745 0.4628
v -0.409968 7.351864 0.208864 0.4902 0.0784 0.4589
v 0.249755 6.834982 0.812762 0.0000 0.0000 0.0000
v 0.190929 6.978721 0.671190 0.4902 0.0784 0.4589
v 0.185564 6.991831 0.646549 0.7294 0.1804 0.5373
v 0.371496 6.805209 0.812762 0.0000 0.0000 0.0000
v 0.490020 6.905572 0.671189 0.4902 0.0784 0.4589
v 0.500832 6.914725 0.646549 0.7294 0.1804 0.5373
v 0.380799 6.680225 0.812762 0.0235 0.0235 0.0235
v 0.512876 6.598516 0.671190 0.4902 0.0784 0.4589
v 0.524924 6.591062 0.646549 0.7294 0.1804 0.5373
v 0.290135 6.736315 0.845557 0.0000 0.0000 0.0000
v 0.264807 6.632755 0.812762 0.0000 0.0000 0.0000
v 0.227911 6.481892 0.671190 0.4902 0.0784 0.4589
v 0.224545 6.468132 0.646549 0.7294 0.1804 0.5373
v 0.183818 6.728401 0.812762 0.0118 0.0118 0.0118
v 0.028937 6.716871 0.671190 0.4902 0.0784 0.4589
v 0.014809 6.715820 0.646549 0.7294 0.1804 0.5373
v 0.196662 6.964713 0.698326 1.0000 1.0000 1.0000
v 0.478470 6.895791 0.698326 1.0000 1.0000 1.0000
v 0.500004 6.606479 0.698327 1.0000 1.0000 1.0000
v 0.231506 6.496595 0.698327 1.0000 1.0000 1.0000
v 0.044031 6.717996 0.698326 1.0000 1.0000 1.0000
v -0.389307 6.728597 0.779800 0.8196 0.8509 0.7568
v -0.310320 6.635316 0.779800 0.8196 0.8509 0.7568
v -0.197197 6.681612 0.779800 0.8157 0.8470 0.7529
v -0.206270 6.803505 0.779800 0.8196 0.8509 0.7568
v -0.325001 6.832543 0.779800 0.8117 0.8431 0.7490
v -0.486695 6.721348 0.700073 1.0000 1.0000 1.0000
v -0.333521 6.540455 0.700073 1.0000 1.0000 1.0000
v -0.114147 6.630234 0.700073 1.0000 1.0000 1.0000
v -0.131742 6.866613 0.700073 1.0000 1.0000 1.0000
v -0.361990 6.922925 0.700073 1.0000 1.0000 1.0000
v -0.510571 6.719570 0.646549 0.7294 0.1804 0.5373
v -0.499028 6.720428 0.677901 0.4902 0.0784 0.4589
v -0.372484 6.729849 0.793572 0.0118 0.0118 0.0118
v -0.339208 6.517199 0.646549 0.7294 0.1804 0.5373
v -0.336459 6.528443 0.677901 0.4902 0.0784 0.4589
v -0.306313 6.651704 0.793572 0.0000 0.0000 0.0000
v 0.241934 6.854092 0.795906 0.8117 0.8431 0.7490
v 0.387253 6.818551 0.795906 0.8196 0.8509 0.7568
v 0.398357 6.669362 0.795906 0.8157 0.8470 0.7529
v 0.259902 6.612699 0.795906 0.8196 0.8509 0.7568
v 0.163227 6.726869 0.795906 0.8196 0.8509 0.7568
v -0.285619 6.736315 0.820366 0.0000 0.0000 0.0000
v -0.093787 6.617638 0.646549 0.7294 0.1804 0.5373
v -0.103631 6.623728 0.677901 0.4902 0.0784 0.4589
v -0.211543 6.690487 0.793572 0.0235 0.0235 0.0235
v -0.113471 6.882083 0.646549 0.7294 0.1804 0.5373
v -0.122305 6.874605 0.677901 0.4902 0.0784 0.4589
v -0.219144 6.792603 0.793572 0.0000 0.0000 0.0000
v -0.371058 6.945081 0.646549 0.7294 0.1804 0.5373
v -0.366674 6.934370 0.677901 0.4902 0.0784 0.4589
v -0.318611 6.816930 0.793572 0.0000 0.0000 0.0000
v 0.002136 5.740896 -0.136554 0.3647 0.0353 0.2275
v 0.002136 6.306561 -0.630033 0.4902 0.0784 0.4589
v 0.002136 5.740896 0.152506 0.3647 0.0353 0.2275
v 0.002136 6.306561 0.645985 0.7294 0.1804 0.5373
v 0.002136 7.514773 -0.420949 0.4902 0.0784 0.4589
v 0.002136 7.514773 0.436901 0.7294 0.1804 0.5373
v 0.002136 7.023753 0.645985 0.7294 0.1804 0.5373
v 0.002136 7.023754 -0.630033 0.4902 0.0784 0.4589
vn -0.7943 -0.6041 -0.0642
vn -0.0000 -0.6574 -0.7536
vn 0.7943 -0.6041 -0.0642
vn -0.0000 -0.6574 0.7536
vn -0.0000 -1.0000 -0.0000
vn -0.0000 0.3918 -0.9201
vn -0.0000 1.0000 -0.0000
vn 0.9571 0.2842 -0.0567
vn -0.9571 0.2842 -0.0567
vn -0.0000 0.3918 0.9201
vn -0.0000 -0.0000 -1.0000
vn -0.9951 -0.0000 -0.0987
vn 0.9951 -0.0000 -0.0987
vn -0.9278 0.2756 -0.2515
vn -0.2601 -0.9631 0.0687
vn 0.6830 -0.1470 -0.7155
vn 0.3591 0.3939 0.8461
vn -0.2036 0.3808 0.9020
vn 0.8056 0.3898 -0.4461
vn 0.3549 -0.9348 0.0150
vn -0.7909 -0.2648 -0.5517
vn 0.2154 0.8808 0.4217
vn 0.0844 0.3452 0.9347
vn 0.1687 0.6900 0.7039
vn 0.3544 0.0264 0.9347
vn 0.7083 0.0527 0.7039
vn 0.9042 0.0673 0.4217
vn 0.3434 -0.8392 0.4217
vn 0.1346 -0.3289 0.9347
vn 0.2690 -0.6574 0.7039
vn -0.6920 -0.5859 0.4217
vn -0.2712 -0.2297 0.9347
vn -0.5421 -0.4590 0.7039
vn -0.7711 0.4770 0.4217
vn -0.3022 0.1870 0.9347
vn -0.6040 0.3737 0.7039
vn -0.7752 0.4796 0.4113
vn -0.6956 -0.5890 0.4113
vn 0.3452 -0.8436 0.4113
vn 0.9090 0.0677 0.4113
vn 0.2165 0.8854 0.4113
vn -0.6041 0.3737 0.7039
vn -0.8149 0.5041 0.2862
vn -0.7312 -0.6192 0.2862
vn 0.3629 -0.8868 0.2862
vn 0.9555 0.0711 0.2862
vn 0.2276 0.9308 0.2861
vn 0.0045 0.0001 1.0000
vn 0.0010 0.0039 1.0000
vn -0.0000 0.0176 0.9998
vn -0.0028 0.0017 1.0000
vn 0.0014 0.0011 1.0000
vn -0.0000 0.0072 1.0000
vn 0.0008 0.0033 1.0000
vn -0.0012 -0.0010 1.0000
vn -0.0045 -0.0000 1.0000
vn -0.0018 0.0011 1.0000
vn 0.0003 -0.0023 1.0000
vn -0.0000 -0.0035 1.0000
vn 0.0007 -0.0017 1.0000
vn -0.0006 -0.0014 1.0000
vt 0.375000 0.000000
vt 0.625000 0.000000
vt 0.625000 0.250000
vt 0.375000 0.250000
vt 0.375000 0.375000
vt 0.625000 0.375000
vt 0.625000 0.500000
vt 0.375000 0.500000
vt 0.625000 0.750000
vt 0.375000 0.750000
vt 0.375000 0.875000
vt 0.625000 0.875000
vt 0.625000 1.000000
vt 0.375000 1.000000
vt 0.250000 0.500000
vt 0.250000 0.750000
vt 0.750000 0.500000
vt 0.875000 0.500000
vt 0.875000 0.750000
vt 0.750000 0.750000
vt 0.250000 0.490000
vt 0.250000 0.250000
vt 0.457846 0.130000
vt 0.750000 0.490000
vt 0.957846 0.130000
vt 0.542154 0.130000
vt 0.042154 0.130000
vt 0.600000 0.250000
vt 0.600000 0.500000
vt 0.400000 0.500000
vt 0.400000 0.250000
vt 0.600000 0.750000
vt 0.500000 1.000000
vt 0.400000 0.750000
vt 0.600000 0.720441
vt 0.400000 0.720441
vt 0.300000 1.000000
vt 0.200000 0.750000
vt 0.200000 0.720441
vt 0.200000 0.500000
vt 0.200000 0.250000
vt 0.000000 0.500000
vt 0.000000 0.250000
vt 0.100000 1.000000
vt 0.000000 0.750000
vt 0.000000 0.720441
vt 1.000000 0.250000
vt 1.000000 0.500000
vt 0.800000 0.500000
vt 0.800000 0.250000
vt 1.000000 0.750000
vt 0.900000 1.000000
vt 0.800000 0.750000
vt 1.000000 0.720441
vt 0.800000 0.720441
vt 0.700000 1.000000
vt 0.800000 0.549324
vt 0.600000 0.549324
vt 1.000000 0.549324
vt 0.200000 0.549324
vt 0.000000 0.549324
vt 0.400000 0.549324
vt 0.125000 0.500000
vt 0.125000 0.750000
s 0
usemtl vertex_colors
f 110/81/77 111/82/77 113/83/77 112/84/77
f 186/85/78 187/86/78 117/87/78 116/88/78
f 116/88/79 117/87/79 115/89/79 114/90/79
f 188/91/80 189/92/80 111/93/80 110/94/80
f 186/95/81 116/88/81 114/90/81 188/96/81
f 193/86/82 122/83/82 119/83/82 190/86/82
f 190/97/83 119/98/83 118/99/83 191/100/83
f 124/89/84 123/87/84 120/87/84 121/89/84
f 122/83/85 125/82/85 118/82/85 119/83/85
f 192/92/86 124/89/86 121/89/86 191/92/86
f 117/87/87 187/86/87 193/86/87 123/87/87
f 113/83/88 111/82/88 125/82/88 122/83/88
f 115/89/89 117/87/89 123/87/89 124/89/89
f 187/86/87 113/83/87 122/83/87 193/86/87
f 126/101/90 129/102/90 127/103/90
f 126/104/91 127/105/91 128/106/91
f 127/103/92 129/102/92 128/107/92
f 128/107/93 129/102/93 126/101/93
f 131/107/94 130/102/94 133/101/94
f 132/103/95 130/102/95 131/107/95
f 133/104/96 132/105/96 131/106/96
f 133/101/97 130/102/97 132/103/97
f 136/108/98 135/109/98 138/110/98 139/111/98
f 134/112/99 143/113/99 137/114/99
f 171/115/100 134/112/100 137/114/100 172/116/100
f 137/114/101 143/117/101 140/118/101
f 172/116/102 137/114/102 140/118/102 173/119/102
f 139/111/103 138/110/103 141/120/103 142/121/103
f 142/121/104 141/120/104 145/122/104 146/123/104
f 140/118/105 143/124/105 144/125/105
f 173/119/106 140/118/106 144/125/106 174/126/106
f 146/127/107 145/128/107 148/129/107 149/130/107
f 144/131/108 143/132/108 147/133/108
f 174/134/109 144/131/109 147/133/109 175/135/109
f 149/130/110 148/129/110 135/109/110 136/108/110
f 147/133/111 143/136/111 134/112/111
f 175/135/112 147/133/112 134/112/112 171/115/112
f 148/129/113 154/137/113 150/138/113 135/109/113
f 145/128/114 153/139/114 154/137/114 148/129/114
f 141/120/115 152/140/115 153/141/115 145/122/115
f 138/110/116 151/142/116 152/140/116 141/120/116
f 135/109/117 150/138/117 151/142/117 138/110/117
f 164/138/100 159/115/100 158/116/100 163/142/100
f 163/142/102 158/116/102 157/119/102 162/140/102
f 162/140/106 157/119/106 156/126/106 161/141/106
f 161/139/109 156/134/109 155/135/109 160/137/109
f 160/137/118 155/135/118 159/115/118 164/138/118
f 184/109/117 164/138/117 163/142/117 181/110/117
f 181/110/116 163/142/116 162/140/116 178/120/116
f 178/120/115 162/140/115 161/141/115 169/122/115
f 169/128/114 161/139/114 160/137/114 166/129/114
f 166/129/113 160/137/113 164/138/113 184/109/113
f 155/135/112 167/133/112 185/112/112 159/115/112
f 167/133/111 176/136/111 185/112/111
f 165/130/119 166/129/119 184/109/119 183/108/119
f 156/134/109 170/131/109 167/133/109 155/135/109
f 170/131/108 176/132/108 167/133/108
f 154/137/118 175/135/118 171/115/118 150/138/118
f 153/139/109 174/134/109 175/135/109 154/137/109
f 152/140/106 173/119/106 174/126/106 153/141/106
f 151/142/102 172/116/102 173/119/102 152/140/102
f 150/138/100 171/115/100 172/116/100 151/142/100
f 168/127/120 169/128/120 166/129/120 165/130/120
f 157/119/106 179/118/106 170/125/106 156/126/106
f 179/118/105 176/124/105 170/125/105
f 177/121/121 178/120/121 169/122/121 168/123/121
f 180/111/122 181/110/122 178/120/122 177/121/122
f 158/116/102 182/114/102 179/118/102 157/119/102
f 182/114/101 176/117/101 179/118/101
f 159/115/100 185/112/100 182/114/100 158/116/100
f 185/112/99 176/113/99 182/114/99
f 183/108/123 184/109/123 181/110/123 180/111/123
f 125/93/86 192/92/86 191/92/86 118/93/86
f 120/87/83 190/97/83 191/100/83 121/89/83
f 123/87/82 193/86/82 190/86/82 120/87/82
f 112/143/81 186/95/81 188/96/81 110/144/81
f 114/90/80 115/89/80 189/92/80 188/91/80
f 112/84/78 113/83/78 187/86/78 186/85/78
f 115/89/124 124/89/124 139/111/124 142/121/124
f 136/108/125 139/111/125 124/89/125
f 192/92/126 136/108/126 124/89/126
f 149/130/127 136/108/127 192/92/127
f 177/121/128 149/130/128 192/92/128 180/111/128
f 192/92/129 125/93/129 183/108/129
f 180/111/130 192/92/130 183/108/130
f 111/82/131 168/127/131 165/130/131
f 125/93/132 111/82/132 165/130/132
f 183/108/133 125/93/133 165/130/133
f 111/82/134 189/92/134 177/121/134 168/127/134
f 146/127/135 189/92/135 115/89/135
f 142/121/136 146/127/136 115/89/136
f 149/130/137 177/121/137 189/92/137 146/127/137
