# Blender 4.4.3
# www.blender.org
mtllib citizen_2.mtl
o kid_body_F_L
v -0.882932 6.619479 -0.331316 0.3568 0.2902 0.4078
v -0.882932 6.619479 0.231385 0.3568 0.2902 0.4078
v -0.421176 6.619479 0.284811 0.1255 0.1255 0.1804
v -0.421176 6.619479 -0.433856 0.3568 0.2902 0.4078
v -0.332417 6.619479 0.295081 0.3843 0.3176 0.4235
v -0.304144 6.619479 -0.327914 0.1255 0.1255 0.1804
v -1.326482 1.361756 -1.000000 0.2157 0.2118 0.3059
v -1.326482 1.361756 0.900069 0.2157 0.2118 0.3059
v -0.627590 1.361756 -1.102540 0.2157 0.2118 0.3059
v -0.627590 1.361756 0.953495 0.2157 0.2118 0.3059
v -0.925537 6.160530 0.295614 0.3568 0.2902 0.4078
v -0.925537 6.160530 -0.395545 0.3568 0.2902 0.4078
v -0.441003 6.160530 -0.498085 0.3568 0.2902 0.4078
v -0.441003 6.160530 0.349040 0.3568 0.2902 0.4078
v 0.882931 6.619479 -0.331316 0.3568 0.2902 0.4078
v 0.882931 6.619479 0.231385 0.3568 0.2902 0.4078
v -0.000000 1.361756 -1.191795 0.2157 0.2118 0.3059
v -0.000000 6.619479 0.331316 0.2157 0.2118 0.3059
v -0.000000 1.361756 1.000000 0.2157 0.2118 0.3059
v -0.000000 6.619479 -0.523111 0.4235 0.3608 0.4471
v 0.421176 6.619479 0.284811 0.1255 0.1255 0.1804
v 0.421176 6.619479 -0.433856 0.3568 0.2902 0.4078
v -0.000000 5.476029 0.491340 0.1255 0.1255 0.1804
v -0.000000 5.668184 0.464448 0.3568 0.2902 0.4078
v 0.332416 6.619479 0.295081 0.3843 0.3176 0.4235
v -0.000000 6.619479 -0.440725 0.3568 0.2902 0.4078
v 0.304143 6.619479 -0.327914 0.2823 0.2588 0.2863
v 1.326481 1.361756 -1.000000 0.2157 0.2118 0.3059
v 1.326481 1.361756 0.900069 0.2627 0.2549 0.3294
v 0.627589 1.361756 -1.102540 0.2157 0.2118 0.3059
v 0.627589 1.361756 0.953495 0.2157 0.2118 0.3059
v 0.925536 6.160530 0.295614 0.3568 0.2902 0.4078
v 0.925536 6.160530 -0.395545 0.3568 0.2902 0.4078
v -0.000000 6.160530 -0.587340 0.3568 0.2902 0.4078
v -0.000000 5.126911 0.540198 0.1255 0.1255 0.1804
v 0.441002 6.160530 -0.498085 0.3568 0.2902 0.4078
v 0.441002 6.160530 0.349040 0.3568 0.2902 0.4078
vn -0.0000 1.0000 -0.0000
vn -0.1110 0.1451 0.9832
vn -0.9957 0.0924 -0.0000
vn -0.2007 0.1400 -0.9696
vn -0.0000 -1.0000 -0.0000
vn -0.2094 0.1495 -0.9663
vn -0.1001 0.1403 0.9850
vn -0.1113 0.1366 0.9844
vn -0.1073 0.1378 0.9846
vn -0.0988 0.1248 0.9872
vn -0.1692 0.1334 -0.9765
vn -0.1634 0.1264 -0.9784
vn -0.9965 0.0833 -0.0000
vn -0.0892 0.1298 0.9875
vn 0.1110 0.1451 0.9832
vn 0.9957 0.0924 -0.0000
vn 0.2007 0.1400 -0.9696
vn 0.2094 0.1495 -0.9663
vn 0.1001 0.1403 0.9850
vn 0.1113 0.1366 0.9844
vn 0.1073 0.1378 0.9846
vn 0.0988 0.1248 0.9872
vn 0.1692 0.1334 -0.9765
vn 0.1634 0.1264 -0.9784
vn 0.9965 0.0833 -0.0000
vn 0.0892 0.1298 0.9875
vt 0.808171 0.500000
vt 0.875000 0.500000
vt 0.875000 0.750000
vt 0.808171 0.750000
vt 0.600987 0.933171
vt 0.625000 0.933171
vt 0.625000 1.000000
vt 0.600987 1.000000
vt 0.600987 0.000000
vt 0.625000 0.000000
vt 0.625000 0.250000
vt 0.600987 0.250000
vt 0.600987 0.316829
vt 0.625000 0.316829
vt 0.625000 0.375000
vt 0.600987 0.375000
vt 0.250000 0.500000
vt 0.250000 0.750000
vt 0.191829 0.750000
vt 0.191829 0.500000
vt 0.546905 0.875000
vt 0.565172 0.875000
vt 0.750000 0.500000
vt 0.791233 0.542762
vt 0.750000 0.524106
vt 0.575226 0.875000
vt 0.625000 0.920325
vt 0.625000 0.875000
vt 0.795325 0.750000
vt 0.750000 0.750000
vt 0.125000 0.750000
vt 0.125000 0.500000
vt 0.375000 0.875000
vt 0.375000 0.933171
vt 0.375000 0.250000
vt 0.375000 0.316829
vt 0.375000 0.375000
vt 0.375000 0.000000
vt 0.375000 1.000000
s 0
usemtl vertex_colors
f 4/1/1 1/2/1 2/3/1 3/4/1
f 14/5/2 3/6/2 2/7/2 11/8/2
f 11/9/3 2/10/3 1/11/3 12/12/3
f 13/13/4 4/14/4 20/15/4 34/16/4
f 17/17/5 19/18/5 10/19/5 9/20/5
f 12/12/6 1/11/6 4/14/6 13/13/6
f 35/21/7 23/22/7 3/6/7 14/5/7
f 20/23/1 4/1/1 6/24/1 26/25/1
f 3/6/8 23/22/8 24/26/8 5/27/8
f 5/27/9 24/26/9 18/28/9
f 26/25/1 6/24/1 5/29/1 18/30/1
f 6/24/1 4/1/1 3/4/1 5/29/1
f 8/31/5 7/32/5 9/20/5 10/19/5
f 19/33/10 35/21/10 14/5/10 10/34/10
f 7/35/11 12/12/11 13/13/11 9/36/11
f 9/36/12 13/13/12 34/16/12 17/37/12
f 8/38/13 11/9/13 12/12/13 7/35/13
f 10/34/14 14/5/14 11/8/14 8/39/14
f 22/1/1 21/4/1 16/3/1 15/2/1
f 37/5/15 32/8/15 16/7/15 21/6/15
f 32/9/16 33/12/16 15/11/16 16/10/16
f 36/13/17 34/16/17 20/15/17 22/14/17
f 31/19/5 19/18/5 17/17/5 30/20/5
f 33/12/18 36/13/18 22/14/18 15/11/18
f 35/21/19 37/5/19 21/6/19 23/22/19
f 20/23/1 26/25/1 27/24/1 22/1/1
f 21/6/20 25/27/20 24/26/20 23/22/20
f 25/27/21 18/28/21 24/26/21
f 26/25/1 18/30/1 25/29/1 27/24/1
f 27/24/1 25/29/1 21/4/1 22/1/1
f 28/32/5 29/31/5 31/19/5 30/20/5
f 19/33/22 31/34/22 37/5/22 35/21/22
f 28/35/23 30/36/23 36/13/23 33/12/23
f 30/36/24 17/37/24 34/16/24 36/13/24
f 29/38/25 28/35/25 33/12/25 32/9/25
f 31/34/26 29/39/26 32/8/26 37/5/26
o kid_body_Arm_Left
v 0.872892 6.167105 -0.257575 0.2157 0.2118 0.3059
v 1.319713 6.017457 -0.257575 0.3568 0.2902 0.4078
v 0.872892 6.167105 0.257575 0.2157 0.2118 0.3059
v 1.319713 6.017457 0.257575 0.3568 0.2902 0.4078
v 1.560262 3.589064 0.327335 0.7294 0.1804 0.5373
v 1.560262 3.589064 -0.327335 0.7294 0.1804 0.5373
v 1.253042 6.393230 -0.226914 0.3568 0.2902 0.4078
v 1.253042 6.393230 0.226914 0.3568 0.2902 0.4078
v 1.188216 3.400423 0.327335 0.7294 0.1804 0.5373
v 0.843769 6.580466 0.226914 0.2667 0.2549 0.3333
v 1.188216 3.400423 -0.327335 0.7294 0.1804 0.5373
v 0.843769 6.580466 -0.226914 0.2157 0.2118 0.3059
v 1.586399 4.514362 0.380220 0.4157 0.3490 0.4353
v 1.586399 4.514362 -0.380220 0.3568 0.2902 0.4078
v 0.989382 4.513659 -0.380220 0.2157 0.2118 0.3059
v 0.989382 4.513659 0.380220 0.2157 0.2118 0.3059
v 1.499317 4.431252 -0.287615 0.4902 0.0784 0.4589
v 1.112546 4.391283 -0.287615 0.4902 0.0784 0.4589
v 1.499317 4.431252 0.287615 0.4902 0.0784 0.4589
v 1.112546 4.391283 0.287615 0.4902 0.0784 0.4589
v 1.512836 4.444155 0.301992 0.2157 0.2118 0.3059
v 1.093425 4.410282 0.301992 0.2157 0.2118 0.3059
v 1.512836 4.444155 -0.301992 0.2157 0.2118 0.3059
v 1.093425 4.410282 -0.301992 0.2157 0.2118 0.3059
vn 0.0112 0.0788 -0.9968
vn 0.0320 0.0813 -0.9962
vn -0.9975 -0.0703 -0.0000
vn 0.0112 0.0788 0.9968
vn -0.0128 0.0423 -0.9990
vn 0.4522 -0.8919 -0.0000
vn 0.4160 0.9094 -0.0000
vn 0.0320 0.0813 0.9962
vn 0.6904 -0.7234 -0.0000
vn 0.0227 -0.6671 0.7446
vn 0.9846 0.1747 -0.0000
vn -0.7048 -0.7094 -0.0000
vn -0.9971 -0.0761 -0.0000
vn -0.0128 0.0423 0.9990
vn 0.9974 0.0722 -0.0000
vn 0.0607 -0.6624 -0.7467
vn 0.0227 -0.6671 -0.7446
vn 0.0607 -0.6624 0.7467
vt 0.600000 0.250000
vt 0.500000 0.250000
vt 0.625000 0.250000
vt 0.500000 0.000000
vt 0.600000 0.000000
vt 0.500000 0.000000
vt 0.473884 0.250000
vt 0.375000 0.250000
vt 0.375000 0.000000
vt 0.625000 0.000000
vt 0.477938 0.000000
vt 0.477938 0.250000
vt 0.477938 0.000000
vt 0.473883 0.000000
vt 0.473884 0.000000
s 0
usemtl vertex_colors
f 38/40/27 39/40/27 51/41/27 52/41/27
f 49/42/28 44/42/28 39/40/28 38/40/28
f 53/43/29 40/44/29 38/40/29 52/41/29
f 53/43/30 50/45/30 41/44/30 40/44/30
f 55/46/31 54/46/31 43/47/31 48/47/31
f 48/47/32 43/47/32 42/48/32 46/48/32
f 47/49/33 45/49/33 44/42/33 49/42/33
f 40/44/29 47/49/29 49/42/29 38/40/29
f 40/44/34 41/44/34 45/49/34 47/49/34
f 58/50/35 60/51/35 51/41/35 50/45/35
f 59/52/36 58/50/36 50/45/36 53/43/36
f 41/44/37 39/40/37 44/42/37 45/49/37
f 59/52/38 53/43/38 52/41/38 61/51/38
f 46/48/39 57/53/39 55/46/39 48/47/39
f 46/48/40 42/48/40 56/54/40 57/53/40
f 42/48/41 43/47/41 54/46/41 56/54/41
f 61/51/42 60/51/42 54/46/42 55/46/42
f 52/41/43 51/41/43 60/51/43 61/51/43
f 57/53/38 59/52/38 61/51/38 55/46/38
f 57/53/44 56/54/44 58/50/44 59/52/44
f 56/54/35 54/46/35 60/51/35 58/50/35
f 50/45/37 51/41/37 39/40/37 41/44/37
o kid_body_Arm_Right
v -1.560262 3.589064 0.327335 0.7294 0.1804 0.5373
v -1.560262 3.589064 -0.327335 0.7294 0.1804 0.5373
v -1.253041 6.393230 -0.226914 0.3568 0.2902 0.4078
v -1.253041 6.393230 0.226914 0.3568 0.2902 0.4078
v -1.188216 3.400423 0.327335 0.7294 0.1804 0.5373
v -0.843769 6.580466 0.226914 0.2157 0.2118 0.3059
v -1.188216 3.400423 -0.327335 0.7255 0.1922 0.5373
v -0.843769 6.580466 -0.226914 0.2157 0.2118 0.3059
v -1.586399 4.514362 0.380220 0.3568 0.2902 0.4078
v -1.586399 4.514362 -0.380220 0.3568 0.2902 0.4078
v -0.989381 4.513659 -0.380220 0.2157 0.2118 0.3059
v -0.989381 4.513659 0.380220 0.2157 0.2118 0.3059
v -1.499316 4.431252 -0.287615 0.4157 0.1412 0.4118
v -1.112546 4.391283 -0.287615 0.4902 0.0784 0.4589
v -1.499316 4.431252 0.287615 0.4902 0.0784 0.4589
v -1.112546 4.391283 0.287615 0.4902 0.0784 0.4589
v -1.512836 4.444155 0.301992 0.2157 0.2118 0.3059
v -1.093425 4.410282 0.301992 0.2196 0.2157 0.3059
v -1.512836 4.444155 -0.301992 0.2157 0.2118 0.3059
v -1.093425 4.410282 -0.301992 0.2157 0.2118 0.3059
v -0.872891 6.167105 -0.257575 0.2157 0.2118 0.3059
v -1.319713 6.017457 -0.257575 0.3568 0.2902 0.4078
v -0.872891 6.167105 0.257575 0.2157 0.2118 0.3059
v -1.319713 6.017457 0.257575 0.3568 0.2902 0.4078
vn 0.0128 0.0423 -0.9990
vn -0.4522 -0.8919 -0.0000
vn -0.4160 0.9094 -0.0000
vn 0.9975 -0.0703 -0.0000
vn -0.0320 0.0813 0.9962
vn -0.6904 -0.7234 -0.0000
vn -0.0227 -0.6671 0.7446
vn -0.9846 0.1747 -0.0000
vn 0.7048 -0.7094 -0.0000
vn 0.9971 -0.0761 -0.0000
vn 0.0128 0.0423 0.9990
vn -0.9974 0.0722 -0.0000
vn -0.0607 -0.6624 -0.7467
vn -0.0227 -0.6671 -0.7446
vn -0.0607 -0.6624 0.7467
vn -0.0320 0.0813 -0.9962
vn -0.0112 0.0788 0.9968
vn -0.0112 0.0788 -0.9968
vt 0.473884 0.250000
vt 0.375000 0.250000
vt 0.375000 0.000000
vt 0.625000 0.000000
vt 0.625000 0.250000
vt 0.600000 0.000000
vt 0.600000 0.250000
vt 0.600000 0.000000
vt 0.477938 0.000000
vt 0.500000 0.000000
vt 0.500000 0.250000
vt 0.477938 0.250000
vt 0.477938 0.000000
vt 0.500000 0.000000
vt 0.473883 0.000000
vt 0.473884 0.000000
s 0
usemtl vertex_colors
f 75/55/45 68/56/45 63/56/45 74/55/45
f 68/56/46 66/57/46 62/57/46 63/56/46
f 67/58/47 69/59/47 64/59/47 65/58/47
f 84/60/48 82/61/48 69/59/48 67/58/48
f 84/60/49 67/58/49 65/58/49 85/62/49
f 78/63/50 70/64/50 71/65/50 80/66/50
f 79/67/51 73/68/51 70/64/51 78/63/51
f 85/62/52 65/58/52 64/59/52 83/61/52
f 79/67/53 81/66/53 72/65/53 73/68/53
f 66/57/54 68/56/54 75/55/54 77/69/54
f 66/57/55 77/69/55 76/70/55 62/57/55
f 62/57/56 76/70/56 74/55/56 63/56/56
f 81/66/57 75/55/57 74/55/57 80/66/57
f 72/65/58 81/66/58 80/66/58 71/65/58
f 77/69/53 75/55/53 81/66/53 79/67/53
f 77/69/59 79/67/59 78/63/59 76/70/59
f 76/70/50 78/63/50 80/66/50 74/55/50
f 69/59/60 82/61/60 83/61/60 64/59/60
f 73/68/48 72/65/48 82/61/48 84/60/48
f 73/68/61 84/60/61 85/62/61 70/64/61
f 70/64/52 85/62/52 83/61/52 71/65/52
f 82/61/62 72/65/62 71/65/62 83/61/62
o kid_body_Feet_Right
v -0.392443 1.788869 -0.539819 0.3568 0.2902 0.4078
v -0.392443 1.788869 0.539819 0.3568 0.2902 0.4078
v -0.985410 1.788869 -0.539819 0.3568 0.2902 0.4078
v -0.985410 1.788869 0.539819 0.3568 0.2902 0.4078
v -0.875005 0.000000 -0.227668 0.1255 0.1255 0.1804
v -0.875005 0.000000 0.227668 0.1255 0.1255 0.1804
v -0.502848 0.000000 -0.227668 0.1255 0.1255 0.1804
v -0.502848 0.000000 0.227668 0.1255 0.1255 0.1804
v -0.979276 1.299222 0.522477 0.2157 0.2118 0.3059
v -0.398577 1.299222 0.522477 0.2157 0.2118 0.3059
v -0.979276 1.299222 -0.522477 0.2157 0.2118 0.3059
v -0.398577 1.299222 -0.522477 0.2157 0.2118 0.3059
vn -0.0000 -1.0000 -0.0000
vn -0.0000 -0.2213 0.9752
vn -0.9968 -0.0800 -0.0000
vn 0.9968 -0.0800 -0.0000
vn -0.0000 -0.2213 -0.9752
vn -0.0000 -0.0354 -0.9994
vn 0.9999 -0.0125 -0.0000
vn -0.9999 -0.0125 -0.0000
vn -0.0000 -0.0354 0.9994
vt 0.125000 0.500000
vt 0.375000 0.500000
vt 0.375000 0.750000
vt 0.125000 0.750000
vt 0.125000 0.750000
s 0
usemtl vertex_colors
f 90/71/63 92/72/63 93/73/63 91/74/63
f 95/73/64 94/75/64 91/74/64 93/73/64
f 94/75/65 96/71/65 90/71/65 91/74/65
f 97/72/66 95/73/66 93/73/66 92/72/66
f 96/71/67 97/72/67 92/72/67 90/71/67
f 88/71/68 86/72/68 97/72/68 96/71/68
f 86/72/69 87/73/69 95/73/69 97/72/69
f 89/74/70 88/71/70 96/71/70 94/75/70
f 87/73/71 89/74/71 94/75/71 95/73/71
o kid_body_Feet_Left
v 0.392443 1.788869 -0.539819 0.3568 0.2902 0.4078
v 0.392443 1.788869 0.539819 0.3568 0.2902 0.4078
v 0.985409 1.788869 -0.539819 0.3568 0.2902 0.4078
v 0.985409 1.788869 0.539819 0.3568 0.2902 0.4078
v 0.875005 0.000000 -0.227668 0.1255 0.1255 0.1804
v 0.875005 0.000000 0.227668 0.1255 0.1255 0.1804
v 0.502847 0.000000 -0.227668 0.1255 0.1255 0.1804
v 0.502847 0.000000 0.227668 0.1255 0.1255 0.1804
v 0.979275 1.299222 0.522477 0.2157 0.2118 0.3059
v 0.398576 1.299222 0.522477 0.2157 0.2118 0.3059
v 0.979275 1.299222 -0.522477 0.2157 0.2118 0.3059
v 0.398576 1.299222 -0.522477 0.2157 0.2118 0.3059
vn -0.0000 -1.0000 -0.0000
vn -0.0000 -0.2213 0.9752
vn 0.9968 -0.0800 -0.0000
vn -0.9968 -0.0800 -0.0000
vn -0.0000 -0.2213 -0.9752
vn -0.0000 -0.0354 -0.9994
vn -0.9999 -0.0125 -0.0000
vn 0.9999 -0.0125 -0.0000
vn -0.0000 -0.0354 0.9994
vt 0.125000 0.500000
vt 0.125000 0.750000
vt 0.375000 0.750000
vt 0.375000 0.500000
vt 0.125000 0.750000
s 0
usemtl vertex_colors
f 102/76/72 103/77/72 105/78/72 104/79/72
f 107/78/73 105/78/73 103/77/73 106/80/73
f 106/80/74 103/77/74 102/76/74 108/76/74
f 109/79/75 104/79/75 105/78/75 107/78/75
f 108/76/76 102/76/76 104/79/76 109/79/76
f 100/76/77 108/76/77 109/79/77 98/79/77
f 98/79/78 109/79/78 107/78/78 99/78/78
f 101/77/79 106/80/79 108/76/79 100/76/79
f 99/78/80 107/78/80 106/80/80 101/77/80
o adult_body_M_L_head.002
v -0.142394 6.550781 0.152506 0.3647 0.0353 0.2275
v -0.635874 7.116447 0.645986 0.7294 0.1804 0.5373
v -0.142394 6.550781 -0.136554 0.3647 0.0353 0.2275
v -0.509355 7.116447 -0.630033 0.4902 0.0784 0.4589
v 0.146666 6.550782 0.152506 0.3647 0.0353 0.2275
v 0.640145 7.116447 0.645986 0.7294 0.1804 0.5373
v 0.146665 6.550781 -0.136554 0.3647 0.0353 0.2275
v 0.513626 7.116446 -0.630033 0.4902 0.0784 0.4589
v -0.426789 8.324659 0.436901 0.7294 0.1804 0.5373
v -0.426789 8.324659 -0.420949 0.4902 0.0784 0.4589
v 0.431061 8.324659 -0.420949 0.4902 0.0784 0.4589
v 0.431061 8.324659 0.436901 0.7294 0.1804 0.5373
v -0.509355 7.833639 -0.630033 0.4902 0.0784 0.4589
v 0.513626 7.833639 -0.630033 0.4902 0.0784 0.4589
v 0.640145 7.833639 0.645986 0.7294 0.1804 0.5373
v -0.635874 7.833639 0.645986 0.7294 0.1804 0.5373
v 0.249754 7.644868 0.812762 0.0000 0.0000 0.0000
v 0.190929 7.788607 0.671190 0.4902 0.0784 0.4589
v 0.185563 7.801717 0.646549 0.7294 0.1804 0.5373
v 0.371495 7.615094 0.812762 0.0000 0.0000 0.0000
v 0.490020 7.715458 0.671190 0.4902 0.0784 0.4589
v 0.500832 7.724611 0.646549 0.7294 0.1804 0.5373
v 0.380798 7.490110 0.812762 0.0235 0.0235 0.0235
v 0.512876 7.408401 0.671190 0.4902 0.0784 0.4589
v 0.524924 7.400948 0.646549 0.7294 0.1804 0.5373
v 0.290134 7.546201 0.845557 0.0000 0.0000 0.0000
v 0.264807 7.442641 0.812762 0.0000 0.0000 0.0000
v 0.227910 7.291778 0.671190 0.4902 0.0784 0.4589
v 0.224545 7.278017 0.646549 0.7294 0.1804 0.5373
v 0.183817 7.538286 0.812762 0.0118 0.0118 0.0118
v 0.028937 7.526757 0.671190 0.4902 0.0784 0.4589
v 0.014809 7.525706 0.646549 0.7294 0.1804 0.5373
v 0.196662 7.774598 0.698327 1.0000 1.0000 1.0000
v 0.478469 7.705677 0.698327 1.0000 1.0000 1.0000
v 0.500004 7.416365 0.698327 1.0000 1.0000 1.0000
v 0.231506 7.306481 0.698327 1.0000 1.0000 1.0000
v 0.044030 7.527881 0.698327 1.0000 1.0000 1.0000
v -0.389308 7.538483 0.779800 0.8196 0.8509 0.7568
v -0.310321 7.445203 0.779800 0.8196 0.8509 0.7568
v -0.197197 7.491498 0.779800 0.8157 0.8470 0.7529
v -0.206270 7.613391 0.779800 0.8196 0.8509 0.7568
v -0.325001 7.642429 0.779800 0.8117 0.8431 0.7490
v -0.486696 7.531234 0.700073 1.0000 1.0000 1.0000
v -0.333521 7.350341 0.700073 1.0000 1.0000 1.0000
v -0.114147 7.440120 0.700073 1.0000 1.0000 1.0000
v -0.131742 7.676499 0.700073 1.0000 1.0000 1.0000
v -0.361990 7.732810 0.700073 1.0000 1.0000 1.0000
v -0.510571 7.529455 0.646549 0.7294 0.1804 0.5373
v -0.499028 7.530314 0.677901 0.4902 0.0784 0.4589
v -0.372485 7.539735 0.793572 0.0118 0.0118 0.0118
v -0.339208 7.327085 0.646549 0.7294 0.1804 0.5373
v -0.336459 7.338328 0.677902 0.4902 0.0784 0.4589
v -0.306313 7.461590 0.793572 0.0000 0.0000 0.0000
v 0.241934 7.663978 0.795906 0.8117 0.8431 0.7490
v 0.387252 7.628437 0.795906 0.8196 0.8509 0.7568
v 0.398357 7.479248 0.795906 0.8157 0.8470 0.7529
v 0.259902 7.422585 0.795906 0.8196 0.8509 0.7568
v 0.163227 7.536755 0.795906 0.8196 0.8509 0.7568
v -0.285620 7.546201 0.820366 0.0000 0.0000 0.0000
v -0.093788 7.427524 0.646549 0.7294 0.1804 0.5373
v -0.103631 7.433614 0.677902 0.4902 0.0784 0.4589
v -0.211543 7.500373 0.793572 0.0235 0.0235 0.0235
v -0.113472 7.691969 0.646549 0.7294 0.1804 0.5373
v -0.122305 7.684491 0.677901 0.4902 0.0784 0.4589
v -0.219144 7.602489 0.793572 0.0000 0.0000 0.0000
v -0.371058 7.754967 0.646549 0.7294 0.1804 0.5373
v -0.366674 7.744256 0.677902 0.4902 0.0784 0.4589
v -0.318611 7.626816 0.793572 0.0000 0.0000 0.0000
v 0.002136 6.550781 -0.136554 0.3647 0.0353 0.2275
v 0.002136 7.116447 -0.630033 0.4902 0.0784 0.4589
v 0.002136 6.550781 0.152506 0.3647 0.0353 0.2275
v 0.002136 7.116446 0.645986 0.7294 0.1804 0.5373
v 0.002136 8.324659 -0.420949 0.4902 0.0784 0.4589
v 0.002136 8.324659 0.436901 0.7294 0.1804 0.5373
v 0.002136 7.833639 0.645986 0.7294 0.1804 0.5373
v 0.002136 7.833640 -0.630033 0.4902 0.0784 0.4589
v -0.000002 8.653944 -0.563038 0.6941 0.2510 0.3294
v -0.000001 8.507736 0.203646 0.6941 0.2432 0.3255
v 0.132447 8.307114 0.428923 0.3647 0.1530 0.3647
v 0.428924 8.307114 -0.428927 0.3647 0.1530 0.3647
v -0.428926 8.307113 -0.428927 0.3412 0.2039 0.3725
v -0.132449 8.307114 0.428923 0.3647 0.1530 0.3647
v -0.349824 7.850766 -0.638498 0.3647 0.1530 0.3647
v 0.019083 7.923696 -1.097692 0.6941 0.2432 0.3255
v 0.391525 7.850766 -0.638498 0.3647 0.1530 0.3647
v -0.329962 6.978760 -0.766640 0.3647 0.1530 0.3647
v 0.006464 7.137380 -1.229162 0.6941 0.2432 0.3255
v 0.297091 7.240590 -0.831972 0.3647 0.1530 0.3647
v 0.180158 6.671244 -0.751403 0.3647 0.1530 0.3647
v 0.474750 6.762599 -1.106672 0.6941 0.2432 0.3255
v 0.429251 7.138295 -0.848700 0.3647 0.1530 0.3647
v 0.386608 6.651329 -0.725320 0.3647 0.1530 0.3647
v 0.813746 6.732823 -0.702766 0.3647 0.1530 0.3647
v 0.588254 7.027536 -0.699998 0.3647 0.1530 0.3647
v 0.510896 6.688423 0.332201 0.3647 0.1530 0.3647
v 0.934636 6.791407 0.187138 0.3647 0.1530 0.3647
v 0.709143 7.086121 0.189906 0.6941 0.2432 0.3255
v 0.573895 6.452728 0.411437 0.3647 0.1530 0.3647
v 0.941887 6.539176 0.460521 0.3647 0.1530 0.3647
v 0.744289 6.839053 0.699159 0.6941 0.2432 0.3255
v 0.702304 5.988159 0.546697 0.3647 0.1530 0.3647
v 0.860396 6.010521 0.565996 0.3647 0.1530 0.3647
v 0.769300 6.075226 0.659824 0.6941 0.2432 0.3255
v 0.777334 5.629746 0.590839 0.3647 0.1530 0.3647
vn -0.7943 -0.6041 -0.0642
vn -0.0000 -0.6574 -0.7536
vn 0.7943 -0.6041 -0.0642
vn -0.0000 -0.6574 0.7536
vn -0.0000 -1.0000 -0.0000
vn -0.0000 0.3918 -0.9201
vn -0.0000 1.0000 -0.0000
vn 0.9571 0.2842 -0.0567
vn -0.9571 0.2842 -0.0567
vn -0.0000 0.3918 0.9201
vn -0.0000 -0.0000 -1.0000
vn -0.9951 -0.0000 -0.0987
vn 0.9951 -0.0000 -0.0987
vn 0.2154 0.8808 0.4217
vn 0.0844 0.3452 0.9347
vn 0.1687 0.6900 0.7039
vn 0.3544 0.0264 0.9347
vn 0.7084 0.0527 0.7039
vn 0.9042 0.0673 0.4217
vn 0.3434 -0.8392 0.4217
vn 0.1346 -0.3289 0.9347
vn 0.2690 -0.6574 0.7039
vn -0.6920 -0.5859 0.4217
vn -0.2712 -0.2297 0.9347
vn -0.5421 -0.4590 0.7039
vn -0.7711 0.4770 0.4217
vn -0.3022 0.1870 0.9347
vn -0.6040 0.3737 0.7039
vn -0.7752 0.4795 0.4113
vn -0.6956 -0.5890 0.4113
vn 0.3452 -0.8436 0.4113
vn 0.9090 0.0677 0.4113
vn 0.2165 0.8854 0.4113
vn 0.7083 0.0527 0.7039
vn -0.6041 0.3737 0.7039
vn -0.7752 0.4796 0.4113
vn -0.8149 0.5041 0.2862
vn 0.1688 0.6900 0.7039
vn -0.7312 -0.6192 0.2862
vn 0.3629 -0.8868 0.2862
vn 0.9555 0.0711 0.2862
vn 0.2276 0.9308 0.2861
vn 0.0045 0.0001 1.0000
vn 0.0010 0.0039 1.0000
vn -0.0000 0.0176 0.9998
vn -0.0028 0.0017 1.0000
vn 0.0014 0.0011 1.0000
vn -0.0000 0.0072 1.0000
vn 0.0008 0.0033 1.0000
vn -0.0012 -0.0010 1.0000
vn -0.0045 -0.0000 1.0000
vn -0.0018 0.0011 1.0000
vn 0.0003 -0.0023 1.0000
vn -0.0000 -0.0035 1.0000
vn 0.0007 -0.0017 1.0000
vn -0.0006 -0.0014 1.0000
vn 0.5926 0.7912 0.1509
vn -0.6714 0.7038 0.2320
vn -0.0000 0.7468 0.6651
vn 0.6714 0.7038 0.2320
vn -0.5926 0.7912 0.1509
vn 0.6710 0.3865 -0.6328
vn -0.6708 0.3534 -0.6520
vn -0.0000 -0.4173 0.9088
vn 0.0877 -0.2154 0.9726
vn 0.7866 0.0821 -0.6120
vn -0.8017 0.0890 -0.5911
vn 0.0810 0.1233 0.9891
vn 0.5535 0.5600 -0.6164
vn -0.4251 -0.7203 -0.5482
vn -0.3399 0.2588 0.9041
vn 0.7072 0.4857 -0.5138
vn 0.1129 -0.9605 -0.2542
vn -0.8788 0.4692 0.0868
vn 0.7850 0.6020 -0.1463
vn 0.2147 -0.9765 0.0209
vn -0.8358 -0.0393 0.5477
vn 0.7735 0.5896 0.2327
vn 0.0406 -0.5814 -0.8126
vn -0.8265 -0.0595 0.5598
vn 0.7553 0.0005 0.6553
vn 0.1711 -0.2244 -0.9593
vn -0.8195 -0.1021 0.5639
vn 0.6783 -0.1005 0.7279
vn 0.1337 -0.0935 -0.9866
vn -0.8052 0.5098 0.3029
vn 0.8887 0.3485 0.2980
vn -0.8804 0.4659 0.0889
vt 0.375000 0.000000
vt 0.625000 0.000000
vt 0.625000 0.250000
vt 0.375000 0.250000
vt 0.375000 0.375000
vt 0.625000 0.375000
vt 0.625000 0.500000
vt 0.375000 0.500000
vt 0.625000 0.750000
vt 0.375000 0.750000
vt 0.375000 0.875000
vt 0.625000 0.875000
vt 0.625000 1.000000
vt 0.375000 1.000000
vt 0.250000 0.500000
vt 0.250000 0.750000
vt 0.750000 0.500000
vt 0.875000 0.500000
vt 0.875000 0.750000
vt 0.750000 0.750000
vt 0.600000 0.250000
vt 0.600000 0.500000
vt 0.400000 0.500000
vt 0.400000 0.250000
vt 0.600000 0.750000
vt 0.500000 1.000000
vt 0.400000 0.750000
vt 0.600000 0.720441
vt 0.400000 0.720441
vt 0.300000 1.000000
vt 0.200000 0.750000
vt 0.200000 0.720441
vt 0.200000 0.500000
vt 0.200000 0.250000
vt 0.000000 0.500000
vt 0.000000 0.250000
vt 0.100000 1.000000
vt 0.000000 0.750000
vt 0.000000 0.720441
vt 1.000000 0.250000
vt 1.000000 0.500000
vt 0.800000 0.500000
vt 0.800000 0.250000
vt 1.000000 0.750000
vt 0.900000 1.000000
vt 0.800000 0.750000
vt 1.000000 0.720441
vt 0.800000 0.720441
vt 0.700000 1.000000
vt 0.800000 0.549324
vt 0.600000 0.549324
vt 1.000000 0.549324
vt 0.200000 0.549324
vt 0.000000 0.549324
vt 0.400000 0.549324
vt 0.125000 0.500000
vt 0.125000 0.750000
s 0
usemtl vertex_colors
f 110/81/81 111/82/81 113/83/81 112/84/81
f 178/85/82 179/86/82 117/87/82 116/88/82
f 116/88/83 117/87/83 115/89/83 114/90/83
f 180/91/84 181/92/84 111/93/84 110/94/84
f 178/95/85 116/88/85 114/90/85 180/96/85
f 185/86/86 122/83/86 119/83/86 182/86/86
f 182/97/87 119/98/87 118/99/87 183/100/87
f 124/89/88 123/87/88 120/87/88 121/89/88
f 122/83/89 125/82/89 118/82/89 119/83/89
f 184/92/90 124/89/90 121/89/90 183/92/90
f 117/87/91 179/86/91 185/86/91 123/87/91
f 113/83/92 111/82/92 125/82/92 122/83/92
f 115/89/93 117/87/93 123/87/93 124/89/93
f 179/86/91 113/83/91 122/83/91 185/86/91
f 128/101/94 127/102/94 130/103/94 131/104/94
f 126/105/95 135/106/95 129/107/95
f 163/108/96 126/105/96 129/107/96 164/109/96
f 129/107/97 135/110/97 132/111/97
f 164/109/98 129/107/98 132/111/98 165/112/98
f 131/104/99 130/103/99 133/113/99 134/114/99
f 134/114/100 133/113/100 137/115/100 138/116/100
f 132/111/101 135/117/101 136/118/101
f 165/112/102 132/111/102 136/118/102 166/119/102
f 138/120/103 137/121/103 140/122/103 141/123/103
f 136/124/104 135/125/104 139/126/104
f 166/127/105 136/124/105 139/126/105 167/128/105
f 141/123/106 140/122/106 127/102/106 128/101/106
f 139/126/107 135/129/107 126/105/107
f 167/128/108 139/126/108 126/105/108 163/108/108
f 140/122/109 146/130/109 142/131/109 127/102/109
f 137/121/110 145/132/110 146/130/110 140/122/110
f 133/113/111 144/133/111 145/134/111 137/115/111
f 130/103/112 143/135/112 144/133/112 133/113/112
f 127/102/113 142/131/113 143/135/113 130/103/113
f 156/131/96 151/108/96 150/109/96 155/135/96
f 155/135/114 150/109/114 149/112/114 154/133/114
f 154/133/102 149/112/102 148/119/102 153/134/102
f 153/132/105 148/127/105 147/128/105 152/130/105
f 152/130/115 147/128/115 151/108/115 156/131/115
f 176/102/113 156/131/113 155/135/113 173/103/113
f 173/103/112 155/135/112 154/133/112 170/113/112
f 170/113/111 154/133/111 153/134/111 161/115/111
f 161/121/110 153/132/110 152/130/110 158/122/110
f 158/122/116 152/130/116 156/131/116 176/102/116
f 147/128/108 159/126/108 177/105/108 151/108/108
f 159/126/107 168/129/107 177/105/107
f 157/123/117 158/122/117 176/102/117 175/101/117
f 148/127/105 162/124/105 159/126/105 147/128/105
f 162/124/104 168/125/104 159/126/104
f 146/130/115 167/128/115 163/108/115 142/131/115
f 145/132/105 166/127/105 167/128/105 146/130/105
f 144/133/102 165/112/102 166/119/102 145/134/102
f 143/135/114 164/109/114 165/112/114 144/133/114
f 142/131/118 163/108/118 164/109/118 143/135/118
f 160/120/119 161/121/119 158/122/119 157/123/119
f 149/112/102 171/111/102 162/118/102 148/119/102
f 171/111/101 168/117/101 162/118/101
f 169/114/120 170/113/120 161/115/120 160/116/120
f 172/104/121 173/103/121 170/113/121 169/114/121
f 150/109/114 174/107/114 171/111/114 149/112/114
f 174/107/97 168/110/97 171/111/97
f 151/108/96 177/105/96 174/107/96 150/109/96
f 177/105/95 168/106/95 174/107/95
f 175/101/122 176/102/122 173/103/122 172/104/122
f 125/93/90 184/92/90 183/92/90 118/93/90
f 120/87/87 182/97/87 183/100/87 121/89/87
f 123/87/86 185/86/86 182/86/86 120/87/86
f 112/136/85 178/95/85 180/96/85 110/137/85
f 114/90/84 115/89/84 181/92/84 180/91/84
f 112/84/82 113/83/82 179/86/82 178/85/82
f 115/89/123 124/89/123 131/104/123 134/114/123
f 128/101/124 131/104/124 124/89/124
f 184/92/125 128/101/125 124/89/125
f 141/123/126 128/101/126 184/92/126
f 169/114/127 141/123/127 184/92/127 172/104/127
f 184/92/128 125/93/128 175/101/128
f 172/104/129 184/92/129 175/101/129
f 111/82/130 160/120/130 157/123/130
f 125/93/131 111/82/131 157/123/131
f 175/101/132 125/93/132 157/123/132
f 111/82/133 181/92/133 169/114/133 160/120/133
f 138/120/134 181/92/134 115/89/134
f 134/114/135 138/120/135 115/89/135
f 141/123/136 169/114/136 181/92/136 138/120/136
f 189/87/137 186/87/137 187/89/137
f 190/98/138 191/99/138 187/99/138
f 191/99/139 188/89/139 187/99/139
f 188/89/140 189/87/140 187/89/140
f 186/98/141 190/98/141 187/99/141
f 186/87/142 189/87/142 194/87/142 193/87/142
f 190/98/143 186/98/143 193/98/143 192/98/143
f 190/98/144 192/98/144 194/87/144 189/87/144
f 194/87/145 192/98/145 195/98/145 197/87/145
f 193/87/146 194/87/146 197/87/146 196/87/146
f 192/98/147 193/98/147 196/98/147 195/98/147
f 197/87/148 195/98/148 198/98/148 200/87/148
f 196/87/149 197/87/149 200/87/149 199/87/149
f 195/98/150 196/98/150 199/98/150 198/98/150
f 200/87/151 198/98/151 201/98/151 203/87/151
f 199/87/152 200/87/152 203/87/152 202/87/152
f 198/98/153 199/98/153 202/98/153 201/98/153
f 201/98/154 204/98/154 206/87/154
f 202/87/155 203/87/155 206/87/155
f 201/98/156 202/98/156 205/98/156 204/98/156
f 204/98/157 207/98/157 209/87/157
f 205/87/158 206/87/158 209/87/158
f 204/98/159 205/98/159 208/98/159 207/98/159
f 209/87/160 207/98/160 210/98/160 212/87/160
f 208/87/161 209/87/161 212/87/161 211/87/161
f 207/98/162 208/98/162 211/98/162 210/98/162
f 212/87/163 210/98/163 213/87/163
f 211/87/164 212/87/164 213/87/164
f 210/98/165 211/98/165 213/98/165
f 206/87/166 204/98/166 209/87/166
f 208/87/167 205/87/167 209/87/167
f 203/87/168 201/98/168 206/87/168
f 205/87/155 202/87/155 206/87/155
