# Blender 4.4.3
# www.blender.org
mtllib enforcer.mtl
o enforcer_body
v -2.232410 5.600292 1.186879 0.3372 0.4235 0.5255
v -2.080617 6.157225 1.163321 0.5804 0.6902 0.7608
v -1.816587 5.487158 1.191581 0.3372 0.4235 0.5255
v -1.664794 6.044091 1.168023 0.5804 0.6902 0.7608
v -1.268952 5.634758 1.185242 0.3372 0.4235 0.5255
v -1.192416 5.915570 1.173364 0.5804 0.6902 0.7608
v -0.830670 5.617975 1.185869 0.3372 0.4235 0.5255
v -0.780133 5.803399 1.178025 0.5804 0.6902 0.7608
v -0.458333 5.659039 1.184064 0.3372 0.4235 0.5255
v -0.407796 5.844462 1.176221 0.5804 0.6902 0.7608
v -0.080699 5.375598 1.195968 0.3372 0.4235 0.5255
v 0.015687 5.729245 1.181009 0.5804 0.6902 0.7608
v 1.104684 5.053088 1.209370 0.3490 0.4314 0.5333
v 1.201071 5.406734 1.194412 0.5804 0.6902 0.7608
v 1.345593 5.181043 1.164253 0.3412 0.4275 0.5294
v 1.378279 5.300971 1.159180 0.5804 0.6902 0.7608
v 2.151623 4.961745 1.173367 0.3843 0.4589 0.5530
v 2.184309 5.081673 1.168294 0.5804 0.6902 0.7608
v -2.232438 5.593932 1.036352 0.2000 0.2353 0.3412
v -2.080645 6.150865 1.012794 0.2000 0.2353 0.3412
v -1.816615 5.480798 1.041053 0.2432 0.2706 0.3647
v -1.664822 6.037731 1.017496 0.2000 0.2353 0.3412
v -1.268980 5.628400 1.034715 0.2000 0.2353 0.3412
v -1.192445 5.909210 1.022837 0.2000 0.2353 0.3412
v -0.830699 5.611615 1.035341 0.2000 0.2353 0.3412
v -0.780161 5.797040 1.027498 0.2000 0.2353 0.3412
v -0.458362 5.652680 1.033537 0.2196 0.2510 0.3490
v -0.407824 5.838103 1.025694 0.2000 0.2353 0.3412
v -0.080728 5.369240 1.045441 0.2000 0.2353 0.3412
v 0.015659 5.722885 1.030482 0.2000 0.2353 0.3412
v 1.104657 5.046728 1.058843 0.2000 0.2353 0.3412
v 1.201043 5.400374 1.043885 0.2000 0.2353 0.3412
v 1.345580 5.178030 1.092917 0.2196 0.2627 0.3686
v 1.378266 5.297957 1.087845 0.2000 0.2353 0.3412
v 2.151609 4.958731 1.102031 0.2000 0.2353 0.3412
v 2.184296 5.078658 1.096958 0.2471 0.2745 0.3686
v -0.822311 6.708177 -0.274671 0.2157 0.2118 0.3059
v -0.822311 6.708178 0.328476 0.3568 0.2902 0.4078
v -0.446721 6.708178 0.385742 0.2157 0.2118 0.3059
v -0.446721 6.708177 -0.384581 0.2157 0.2118 0.3059
v -0.351581 6.708177 0.396750 0.3843 0.3176 0.4235
v -0.321277 6.708177 -0.271025 0.2157 0.2118 0.3059
v -0.821151 4.824143 -0.509661 0.2314 0.2235 0.3137
v -0.821151 4.824144 0.543121 0.3568 0.2902 0.4078
v -0.386014 4.824144 -0.566476 0.2157 0.2118 0.3059
v -0.386015 4.824143 0.572724 0.3568 0.2902 0.4078
v 0.831768 6.708177 -0.274671 0.2157 0.2118 0.3059
v 0.831768 6.708177 0.328476 0.3568 0.2902 0.4078
v 0.004729 4.824143 -0.615930 0.1608 0.1608 0.2314
v 0.004729 6.708177 0.435589 0.2157 0.2118 0.3059
v 0.004729 4.824144 0.598490 0.3568 0.2902 0.4078
v 0.004729 6.708177 -0.480252 0.2196 0.2157 0.3098
v 0.456178 6.708177 0.385742 0.2157 0.2118 0.3059
v 0.456178 6.708178 -0.384581 0.2157 0.2118 0.3059
v 0.004729 6.139373 0.502564 0.2157 0.2118 0.3059
v 0.004729 6.334041 0.473739 0.3568 0.2902 0.4078
v 0.361039 6.708178 0.396750 0.3843 0.3176 0.4235
v 0.004729 6.708177 -0.391945 0.3372 0.2823 0.3961
v 0.330734 6.708177 -0.271025 0.2157 0.2118 0.3059
v 0.830608 4.824144 -0.509661 0.2157 0.2118 0.3059
v 0.830608 4.824144 0.543121 0.3568 0.2902 0.4078
v 0.395472 4.824144 -0.566476 0.2157 0.2118 0.3059
v 0.395472 4.824143 0.572723 0.3568 0.2902 0.4078
v -1.062293 3.888447 -0.626246 0.2471 0.2392 0.3176
v -1.062293 3.888447 0.664715 0.2157 0.2118 0.3059
v -0.500104 3.888447 -0.695914 0.2157 0.2118 0.3059
v -0.500104 3.888447 0.701015 0.2157 0.2118 0.3059
v 0.004730 3.888447 -0.756557 0.1647 0.1647 0.2392
v 0.004730 3.888447 0.732611 0.2157 0.2118 0.3059
v 1.071753 3.888448 -0.626246 0.2196 0.2157 0.3059
v 1.071753 3.888448 0.664715 0.2157 0.2118 0.3059
v 0.509564 3.888447 -0.695914 0.2157 0.2118 0.3059
v 0.509564 3.888447 0.701015 0.2157 0.2118 0.3059
v -0.041085 3.487436 -0.442996 0.1255 0.1255 0.1804
v -0.041085 3.654568 0.533291 0.2196 0.2118 0.3059
v 0.050545 3.487436 -0.442996 0.1255 0.1255 0.1804
v 0.050545 3.654568 0.533291 0.2157 0.2118 0.3059
v -0.098197 4.425033 -0.466905 0.2157 0.2118 0.3059
v -0.098197 4.425034 0.574744 0.2157 0.2118 0.3059
v 0.107656 4.425033 -0.466905 0.2196 0.2118 0.3059
v 0.107656 4.425033 0.574744 0.2353 0.2235 0.3176
v 0.859210 6.340108 -0.111110 0.2157 0.2118 0.3059
v 1.221797 6.229321 -0.122648 0.3568 0.2902 0.4078
v 0.851222 6.271388 0.297754 0.2157 0.2118 0.3059
v 1.213809 6.160599 0.286217 0.3568 0.2902 0.4078
v 1.463834 5.016126 1.280858 0.7294 0.1804 0.5373
v 1.397402 4.618789 0.941118 0.7294 0.1804 0.5373
v 1.159902 6.522265 -0.049588 0.3568 0.2902 0.4078
v 1.152865 6.461724 0.310607 0.3568 0.2902 0.4078
v 1.166969 4.945821 1.421131 0.7294 0.1804 0.5373
v 0.819709 6.603014 0.327846 0.2196 0.2157 0.3098
v 1.100536 4.548483 1.081391 0.7294 0.1804 0.5373
v 0.826746 6.663555 -0.032349 0.2275 0.2235 0.3137
v 1.496113 5.442791 0.837886 0.3568 0.2902 0.4078
v 1.418948 4.981259 0.443257 0.3568 0.2902 0.4078
v 0.942206 5.026462 0.483611 0.2157 0.2118 0.3059
v 1.019371 5.487993 0.878240 0.2157 0.2118 0.3059
v 1.358907 5.000625 0.547976 0.3647 0.0353 0.2275
v 1.050103 5.009233 0.598290 0.3647 0.0353 0.2275
v 1.417278 5.349747 0.846491 0.3647 0.0353 0.2275
v 1.108474 5.358356 0.896805 0.3647 0.0353 0.2275
v 1.429517 5.364192 0.845155 0.3412 0.2823 0.3961
v 1.094641 5.378483 0.893923 0.2157 0.2118 0.3059
v 1.368228 4.997617 0.531718 0.2157 0.2118 0.3059
v 1.033352 5.011908 0.580486 0.2157 0.2118 0.3059
v 0.985176 5.879835 0.409343 0.2157 0.2118 0.3059
v 1.408859 5.844211 0.435653 0.3568 0.2902 0.4078
v 1.401330 5.482460 0.067086 0.3568 0.2902 0.4078
v 0.977647 5.518083 0.040776 0.2157 0.2118 0.3059
v -0.196801 5.548058 1.352466 0.7294 0.1804 0.5373
v -0.384544 5.178931 1.294610 0.7294 0.1804 0.5373
v -1.101753 6.341160 -0.293036 0.3568 0.2902 0.4078
v -1.132251 6.520699 0.023650 0.3568 0.2902 0.4078
v -0.086450 5.529833 1.110647 0.7294 0.1804 0.5373
v -0.820466 6.692472 -0.043707 0.2157 0.2118 0.3059
v -0.274192 5.160707 1.052791 0.7294 0.1804 0.5373
v -0.789968 6.512932 -0.360393 0.2157 0.2118 0.3059
v -0.894230 5.803780 1.039479 0.3608 0.2941 0.4118
v -0.994940 5.263420 0.770099 0.3568 0.2902 0.4078
v -0.614936 5.334867 0.484711 0.2157 0.2118 0.3059
v -0.514226 5.875229 0.754090 0.2157 0.2118 0.3059
v -0.887787 5.309878 0.806235 0.3568 0.1020 0.2432
v -0.622821 5.341993 0.642752 0.3019 0.2549 0.3294
v -0.811605 5.718630 1.010006 0.3647 0.0471 0.2314
v -0.546640 5.750747 0.846523 0.3647 0.0353 0.2275
v -0.824433 5.731849 1.014582 0.2157 0.2118 0.3059
v -0.541607 5.770072 0.832173 0.2157 0.2118 0.3059
v -0.904422 5.302664 0.800625 0.2157 0.2118 0.3059
v -0.621597 5.340887 0.618216 0.2275 0.2235 0.3137
v -0.778268 6.211147 -0.216646 0.2157 0.2118 0.3059
v -1.123014 6.061596 -0.165061 0.3568 0.2902 0.4078
v -0.812887 6.414946 0.142832 0.2157 0.2118 0.3059
v -1.157633 6.265395 0.194417 0.3568 0.2902 0.4078
v -1.192349 5.559090 0.424731 0.3568 0.2902 0.4078
v -0.895841 5.648478 0.134572 0.2157 0.2118 0.3059
v -0.811374 6.101688 0.360505 0.2157 0.2118 0.3059
v -1.107882 6.012301 0.650664 0.3608 0.2941 0.4118
vn -0.9649 0.2625 -0.0109
vn 0.0002 0.0422 0.9991
vn 0.2627 0.9640 -0.0408
vn -0.2627 -0.9640 0.0408
vn -0.0383 -0.9984 0.0422
vn 0.1097 -0.9931 0.0419
vn -0.1097 0.9931 -0.0419
vn 0.1892 -0.0100 0.9819
vn 0.4742 -0.8797 0.0371
vn 0.5068 0.8613 -0.0365
vn 0.9649 -0.2625 0.0109
vn -0.6006 -0.7988 0.0339
vn 0.2605 -0.9646 0.0407
vn -0.0002 -0.0422 -0.9991
vn 0.1889 -0.0928 -0.9776
vn -0.0000 1.0000 -0.0000
vn 0.1099 0.0855 0.9903
vn -0.1060 0.1037 0.9890
vn -1.0000 -0.0006 -0.0000
vn -0.1693 0.0801 -0.9823
vn -0.2003 0.1045 -0.9741
vn -0.0837 0.1313 0.9878
vn -0.1078 0.1009 0.9890
vn 0.1243 0.1525 -0.9805
vn 0.1060 0.1037 0.9890
vn 1.0000 -0.0006 -0.0000
vn 0.1693 0.0801 -0.9823
vn 0.2003 0.1045 -0.9741
vn 0.0837 0.1313 0.9878
vn 0.1078 0.1009 0.9890
vn -0.9684 0.2496 -0.0000
vn 0.0633 0.1424 0.9878
vn -0.1243 0.1525 -0.9805
vn -0.1207 0.1490 -0.9815
vn 0.1207 0.1490 -0.9815
vn -0.0633 0.1424 0.9878
vn -0.0652 0.1442 0.9874
vn 0.9684 0.2496 -0.0000
vn 0.0652 0.1442 0.9874
vn -0.0000 -1.0000 -0.0000
vn -0.0000 -0.9857 0.1687
vn -0.0000 -0.0537 0.9986
vn -0.0000 -0.0255 -0.9997
vn -0.0689 -0.6341 -0.7702
vn 0.0491 0.2459 -0.9680
vn -0.9796 -0.1884 0.0704
vn 0.0507 0.3662 0.9292
vn -0.1402 -0.7208 -0.6789
vn 0.4500 -0.6226 0.6402
vn 0.3924 0.9058 0.1599
vn -0.9952 -0.0914 -0.0348
vn 0.0107 -0.0842 0.9964
vn 0.6860 -0.5357 0.4924
vn 0.1174 0.1256 0.9851
vn 0.9796 0.1941 0.0518
vn -0.6981 -0.3943 0.5976
vn -0.9887 0.0424 0.1437
vn 0.1093 0.7902 0.6030
vn 0.9890 -0.0451 -0.1406
vn -0.0329 -0.9993 0.0169
vn -0.0703 -0.9972 0.0251
vn 0.1553 0.1267 0.9797
vn 0.9479 0.2983 -0.1119
vn 0.9925 0.0105 -0.1215
vn 0.0770 0.7425 0.6654
vn -0.9972 0.0547 0.0516
vn -0.0220 -0.2167 -0.9760
vn -0.1621 -0.9696 -0.1833
vn 0.7917 -0.4648 0.3963
vn -0.5024 0.7305 -0.4625
vn 0.9961 0.0664 0.0583
vn -0.1229 0.5556 0.8223
vn -0.1182 -0.4253 0.8973
vn 0.4986 0.3567 0.7901
vn -0.9936 0.0252 -0.1100
vn 0.9758 -0.2109 0.0582
vn 0.6500 0.0348 -0.7591
vn 0.2149 0.9488 0.2315
vn -0.6059 -0.0612 0.7932
vn 0.2204 -0.9633 0.1532
vn 0.2536 -0.9579 0.1347
vn 0.4661 0.3550 0.8104
vn 0.0434 -0.4236 -0.9048
vn 0.9935 -0.1079 0.0365
vn 0.0554 0.7665 0.6399
vn -0.9982 0.0562 0.0219
vn -0.2586 -0.8078 -0.5297
vn -0.1642 -0.6367 -0.7534
vn -0.8883 -0.0614 0.4552
vn 0.1363 0.9010 0.4119
vn 0.8246 0.1217 -0.5525
vn 0.9978 -0.0668 0.0055
vn -0.9978 -0.0668 0.0055
vn -0.1099 0.0855 0.9903
vt 0.375000 0.000000
vt 0.625000 0.000000
vt 0.375000 0.750000
vt 0.625000 0.750000
vt 0.625000 1.000000
vt 0.375000 1.000000
vt 0.125000 0.750000
vt 0.875000 0.750000
vt 0.808171 0.500000
vt 0.875000 0.500000
vt 0.808171 0.750000
vt 0.375000 0.875000
vt 0.375000 0.933171
vt 0.625000 0.933171
vt 0.565172 0.875000
vt 0.625000 0.250000
vt 0.375000 0.250000
vt 0.375000 0.316829
vt 0.625000 0.316829
vt 0.625000 0.375000
vt 0.375000 0.375000
vt 0.750000 0.500000
vt 0.791233 0.542762
vt 0.750000 0.524106
vt 0.575226 0.875000
vt 0.625000 0.920325
vt 0.625000 0.875000
vt 0.795325 0.750000
vt 0.750000 0.750000
vt 0.191829 0.500000
vt 0.125000 0.500000
vt 0.191829 0.750000
vt 0.250000 0.750000
vt 0.250000 0.500000
vt 0.375000 0.500000
vt 0.548435 0.250000
vt 0.548435 0.250000
vt 0.500000 0.250000
vt 0.600000 0.250000
vt 0.548435 0.000000
vt 0.600000 0.000000
vt 0.548435 0.000000
vt 0.473884 0.250000
vt 0.477938 0.000000
vt 0.477938 0.250000
vt 0.500000 0.000000
vt 0.477938 0.000000
vt 0.500000 0.000000
vt 0.473883 0.000000
vt 0.473884 0.000000
vt 0.600000 0.000000
vt 0.550000 0.000000
vt 0.550000 0.250000
vt 0.550000 0.000000
vt 0.550000 0.250000
s 0
usemtl vertex_colors
f 19/1/1 1/1/1 2/2/1 20/2/1
f 3/3/2 4/4/2 2/5/2 1/6/2
f 6/4/3 24/4/3 22/4/3 4/4/3
f 1/7/4 19/7/4 21/3/4 3/3/4
f 4/4/3 22/4/3 20/8/3 2/8/3
f 4/4/2 3/3/2 5/3/2 6/4/2
f 8/4/2 7/3/2 9/3/2 10/4/2
f 6/4/2 5/3/2 7/3/2 8/4/2
f 23/3/5 25/3/5 7/3/5 5/3/5
f 25/3/6 27/3/6 9/3/6 7/3/6
f 10/4/7 28/4/7 26/4/7 8/4/7
f 10/4/2 9/3/2 11/3/2 12/4/2
f 14/4/8 13/3/8 15/3/8 16/4/8
f 12/4/2 11/3/2 13/3/2 14/4/2
f 29/3/4 31/3/4 13/3/4 11/3/4
f 31/3/9 33/3/9 15/3/9 13/3/9
f 16/4/10 34/4/10 32/4/10 14/4/10
f 16/4/2 15/3/2 17/3/2 18/4/2
f 17/3/11 35/3/11 36/4/11 18/4/11
f 18/4/3 36/4/3 34/4/3 16/4/3
f 27/3/12 29/3/12 11/3/12 9/3/12
f 14/4/3 32/4/3 30/4/3 12/4/3
f 12/4/3 30/4/3 28/4/3 10/4/3
f 21/3/13 23/3/13 5/3/13 3/3/13
f 8/4/3 26/4/3 24/4/3 6/4/3
f 21/3/14 19/6/14 20/5/14 22/4/14
f 22/4/14 24/4/14 23/3/14 21/3/14
f 26/4/14 28/4/14 27/3/14 25/3/14
f 24/4/14 26/4/14 25/3/14 23/3/14
f 28/4/14 30/4/14 29/3/14 27/3/14
f 32/4/15 34/4/15 33/3/15 31/3/15
f 30/4/14 32/4/14 31/3/14 29/3/14
f 34/4/14 36/4/14 35/3/14 33/3/14
f 33/3/4 35/3/4 17/3/4 15/3/4
f 40/9/16 37/10/16 38/8/16 39/11/16
f 51/12/17 63/13/17 53/14/17 55/15/17
f 46/13/18 39/14/18 38/5/18 44/6/18
f 44/1/19 38/2/19 37/16/19 43/17/19
f 45/18/20 40/19/20 52/20/20 49/21/20
f 43/17/21 37/16/21 40/19/21 45/18/21
f 52/22/16 40/9/16 42/23/16 58/24/16
f 39/14/22 55/15/22 56/25/22 41/26/22
f 41/26/23 56/25/23 50/27/23
f 58/24/16 42/23/16 41/28/16 50/29/16
f 42/23/16 40/9/16 39/11/16 41/28/16
f 54/9/16 53/11/16 48/8/16 47/10/16
f 62/30/24 60/31/24 70/31/24 72/30/24
f 63/13/25 61/6/25 48/5/25 53/14/25
f 61/1/26 60/17/26 47/16/26 48/2/26
f 62/18/27 49/21/27 52/20/27 54/19/27
f 60/17/28 62/18/28 54/19/28 47/16/28
f 52/22/16 58/24/16 59/23/16 54/9/16
f 53/14/29 57/26/29 56/25/29 55/15/29
f 57/26/30 50/27/30 56/25/30
f 58/24/16 50/29/16 57/28/16 59/23/16
f 59/23/16 57/28/16 53/11/16 54/9/16
f 44/7/31 43/31/31 64/31/31 65/7/31
f 63/32/32 51/33/32 69/33/32 73/32/32
f 43/31/33 45/30/33 66/30/33 64/31/33
f 45/30/34 49/34/34 68/34/34 66/30/34
f 49/34/35 62/30/35 72/30/35 68/34/35
f 51/33/36 46/32/36 67/32/36 69/33/36
f 46/32/37 44/7/37 65/7/37 67/32/37
f 60/31/38 61/7/38 71/7/38 70/31/38
f 61/7/39 63/32/39 73/32/39 71/7/39
f 65/7/40 64/31/40 66/30/40 68/34/40 72/30/40 70/31/40 71/7/40 73/32/40 69/33/40 67/32/40
f 74/35/41 76/35/41 77/3/41 75/3/41
f 75/3/42 77/3/42 81/3/42 79/3/42
f 76/35/43 74/35/43 78/35/43 80/35/43
f 109/36/44 108/37/44 95/38/44 96/38/44
f 93/16/45 88/16/45 83/39/45 82/39/45
f 106/40/46 84/41/46 82/39/46 109/36/46
f 106/40/47 107/42/47 85/41/47 84/41/47
f 99/43/48 98/43/48 87/17/48 92/17/48
f 92/17/49 87/17/49 86/1/49 90/1/49
f 91/2/50 89/2/50 88/16/50 93/16/50
f 84/41/51 91/2/51 93/16/51 82/39/51
f 84/41/52 85/41/52 89/2/52 91/2/52
f 102/44/53 104/45/53 95/38/53 94/46/53
f 103/47/54 102/44/54 94/46/54 97/48/54
f 85/41/55 83/39/55 88/16/55 89/2/55
f 103/47/56 97/48/56 96/38/56 105/45/56
f 90/1/57 101/49/57 99/43/57 92/17/57
f 90/1/58 86/1/58 100/50/58 101/49/58
f 86/1/59 87/17/59 98/43/59 100/50/59
f 105/45/60 104/45/60 98/43/60 99/43/60
f 96/38/61 95/38/61 104/45/61 105/45/61
f 101/49/56 103/47/56 105/45/56 99/43/56
f 101/49/62 100/50/62 102/44/62 103/47/62
f 100/50/53 98/43/53 104/45/53 102/44/53
f 107/42/63 108/37/63 83/39/63 85/41/63
f 94/46/64 95/38/64 108/37/64 107/42/64
f 97/48/65 94/46/65 107/42/65 106/40/65
f 97/48/66 106/40/66 109/36/66 96/38/66
f 82/39/67 83/39/67 108/37/67 109/36/67
f 123/43/68 116/17/68 111/17/68 122/43/68
f 116/17/69 114/1/69 110/1/69 111/17/69
f 115/2/70 117/16/70 112/16/70 113/2/70
f 132/41/71 130/39/71 117/16/71 115/2/71
f 132/41/72 115/2/72 113/2/72 133/51/72
f 126/44/73 118/46/73 119/38/73 128/45/73
f 127/47/74 121/48/74 118/46/74 126/44/74
f 133/51/75 113/2/75 112/16/75 131/39/75
f 127/47/76 129/45/76 120/38/76 121/48/76
f 114/1/77 116/17/77 123/43/77 125/49/77
f 114/1/78 125/49/78 124/50/78 110/1/78
f 110/1/79 124/50/79 122/43/79 111/17/79
f 129/45/80 123/43/80 122/43/80 128/45/80
f 120/38/81 129/45/81 128/45/81 119/38/81
f 125/49/76 123/43/76 129/45/76 127/47/76
f 125/49/82 127/47/82 126/44/82 124/50/82
f 124/50/73 126/44/73 128/45/73 122/43/73
f 117/16/83 130/39/83 131/39/83 112/16/83
f 136/52/84 135/53/84 130/39/84 132/41/84
f 136/52/85 132/41/85 133/51/85 137/54/85
f 137/54/86 133/51/86 131/39/86 134/55/86
f 135/53/87 120/38/87 119/38/87 134/55/87
f 130/39/88 135/53/88 134/55/88 131/39/88
f 118/46/89 137/54/89 134/55/89 119/38/89
f 121/48/90 136/52/90 137/54/90 118/46/90
f 121/48/91 120/38/91 135/53/91 136/52/91
f 76/35/92 80/35/92 81/3/92 77/3/92
f 74/35/93 75/3/93 79/3/93 78/35/93
f 51/12/94 55/15/94 39/14/94 46/13/94
o enforcer_head
v -0.142395 6.680110 0.152506 0.3647 0.0353 0.2275
v -0.635875 7.245777 0.645986 0.7294 0.1804 0.5373
v -0.142396 6.680110 -0.136554 0.3647 0.0353 0.2275
v -0.509356 7.245777 -0.630033 0.4902 0.0784 0.4589
v 0.146664 6.680111 0.152506 0.3647 0.0353 0.2275
v 0.640144 7.245776 0.645986 0.7294 0.1804 0.5373
v 0.146664 6.680110 -0.136554 0.3647 0.0353 0.2275
v 0.513625 7.245776 -0.630034 0.4902 0.0784 0.4589
v -0.426791 8.453988 0.436901 0.7294 0.1804 0.5373
v -0.426791 8.453988 -0.420949 0.4902 0.0784 0.4589
v 0.431059 8.453988 -0.420949 0.4902 0.0784 0.4589
v 0.431059 8.453988 0.436901 0.7294 0.1804 0.5373
v -0.509356 7.962969 -0.630033 0.4902 0.0784 0.4589
v 0.513625 7.962969 -0.630034 0.4902 0.0784 0.4589
v 0.640144 7.962968 0.645986 0.7294 0.1804 0.5373
v -0.635875 7.962969 0.645986 0.7294 0.1804 0.5373
v -0.003251 8.379308 0.267043 0.4902 0.0784 0.4589
v 0.100862 8.319118 -0.182951 0.4823 0.1373 0.4589
v 0.427728 8.254053 0.142443 0.4902 0.0784 0.4589
v 0.288900 8.990090 -0.141326 0.7294 0.1804 0.5373
v -0.435235 9.017063 -0.103352 0.6667 0.3647 0.5569
v 0.024537 8.456494 0.237122 0.4902 0.0784 0.4589
v -0.167693 8.376827 -0.179601 0.4353 0.2745 0.4628
v -0.409970 8.291079 0.208864 0.4902 0.0784 0.4589
v 0.249753 7.774197 0.812762 0.0000 0.0000 0.0000
v 0.190928 7.917936 0.671190 0.4902 0.0784 0.4589
v 0.185562 7.931046 0.646549 0.7294 0.1804 0.5373
v 0.371494 7.744423 0.812762 0.0000 0.0000 0.0000
v 0.490018 7.844788 0.671190 0.4902 0.0784 0.4589
v 0.500830 7.853941 0.646549 0.7294 0.1804 0.5373
v 0.380797 7.619440 0.812762 0.0235 0.0235 0.0235
v 0.512874 7.537731 0.671190 0.4902 0.0784 0.4589
v 0.524922 7.530277 0.646549 0.7294 0.1804 0.5373
v 0.290133 7.675530 0.845557 0.0000 0.0000 0.0000
v 0.264805 7.571971 0.812762 0.0000 0.0000 0.0000
v 0.227909 7.421107 0.671190 0.4902 0.0784 0.4589
v 0.224543 7.407347 0.646549 0.7294 0.1804 0.5373
v 0.183816 7.667616 0.812762 0.0118 0.0118 0.0118
v 0.028935 7.656086 0.671190 0.4902 0.0784 0.4589
v 0.014807 7.655035 0.646549 0.7294 0.1804 0.5373
v 0.196660 7.903928 0.698327 1.0000 1.0000 1.0000
v 0.478468 7.835006 0.698327 1.0000 1.0000 1.0000
v 0.500003 7.545694 0.698327 1.0000 1.0000 1.0000
v 0.231504 7.435811 0.698327 1.0000 1.0000 1.0000
v 0.044029 7.657211 0.698327 1.0000 1.0000 1.0000
v -0.389309 7.667813 0.779800 0.8196 0.8509 0.7568
v -0.310322 7.574532 0.779800 0.8196 0.8509 0.7568
v -0.197199 7.620828 0.779800 0.8157 0.8470 0.7529
v -0.206272 7.742720 0.779800 0.8196 0.8509 0.7568
v -0.325003 7.771759 0.779800 0.8117 0.8431 0.7490
v -0.486697 7.660563 0.700073 1.0000 1.0000 1.0000
v -0.333522 7.479670 0.700073 1.0000 1.0000 1.0000
v -0.114149 7.569449 0.700073 1.0000 1.0000 1.0000
v -0.131744 7.805829 0.700073 1.0000 1.0000 1.0000
v -0.361991 7.862140 0.700073 1.0000 1.0000 1.0000
v -0.510572 7.658784 0.646549 0.7294 0.1804 0.5373
v -0.499029 7.659644 0.677902 0.4902 0.0784 0.4589
v -0.372486 7.669065 0.793572 0.0118 0.0118 0.0118
v -0.339210 7.456414 0.646549 0.7294 0.1804 0.5373
v -0.336460 7.467658 0.677902 0.4902 0.0784 0.4589
v -0.306315 7.590919 0.793572 0.0000 0.0000 0.0000
v 0.241932 7.793307 0.795906 0.8117 0.8431 0.7490
v 0.387251 7.757766 0.795906 0.8196 0.8509 0.7568
v 0.398355 7.608578 0.795906 0.8157 0.8470 0.7529
v 0.259900 7.551915 0.795906 0.8196 0.8509 0.7568
v 0.163225 7.666084 0.795906 0.8196 0.8509 0.7568
v -0.285621 7.675530 0.820366 0.0000 0.0000 0.0000
v -0.093789 7.556853 0.646549 0.7294 0.1804 0.5373
v -0.103633 7.562943 0.677902 0.4902 0.0784 0.4589
v -0.211545 7.629703 0.793572 0.0235 0.0235 0.0235
v -0.113473 7.821299 0.646549 0.7294 0.1804 0.5373
v -0.122307 7.813820 0.677902 0.4902 0.0784 0.4589
v -0.219146 7.731819 0.793572 0.0000 0.0000 0.0000
v -0.371059 7.884296 0.646549 0.7294 0.1804 0.5373
v -0.366675 7.873585 0.677902 0.4902 0.0784 0.4589
v -0.318613 7.756145 0.793572 0.0000 0.0000 0.0000
v 0.002134 6.680110 -0.136554 0.3647 0.0353 0.2275
v 0.002134 7.245776 -0.630033 0.4902 0.0784 0.4589
v 0.002134 6.680110 0.152506 0.3647 0.0353 0.2275
v 0.002134 7.245776 0.645986 0.7294 0.1804 0.5373
v 0.002134 8.453988 -0.420949 0.4902 0.0784 0.4589
v 0.002134 8.453988 0.436901 0.7294 0.1804 0.5373
v 0.002134 7.962968 0.645986 0.7294 0.1804 0.5373
v 0.002134 7.962969 -0.630033 0.4902 0.0784 0.4589
vn -0.7943 -0.6041 -0.0642
vn -0.0000 -0.6574 -0.7536
vn 0.7943 -0.6041 -0.0642
vn -0.0000 -0.6574 0.7536
vn -0.0000 -1.0000 -0.0000
vn -0.0000 0.3918 -0.9201
vn -0.0000 1.0000 -0.0000
vn 0.9571 0.2842 -0.0567
vn -0.9571 0.2842 -0.0567
vn -0.0000 0.3918 0.9201
vn -0.0000 -0.0000 -1.0000
vn -0.9951 -0.0000 -0.0987
vn 0.9951 -0.0000 -0.0987
vn -0.9278 0.2756 -0.2515
vn -0.2601 -0.9631 0.0687
vn 0.6830 -0.1470 -0.7155
vn 0.3591 0.3939 0.8461
vn -0.2036 0.3808 0.9020
vn 0.8056 0.3898 -0.4461
vn 0.3549 -0.9348 0.0150
vn -0.7909 -0.2648 -0.5517
vn 0.2154 0.8808 0.4217
vn 0.0844 0.3452 0.9347
vn 0.1687 0.6900 0.7039
vn 0.3544 0.0264 0.9347
vn 0.7083 0.0527 0.7039
vn 0.9042 0.0673 0.4217
vn 0.3434 -0.8392 0.4217
vn 0.1346 -0.3289 0.9347
vn 0.2690 -0.6574 0.7039
vn -0.6920 -0.5859 0.4217
vn -0.2712 -0.2297 0.9347
vn -0.5421 -0.4590 0.7039
vn -0.7711 0.4770 0.4217
vn -0.3022 0.1870 0.9347
vn -0.6040 0.3737 0.7039
vn -0.7752 0.4796 0.4113
vn -0.6956 -0.5890 0.4113
vn 0.3452 -0.8436 0.4113
vn 0.9090 0.0677 0.4113
vn 0.2165 0.8854 0.4113
vn -0.6041 0.3737 0.7039
vn -0.8149 0.5041 0.2862
vn -0.7312 -0.6192 0.2862
vn 0.3629 -0.8868 0.2862
vn 0.9555 0.0711 0.2862
vn 0.7084 0.0527 0.7039
vn 0.2276 0.9308 0.2861
vn 0.0045 0.0001 1.0000
vn 0.0010 0.0039 1.0000
vn -0.0000 0.0176 0.9998
vn -0.0028 0.0017 1.0000
vn 0.0014 0.0011 1.0000
vn -0.0000 0.0072 1.0000
vn 0.0008 0.0033 1.0000
vn -0.0012 -0.0010 1.0000
vn -0.0045 -0.0000 1.0000
vn -0.0018 0.0011 1.0000
vn 0.0003 -0.0023 1.0000
vn -0.0000 -0.0035 1.0000
vn 0.0007 -0.0017 1.0000
vn -0.0006 -0.0014 1.0000
vt 0.375000 0.000000
vt 0.625000 0.000000
vt 0.625000 0.250000
vt 0.375000 0.250000
vt 0.375000 0.375000
vt 0.625000 0.375000
vt 0.625000 0.500000
vt 0.375000 0.500000
vt 0.625000 0.750000
vt 0.375000 0.750000
vt 0.375000 0.875000
vt 0.625000 0.875000
vt 0.625000 1.000000
vt 0.375000 1.000000
vt 0.250000 0.500000
vt 0.250000 0.750000
vt 0.750000 0.500000
vt 0.875000 0.500000
vt 0.875000 0.750000
vt 0.750000 0.750000
vt 0.250000 0.490000
vt 0.250000 0.250000
vt 0.457846 0.130000
vt 0.750000 0.490000
vt 0.957846 0.130000
vt 0.542154 0.130000
vt 0.042154 0.130000
vt 0.600000 0.250000
vt 0.600000 0.500000
vt 0.400000 0.500000
vt 0.400000 0.250000
vt 0.600000 0.750000
vt 0.500000 1.000000
vt 0.400000 0.750000
vt 0.600000 0.720441
vt 0.400000 0.720441
vt 0.300000 1.000000
vt 0.200000 0.750000
vt 0.200000 0.720441
vt 0.200000 0.500000
vt 0.200000 0.250000
vt 0.000000 0.500000
vt 0.000000 0.250000
vt 0.100000 1.000000
vt 0.000000 0.750000
vt 0.000000 0.720441
vt 1.000000 0.250000
vt 1.000000 0.500000
vt 0.800000 0.500000
vt 0.800000 0.250000
vt 1.000000 0.750000
vt 0.900000 1.000000
vt 0.800000 0.750000
vt 1.000000 0.720441
vt 0.800000 0.720441
vt 0.700000 1.000000
vt 0.800000 0.549324
vt 0.600000 0.549324
vt 1.000000 0.549324
vt 0.200000 0.549324
vt 0.000000 0.549324
vt 0.400000 0.549324
vt 0.125000 0.500000
vt 0.125000 0.750000
s 0
usemtl vertex_colors
f 138/56/95 139/57/95 141/58/95 140/59/95
f 214/60/96 215/61/96 145/62/96 144/63/96
f 144/63/97 145/62/97 143/64/97 142/65/97
f 216/66/98 217/67/98 139/68/98 138/69/98
f 214/70/99 144/63/99 142/65/99 216/71/99
f 221/61/100 150/58/100 147/58/100 218/61/100
f 218/72/101 147/73/101 146/74/101 219/75/101
f 152/64/102 151/62/102 148/62/102 149/64/102
f 150/58/103 153/57/103 146/57/103 147/58/103
f 220/67/104 152/64/104 149/64/104 219/67/104
f 145/62/105 215/61/105 221/61/105 151/62/105
f 141/58/106 139/57/106 153/57/106 150/58/106
f 143/64/107 145/62/107 151/62/107 152/64/107
f 215/61/105 141/58/105 150/58/105 221/61/105
f 154/76/108 157/77/108 155/78/108
f 154/79/109 155/80/109 156/81/109
f 155/78/110 157/77/110 156/82/110
f 156/82/111 157/77/111 154/76/111
f 159/82/112 158/77/112 161/76/112
f 160/78/113 158/77/113 159/82/113
f 161/79/114 160/80/114 159/81/114
f 161/76/115 158/77/115 160/78/115
f 164/83/116 163/84/116 166/85/116 167/86/116
f 162/87/117 171/88/117 165/89/117
f 199/90/118 162/87/118 165/89/118 200/91/118
f 165/89/119 171/92/119 168/93/119
f 200/91/120 165/89/120 168/93/120 201/94/120
f 167/86/121 166/85/121 169/95/121 170/96/121
f 170/96/122 169/95/122 173/97/122 174/98/122
f 168/93/123 171/99/123 172/100/123
f 201/94/124 168/93/124 172/100/124 202/101/124
f 174/102/125 173/103/125 176/104/125 177/105/125
f 172/106/126 171/107/126 175/108/126
f 202/109/127 172/106/127 175/108/127 203/110/127
f 177/105/128 176/104/128 163/84/128 164/83/128
f 175/108/129 171/111/129 162/87/129
f 203/110/130 175/108/130 162/87/130 199/90/130
f 176/104/131 182/112/131 178/113/131 163/84/131
f 173/103/132 181/114/132 182/112/132 176/104/132
f 169/95/133 180/115/133 181/116/133 173/97/133
f 166/85/134 179/117/134 180/115/134 169/95/134
f 163/84/135 178/113/135 179/117/135 166/85/135
f 192/113/118 187/90/118 186/91/118 191/117/118
f 191/117/120 186/91/120 185/94/120 190/115/120
f 190/115/124 185/94/124 184/101/124 189/116/124
f 189/114/127 184/109/127 183/110/127 188/112/127
f 188/112/136 183/110/136 187/90/136 192/113/136
f 212/84/135 192/113/135 191/117/135 209/85/135
f 209/85/134 191/117/134 190/115/134 206/95/134
f 206/95/133 190/115/133 189/116/133 197/97/133
f 197/103/132 189/114/132 188/112/132 194/104/132
f 194/104/131 188/112/131 192/113/131 212/84/131
f 183/110/130 195/108/130 213/87/130 187/90/130
f 195/108/129 204/111/129 213/87/129
f 193/105/137 194/104/137 212/84/137 211/83/137
f 184/109/127 198/106/127 195/108/127 183/110/127
f 198/106/126 204/107/126 195/108/126
f 182/112/136 203/110/136 199/90/136 178/113/136
f 181/114/127 202/109/127 203/110/127 182/112/127
f 180/115/124 201/94/124 202/101/124 181/116/124
f 179/117/120 200/91/120 201/94/120 180/115/120
f 178/113/118 199/90/118 200/91/118 179/117/118
f 196/102/138 197/103/138 194/104/138 193/105/138
f 185/94/124 207/93/124 198/100/124 184/101/124
f 207/93/123 204/99/123 198/100/123
f 205/96/139 206/95/139 197/97/139 196/98/139
f 208/86/140 209/85/140 206/95/140 205/96/140
f 186/91/141 210/89/141 207/93/141 185/94/141
f 210/89/119 204/92/119 207/93/119
f 187/90/118 213/87/118 210/89/118 186/91/118
f 213/87/117 204/88/117 210/89/117
f 211/83/142 212/84/142 209/85/142 208/86/142
f 153/68/104 220/67/104 219/67/104 146/68/104
f 148/62/101 218/72/101 219/75/101 149/64/101
f 151/62/100 221/61/100 218/61/100 148/62/100
f 140/118/99 214/70/99 216/71/99 138/119/99
f 142/65/98 143/64/98 217/67/98 216/66/98
f 140/59/96 141/58/96 215/61/96 214/60/96
f 143/64/143 152/64/143 167/86/143 170/96/143
f 164/83/144 167/86/144 152/64/144
f 220/67/145 164/83/145 152/64/145
f 177/105/146 164/83/146 220/67/146
f 205/96/147 177/105/147 220/67/147 208/86/147
f 220/67/148 153/68/148 211/83/148
f 208/86/149 220/67/149 211/83/149
f 139/57/150 196/102/150 193/105/150
f 153/68/151 139/57/151 193/105/151
f 211/83/152 153/68/152 193/105/152
f 139/57/153 217/67/153 205/96/153 196/102/153
f 174/102/154 217/67/154 143/64/154
f 170/96/155 174/102/155 143/64/155
f 177/105/156 205/96/156 217/67/156 174/102/156
o enforcer_Feet_Right
v -0.733107 0.002159 -0.196617 0.0000 0.0000 0.0000
v -0.733106 0.002158 0.344696 0.0000 0.0000 0.0000
v -0.392372 0.002158 -0.196617 0.0000 0.0000 0.0000
v -0.392372 0.002159 0.344695 0.0000 0.0000 0.0000
v -0.828573 2.128836 0.526320 0.3568 0.2902 0.4078
v -0.296906 2.128836 0.526320 0.2157 0.2118 0.3059
v -0.828573 2.128836 -0.172629 0.2157 0.2118 0.3059
v -0.296906 2.128836 -0.172629 0.1490 0.1451 0.2118
v -0.041085 3.487437 -0.442996 0.1255 0.1255 0.1804
v -0.041085 3.654568 0.533291 0.2196 0.2118 0.3059
v -0.965957 3.797924 -0.401094 0.2157 0.2118 0.3059
v -0.965957 3.797924 0.535499 0.3568 0.2902 0.4078
v -0.098197 4.425033 -0.466905 0.2157 0.2118 0.3059
v -0.098197 4.425033 0.574744 0.2157 0.2118 0.3059
v -0.711058 4.425033 -0.307686 0.2588 0.2353 0.3372
v -0.711058 4.425033 0.419898 0.2157 0.2118 0.3059
v -0.862628 1.064934 0.474996 0.1255 0.1255 0.1804
v -0.862628 1.064934 -0.116642 0.1255 0.1255 0.1843
v -0.384438 1.064934 0.474996 0.1333 0.1333 0.1882
v -0.384438 1.064934 -0.116642 0.1255 0.1255 0.1804
vn -0.0000 -1.0000 -0.0000
vn -0.0000 -0.1217 0.9926
vn -0.9927 -0.1210 -0.0000
vn 1.0000 -0.0075 -0.0000
vn -0.0000 0.0750 -0.9972
vn -0.9966 -0.0820 -0.0000
vn 0.9978 0.0668 -0.0055
vn 0.0010 -0.0051 1.0000
vn 0.9848 -0.1731 0.0173
vn -0.0624 -0.1599 -0.9852
vn -0.9264 0.3765 -0.0000
vn -0.1178 0.0589 -0.9913
vn -0.0060 -0.0542 0.9985
vn -0.0000 -0.0526 -0.9986
vn 0.9966 -0.0820 -0.0000
vn -0.9995 0.0320 -0.0000
vn -0.0000 -0.0482 0.9988
vn -0.2360 0.2681 0.9340
vt 0.125000 0.500000
vt 0.375000 0.500000
vt 0.375000 0.750000
vt 0.125000 0.750000
vt 0.375000 0.750000
vt 0.125000 0.750000
vt 0.125000 0.750000
s 0
usemtl vertex_colors
f 222/120/157 224/121/157 225/122/157 223/123/157
f 240/124/158 238/125/158 223/123/158 225/122/158
f 238/125/159 239/120/159 222/120/159 223/123/159
f 241/121/160 240/124/160 225/122/160 224/121/160
f 239/120/161 241/121/161 224/121/161 222/120/161
f 226/126/162 233/123/162 232/120/162 228/120/162
f 234/121/163 235/122/163 231/122/163 230/121/163
f 227/122/164 231/122/164 233/123/164 226/126/164
f 229/121/165 230/121/165 231/122/165 227/122/165
f 228/120/166 232/120/166 230/121/166 229/121/166
f 232/120/167 233/123/167 237/123/167 236/120/167
f 230/121/168 232/120/168 236/120/168 234/121/168
f 233/123/169 231/122/169 235/122/169
f 228/120/170 229/121/170 241/121/170 239/120/170
f 229/121/171 227/122/171 240/124/171 241/121/171
f 226/126/172 228/120/172 239/120/172 238/125/172
f 227/122/173 226/126/173 238/125/173 240/124/173
f 237/123/174 233/123/174 235/122/174
o enforcer_Feet_Left
v 0.742563 0.002159 -0.196618 0.0000 0.0000 0.0000
v 0.742563 0.002158 0.344695 0.0078 0.0078 0.0118
v 0.401829 0.002159 -0.196618 0.0000 0.0000 0.0000
v 0.401829 0.002158 0.344695 0.0118 0.0118 0.0196
v 0.838030 2.128836 0.526319 0.3412 0.2784 0.3921
v 0.306362 2.128836 0.526319 0.2157 0.2118 0.3059
v 0.838030 2.128836 -0.172630 0.2157 0.2118 0.3059
v 0.306362 2.128836 -0.172630 0.1255 0.1255 0.1804
v 0.050545 3.487436 -0.442996 0.1255 0.1255 0.1804
v 0.050545 3.654568 0.533291 0.2157 0.2118 0.3059
v 0.975415 3.797924 -0.401094 0.2157 0.2118 0.3059
v 0.975415 3.797924 0.535499 0.3568 0.2902 0.4078
v 0.107656 4.425033 -0.466905 0.2196 0.2118 0.3059
v 0.107656 4.425033 0.574744 0.2353 0.2235 0.3176
v 0.720516 4.425034 -0.307686 0.2157 0.2118 0.3059
v 0.720516 4.425033 0.419898 0.2157 0.2118 0.3059
v 0.872111 1.065523 0.475050 0.1255 0.1255 0.1804
v 0.872111 1.065523 -0.116642 0.1294 0.1294 0.1843
v 0.393868 1.065523 0.475050 0.1255 0.1255 0.1804
v 0.393868 1.065523 -0.116642 0.1255 0.1255 0.1804
vn -0.0000 -1.0000 -0.0000
vn -0.0000 -0.1217 0.9926
vn 0.9927 -0.1209 -0.0000
vn -1.0000 -0.0075 -0.0000
vn -0.0000 0.0750 -0.9972
vn 0.9966 -0.0820 -0.0000
vn -0.0010 -0.0051 1.0000
vn -0.9848 -0.1731 0.0173
vn 0.0624 -0.1599 -0.9852
vn 0.1178 0.0589 -0.9913
vn 0.2360 0.2681 0.9340
vn 0.9264 0.3765 -0.0000
vn -0.0000 -0.0526 -0.9986
vn -0.9966 -0.0820 -0.0000
vn 0.9995 0.0320 -0.0000
vn -0.0000 -0.0482 0.9988
vn 0.0060 -0.0542 0.9985
vn -0.9978 0.0668 -0.0055
vt 0.125000 0.500000
vt 0.125000 0.750000
vt 0.375000 0.750000
vt 0.375000 0.500000
vt 0.125000 0.750000
vt 0.125000 0.750000
s 0
usemtl vertex_colors
f 242/127/175 243/128/175 245/129/175 244/130/175
f 260/129/176 245/129/176 243/128/176 258/131/176
f 258/131/177 243/128/177 242/127/177 259/127/177
f 261/130/178 244/130/178 245/129/178 260/129/178
f 259/127/179 242/127/179 244/130/179 261/130/179
f 248/127/180 252/127/180 253/128/180 246/132/180
f 246/132/181 253/128/181 251/129/181 247/129/181
f 247/129/182 251/129/182 250/130/182 249/130/182
f 249/130/183 250/130/183 252/127/183 248/127/183
f 252/127/184 250/130/184 254/130/184 256/127/184
f 253/128/185 257/128/185 255/129/185
f 253/128/186 252/127/186 256/127/186 257/128/186
f 248/127/187 259/127/187 261/130/187 249/130/187
f 249/130/188 261/130/188 260/129/188 247/129/188
f 246/132/189 258/131/189 259/127/189 248/127/189
f 247/129/190 260/129/190 258/131/190 246/132/190
f 251/129/191 253/128/191 255/129/191
f 250/130/192 251/129/192 255/129/192 254/130/192
