# Blender 4.4.3
# www.blender.org
mtllib food_box.mtl
o food_box
v -1.000000 -0.000800 1.000000 0.3647 0.1530 0.3647
v -1.000000 1.752668 1.000000 0.9372 0.4902 0.3412
v -1.000000 -0.000800 -1.000000 0.3686 0.1569 0.3686
v -1.000000 1.752668 -1.000000 0.9372 0.4902 0.3412
v 1.000000 -0.000800 1.000000 0.3765 0.1765 0.3765
v 1.000000 1.752668 1.000000 0.9372 0.4902 0.3412
v 1.000000 -0.000800 -1.000000 0.3647 0.1530 0.3647
v 1.000000 1.752668 -1.000000 0.9372 0.4902 0.3412
v -1.085358 1.657408 1.085358 0.3647 0.1530 0.3647
v -1.085358 2.103348 1.085358 1.0000 0.8039 0.4589
v -1.085358 1.657408 -1.085358 0.3647 0.1530 0.3647
v -1.085358 2.103348 -1.085358 1.0000 0.8039 0.4589
v 1.085358 1.657408 1.085358 0.3647 0.1530 0.3647
v 1.085358 2.103348 1.085358 0.9372 0.4902 0.3412
v 1.085358 1.657408 -1.085358 0.3647 0.1530 0.3647
v 1.085358 2.103348 -1.085358 0.9372 0.4902 0.3412
vn -1.0000 -0.0000 -0.0000
vn -0.0000 -0.0000 -1.0000
vn 1.0000 -0.0000 -0.0000
vn -0.0000 -1.0000 -0.0000
vn -0.0000 -0.0000 1.0000
vn -0.0000 1.0000 -0.0000
vt 0.375000 0.250000
vt 0.375000 0.000000
vt 0.625000 0.000000
vt 0.625000 0.250000
vt 0.375000 0.500000
vt 0.625000 0.500000
vt 0.625000 0.750000
vt 0.375000 0.750000
vt 0.125000 0.750000
vt 0.125000 0.500000
vt 0.375000 1.000000
vt 0.625000 1.000000
vt 0.875000 0.750000
vt 0.875000 0.500000
s 0
usemtl vertex_colors
f 11/1/1 9/2/1 10/3/1 12/4/1
f 7/5/2 3/1/2 4/4/2 8/6/2
f 7/5/3 8/6/3 6/7/3 5/8/3
f 3/1/1 1/2/1 2/3/1 4/4/1
f 1/9/4 3/10/4 7/5/4 5/8/4
f 1/11/5 5/8/5 6/7/5 2/12/5
f 9/11/5 13/8/5 14/7/5 10/12/5
f 11/1/2 12/4/2 16/6/2 15/5/2
f 13/8/4 9/9/4 11/10/4 15/5/4
f 10/13/6 14/7/6 16/6/6 12/14/6
f 13/8/3 15/5/3 16/6/3 14/7/3
