# Blender 4.4.3
# www.blender.org
mtllib kids_female_L.mtl
o kid_body_F_L.002
v -0.882932 5.316815 -0.331316 0.8157 0.7294 0.6628
v -1.134220 1.211449 -0.711127 0.3568 0.2902 0.4078
v -0.882932 5.316815 0.231385 0.8157 0.7294 0.6628
v -1.134220 1.211449 0.595614 0.3568 0.2902 0.4078
v -0.617234 1.211449 -0.780132 0.3568 0.2902 0.4078
v -0.421176 5.316815 0.284811 0.6197 0.5569 0.5686
v -0.622152 1.211449 0.631290 0.3568 0.2902 0.4078
v -0.421176 5.316815 -0.433856 0.6197 0.5569 0.5686
v -0.332417 5.316815 0.295081 0.3843 0.3176 0.4235
v -0.304144 5.316815 -0.327914 0.6197 0.5569 0.5686
v -1.326482 1.211449 -1.000000 0.9529 0.9098 0.8274
v -1.326482 1.211449 0.900069 0.8902 0.8274 0.7529
v -0.627590 1.211449 -1.102540 0.9568 0.9137 0.8313
v -0.627590 1.211449 0.953495 0.9137 0.8627 0.7843
v -0.925537 4.857866 0.295614 0.8196 0.7333 0.6667
v -0.925537 4.857866 -0.395545 0.8157 0.7294 0.6628
v -0.441003 4.857866 -0.498085 0.8196 0.7372 0.6706
v -0.441003 4.857866 0.349040 0.8157 0.7294 0.6628
v 0.882931 5.316815 -0.331316 0.8157 0.7294 0.6628
v 1.134220 1.211449 -0.711127 0.3568 0.2902 0.4078
v 0.882931 5.316815 0.231385 0.8157 0.7294 0.6628
v 1.134220 1.211449 0.595614 0.3568 0.2902 0.4078
v -0.000000 1.211449 -1.191795 0.9372 0.8862 0.8078
v -0.000000 5.316815 0.331316 0.2157 0.2118 0.3059
v -0.000000 1.211449 1.000000 0.9568 0.9137 0.8313
v -0.000000 5.316815 -0.523111 0.6197 0.5569 0.5686
v 0.617233 1.211449 -0.780132 0.3568 0.2902 0.4078
v 0.421176 5.316815 0.284811 0.6197 0.5569 0.5686
v 0.622151 1.211449 0.631290 0.3568 0.2902 0.4078
v 0.421176 5.316815 -0.433856 0.6197 0.5569 0.5686
v -0.000000 3.883791 0.491340 0.6197 0.5569 0.5686
v -0.000000 4.365520 0.464448 0.3568 0.2902 0.4078
v 0.332416 5.316815 0.295081 0.3843 0.3176 0.4235
v -0.000000 5.316815 -0.440725 0.3568 0.2902 0.4078
v 0.304143 5.316815 -0.327914 0.6197 0.5569 0.5686
v 1.326481 1.211449 -1.000000 0.9529 0.9098 0.8274
v 1.326481 1.211449 0.900069 0.8902 0.8274 0.7529
v 0.627589 1.211449 -1.102540 0.9568 0.9137 0.8313
v 0.627589 1.211449 0.953495 0.9137 0.8627 0.7843
v -0.000000 1.211449 0.661251 0.3568 0.2902 0.4078
v -0.000000 1.211449 -0.837103 0.3568 0.2902 0.4078
v 0.925536 4.857866 0.295614 0.8196 0.7333 0.6667
v 0.925536 4.857866 -0.395545 0.8157 0.7294 0.6628
v -0.000000 4.857866 -0.587340 0.8392 0.7608 0.6902
v -0.000000 3.623617 0.540198 0.8157 0.7294 0.6628
v 0.441002 4.857866 -0.498085 0.8196 0.7372 0.6706
v 0.441002 4.857866 0.349040 0.8157 0.7294 0.6628
vn -0.0000 1.0000 -0.0000
vn -0.1110 0.1451 0.9832
vn -0.9957 0.0924 -0.0000
vn -0.2007 0.1400 -0.9696
vn -0.0000 -1.0000 -0.0000
vn -0.2094 0.1495 -0.9663
vn 0.0230 0.1547 0.9877
vn -0.2383 0.0773 0.9681
vn -0.1073 0.1378 0.9846
vn -0.0186 0.1735 0.9847
vn -0.1681 0.1744 -0.9702
vn -0.1625 0.1654 -0.9727
vn -0.9940 0.1093 -0.0000
vn -0.0886 0.1698 0.9815
vn 0.1110 0.1451 0.9832
vn 0.9957 0.0924 -0.0000
vn 0.2007 0.1400 -0.9696
vn 0.2094 0.1495 -0.9663
vn -0.0230 0.1547 0.9877
vn 0.2383 0.0773 0.9681
vn 0.1073 0.1378 0.9846
vn 0.0186 0.1735 0.9847
vn 0.1681 0.1744 -0.9702
vn 0.1625 0.1654 -0.9727
vn 0.9940 0.1093 -0.0000
vn 0.0886 0.1698 0.9815
vt 0.808171 0.500000
vt 0.875000 0.500000
vt 0.875000 0.750000
vt 0.808171 0.750000
vt 0.600987 0.933171
vt 0.625000 0.933171
vt 0.625000 1.000000
vt 0.600987 1.000000
vt 0.600987 0.000000
vt 0.625000 0.000000
vt 0.625000 0.250000
vt 0.600987 0.250000
vt 0.600987 0.316829
vt 0.625000 0.316829
vt 0.625000 0.375000
vt 0.600987 0.375000
vt 0.192819 0.508726
vt 0.243178 0.508354
vt 0.243178 0.741698
vt 0.192349 0.741324
vt 0.131822 0.509249
vt 0.131822 0.740804
vt 0.546905 0.875000
vt 0.565172 0.875000
vt 0.750000 0.500000
vt 0.791233 0.542762
vt 0.750000 0.524106
vt 0.575226 0.875000
vt 0.625000 0.920325
vt 0.625000 0.875000
vt 0.795325 0.750000
vt 0.750000 0.750000
vt 0.125000 0.750000
vt 0.125000 0.500000
vt 0.191829 0.500000
vt 0.250000 0.750000
vt 0.191829 0.750000
vt 0.250000 0.500000
vt 0.375000 0.875000
vt 0.375000 0.933171
vt 0.375000 0.250000
vt 0.375000 0.316829
vt 0.375000 0.375000
vt 0.375000 0.000000
vt 0.375000 1.000000
s 0
usemtl vertex_colors
f 8/1/1 1/2/1 3/3/1 6/4/1
f 18/5/2 6/6/2 3/7/2 15/8/2
f 15/9/3 3/10/3 1/11/3 16/12/3
f 17/13/4 8/14/4 26/15/4 44/16/4
f 5/17/5 41/18/5 40/19/5 7/20/5
f 2/21/5 5/17/5 7/20/5 4/22/5
f 16/12/6 1/11/6 8/14/6 17/13/6
f 45/23/7 31/24/7 6/6/7 18/5/7
f 26/25/1 8/1/1 10/26/1 34/27/1
f 6/6/8 31/24/8 32/28/8 9/29/8
f 9/29/9 32/28/9 24/30/9
f 34/27/1 10/26/1 9/31/1 24/32/1
f 10/26/1 8/1/1 6/4/1 9/31/1
f 2/21/5 4/22/5 12/33/5 11/34/5
f 5/17/5 2/21/5 11/34/5 13/35/5
f 7/20/5 40/19/5 25/36/5 14/37/5
f 41/18/5 5/17/5 13/35/5 23/38/5
f 4/22/5 7/20/5 14/37/5 12/33/5
f 25/39/10 45/23/10 18/5/10 14/40/10
f 11/41/11 16/12/11 17/13/11 13/42/11
f 13/42/12 17/13/12 44/16/12 23/43/12
f 12/44/13 15/9/13 16/12/13 11/41/13
f 14/40/14 18/5/14 15/8/14 12/45/14
f 30/1/1 28/4/1 21/3/1 19/2/1
f 47/5/15 42/8/15 21/7/15 28/6/15
f 42/9/16 43/12/16 19/11/16 21/10/16
f 46/13/17 44/16/17 26/15/17 30/14/17
f 27/17/5 29/20/5 40/19/5 41/18/5
f 20/21/5 22/22/5 29/20/5 27/17/5
f 43/12/18 46/13/18 30/14/18 19/11/18
f 45/23/19 47/5/19 28/6/19 31/24/19
f 26/25/1 34/27/1 35/26/1 30/1/1
f 28/6/20 33/29/20 32/28/20 31/24/20
f 33/29/21 24/30/21 32/28/21
f 34/27/1 24/32/1 33/31/1 35/26/1
f 35/26/1 33/31/1 28/4/1 30/1/1
f 20/21/5 36/34/5 37/33/5 22/22/5
f 27/17/5 38/35/5 36/34/5 20/21/5
f 29/20/5 39/37/5 25/36/5 40/19/5
f 41/18/5 23/38/5 38/35/5 27/17/5
f 22/22/5 37/33/5 39/37/5 29/20/5
f 25/39/22 39/40/22 47/5/22 45/23/22
f 36/41/23 38/42/23 46/13/23 43/12/23
f 38/42/24 23/43/24 44/16/24 46/13/24
f 37/44/25 36/41/25 43/12/25 42/9/25
f 39/40/26 37/45/26 42/8/26 47/5/26
o kid_body_Arm_Left.003
v 0.872892 4.864440 -0.257575 0.6197 0.5569 0.5686
v 1.319714 4.714793 -0.257575 0.8117 0.7294 0.6667
v 0.872892 4.864440 0.257575 0.6197 0.5569 0.5686
v 1.319714 4.714793 0.257575 0.8157 0.7294 0.6628
v 1.560263 3.149184 0.327335 0.4157 0.6824 0.6157
v 1.560263 3.149184 -0.327335 0.4157 0.6824 0.6157
v 1.253042 5.090566 -0.226914 0.8117 0.7294 0.6667
v 1.253042 5.090566 0.226914 0.8157 0.7294 0.6628
v 1.188217 2.960543 0.327335 0.4157 0.6824 0.6157
v 0.843769 5.277802 0.226914 0.6197 0.5569 0.5686
v 1.188217 2.960543 -0.327335 0.4078 0.6706 0.6079
v 0.843769 5.277802 -0.226914 0.6197 0.5569 0.5686
v 1.586400 3.686187 0.380220 0.8157 0.7294 0.6628
v 1.586400 3.686187 -0.380220 0.8157 0.7294 0.6628
v 0.989382 3.685485 -0.380220 0.6197 0.5569 0.5686
v 0.989382 3.685485 0.380220 0.6276 0.5647 0.5725
v 1.499317 3.603077 -0.287615 0.2078 0.3647 0.4118
v 1.112547 3.563108 -0.287615 0.2078 0.3647 0.4118
v 1.499317 3.603077 0.287615 0.2078 0.3647 0.4118
v 1.112547 3.563108 0.287615 0.2078 0.3647 0.4118
v 1.512837 3.615980 0.301992 0.6197 0.5569 0.5686
v 1.093425 3.582107 0.301992 0.6197 0.5569 0.5686
v 1.512837 3.615980 -0.301992 0.6236 0.5647 0.5764
v 1.093425 3.582107 -0.301992 0.6197 0.5569 0.5686
vn 0.0162 0.1132 -0.9934
vn 0.0320 0.0813 -0.9962
vn -0.9952 -0.0983 -0.0000
vn 0.0162 0.1132 0.9934
vn -0.0217 0.0722 -0.9972
vn 0.4522 -0.8919 -0.0000
vn 0.4160 0.9094 -0.0000
vn -0.9975 -0.0703 -0.0000
vn 0.0320 0.0813 0.9962
vn 0.6904 -0.7234 -0.0000
vn 0.0227 -0.6671 0.7446
vn 0.9846 0.1747 -0.0000
vn -0.7048 -0.7094 -0.0000
vn -0.9922 -0.1246 -0.0000
vn -0.0217 0.0722 0.9972
vn 0.9911 0.1331 -0.0000
vn 0.0607 -0.6624 -0.7467
vn 0.0227 -0.6671 -0.7446
vn 0.0607 -0.6624 0.7467
vn 0.9680 0.2510 -0.0000
vt 0.600000 0.250000
vt 0.500000 0.250000
vt 0.625000 0.250000
vt 0.500000 0.000000
vt 0.600000 0.000000
vt 0.500000 0.000000
vt 0.473884 0.250000
vt 0.375000 0.250000
vt 0.375000 0.000000
vt 0.625000 0.000000
vt 0.477938 0.000000
vt 0.477938 0.250000
vt 0.477938 0.000000
vt 0.473883 0.000000
vt 0.473884 0.000000
s 0
usemtl vertex_colors
f 48/46/27 49/46/27 61/47/27 62/47/27
f 59/48/28 54/48/28 49/46/28 48/46/28
f 63/49/29 50/50/29 48/46/29 62/47/29
f 63/49/30 60/51/30 51/50/30 50/50/30
f 65/52/31 64/52/31 53/53/31 58/53/31
f 58/53/32 53/53/32 52/54/32 56/54/32
f 57/55/33 55/55/33 54/48/33 59/48/33
f 50/50/34 57/55/34 59/48/34 48/46/34
f 50/50/35 51/50/35 55/55/35 57/55/35
f 68/56/36 70/57/36 61/47/36 60/51/36
f 69/58/37 68/56/37 60/51/37 63/49/37
f 51/50/38 49/46/38 54/48/38 55/55/38
f 69/58/39 63/49/39 62/47/39 71/57/39
f 56/54/40 67/59/40 65/52/40 58/53/40
f 56/54/41 52/54/41 66/60/41 67/59/41
f 52/54/42 53/53/42 64/52/42 66/60/42
f 71/57/43 70/57/43 64/52/43 65/52/43
f 62/47/44 61/47/44 70/57/44 71/57/44
f 67/59/39 69/58/39 71/57/39 65/52/39
f 67/59/45 66/60/45 68/56/45 69/58/45
f 66/60/36 64/52/36 70/57/36 68/56/36
f 60/51/46 61/47/46 49/46/46 51/50/46
o kid_body_Arm_Right.002
v -1.560262 3.149184 0.327335 0.4157 0.6824 0.6157
v -1.560262 3.149184 -0.327335 0.4157 0.6824 0.6157
v -1.253041 5.090566 -0.226914 0.8117 0.7294 0.6667
v -1.253041 5.090566 0.226914 0.8157 0.7294 0.6628
v -1.188216 2.960543 0.327335 0.4157 0.6824 0.6157
v -0.843768 5.277802 0.226914 0.6197 0.5569 0.5686
v -1.188216 2.960543 -0.327335 0.4078 0.6706 0.6079
v -0.843768 5.277802 -0.226914 0.6197 0.5569 0.5686
v -1.586399 3.686187 0.380220 0.8157 0.7294 0.6628
v -1.586399 3.686187 -0.380220 0.8157 0.7294 0.6628
v -0.989381 3.685485 -0.380220 0.6197 0.5569 0.5686
v -0.989381 3.685485 0.380220 0.6276 0.5647 0.5725
v -1.499316 3.603077 -0.287615 0.2078 0.3647 0.4118
v -1.112546 3.563108 -0.287615 0.2078 0.3647 0.4118
v -1.499316 3.603077 0.287615 0.2078 0.3647 0.4118
v -1.112546 3.563108 0.287615 0.2078 0.3647 0.4118
v -1.512836 3.615980 0.301992 0.6197 0.5569 0.5686
v -1.093424 3.582107 0.301992 0.6197 0.5569 0.5686
v -1.512836 3.615980 -0.301992 0.6236 0.5647 0.5764
v -1.093424 3.582107 -0.301992 0.6197 0.5569 0.5686
v -0.872891 4.864440 -0.257575 0.6197 0.5569 0.5686
v -1.319713 4.714793 -0.257575 0.8117 0.7294 0.6667
v -0.872891 4.864440 0.257575 0.6197 0.5569 0.5686
v -1.319713 4.714793 0.257575 0.8157 0.7294 0.6628
vn 0.0217 0.0722 -0.9972
vn -0.4522 -0.8919 -0.0000
vn -0.4160 0.9094 -0.0000
vn 0.9975 -0.0703 -0.0000
vn -0.0320 0.0813 0.9962
vn -0.6904 -0.7234 -0.0000
vn -0.0227 -0.6671 0.7446
vn -0.9846 0.1747 -0.0000
vn 0.7048 -0.7094 -0.0000
vn 0.9922 -0.1246 -0.0000
vn 0.0217 0.0722 0.9972
vn -0.9911 0.1331 -0.0000
vn -0.0607 -0.6624 -0.7467
vn -0.0227 -0.6671 -0.7446
vn -0.0607 -0.6624 0.7467
vn -0.0320 0.0813 -0.9962
vn 0.9952 -0.0983 -0.0000
vn -0.0162 0.1132 0.9934
vn -0.9680 0.2510 -0.0000
vn -0.0162 0.1132 -0.9934
vt 0.473884 0.250000
vt 0.375000 0.250000
vt 0.375000 0.000000
vt 0.625000 0.000000
vt 0.625000 0.250000
vt 0.600000 0.000000
vt 0.600000 0.250000
vt 0.600000 0.000000
vt 0.477938 0.000000
vt 0.500000 0.000000
vt 0.500000 0.250000
vt 0.477938 0.250000
vt 0.477938 0.000000
vt 0.500000 0.000000
vt 0.473883 0.000000
vt 0.473884 0.000000
s 0
usemtl vertex_colors
f 85/61/47 78/62/47 73/62/47 84/61/47
f 78/62/48 76/63/48 72/63/48 73/62/48
f 77/64/49 79/65/49 74/65/49 75/64/49
f 94/66/50 92/67/50 79/65/50 77/64/50
f 94/66/51 77/64/51 75/64/51 95/68/51
f 88/69/52 80/70/52 81/71/52 90/72/52
f 89/73/53 83/74/53 80/70/53 88/69/53
f 95/68/54 75/64/54 74/65/54 93/67/54
f 89/73/55 91/72/55 82/71/55 83/74/55
f 76/63/56 78/62/56 85/61/56 87/75/56
f 76/63/57 87/75/57 86/76/57 72/63/57
f 72/63/58 86/76/58 84/61/58 73/62/58
f 91/72/59 85/61/59 84/61/59 90/72/59
f 82/71/60 91/72/60 90/72/60 81/71/60
f 87/75/55 85/61/55 91/72/55 89/73/55
f 87/75/61 89/73/61 88/69/61 86/76/61
f 86/76/52 88/69/52 90/72/52 84/61/52
f 79/65/62 92/67/62 93/67/62 74/65/62
f 83/74/63 82/71/63 92/67/63 94/66/63
f 83/74/64 94/66/64 95/68/64 80/70/64
f 80/70/65 95/68/65 93/67/65 81/71/65
f 92/67/66 82/71/66 81/71/66 93/67/66
o kid_body_F_L_head.002
v -0.144530 5.230571 0.144528 0.1059 0.1882 0.2118
v -0.638009 5.796237 0.638007 0.4118 0.6785 0.6118
v -0.144530 5.230571 -0.144532 0.1059 0.1882 0.2118
v -0.511490 5.796237 -0.638011 0.1059 0.1882 0.2118
v 0.195625 5.230571 0.131933 0.1059 0.1882 0.2118
v 0.638009 5.796237 0.638007 0.4039 0.6628 0.6000
v 0.144530 5.230571 -0.144532 0.1059 0.1882 0.2118
v 0.511490 5.796237 -0.638011 0.1059 0.1882 0.2118
v -0.428925 7.004449 0.428923 0.2196 0.3843 0.4235
v -0.428925 7.004449 -0.428927 0.2078 0.3647 0.4118
v 0.428925 7.004449 -0.428927 0.2078 0.3647 0.4118
v 0.428925 7.004449 0.428923 0.2823 0.4745 0.4784
v -0.511490 6.513429 -0.638011 0.2078 0.3647 0.4118
v 0.511490 6.513429 -0.638011 0.2078 0.3647 0.4118
v 0.638009 6.513429 0.638007 0.4157 0.6824 0.6157
v -0.638009 6.513429 0.638007 0.4157 0.6824 0.6157
v 0.000000 7.351280 -0.563038 0.4157 0.6824 0.6157
v 0.000000 7.205072 0.203646 0.4157 0.6824 0.6157
v 0.132448 7.004449 0.428923 0.2823 0.4745 0.4784
v 0.428925 7.004449 -0.428927 0.2078 0.3647 0.4118
v -0.428925 7.004449 -0.428927 0.2078 0.3647 0.4118
v -0.132448 7.004449 0.428923 0.2196 0.3843 0.4235
v 0.247618 6.324659 0.873482 0.0000 0.0000 0.0000
v 0.188793 6.468397 0.731909 0.2078 0.3647 0.4118
v 0.183427 6.481508 0.704275 0.4157 0.6824 0.6157
v 0.369359 6.294885 0.873482 0.0000 0.0000 0.0000
v 0.487884 6.395248 0.731909 0.2078 0.3647 0.4118
v 0.498696 6.404403 0.704275 0.4157 0.6824 0.6157
v 0.378663 6.169901 0.873482 0.0235 0.0235 0.0235
v 0.510740 6.088192 0.731909 0.2078 0.3647 0.4118
v 0.522788 6.080739 0.704275 0.4157 0.6824 0.6157
v 0.287999 6.225991 0.906276 0.0000 0.0000 0.0000
v 0.262671 6.122432 0.873482 0.0000 0.0000 0.0000
v 0.225775 5.971569 0.731909 0.2078 0.3647 0.4118
v 0.222409 5.957808 0.704275 0.4157 0.6824 0.6157
v 0.181681 6.218077 0.873482 0.0118 0.0118 0.0118
v 0.026801 6.206549 0.731909 0.2078 0.3647 0.4118
v 0.012673 6.205497 0.704275 0.4157 0.6824 0.6157
v 0.194526 6.454389 0.759046 1.0000 1.0000 1.0000
v 0.476333 6.385468 0.759046 1.0000 1.0000 1.0000
v 0.497868 6.096155 0.759046 1.0000 1.0000 1.0000
v 0.229370 5.986271 0.759046 1.0000 1.0000 1.0000
v 0.041895 6.207672 0.759046 1.0000 1.0000 1.0000
v -0.328279 6.110968 0.838332 0.0000 0.0000 0.0000
v -0.389737 6.202049 0.738174 0.2078 0.3647 0.4118
v -0.395343 6.210357 0.704275 0.4157 0.6785 0.6157
v -0.239666 6.107889 0.838332 0.0000 0.0000 0.0000
v -0.172034 6.194484 0.738174 0.2078 0.3647 0.4118
v -0.165865 6.202383 0.704275 0.4157 0.6824 0.6157
v -0.215212 6.022662 0.838332 0.0235 0.0235 0.0235
v -0.111955 5.985099 0.738174 0.2078 0.3647 0.4118
v -0.102537 5.981673 0.704275 0.4157 0.6824 0.6157
v -0.286092 6.048446 0.861533 0.0000 0.0000 0.0000
v -0.288711 5.973067 0.838332 0.0000 0.0000 0.0000
v -0.292527 5.863257 0.738174 0.2078 0.3647 0.4118
v -0.292875 5.853241 0.704275 0.4157 0.6824 0.6157
v -0.358590 6.027644 0.838332 0.0118 0.0118 0.0118
v -0.464205 5.997340 0.738174 0.2078 0.3647 0.4118
v -0.473839 5.994576 0.704275 0.4157 0.6824 0.6157
v -0.383747 6.193173 0.757372 1.0000 1.0000 1.0000
v -0.178625 6.186045 0.757372 1.0000 1.0000 1.0000
v -0.122018 5.988760 0.757372 1.0000 1.0000 1.0000
v -0.292155 5.873959 0.757372 1.0000 1.0000 1.0000
v -0.453912 6.000293 0.757372 1.0000 1.0000 1.0000
v -0.210351 6.411214 0.823546 0.0000 0.0000 0.0000
v -0.264828 6.469627 0.750737 0.2078 0.3647 0.4118
v -0.269797 6.474955 0.704275 0.4157 0.6824 0.6157
v -0.146376 6.419073 0.823546 0.0000 0.0000 0.0000
v -0.107656 6.488935 0.750737 0.2078 0.3647 0.4118
v -0.104125 6.495307 0.704275 0.4157 0.6824 0.6157
v -0.119132 6.360658 0.823546 0.0235 0.0235 0.0235
v -0.040725 6.345422 0.750737 0.2078 0.3647 0.4118
v -0.033573 6.344033 0.704275 0.4157 0.6824 0.6157
v -0.172955 6.371117 0.840412 0.0000 0.0000 0.0000
v -0.166269 6.316697 0.823546 0.0000 0.0000 0.0000
v -0.156530 6.237419 0.750737 0.2078 0.3647 0.4118
v -0.155642 6.230187 0.704275 0.4157 0.6824 0.6157
v -0.222645 6.347942 0.823546 0.0118 0.0118 0.0118
v -0.295034 6.314181 0.750737 0.2078 0.3647 0.4118
v -0.301637 6.311101 0.704275 0.4157 0.6824 0.6157
v -0.259519 6.463934 0.764693 1.0000 1.0000 1.0000
v -0.111430 6.482126 0.764693 1.0000 1.0000 1.0000
v -0.048366 6.346907 0.764693 1.0000 1.0000 1.0000
v -0.157479 6.245145 0.764693 1.0000 1.0000 1.0000
v -0.287979 6.317471 0.764693 1.0000 1.0000 1.0000
v 0.239798 6.343768 0.856625 0.8117 0.8431 0.7490
v 0.385116 6.308228 0.856625 0.8196 0.8509 0.7568
v 0.396221 6.159039 0.856625 0.8157 0.8470 0.7529
v 0.257766 6.102376 0.856625 0.8196 0.8509 0.7568
v 0.161091 6.216545 0.856625 0.8196 0.8509 0.7568
v -0.215405 6.416633 0.817496 0.8196 0.8509 0.7568
v -0.142784 6.425554 0.817496 0.8196 0.8509 0.7568
v -0.111858 6.359245 0.817496 0.8196 0.8509 0.7568
v -0.165366 6.309341 0.817496 0.8196 0.8509 0.7568
v -0.229361 6.344810 0.817496 0.8196 0.8509 0.7568
v -0.334733 6.120533 0.828912 0.8941 0.9294 0.8235
v -0.232564 6.116982 0.828912 0.8196 0.8509 0.7568
v -0.204368 6.018717 0.828912 0.8862 0.9176 0.8117
v -0.289112 5.961536 0.828912 0.8196 0.8509 0.7568
v -0.369681 6.024461 0.828912 0.8196 0.8509 0.7568
v -0.349822 6.548102 -0.638498 0.2078 0.3647 0.4118
v 0.019084 6.621032 -1.097692 0.4118 0.6745 0.6118
v 0.391526 6.548102 -0.638498 0.2078 0.3647 0.4118
v -0.329961 5.676095 -0.766640 0.2078 0.3647 0.4118
v 0.006466 5.834715 -1.229162 0.3686 0.6079 0.5647
v 0.297093 5.937925 -0.831972 0.2078 0.3647 0.4118
v 0.180159 5.368580 -0.751403 0.2078 0.3647 0.4118
v 0.474751 5.459935 -1.106672 0.4157 0.6824 0.6157
v 0.429253 5.835631 -0.848700 0.2078 0.3647 0.4118
v 0.386609 5.348664 -0.725320 0.2078 0.3647 0.4118
v 0.813747 5.430159 -0.702766 0.2078 0.3647 0.4118
v 0.588255 5.724872 -0.699998 0.2745 0.4667 0.4706
v 0.510898 5.385759 0.332200 0.2078 0.3647 0.4118
v 0.934637 5.488743 0.187138 0.2078 0.3647 0.4118
v 0.709145 5.783456 0.189906 0.4157 0.6824 0.6157
v 0.573896 5.150064 0.411437 0.2078 0.3647 0.4118
v 0.941888 5.236512 0.460521 0.2078 0.3647 0.4118
v 0.744290 5.536388 0.699159 0.4118 0.6785 0.6118
v 0.702305 4.685494 0.546697 0.2078 0.3647 0.4118
v 0.860398 4.707857 0.565995 0.2078 0.3647 0.4118
v 0.769301 4.772562 0.659824 0.4157 0.6824 0.6157
v 0.777335 4.037508 0.590839 0.1373 0.2392 0.2706
vn -0.7943 -0.6041 -0.0642
vn -0.0000 -0.6574 -0.7536
vn 0.8103 -0.5786 -0.0927
vn 0.0058 -0.6620 0.7495
vn -0.0000 -1.0000 -0.0000
vn -0.0000 0.3918 -0.9201
vn -0.0000 1.0000 -0.0000
vn 0.9571 0.2842 -0.0567
vn -0.9571 0.2842 -0.0567
vn -0.0000 0.3918 0.9201
vn -0.0000 -0.0000 1.0000
vn -0.9951 -0.0000 -0.0987
vn 0.9951 -0.0000 -0.0987
vn -0.0000 -0.0000 -1.0000
vn 0.5926 0.7912 0.1509
vn -0.6714 0.7038 0.2320
vn -0.0000 0.7468 0.6651
vn 0.2194 0.8973 0.3831
vn 0.0844 0.3452 0.9347
vn 0.1687 0.6900 0.7039
vn 0.3544 0.0264 0.9347
vn 0.7083 0.0527 0.7039
vn 0.9212 0.0686 0.3831
vn 0.3499 -0.8549 0.3831
vn 0.1346 -0.3289 0.9347
vn 0.2690 -0.6574 0.7039
vn -0.7049 -0.5969 0.3831
vn -0.2712 -0.2297 0.9347
vn -0.5421 -0.4590 0.7039
vn -0.7855 0.4860 0.3831
vn -0.3022 0.1870 0.9347
vn -0.6041 0.3737 0.7039
vn -0.7752 0.4796 0.4113
vn -0.6956 -0.5890 0.4113
vn 0.3452 -0.8436 0.4113
vn 0.9090 0.0677 0.4113
vn 0.2165 0.8854 0.4113
vn 0.0338 0.9720 0.2326
vn 0.0123 0.3552 0.9347
vn 0.0247 0.7099 0.7039
vn 0.3416 0.0980 0.9347
vn 0.6828 0.1959 0.7039
vn 0.9348 0.2682 0.2326
vn 0.5440 -0.8062 0.2326
vn 0.1988 -0.2946 0.9347
vn 0.3973 -0.5888 0.7039
vn -0.5986 -0.7665 0.2326
vn -0.2188 -0.2801 0.9347
vn -0.4372 -0.5598 0.7039
vn -0.9140 0.3325 0.2326
vn -0.3340 0.1215 0.9347
vn -0.6675 0.2428 0.7039
vn -0.8566 0.3116 0.4113
vn -0.5611 -0.7184 0.4113
vn 0.5098 -0.7556 0.4113
vn 0.8762 0.2514 0.4113
vn 0.0317 0.9110 0.4113
vn -0.1210 0.9846 0.1259
vn -0.0433 0.3528 0.9347
vn -0.0866 0.7050 0.7039
vn 0.3221 0.1502 0.9347
vn 0.6437 0.3002 0.7039
vn 0.8991 0.4193 0.1259
vn 0.6766 -0.7255 0.1259
vn 0.2424 -0.2599 0.9347
vn 0.4845 -0.5195 0.7039
vn -0.4809 -0.8677 0.1259
vn -0.1723 -0.3109 0.9347
vn -0.3443 -0.6213 0.7039
vn -0.9738 0.1892 0.1259
vn -0.3489 0.0678 0.9347
vn -0.6973 0.1355 0.7039
vn -0.8948 0.1739 0.4113
vn -0.4419 -0.7972 0.4113
vn 0.6217 -0.6666 0.4113
vn 0.8261 0.3853 0.4113
vn -0.1111 0.9047 0.4113
vn 0.6714 0.7038 0.2320
vn -0.5926 0.7912 0.1509
vn 0.6710 0.3865 -0.6328
vn -0.6708 0.3534 -0.6520
vn -0.0000 -0.4173 0.9088
vn 0.0877 -0.2154 0.9726
vn 0.7866 0.0821 -0.6120
vn -0.8017 0.0890 -0.5911
vn 0.0810 0.1233 0.9891
vn 0.5535 0.5600 -0.6164
vn -0.4251 -0.7203 -0.5482
vn -0.3399 0.2588 0.9041
vn 0.7072 0.4857 -0.5138
vn 0.1129 -0.9605 -0.2542
vn -0.8788 0.4692 0.0868
vn 0.7850 0.6020 -0.1463
vn 0.2147 -0.9765 0.0209
vn -0.8358 -0.0393 0.5477
vn 0.7735 0.5896 0.2327
vn 0.0406 -0.5814 -0.8126
vn -0.8265 -0.0595 0.5598
vn 0.7553 0.0005 0.6553
vn 0.1711 -0.2244 -0.9593
vn -0.8379 -0.0601 0.5425
vn 0.6953 -0.0596 0.7162
vn 0.1283 -0.0526 -0.9903
vn -0.8052 0.5098 0.3029
vn 0.8887 0.3485 0.2980
vn -0.8804 0.4659 0.0889
vn 0.4677 0.0108 0.8838
vn 0.0083 0.9371 0.3489
vn 0.1022 0.4180 0.9027
vn 0.0298 -0.5112 0.8589
vn 0.0799 -0.1953 0.9775
vn -0.3037 0.0256 0.9524
vn -0.1511 0.0717 0.9859
vn -0.0760 0.6189 0.7818
vn -0.1535 -0.1965 0.9684
vt 0.375000 0.000000
vt 0.625000 0.000000
vt 0.625000 0.250000
vt 0.375000 0.250000
vt 0.625000 0.500000
vt 0.375000 0.500000
vt 0.625000 0.750000
vt 0.375000 0.750000
vt 0.625000 1.000000
vt 0.375000 1.000000
vt 0.125000 0.500000
vt 0.125000 0.750000
vt 0.875000 0.500000
vt 0.875000 0.750000
vt 0.800000 0.250000
vt 0.600000 0.250000
vt 0.200000 0.250000
vt 0.000000 0.250000
vt 0.600000 0.500000
vt 0.400000 0.500000
vt 0.400000 0.250000
vt 0.600000 0.750000
vt 0.500000 1.000000
vt 0.400000 0.750000
vt 0.600000 0.720441
vt 0.400000 0.720441
vt 0.300000 1.000000
vt 0.200000 0.750000
vt 0.200000 0.720441
vt 0.200000 0.500000
vt 0.000000 0.500000
vt 0.100000 1.000000
vt 0.000000 0.750000
vt 0.000000 0.720441
vt 1.000000 0.250000
vt 1.000000 0.500000
vt 0.800000 0.500000
vt 1.000000 0.750000
vt 0.900000 1.000000
vt 0.800000 0.750000
vt 1.000000 0.720441
vt 0.800000 0.720441
vt 0.700000 1.000000
vt 0.800000 0.549324
vt 0.600000 0.549324
vt 1.000000 0.549324
vt 0.200000 0.549324
vt 0.000000 0.549324
vt 0.400000 0.549324
vt 0.600000 0.726651
vt 0.400000 0.726651
vt 0.200000 0.726651
vt 0.000000 0.726651
vt 1.000000 0.726651
vt 0.800000 0.726651
vt 0.600000 0.729372
vt 0.400000 0.729372
vt 0.200000 0.729372
vt 0.000000 0.729372
vt 1.000000 0.729372
vt 0.800000 0.729372
s 0
usemtl vertex_colors
f 96/77/67 97/78/67 99/79/67 98/80/67
f 98/80/68 99/79/68 103/81/68 102/82/68
f 102/82/69 103/81/69 101/83/69 100/84/69
f 100/84/70 101/83/70 97/85/70 96/86/70
f 98/87/71 102/82/71 100/84/71 96/88/71
f 109/81/72 108/79/72 105/79/72 106/81/72
f 106/81/73 105/89/73 104/90/73 107/83/73
f 110/83/74 109/81/74 106/81/74 107/83/74
f 108/79/75 111/78/75 104/78/75 105/79/75
f 111/85/76 110/83/76 107/83/76 104/85/76
f 133/91/77 120/92/77 168/93/77 172/94/77
f 99/79/78 97/78/78 111/78/78 108/79/78
f 101/83/79 103/81/79 109/81/79 110/83/79
f 103/81/80 99/79/80 108/79/80 109/81/80
f 115/81/81 112/81/81 113/83/81
f 116/89/82 117/90/82 113/90/82
f 117/90/83 114/83/83 113/90/83
f 120/92/84 119/95/84 122/96/84 123/97/84
f 118/98/85 127/99/85 121/100/85
f 181/101/86 118/98/86 121/100/86 182/102/86
f 121/100/87 127/103/87 124/104/87
f 182/102/88 121/100/88 124/104/88 183/105/88
f 123/97/89 122/96/89 125/106/89 126/93/89
f 126/93/90 125/106/90 129/107/90 130/94/90
f 124/104/91 127/108/91 128/109/91
f 183/105/92 124/104/92 128/109/92 184/110/92
f 130/111/93 129/112/93 132/113/93 133/91/93
f 128/114/94 127/115/94 131/116/94
f 184/117/95 128/114/95 131/116/95 185/118/95
f 133/91/96 132/113/96 119/95/96 120/92/96
f 131/116/97 127/119/97 118/98/97
f 185/118/98 131/116/98 118/98/98 181/101/98
f 132/113/99 138/120/99 134/121/99 119/95/99
f 129/112/100 137/122/100 138/120/100 132/113/100
f 125/106/101 136/123/101 137/124/101 129/107/101
f 122/96/102 135/125/102 136/123/102 125/106/102
f 119/95/103 134/121/103 135/125/103 122/96/103
f 141/92/104 140/95/104 143/96/104 144/97/104
f 139/98/105 148/99/105 142/100/105
f 191/126/106 139/98/106 142/100/106 192/127/106
f 142/100/107 148/103/107 145/104/107
f 192/127/108 142/100/108 145/104/108 193/128/108
f 144/97/109 143/96/109 146/106/109 147/93/109
f 147/93/110 146/106/110 150/107/110 151/94/110
f 145/104/111 148/108/111 149/109/111
f 193/128/112 145/104/112 149/109/112 194/129/112
f 151/111/113 150/112/113 153/113/113 154/91/113
f 149/114/114 148/115/114 152/116/114
f 194/130/115 149/114/115 152/116/115 195/131/115
f 154/91/116 153/113/116 140/95/116 141/92/116
f 152/116/117 148/119/117 139/98/117
f 195/131/118 152/116/118 139/98/118 191/126/118
f 153/113/119 159/120/119 155/121/119 140/95/119
f 150/112/120 158/122/120 159/120/120 153/113/120
f 146/106/121 157/123/121 158/124/121 150/107/121
f 143/96/122 156/125/122 157/123/122 146/106/122
f 140/95/123 155/121/123 156/125/123 143/96/123
f 162/92/124 161/95/124 164/96/124 165/97/124
f 160/98/125 169/99/125 163/100/125
f 186/132/126 160/98/126 163/100/126 187/133/126
f 163/100/127 169/103/127 166/104/127
f 187/133/128 163/100/128 166/104/128 188/134/128
f 165/97/129 164/96/129 167/106/129 168/93/129
f 168/93/130 167/106/130 171/107/130 172/94/130
f 166/104/131 169/108/131 170/109/131
f 188/134/132 166/104/132 170/109/132 189/135/132
f 172/111/133 171/112/133 174/113/133 175/91/133
f 170/114/134 169/115/134 173/116/134
f 189/136/135 170/114/135 173/116/135 190/137/135
f 175/91/136 174/113/136 161/95/136 162/92/136
f 173/116/137 169/119/137 160/98/137
f 190/137/138 173/116/138 160/98/138 186/132/138
f 174/113/139 180/120/139 176/121/139 161/95/139
f 171/112/140 179/122/140 180/120/140 174/113/140
f 167/106/141 178/123/141 179/124/141 171/107/141
f 164/96/142 177/125/142 178/123/142 167/106/142
f 161/95/143 176/121/143 177/125/143 164/96/143
f 138/120/98 185/118/98 181/101/98 134/121/98
f 137/122/95 184/117/95 185/118/95 138/120/95
f 136/123/92 183/105/92 184/110/92 137/124/92
f 135/125/88 182/102/88 183/105/88 136/123/88
f 134/121/86 181/101/86 182/102/86 135/125/86
f 180/120/138 190/137/138 186/132/138 176/121/138
f 179/122/135 189/136/135 190/137/135 180/120/135
f 178/123/132 188/134/132 189/135/132 179/124/132
f 177/125/128 187/133/128 188/134/128 178/123/128
f 176/121/126 186/132/126 187/133/126 177/125/126
f 159/120/118 195/131/118 191/126/118 155/121/118
f 158/122/115 194/130/115 195/131/115 159/120/115
f 157/123/112 193/128/112 194/129/112 158/124/112
f 156/125/108 192/127/108 193/128/108 157/123/108
f 155/121/106 191/126/106 192/127/106 156/125/106
f 114/83/144 115/81/144 113/83/144
f 112/89/145 116/89/145 113/90/145
f 112/81/146 115/81/146 198/81/146 197/81/146
f 116/89/147 112/89/147 197/89/147 196/89/147
f 116/89/148 196/89/148 198/81/148 115/81/148
f 198/81/149 196/89/149 199/89/149 201/81/149
f 197/81/150 198/81/150 201/81/150 200/81/150
f 196/89/151 197/89/151 200/89/151 199/89/151
f 201/81/152 199/89/152 202/89/152 204/81/152
f 200/81/153 201/81/153 204/81/153 203/81/153
f 199/89/154 200/89/154 203/89/154 202/89/154
f 204/81/155 202/89/155 205/89/155 207/81/155
f 203/81/156 204/81/156 207/81/156 206/81/156
f 202/89/157 203/89/157 206/89/157 205/89/157
f 205/89/158 208/89/158 210/81/158
f 206/81/159 207/81/159 210/81/159
f 205/89/160 206/89/160 209/89/160 208/89/160
f 208/89/161 211/89/161 213/81/161
f 209/81/162 210/81/162 213/81/162
f 208/89/163 209/89/163 212/89/163 211/89/163
f 213/81/164 211/89/164 214/89/164 216/81/164
f 212/81/165 213/81/165 216/81/165 215/81/165
f 211/89/166 212/89/166 215/89/166 214/89/166
f 216/81/167 214/89/167 217/81/167
f 215/81/168 216/81/168 217/81/168
f 214/89/169 215/89/169 217/89/169
f 210/81/170 208/89/170 213/81/170
f 212/81/171 209/81/171 213/81/171
f 207/81/172 205/89/172 210/81/172
f 209/81/159 206/81/159 210/81/159
f 168/93/77 120/92/77 165/97/77
f 130/111/77 133/91/77 144/97/77 147/93/77
f 172/94/77 144/97/77 133/91/77
f 141/92/77 144/97/77 172/111/77 175/91/77
f 147/93/77 151/94/77 130/111/77
f 101/83/173 110/83/173 123/97/173 126/93/173
f 110/83/174 111/85/174 165/97/174 120/92/174
f 123/97/175 110/83/175 120/92/175
f 101/83/176 130/111/176 151/94/176 97/85/176
f 130/111/177 101/83/177 126/93/177
f 111/78/178 97/78/178 154/91/178 141/92/178
f 175/91/179 162/92/179 111/78/179 141/92/179
f 165/97/180 111/85/180 162/92/180
f 151/94/181 154/91/181 97/85/181
o kid_body_Feet_Right.004
v -0.392443 1.638561 -0.539819 0.3568 0.2902 0.4078
v -0.392443 1.638561 0.539819 0.3568 0.2902 0.4078
v -0.985410 1.638561 -0.539819 0.3568 0.2902 0.4078
v -0.985410 1.638561 0.539819 0.3568 0.2902 0.4078
v -0.875005 0.000000 -0.227668 0.1255 0.1255 0.1804
v -0.875005 0.000000 0.227668 0.1255 0.1255 0.1804
v -0.502848 0.000000 -0.227668 0.1255 0.1255 0.1804
v -0.502848 0.000000 0.227668 0.1255 0.1255 0.1804
v -0.979276 1.148915 0.522477 0.2157 0.2118 0.3059
v -0.398577 1.148915 0.522477 0.2157 0.2118 0.3059
v -0.979276 1.148915 -0.522477 0.2157 0.2118 0.3059
v -0.398577 1.148915 -0.522477 0.2157 0.2118 0.3059
vn -0.0000 -1.0000 -0.0000
vn -0.0000 -0.2485 0.9686
vn -0.9959 -0.0904 -0.0000
vn 0.9959 -0.0904 -0.0000
vn -0.0000 -0.2485 -0.9686
vn -0.0000 -0.0354 -0.9994
vn 0.9999 -0.0125 -0.0000
vn -0.9999 -0.0125 -0.0000
vn -0.0000 -0.0354 0.9994
vt 0.125000 0.500000
vt 0.375000 0.500000
vt 0.375000 0.750000
vt 0.125000 0.750000
vt 0.125000 0.750000
s 0
usemtl vertex_colors
f 222/138/182 224/139/182 225/140/182 223/141/182
f 227/140/183 226/142/183 223/141/183 225/140/183
f 226/142/184 228/138/184 222/138/184 223/141/184
f 229/139/185 227/140/185 225/140/185 224/139/185
f 228/138/186 229/139/186 224/139/186 222/138/186
f 220/138/187 218/139/187 229/139/187 228/138/187
f 218/139/188 219/140/188 227/140/188 229/139/188
f 221/141/189 220/138/189 228/138/189 226/142/189
f 219/140/190 221/141/190 226/142/190 227/140/190
o kid_body_Feet_Left.004
v 0.392443 1.638561 -0.539819 0.3568 0.2902 0.4078
v 0.392443 1.638561 0.539819 0.3568 0.2902 0.4078
v 0.985409 1.638561 -0.539819 0.3568 0.2902 0.4078
v 0.985409 1.638561 0.539819 0.3568 0.2902 0.4078
v 0.875005 0.000000 -0.227668 0.1255 0.1255 0.1804
v 0.875005 0.000000 0.227668 0.1255 0.1255 0.1804
v 0.502847 0.000000 -0.227668 0.1255 0.1255 0.1804
v 0.502847 0.000000 0.227668 0.1255 0.1255 0.1804
v 0.979275 1.148915 0.522477 0.2157 0.2118 0.3059
v 0.398576 1.148915 0.522477 0.2157 0.2118 0.3059
v 0.979275 1.148915 -0.522477 0.2157 0.2118 0.3059
v 0.398576 1.148915 -0.522477 0.2157 0.2118 0.3059
vn -0.0000 -1.0000 -0.0000
vn -0.0000 -0.2485 0.9686
vn 0.9959 -0.0904 -0.0000
vn -0.9959 -0.0904 -0.0000
vn -0.0000 -0.2485 -0.9686
vn -0.0000 -0.0354 -0.9994
vn -0.9999 -0.0125 -0.0000
vn 0.9999 -0.0125 -0.0000
vn -0.0000 -0.0354 0.9994
vt 0.125000 0.500000
vt 0.125000 0.750000
vt 0.375000 0.750000
vt 0.375000 0.500000
vt 0.125000 0.750000
s 0
usemtl vertex_colors
f 234/143/191 235/144/191 237/145/191 236/146/191
f 239/145/192 237/145/192 235/144/192 238/147/192
f 238/147/193 235/144/193 234/143/193 240/143/193
f 241/146/194 236/146/194 237/145/194 239/145/194
f 240/143/195 234/143/195 236/146/195 241/146/195
f 232/143/196 240/143/196 241/146/196 230/146/196
f 230/146/197 241/146/197 239/145/197 231/145/197
f 233/144/198 238/147/198 240/143/198 232/143/198
f 231/145/199 239/145/199 238/147/199 233/144/199
