# Blender 4.4.3
# www.blender.org
mtllib mask.mtl
o mask.001
v -0.832991 -0.529698 0.231671 0.1255 0.5255 0.7921
v -0.325484 1.224374 0.231671 0.1255 0.5255 0.7921
v -0.832991 -0.529698 -0.124727 0.1412 0.1412 0.6863
v -0.325484 1.224374 -0.124727 0.1686 0.1490 0.6824
v 0.832991 -0.589616 0.231671 0.1255 0.5255 0.7921
v 0.325484 1.224374 0.231671 0.1255 0.5255 0.7921
v 0.832991 -0.589616 -0.124727 0.1412 0.1412 0.6863
v 0.325484 1.224374 -0.124727 0.1412 0.1412 0.6863
v 0.000000 1.224374 -0.124727 0.1412 0.1412 0.6863
v 0.000000 1.224374 0.231671 0.1255 0.5255 0.7921
v 0.416496 0.046941 0.231671 0.1255 0.5255 0.7921
v -0.832991 -0.044014 -0.124727 0.1412 0.1412 0.6863
v 0.832991 -0.044014 -0.124727 0.1412 0.1412 0.6863
v 0.205724 0.098345 0.231671 0.1255 0.5255 0.7921
v 0.205724 0.389480 0.231671 0.1255 0.5255 0.7921
v 0.000000 0.297004 -0.124727 0.0667 0.0275 0.2275
v 0.416496 0.429119 0.231671 0.1255 0.5255 0.7921
v -0.832991 0.485522 -0.124727 0.1412 0.1412 0.6863
v 0.832991 0.485522 -0.124727 0.1412 0.1412 0.6863
v 0.627267 0.098158 0.231671 0.1255 0.5255 0.7921
v 0.627267 0.366136 0.231671 0.1255 0.5255 0.7921
v 0.000000 0.584176 -0.124727 0.0667 0.0275 0.2275
v 0.832991 0.485522 0.231671 0.4157 0.7921 0.9568
v 0.832991 -0.044014 0.231671 0.1255 0.5255 0.7921
v 0.429278 0.320986 0.366292 0.0000 0.0000 0.0000
v 0.435023 0.242830 0.366295 0.0000 0.0000 0.0000
v 0.670381 0.716527 0.068635 0.2941 0.4863 0.8588
v 0.779541 0.299019 0.068635 0.1412 0.1412 0.6863
v 1.830082 0.029095 0.068634 1.0000 0.9686 0.9137
v 1.716509 -0.135138 0.068634 1.0000 0.9686 0.9137
v 0.000000 0.531653 0.231671 0.4157 0.7921 0.9568
v 0.000000 -0.043645 0.231671 0.1255 0.5255 0.7921
v -0.832991 -0.044014 0.231671 0.1255 0.5255 0.7921
v -0.832991 0.485522 0.231671 0.4157 0.7921 0.9568
v 0.388787 0.262759 0.366319 1.0000 0.9686 0.9137
v 0.480736 0.263701 0.366269 1.0000 0.9686 0.9137
v 0.388348 0.302984 0.366316 1.0000 0.9686 0.9137
v 0.480381 0.296204 0.366267 1.0000 0.9686 0.9137
v 0.127125 -0.633397 -0.124727 0.1412 0.1412 0.6863
v -0.127125 -0.633397 -0.124727 0.1412 0.1412 0.6863
v 0.000000 -0.597679 -0.124727 0.1412 0.1412 0.6863
v -0.127125 -0.633397 0.231671 0.1255 0.5255 0.7921
v 0.127125 -0.633397 0.231671 0.1255 0.5255 0.7921
v -0.000363 -0.469115 0.231671 1.0000 0.9686 0.9137
v 0.670381 0.716527 -0.129264 0.2941 0.4863 0.8588
v 0.779541 0.299019 -0.129264 0.1412 0.1412 0.6863
v 1.830082 0.029095 -0.129264 0.2941 0.4863 0.8588
v 1.716509 -0.135138 -0.129264 0.1412 0.1412 0.6863
v 0.534555 0.312332 0.365567 0.0000 0.0000 0.0000
v 0.534555 0.162230 0.365567 0.0000 0.0000 0.0000
v 0.298436 0.325408 0.365567 0.0000 0.0000 0.0000
v 0.298436 0.162335 0.365567 0.0000 0.0000 0.0000
v 0.416496 0.134477 0.365567 0.0000 0.0000 0.0000
v 0.416496 0.348546 0.365567 0.0000 0.0000 0.0000
v 0.237115 0.367786 0.277007 0.0235 0.0196 0.1059
v 0.237115 0.120011 0.277007 0.0000 0.0000 0.0000
v 0.595876 0.119852 0.277007 0.0000 0.0000 0.0000
v 0.595876 0.347918 0.277007 0.0000 0.0000 0.0000
v 0.416496 0.401838 0.277007 0.0000 0.0000 0.0000
v 0.416496 0.076580 0.277007 0.0000 0.0000 0.0000
v 0.489623 0.303194 0.366262 0.0000 0.0000 0.0000
v 0.490134 0.256422 0.366265 0.0000 0.0000 0.0000
v 0.378947 0.310551 0.366320 0.0000 0.0000 0.0000
v 0.379550 0.255283 0.366324 0.0000 0.0000 0.0000
v 0.434923 0.252403 0.366295 0.9647 0.9333 0.8823
v 0.428883 0.311388 0.366293 1.0000 0.9686 0.9137
v 0.175968 -0.322032 0.231671 1.0000 0.9686 0.9137
v 0.000000 -0.278305 0.231671 0.1255 0.5255 0.7921
v -0.211692 -0.313264 0.231671 1.0000 0.9686 0.9137
v 0.210060 -0.304103 0.231671 0.1255 0.5255 0.7921
v 0.000000 -0.484991 0.231671 0.1255 0.5255 0.7921
v -0.000595 -0.310305 0.231671 1.0000 0.9686 0.9137
v -0.251550 -0.303297 0.231671 0.1255 0.5255 0.7921
v -0.416496 0.046941 0.231671 0.1255 0.5255 0.7921
v -0.205724 0.098345 0.231671 0.1255 0.5255 0.7921
v -0.205724 0.389480 0.231671 0.1255 0.5255 0.7921
v -0.416496 0.429119 0.231671 0.1255 0.5255 0.7921
v -0.627267 0.098158 0.231671 0.1255 0.5255 0.7921
v -0.627267 0.366136 0.231671 0.1255 0.5255 0.7921
v -0.832991 0.485522 0.231671 0.4157 0.7921 0.9568
v -0.832991 -0.044014 0.231671 0.1255 0.5255 0.7921
v -0.429278 0.320986 0.366292 0.0000 0.0000 0.0000
v -0.435023 0.242830 0.366295 0.0000 0.0000 0.0000
v 0.000000 0.531653 0.231671 0.4157 0.7921 0.9568
v 0.000000 -0.043645 0.231671 0.1255 0.5255 0.7921
v -0.388787 0.262759 0.366319 1.0000 0.9686 0.9137
v -0.480736 0.263701 0.366269 1.0000 0.9686 0.9137
v -0.388348 0.302984 0.366316 1.0000 0.9686 0.9137
v -0.480381 0.296204 0.366267 1.0000 0.9686 0.9137
v -0.534555 0.312332 0.365567 0.0000 0.0000 0.0000
v -0.534555 0.162230 0.365567 0.0000 0.0000 0.0000
v -0.298436 0.325408 0.365567 0.0000 0.0000 0.0000
v -0.298436 0.162335 0.365567 0.0000 0.0000 0.0000
v -0.416496 0.134477 0.365567 0.0000 0.0000 0.0000
v -0.416496 0.348546 0.365567 0.0000 0.0000 0.0000
v -0.237115 0.367786 0.277007 0.0235 0.0196 0.1059
v -0.237115 0.120011 0.277007 0.0000 0.0000 0.0000
v -0.595876 0.119852 0.277007 0.0000 0.0000 0.0000
v -0.595876 0.347918 0.277007 0.0000 0.0000 0.0000
v -0.416496 0.401838 0.277007 0.0000 0.0000 0.0000
v -0.416496 0.076580 0.277007 0.0000 0.0000 0.0000
v -0.489623 0.303194 0.366262 0.0000 0.0000 0.0000
v -0.490134 0.256422 0.366265 0.0000 0.0000 0.0000
v -0.378947 0.310551 0.366320 0.0000 0.0000 0.0000
v -0.379550 0.255283 0.366324 0.0000 0.0000 0.0000
v -0.434923 0.252403 0.366295 0.9647 0.9333 0.8823
v -0.428883 0.311388 0.366293 1.0000 0.9686 0.9137
v -0.670381 0.716527 0.068635 0.2941 0.4863 0.8588
v -0.779541 0.299019 0.068635 0.1412 0.1412 0.6863
v -1.830082 0.029095 0.068634 1.0000 0.9686 0.9137
v -1.716509 -0.135138 0.068634 1.0000 0.9686 0.9137
v -0.670381 0.716527 -0.129264 0.2941 0.4863 0.8588
v -0.779541 0.299019 -0.129264 0.1412 0.1412 0.6863
v -1.830082 0.029095 -0.129264 0.2941 0.4863 0.8588
v -1.716509 -0.135138 -0.129264 0.1412 0.1412 0.6863
v 0.724587 -0.561600 0.125473 0.1255 0.5255 0.7921
v 0.724587 -0.561600 0.052326 0.1412 0.1412 0.6863
v 0.640403 -0.580311 0.052326 0.1412 0.1412 0.6863
v 0.640403 -0.580311 0.125473 0.1255 0.5255 0.7921
v 0.740628 -1.488404 0.125473 0.1255 0.5255 0.7921
v 0.740628 -1.488404 0.052326 0.1412 0.1412 0.6863
v 0.656445 -1.507115 0.052326 0.1412 0.1412 0.6863
v 0.656445 -1.507115 0.125473 0.1255 0.5255 0.7921
v 0.500212 -1.474174 0.172745 0.8313 0.8392 0.8941
v 0.443534 -1.774086 0.172745 0.9215 0.8902 0.8823
v 0.833884 -1.484191 0.172745 1.0000 0.9686 0.9137
v 0.925877 -1.777454 0.172745 1.0000 0.9686 0.9137
v 0.500212 -1.474174 -0.097701 0.2941 0.4863 0.8588
v 0.443534 -1.774086 -0.097701 0.1412 0.1412 0.6863
v 0.833884 -1.484191 -0.097701 0.2941 0.4863 0.8588
v 0.925877 -1.777454 -0.097701 0.1412 0.1412 0.6863
v 0.667048 -1.479182 0.172745 0.9176 0.9058 0.9058
v 0.686680 -1.937674 0.172745 0.9607 0.9294 0.8980
v 0.667048 -1.479182 -0.097701 0.2941 0.4863 0.8588
v 0.686680 -1.937674 -0.097701 0.1412 0.1412 0.6863
v -0.530604 -0.391372 0.125473 0.1255 0.5255 0.7921
v -0.530604 -0.391372 0.052326 0.1412 0.1412 0.6863
v -0.616409 -0.400008 0.052326 0.1412 0.1412 0.6863
v -0.616409 -0.400008 0.125473 0.1255 0.5255 0.7921
v -0.624143 -1.313583 0.125473 0.1255 0.5255 0.7921
v -0.624143 -1.313583 0.052326 0.1412 0.1412 0.6863
v -0.709948 -1.322220 0.052326 0.1412 0.1412 0.6863
v -0.709948 -1.322220 0.125473 0.1255 0.5255 0.7921
v -0.861197 -1.271055 0.172745 0.8313 0.8392 0.8941
v -0.952901 -1.562174 0.172745 0.9215 0.8902 0.8823
v -0.531043 -1.320414 0.172745 1.0000 0.9686 0.9137
v -0.474332 -1.622490 0.172745 1.0000 0.9686 0.9137
v -0.861197 -1.271055 -0.097701 0.2941 0.4863 0.8588
v -0.952901 -1.562174 -0.097701 0.1412 0.1412 0.6863
v -0.531043 -1.320414 -0.097701 0.2941 0.4863 0.8588
v -0.474332 -1.622490 -0.097701 0.1412 0.1412 0.6863
v -0.696120 -1.295735 0.172745 0.9176 0.9058 0.9058
v -0.730779 -1.753336 0.172745 0.9607 0.9294 0.8980
v -0.696120 -1.295735 -0.097701 0.2941 0.4863 0.8588
v -0.730779 -1.753336 -0.097701 0.1412 0.1412 0.6863
vn -0.8243 0.5662 -0.0000
vn -0.0000 -0.0000 -1.0000
vn 0.8243 0.5662 -0.0000
vn -0.0000 -0.0000 1.0000
vn -0.1454 -0.9894 -0.0000
vn -0.0000 1.0000 -0.0000
vn 0.0619 -0.9981 -0.0000
vn 1.0000 -0.0000 -0.0000
vn -1.0000 -0.0000 -0.0000
vn -0.1622 0.8436 0.5118
vn -0.8221 -0.0000 0.5693
vn 0.1964 -0.8226 0.5337
vn 0.8221 -0.0000 0.5693
vn 0.0005 0.0001 1.0000
vn 0.2508 0.8276 0.5021
vn -0.1971 -0.8224 0.5336
vn -0.0000 -1.0000 -0.0000
vn 0.8225 -0.5688 -0.0000
vn -0.4204 -0.9073 -0.0000
vn 0.5099 0.8602 -0.0000
vn 0.0156 0.0001 0.9999
vn -0.0093 -0.0000 1.0000
vn -0.0014 -0.0067 1.0000
vn -0.0047 0.0245 0.9997
vn 0.0094 0.0305 0.9995
vn 0.0018 -0.0068 1.0000
vn -0.1997 -0.8216 0.5340
vn 0.2483 0.8286 0.5018
vn 0.1990 -0.8217 0.5341
vn -0.1595 0.8444 0.5113
vn 0.1622 0.8436 0.5118
vn -0.1964 -0.8226 0.5337
vn -0.0005 0.0001 1.0000
vn -0.2508 0.8276 0.5021
vn 0.1971 -0.8224 0.5336
vn -0.0156 0.0001 0.9999
vn 0.0093 -0.0000 1.0000
vn 0.0014 -0.0067 1.0000
vn 0.0047 0.0245 0.9997
vn -0.0094 0.0305 0.9995
vn -0.0018 -0.0068 1.0000
vn 0.1997 -0.8216 0.5340
vn -0.2483 0.8286 0.5018
vn -0.1990 -0.8217 0.5341
vn 0.1595 0.8444 0.5113
vn -0.8225 -0.5688 -0.0000
vn 0.4204 -0.9073 -0.0000
vn -0.5099 0.8602 -0.0000
vn -0.2170 0.9762 -0.0000
vn 0.2170 -0.9762 -0.0000
vn 0.9999 0.0173 -0.0000
vn -0.9999 -0.0173 -0.0000
vn 0.9542 0.2993 -0.0000
vn -0.5582 -0.8297 -0.0000
vn 0.0300 0.9995 -0.0000
vn -0.9826 0.1857 -0.0000
vn 0.5565 -0.8308 -0.0000
vn -0.1001 0.9950 -0.0000
vn 0.1001 -0.9950 -0.0000
vn 0.9949 -0.1009 -0.0000
vn -0.9949 0.1009 -0.0000
vn 0.9828 0.1845 -0.0000
vn -0.6523 -0.7580 -0.0000
vn 0.1479 0.9890 -0.0000
vn -0.9538 0.3005 -0.0000
vn 0.4545 -0.8908 -0.0000
vt 0.590829 0.000000
vt 0.625000 0.000000
vt 0.625000 0.250000
vt 0.590829 0.250000
vt 0.590829 0.375000
vt 0.625000 0.375000
vt 0.625000 0.500000
vt 0.590829 0.500000
vt 0.625000 0.750000
vt 0.590829 0.750000
vt 0.590829 0.875000
vt 0.625000 0.875000
vt 0.625000 1.000000
vt 0.590829 1.000000
vt 0.125000 0.500000
vt 0.230923 0.500000
vt 0.230923 0.750000
vt 0.125000 0.750000
vt 0.750000 0.500000
vt 0.875000 0.500000
vt 0.875000 0.750000
vt 0.750000 0.750000
vt 0.375000 0.394077
vt 0.397376 0.375000
vt 0.564503 0.375000
vt 0.564503 0.500000
vt 0.375000 0.500000
vt 0.269077 0.500000
vt 0.375000 0.750000
vt 0.269077 0.750000
vt 0.410384 0.875054
vt 0.517004 0.875089
vt 0.483357 0.906767
vt 0.564503 0.750000
vt 0.490358 0.843478
vt 0.399727 0.875000
vt 0.375000 0.855923
vt 0.375000 0.000000
vt 0.564503 0.000000
vt 0.564503 0.250000
vt 0.375000 0.250000
vt 0.590829 0.812500
vt 0.590829 0.875000
vt 0.590829 0.812500
vt 0.564503 0.875000
vt 0.564503 0.812500
vt 0.564503 0.750000
vt 0.574710 0.812482
vt 0.580546 0.814795
vt 0.579864 0.832212
vt 0.575524 0.832212
vt 0.575794 0.792788
vt 0.579388 0.792788
vt 0.394101 0.375000
vt 0.375000 0.355923
vt 0.375000 0.894077
vt 0.396109 0.875000
vt 0.399727 0.875000
vt 0.580245 0.788793
vt 0.574962 0.788793
vt 0.574661 0.836207
vt 0.580726 0.836207
vt 0.573761 0.812483
vt 0.581502 0.814581
vt 0.486450 0.848594
vt 0.486588 0.912748
vt 0.375000 1.000000
vt 0.526684 0.875000
vt 0.564503 1.000000
vt 0.607914 0.750000
vt 0.607914 0.875000
s 0
f 34/1/1 2/2/1 4/3/1 18/4/1
f 22/5/2 9/6/2 8/7/2 19/8/2
f 19/8/3 8/7/3 6/9/3 23/10/3
f 31/11/4 10/12/4 2/13/4 34/14/4
f 3/15/5 40/16/5 42/17/5 1/18/5
f 9/19/6 4/20/6 2/21/6 10/22/6
f 8/7/6 9/19/6 10/22/6 6/9/6
f 39/23/2 41/24/2 16/25/2 13/26/2 7/27/2
f 23/10/4 6/9/4 10/12/4 31/11/4
f 18/4/2 4/3/2 9/6/2 22/5/2
f 39/28/7 7/27/7 5/29/7 43/30/7
f 44/31/4 72/32/4 69/33/4
f 7/27/8 13/26/8 24/34/8 5/29/8
f 5/29/4 70/35/4 71/36/4 43/37/4
f 1/38/9 33/39/9 12/40/9 3/41/9
f 12/40/2 18/4/2 22/5/2 16/25/2
f 13/26/8 19/8/8 23/10/8 24/34/8
f 16/25/2 22/5/2 19/8/2 13/26/2
f 33/39/9 34/1/9 18/4/9 12/40/9
f 59/42/10 55/43/10 51/11/10 54/44/10
f 55/43/11 56/45/11 52/45/11 51/11/11
f 60/46/12 57/47/12 50/34/12 53/46/12
f 57/47/13 58/10/13 49/10/13 50/34/13
f 65/48/14 66/49/14 37/50/14 35/51/14
f 28/10/4 30/9/4 29/12/4 27/11/4
f 32/45/4 14/45/4 15/11/4 31/11/4
f 58/10/15 59/42/15 54/44/15 49/10/15
f 56/45/16 60/46/16 53/46/16 52/45/16
f 36/52/14 38/53/14 66/49/14 65/48/14
f 39/54/2 40/55/2 41/24/2
f 42/56/4 43/57/4 71/58/4
f 39/28/17 43/30/17 42/17/17 40/16/17
f 3/41/2 12/40/2 16/25/2 41/24/2 40/55/2
f 24/34/4 23/10/4 21/10/4 20/34/4
f 17/44/4 21/10/4 23/10/4
f 17/44/4 31/11/4 15/11/4
f 31/11/4 17/44/4 23/10/4
f 24/34/4 20/34/4 11/46/4
f 11/46/4 14/45/4 32/45/4
f 32/45/4 24/34/4 11/46/4
f 29/12/18 30/9/18 48/9/18 47/12/18
f 30/9/19 28/10/19 46/10/19 48/9/19
f 27/11/20 29/12/20 47/12/20 45/11/20
f 45/11/2 47/12/2 48/9/2 46/10/2
f 61/59/21 62/60/21 50/34/21 49/10/21
f 64/61/22 63/62/22 51/11/22 52/45/22
f 26/63/23 64/61/23 52/45/23 53/46/23
f 63/62/24 25/64/24 54/44/24 51/11/24
f 25/64/25 61/59/25 49/10/25 54/44/25
f 62/60/26 26/63/26 53/46/26 50/34/26
f 14/45/27 11/46/27 60/46/27 56/45/27
f 21/10/28 17/44/28 59/42/28 58/10/28
f 20/34/13 21/10/13 58/10/13 57/47/13
f 11/46/29 20/34/29 57/47/29 60/46/29
f 15/11/11 14/45/11 56/45/11 55/43/11
f 17/44/30 15/11/30 55/43/30 59/42/30
f 38/53/14 36/52/14 62/60/14 61/59/14
f 35/51/14 37/50/14 63/62/14 64/61/14
f 65/48/14 35/51/14 64/61/14 26/63/14
f 37/50/14 66/49/14 25/64/14 63/62/14
f 66/49/14 38/53/14 61/59/14 25/64/14
f 36/52/14 65/48/14 26/63/14 62/60/14
f 44/31/4 67/65/4 72/32/4
f 42/56/4 71/58/4 73/66/4 1/67/4
f 70/35/4 5/29/4 24/34/4
f 73/66/4 68/68/4 32/45/4 33/69/4
f 67/65/4 44/31/4 71/36/4 70/35/4
f 72/32/4 67/65/4 70/35/4 68/68/4
f 69/33/4 72/32/4 68/68/4 73/66/4
f 44/31/4 69/33/4 73/66/4 71/58/4
f 68/68/4 70/35/4 24/34/4 32/45/4
f 1/67/4 73/66/4 33/69/4
f 100/42/31 95/44/31 92/11/31 96/43/31
f 96/43/13 92/11/13 93/45/13 97/45/13
f 101/46/32 94/46/32 91/34/32 98/47/32
f 98/47/11 91/34/11 90/10/11 99/10/11
f 106/48/33 86/51/33 88/50/33 107/49/33
f 85/45/4 84/11/4 76/11/4 75/45/4
f 99/10/34 90/10/34 95/44/34 100/42/34
f 97/45/35 93/45/35 94/46/35 101/46/35
f 87/52/33 106/48/33 107/49/33 89/53/33
f 81/34/4 78/34/4 79/10/4 80/10/4
f 77/44/4 80/10/4 79/10/4
f 77/44/4 76/11/4 84/11/4
f 84/11/4 80/10/4 77/44/4
f 81/34/4 74/46/4 78/34/4
f 74/46/4 85/45/4 75/45/4
f 85/45/4 74/46/4 81/34/4
f 102/59/36 90/10/36 91/34/36 103/60/36
f 105/61/37 93/45/37 92/11/37 104/62/37
f 83/63/38 94/46/38 93/45/38 105/61/38
f 104/62/39 92/11/39 95/44/39 82/64/39
f 82/64/40 95/44/40 90/10/40 102/59/40
f 103/60/41 91/34/41 94/46/41 83/63/41
f 75/45/42 97/45/42 101/46/42 74/46/42
f 79/10/43 99/10/43 100/42/43 77/44/43
f 78/34/11 98/47/11 99/10/11 79/10/11
f 74/46/44 101/46/44 98/47/44 78/34/44
f 76/11/13 96/43/13 97/45/13 75/45/13
f 77/44/45 100/42/45 96/43/45 76/11/45
f 89/53/33 102/59/33 103/60/33 87/52/33
f 86/51/33 105/61/33 104/62/33 88/50/33
f 106/48/33 83/63/33 105/61/33 86/51/33
f 88/50/33 104/62/33 82/64/33 107/49/33
f 107/49/33 82/64/33 102/59/33 89/53/33
f 87/52/33 103/60/33 83/63/33 106/48/33
f 109/10/4 108/11/4 110/12/4 111/9/4
f 110/12/46 114/12/46 115/9/46 111/9/46
f 111/9/47 115/9/47 113/10/47 109/10/47
f 108/11/48 112/11/48 114/12/48 110/12/48
f 112/11/2 113/10/2 115/9/2 114/12/2
f 118/28/49 119/30/49 116/29/49 117/27/49
f 122/28/50 121/27/50 120/29/50 123/30/50
f 118/28/2 117/27/2 121/27/2 122/28/2
f 117/27/51 116/29/51 120/29/51 121/27/51
f 116/29/4 119/30/4 123/30/4 120/29/4
f 119/30/52 118/28/52 122/28/52 123/30/52
f 133/70/4 127/9/4 126/12/4 132/71/4
f 126/12/53 127/9/53 131/9/53 130/12/53
f 133/70/54 125/10/54 129/10/54 135/70/54
f 132/71/55 126/12/55 130/12/55 134/71/55
f 134/71/2 130/12/2 131/9/2 135/70/2
f 125/10/56 124/11/56 128/11/56 129/10/56
f 128/11/2 134/71/2 135/70/2 129/10/2
f 124/11/55 132/71/55 134/71/55 128/11/55
f 127/9/57 133/70/57 135/70/57 131/9/57
f 125/10/4 133/70/4 132/71/4 124/11/4
f 138/28/58 139/30/58 136/29/58 137/27/58
f 142/28/59 141/27/59 140/29/59 143/30/59
f 138/28/2 137/27/2 141/27/2 142/28/2
f 137/27/60 136/29/60 140/29/60 141/27/60
f 136/29/4 139/30/4 143/30/4 140/29/4
f 139/30/61 138/28/61 142/28/61 143/30/61
f 153/70/4 147/9/4 146/12/4 152/71/4
f 146/12/62 147/9/62 151/9/62 150/12/62
f 153/70/63 145/10/63 149/10/63 155/70/63
f 152/71/64 146/12/64 150/12/64 154/71/64
f 154/71/2 150/12/2 151/9/2 155/70/2
f 145/10/65 144/11/65 148/11/65 149/10/65
f 148/11/2 154/71/2 155/70/2 149/10/2
f 144/11/64 152/71/64 154/71/64 148/11/64
f 147/9/66 153/70/66 155/70/66 151/9/66
f 145/10/4 153/70/4 152/71/4 144/11/4
