# Blender 4.4.3
# www.blender.org
mtllib Mercona_hut_2_interior.mtl
o Mercona_hut_2_interior
v -2.838639 3.714158 2.085939 0.0902 0.0353 0.0510
v -0.997347 3.714158 3.927231 0.0902 0.0353 0.0510
v 5.015821 3.714158 2.085939 0.1333 0.1255 0.2039
v 3.174530 3.714158 3.927231 0.0902 0.0353 0.0510
v 2.886652 0.000000 3.810410 0.0902 0.0353 0.0510
v 4.678539 0.000000 1.966118 0.0902 0.0392 0.0627
v 4.888351 4.762012 2.018233 0.2000 0.0863 0.1137
v 3.106825 4.762012 3.799761 0.2000 0.0863 0.1137
v -2.719396 0.000000 1.798060 0.0902 0.0353 0.0510
v -0.709469 0.000000 3.807987 0.0902 0.0353 0.0510
v -0.929642 4.762012 3.799761 0.2000 0.0863 0.1137
v -2.711169 4.762012 2.018233 0.2000 0.0863 0.1137
v -6.408365 0.000000 2.085939 0.0431 0.1412 0.3451
v -6.408365 3.016430 1.028081 0.1333 0.1255 0.2039
v 2.886652 0.000000 6.712122 0.0902 0.0353 0.0510
v 3.174530 3.714158 7.000000 0.0902 0.0353 0.0510
v -0.997347 3.714158 7.000000 0.1216 0.0588 0.0902
v -0.709469 0.000000 6.712122 0.0902 0.0353 0.0510
v 2.982645 5.955590 3.565965 0.2000 0.0863 0.1137
v 4.654556 5.955590 1.894054 0.2000 0.0863 0.1137
v -2.477374 5.955590 1.894054 0.2000 0.0863 0.1137
v -0.805462 5.955590 3.565965 0.2000 0.0863 0.1137
v 1.730252 8.020208 1.208065 0.1333 0.1255 0.2039
v 2.296656 8.020208 0.641661 0.1333 0.1255 0.2039
v -0.119473 8.020208 0.641661 0.1333 0.1255 0.2039
v 0.446931 8.020208 1.208065 0.1333 0.1255 0.2039
v -6.408365 3.714158 2.085939 0.0902 0.0353 0.0510
v -6.408365 0.000000 1.028081 0.0431 0.1412 0.3451
v 2.131561 0.928540 6.800000 0.1333 0.1255 0.2039
v 2.131561 2.785619 6.800000 0.1333 0.1255 0.2039
v 0.045622 2.785619 6.800000 0.1333 0.1255 0.2039
v 0.045622 0.928540 6.800000 0.1333 0.1255 0.2039
v -2.571509 5.641436 1.944053 0.5451 0.2980 0.0824
v -2.617035 5.076165 1.968234 0.5451 0.2980 0.0824
v -0.879643 5.076165 3.705626 0.5451 0.3019 0.0941
v -0.855461 5.641436 3.660100 0.5373 0.2941 0.0980
v 4.748691 5.641436 1.944053 0.5569 0.3176 0.1176
v 4.794217 5.076165 1.968234 0.5451 0.2980 0.0824
v 3.032644 5.641436 3.660100 0.5451 0.2980 0.0824
v 3.056825 5.076165 3.705626 0.3451 0.1843 0.1059
v -0.963301 5.095917 3.906433 0.5451 0.3019 0.0941
v -0.938271 5.661180 3.861259 0.2000 0.0863 0.1137
v 3.115454 5.661180 3.861259 0.2000 0.0863 0.1137
v 3.140483 5.095917 3.906433 0.5451 0.2980 0.0824
v 4.949850 5.661180 2.026862 0.2000 0.0863 0.1137
v 4.995024 5.095917 2.051892 0.5451 0.2980 0.0824
v -2.772667 5.661180 2.026862 0.2000 0.0863 0.1137
v -2.817842 5.095917 2.051892 0.5451 0.2980 0.0824
v 1.088591 4.762012 3.799761 0.2000 0.0863 0.1137
v 1.088591 0.000000 6.712121 0.0902 0.0353 0.0510
v 1.088591 3.714158 7.000000 0.0902 0.0353 0.0510
v 1.088591 5.955590 3.565965 0.2000 0.0863 0.1137
v 1.088591 8.020208 1.208065 0.1333 0.1255 0.2039
v 1.088591 0.928540 6.800000 0.1333 0.1255 0.2039
v 1.088591 2.785619 6.800000 0.1333 0.1255 0.2039
v 1.088591 5.641436 3.660100 0.5176 0.2863 0.1333
v 1.088591 5.076165 3.705626 0.5294 0.2902 0.0902
v 1.088591 5.661180 3.861259 0.2000 0.0863 0.1137
v 1.088591 5.095917 3.906433 0.4667 0.2549 0.0980
v 3.174530 1.857079 3.927231 0.0471 0.3608 0.4039
v -2.838639 1.857079 2.085939 0.0471 0.3608 0.4039
v 5.015821 1.857079 2.085939 0.0471 0.3608 0.4039
v -0.997347 1.857079 3.927231 0.0471 0.3608 0.4039
v -6.408365 1.857079 2.085939 0.0471 0.3608 0.4039
v 3.174530 1.857079 7.000000 0.0471 0.3608 0.4039
v -0.997347 1.857079 7.000000 0.0471 0.3608 0.4039
v -6.408365 1.508215 1.028081 0.0824 0.3568 0.4000
v 2.131561 1.857079 6.800000 0.1333 0.1255 0.2039
v 0.045622 1.857079 6.800000 0.1333 0.1255 0.2039
v -0.103528 0.795754 7.000000 0.1333 0.1255 0.2039
v 2.280710 0.795754 7.000000 0.1333 0.1255 0.2039
v 2.280710 2.918404 7.000000 0.1333 0.1255 0.2039
v -0.103528 2.918404 7.000000 0.1333 0.1255 0.2039
v 1.088591 2.918404 7.000000 0.1333 0.1255 0.2039
v 1.088591 0.795754 7.000000 0.1333 0.1255 0.2039
v -0.103528 1.857079 7.000000 0.1333 0.1255 0.2039
v 2.280710 1.857079 7.000000 0.1333 0.1255 0.2039
v 2.131561 1.857079 7.094082 0.4000 0.1922 0.2392
v 2.131561 2.785619 7.094082 0.4000 0.1922 0.2392
v 0.045622 1.857079 7.094082 0.4000 0.1922 0.2392
v 0.045622 0.928540 7.094082 0.4000 0.1922 0.2392
v 1.088591 0.928540 7.094082 0.4000 0.1922 0.2392
v 2.131561 0.928540 7.094082 0.4432 0.2196 0.2392
v 1.088591 2.785619 7.094082 0.4000 0.1922 0.2392
v -0.103528 0.795754 7.094082 0.1333 0.1255 0.2039
v 0.045622 2.785619 7.094082 0.4000 0.1922 0.2392
v 1.088591 2.918404 7.094082 0.1333 0.1255 0.2039
v 1.088591 0.795754 7.094082 0.1333 0.1255 0.2039
v -0.103528 1.857079 7.094082 0.1333 0.1255 0.2039
v 2.280710 1.857079 7.094082 0.1333 0.1255 0.2039
v 2.280710 0.795754 7.094082 0.1333 0.1255 0.2039
v 2.280710 2.918404 7.094082 0.1333 0.1255 0.2039
v -0.103528 2.918404 7.094082 0.2000 0.0863 0.1137
v -2.711169 4.762012 0.000000 0.2000 0.0863 0.1137
v -6.408365 3.714158 0.000000 0.0902 0.0353 0.0510
v -2.477374 5.955590 0.000000 0.2000 0.0863 0.1216
v -0.119473 8.020208 0.000000 0.1333 0.1255 0.2039
v -6.408365 3.016430 0.000000 0.1333 0.1255 0.2039
v -2.571509 5.641436 0.000000 0.5451 0.2980 0.0824
v -2.617035 5.076165 0.000000 0.5451 0.2980 0.0824
v -2.772667 5.661180 0.000000 0.2000 0.0863 0.1137
v -2.817842 5.095917 0.000000 0.5451 0.2980 0.0824
v 5.015821 0.000000 0.000000 0.0431 0.1412 0.3451
v 4.888351 4.762012 0.000000 0.2000 0.0863 0.1137
v 5.015821 3.714158 0.000000 0.1333 0.1255 0.2039
v 4.654556 5.955590 0.000000 0.2000 0.0863 0.1137
v 2.296656 8.020208 0.000000 0.1333 0.1255 0.2039
v 4.748691 5.641436 0.000000 0.5569 0.3176 0.1176
v 4.794217 5.076165 0.000000 0.5451 0.2980 0.0824
v 4.949850 5.661180 0.000000 0.2000 0.0863 0.1137
v 4.995024 5.095917 0.000000 0.5451 0.2980 0.0824
v 5.015821 1.857079 0.000000 0.0471 0.3608 0.4039
v -2.661172 0.000000 0.000000 0.0431 0.1412 0.3451
v -6.408365 0.000000 0.000000 0.0431 0.1412 0.3451
v 4.963503 0.000000 2.085938 0.0431 0.1412 0.3451
v 3.174530 0.000000 3.927231 0.0431 0.1412 0.3451
v -0.997347 0.000000 3.927231 0.0431 0.1412 0.3451
v -2.838639 0.000000 2.085939 0.0431 0.1412 0.3451
v 1.088591 0.000000 7.000000 0.0431 0.1412 0.3451
v -6.120486 0.000000 1.798060 0.0863 0.0471 0.1020
v 3.174530 0.000000 7.000000 0.0431 0.1412 0.3451
v -0.997347 0.000000 7.000000 0.0431 0.1412 0.3451
v -6.120486 0.000000 0.287878 0.2000 0.0863 0.1137
v 4.720632 0.000000 0.287878 0.2000 0.0863 0.1137
v -2.661172 0.000000 0.287878 0.2000 0.0863 0.1137
vn 0.7011 -0.1306 -0.7011
vn -0.7011 -0.1306 -0.7011
vn 0.7071 -0.0000 -0.7071
vn -0.7071 -0.0000 -0.7071
vn -0.0000 -0.0000 -1.0000
vn 1.0000 -0.0000 -0.0000
vn -1.0000 -0.0000 -0.0000
vn -0.0000 -0.9504 -0.3112
vn 0.9979 -0.0645 -0.0000
vn -0.0000 -0.0645 -0.9979
vn -0.6588 -0.7523 -0.0000
vn 0.6726 -0.3086 -0.6726
vn -0.6726 -0.3086 -0.6726
vn -0.9579 -0.2870 -0.0000
vn -0.0000 -1.0000 -0.0000
vn -0.4447 -0.7775 -0.4447
vn -0.0000 -0.7523 -0.6588
vn 0.4447 -0.7775 -0.4447
vn -0.0000 1.0000 -0.0000
vn -0.9979 -0.0645 -0.0000
vn -0.0000 -0.2870 -0.9579
vn -0.0977 -0.9952 -0.0000
vn -0.0000 0.9952 -0.0979
vn -0.0691 0.9952 -0.0691
vn -0.0000 -0.0797 -0.9968
vn -0.7044 -0.0875 -0.7044
vn 0.9968 -0.0797 -0.0000
vn 0.7044 -0.0875 -0.7044
vn -0.0692 -0.9952 0.0692
vn -0.0979 0.9952 -0.0000
vn 0.0692 -0.9952 0.0692
vn 0.0691 0.9952 -0.0691
vn -0.0000 -0.9952 0.0977
vn -0.7121 0.0100 -0.7020
vn 0.9579 -0.2870 -0.0000
vn 0.0979 0.9952 -0.0000
vn 0.6588 -0.7523 -0.0000
vn 0.2727 -0.9621 -0.0000
vn -0.9998 0.0141 -0.0125
vn 0.0977 -0.9952 -0.0000
vn -0.9968 -0.0797 -0.0000
vn -0.9927 -0.1208 -0.0000
vt 0.625000 0.808607
vt 0.477163 0.808607
vt 0.477163 0.691393
vt 0.625000 0.691393
vt 0.477163 0.000000
vt 0.625000 0.000000
vt 0.625000 0.058607
vt 0.477163 0.058607
vt 0.426082 0.808607
vt 0.375000 0.808607
vt 0.375000 0.691393
vt 0.426082 0.691393
vt 0.426082 0.000000
vt 0.426082 0.058607
vt 0.375000 0.000000
vt 0.750000 0.750000
vt 0.477163 0.875000
vt 0.683607 0.750000
vt 0.625000 0.125000
vt 0.625000 0.058607
vt 0.625000 0.625000
vt 0.875000 0.625000
vt 0.875000 0.691393
vt 0.816393 0.750000
vt 0.426082 0.669185
vt 0.457971 0.669185
vt 0.375771 0.104242
vt 0.376535 0.689618
vt 0.323247 0.697012
vt 0.381472 0.062775
vt 0.000000 0.000000
vt 0.683607 0.750000
vt 0.625000 0.058607
vt 0.625000 0.000000
vt 0.625000 0.808607
vt 0.625000 0.691393
vt 0.816393 0.750000
vt 0.625000 0.691393
vt 0.477163 0.000000
vt 0.477163 0.941393
vt 0.335761 0.013492
vt 0.386258 0.764947
vt 0.323247 0.697012
vt 0.394192 0.669185
vt 0.375000 0.058607
vt 0.457971 0.625000
vt 0.477163 0.625000
vt 0.426082 0.125000
vt 0.375000 0.125000
vt 0.477163 0.125000
vt 0.376510 0.683896
vt 0.386777 0.447377
vt 0.384356 0.679319
vt 0.376146 0.690067
vt 0.381941 0.683361
vt 0.388752 0.496115
vt 0.382857 0.682302
vt 0.385848 0.678840
s 0
usemtl vertex_color
f 11/1/1 2/2/1 1/3/1 12/4/1
f 4/5/2 8/6/2 7/7/2 3/8/2
f 63/9/3 117/10/3 118/11/3 61/12/3
f 60/13/4 4/5/4 3/8/4 62/14/4
f 61/12/5 118/11/5 13/11/5 64/12/5
f 63/9/6 2/2/6 17/2/6 66/9/6
f 60/13/7 116/15/7 121/15/7 65/13/7
f 49/16/8 51/17/8 17/2/8 11/18/8
f 2/2/9 11/18/9 17/2/9
f 1/3/10 27/3/10 12/4/10
f 106/19/11 20/7/11 24/7/11 107/19/11
f 11/1/12 12/4/12 34/4/12 35/1/12
f 7/7/13 8/6/13 40/6/13 38/20/13
f 104/19/14 7/7/14 38/7/14 109/19/14
f 97/21/15 107/22/15 24/23/15 23/24/15 53/16/15 26/18/15 25/4/15
f 20/7/16 19/6/16 23/6/16 24/7/16
f 52/16/17 22/18/17 26/18/17 53/16/17
f 22/1/18 21/4/18 25/4/18 26/1/18
f 67/25/6 14/26/6 27/3/6 64/12/6
f 6/27/19 9/28/19 10/29/19 5/30/19
f 31/2/19 86/2/19 84/17/19 55/17/19
f 70/10/6 76/9/6 89/9/6 85/10/6
f 69/9/7 80/9/7 86/2/7 31/2/7
f 54/31/15 82/31/15 81/31/15 32/31/15
f 4/5/20 16/5/20 8/24/20
f 56/16/21 36/32/21 22/18/21 52/16/21
f 37/33/13 39/34/13 19/6/13 20/7/13
f 108/19/14 37/7/14 20/7/14 106/19/14
f 49/16/21 11/18/21 35/18/21 57/16/21
f 36/35/12 33/36/12 21/4/12 22/1/12
f 99/21/22 33/4/22 47/4/22 101/21/22
f 57/16/23 35/18/23 41/18/23 59/16/23
f 38/20/24 40/6/24 44/6/24 46/20/24
f 58/16/25 43/37/25 44/24/25 59/16/25
f 43/34/26 45/33/26 46/20/26 44/6/26
f 101/21/27 47/4/27 48/38/27 102/21/27
f 47/36/28 42/35/28 41/1/28 48/4/28
f 33/36/29 36/35/29 42/35/29 47/36/29
f 109/19/30 38/7/30 46/7/30 111/19/30
f 39/34/31 37/33/31 45/33/31 43/34/31
f 35/1/32 34/4/32 48/4/32 41/1/32
f 56/16/33 39/37/33 43/37/33 58/16/33
f 36/32/33 56/16/33 58/16/33 42/32/33
f 42/32/25 58/16/25 59/16/25 41/18/25
f 40/24/23 57/16/23 59/16/23 44/24/23
f 8/24/21 49/16/21 57/16/21 40/24/21
f 39/37/21 56/16/21 52/16/21 19/24/21
f 68/13/6 78/13/6 83/15/6 29/15/6
f 72/39/7 77/13/7 90/13/7 92/39/7
f 55/17/19 84/17/19 79/40/19 30/40/19
f 19/24/17 52/16/17 53/16/17 23/24/17
f 8/24/8 16/40/8 51/17/8 49/16/8
f 75/31/19 70/31/19 85/31/19 88/31/19
f 29/31/15 83/31/15 82/31/15 54/31/15
f 32/10/7 81/10/7 80/9/7 69/9/7
f 77/13/7 71/15/7 91/15/7 90/13/7
f 15/41/19 5/30/19 10/42/19 50/31/19
f 50/31/19 10/29/19 18/43/19
f 28/44/6 67/25/6 64/12/6 13/11/6
f 4/5/7 60/13/7 65/13/7 16/5/7
f 117/10/6 63/9/6 66/9/6 122/10/6
f 1/3/5 61/12/5 64/12/5 27/3/5
f 116/15/34 60/13/34 62/14/34 115/45/34
f 2/2/3 63/9/3 61/12/3 1/3/3
f 16/5/5 65/13/5 77/13/5 72/39/5
f 122/10/5 66/9/5 76/9/5 70/10/5
f 121/31/5 119/31/5 75/31/5 71/31/5
f 17/2/5 51/17/5 74/17/5 73/2/5
f 66/9/5 17/2/5 73/2/5 76/9/5
f 51/17/5 16/40/5 72/40/5 74/17/5
f 65/13/5 121/15/5 71/15/5 77/13/5
f 119/31/5 122/31/5 70/31/5 75/31/5
f 88/31/5 85/31/5 81/31/5 82/31/5
f 90/13/5 91/15/5 83/15/5 78/13/5
f 87/17/5 92/40/5 79/40/5 84/17/5
f 89/9/5 93/2/5 86/2/5 80/9/5
f 93/2/5 87/17/5 84/17/5 86/2/5
f 91/31/5 88/31/5 82/31/5 83/31/5
f 85/10/5 89/9/5 80/9/5 81/10/5
f 92/39/5 90/13/5 78/13/5 79/5/5
f 71/31/19 75/31/19 88/31/19 91/31/19
f 73/2/15 74/17/15 87/17/15 93/2/15
f 76/9/6 73/2/6 93/2/6 89/9/6
f 74/17/15 72/40/15 92/40/15 87/17/15
f 30/5/6 79/5/6 78/13/6 68/13/6
f 33/4/35 99/21/35 96/21/35 21/4/35
f 34/38/36 100/21/36 102/21/36 48/38/36
f 14/26/6 98/46/6 95/47/6 27/3/6
f 21/4/37 96/21/37 97/21/37 25/4/37
f 12/4/38 27/3/38 95/47/38 94/21/38
f 12/4/35 94/21/35 100/21/35 34/38/35
f 115/45/39 62/14/39 112/48/39 103/49/39
f 37/7/40 108/19/40 110/19/40 45/7/40
f 45/7/41 110/19/41 111/19/41 46/7/41
f 62/14/7 3/8/7 105/50/7 112/48/7
f 3/8/42 7/7/42 104/19/42 105/50/42
f 9/51/19 6/27/19 124/52/19 125/53/19
f 120/54/19 9/28/19 125/53/19 123/55/19
f 5/30/19 116/15/19 115/45/19 6/27/19
f 9/28/19 118/11/19 117/10/19 10/29/19
f 120/54/19 13/11/19 118/11/19 9/28/19
f 50/31/19 119/31/19 121/15/19 15/41/19
f 10/29/19 117/10/19 122/10/19 18/43/19
f 15/41/19 121/15/19 116/15/19 5/30/19
f 18/43/19 122/10/19 119/31/19 50/31/19
f 6/27/19 115/45/19 103/56/19 124/52/19
f 123/55/19 114/57/19 13/11/19 120/54/19
f 125/53/19 113/58/19 114/57/19 123/55/19
f 124/52/19 103/56/19 113/58/19 125/53/19
o Mercona_hut_3_interior.003
v -6.408947 3.016430 1.028081 0.2000 0.0863 0.1137
v -6.408947 0.000000 1.028081 0.2000 0.0863 0.1137
v -6.408947 1.508215 1.028081 0.2000 0.0863 0.1137
v -2.711751 4.762012 0.000000 0.2000 0.0863 0.1137
v -6.408947 3.714158 0.000000 0.2000 0.0863 0.1137
v -2.477956 5.955590 0.000000 0.2000 0.0863 0.1137
v -0.120055 8.020208 0.000000 0.2000 0.0863 0.1137
v -6.408947 3.016430 0.000000 0.2000 0.0863 0.1137
v -2.572090 5.641436 0.000000 0.2000 0.0863 0.1137
v -2.617617 5.076165 0.000000 0.2000 0.0863 0.1137
v -2.773249 5.661180 0.000000 0.2000 0.0863 0.1137
v -2.818424 5.095917 0.000000 0.2000 0.0863 0.1137
v 5.015240 0.000000 0.000000 0.2000 0.0863 0.1137
v 4.887770 4.762012 0.000000 0.2000 0.0863 0.1137
v 5.015240 3.714158 0.000000 0.2000 0.0863 0.1137
v 4.653975 5.955590 0.000000 0.2000 0.0863 0.1137
v 2.296074 8.020208 0.000000 0.2000 0.0863 0.1137
v 4.748109 5.641436 0.000000 0.2000 0.0863 0.1137
v 4.793635 5.076165 0.000000 0.2000 0.0863 0.1137
v 4.949268 5.661180 0.000000 0.2000 0.0863 0.1137
v 4.994442 5.095917 0.000000 0.2000 0.0863 0.1137
v 5.015240 1.857079 0.000000 0.2000 0.0863 0.1137
v -2.661753 0.000000 0.000000 0.2000 0.0863 0.1137
v -6.408947 0.000000 0.000000 0.2000 0.0863 0.1137
v -3.094102 4.930093 0.000000 0.9215 0.4941 0.2078
v -6.788079 3.963285 0.000000 0.9215 0.4941 0.2078
v -2.739552 6.068969 0.000000 0.9215 0.4941 0.2078
v -0.189966 8.301430 0.000000 0.9215 0.4941 0.2078
v -6.788079 3.016430 0.000000 0.9215 0.4941 0.2078
v -2.808115 5.803390 0.000000 0.9215 0.4941 0.2078
v -3.063874 4.993773 -0.000000 0.9176 0.4902 0.2078
v -3.020516 5.760847 0.000000 0.9215 0.4941 0.2078
v -3.173667 5.137802 -0.000000 0.9215 0.4941 0.2078
v 5.362802 -0.370780 0.000000 0.9215 0.4941 0.2078
v 5.224969 4.778359 0.000000 0.9215 0.4941 0.2078
v 5.362802 3.645320 0.000000 0.9215 0.4941 0.2078
v 4.972168 6.068969 0.000000 0.9215 0.4941 0.2078
v 2.422583 8.301430 0.000000 0.9215 0.4941 0.2078
v 5.073955 5.729276 0.000000 0.9215 0.4941 0.2078
v 5.123182 5.118051 0.000000 0.9215 0.4941 0.2078
v 5.291468 5.750624 0.000000 0.9215 0.4941 0.2078
v 5.340314 5.139408 0.000000 0.9215 0.4941 0.2078
v 5.362802 1.637269 0.000000 0.9215 0.4941 0.2078
v -2.938291 -0.370780 0.000000 0.9215 0.4941 0.2078
v -6.788079 -0.370780 0.000000 0.5608 0.2980 0.1530
v -6.788079 3.016430 1.028081 0.9215 0.4941 0.2078
v -6.788079 0.000000 1.028081 0.9215 0.4941 0.2078
v -6.788079 1.508215 1.028081 0.9215 0.4941 0.2078
v -6.788079 0.000000 0.000000 0.9215 0.4941 0.2078
v -6.408947 3.714158 0.443606 0.2000 0.0863 0.1137
v -3.094102 4.930093 0.443606 0.9215 0.4941 0.2078
v -6.788079 3.963285 0.443606 0.9215 0.4941 0.2078
v -2.739552 6.068969 0.443606 0.9215 0.4941 0.2078
v -0.189966 8.301430 0.443606 0.9215 0.4941 0.2078
v -6.788079 3.016430 0.443606 0.9215 0.4941 0.2078
v -2.808115 5.803390 0.443606 0.9215 0.4941 0.2078
v -3.063874 4.993773 0.443606 0.9176 0.4902 0.2078
v -3.020516 5.760847 0.443606 0.9215 0.4941 0.2078
v -3.173667 5.137802 0.443606 0.9215 0.4941 0.2078
v 5.362802 -0.370780 0.443606 0.9215 0.4941 0.2078
v 5.224969 4.778359 0.443606 0.9215 0.4941 0.2078
v 5.362802 3.645320 0.443606 0.9215 0.4941 0.2078
v 4.972168 6.068969 0.443606 0.9215 0.4941 0.2078
v 2.422583 8.301430 0.443606 0.9215 0.4941 0.2078
v 5.073955 5.729276 0.443606 0.9215 0.4941 0.2078
v 5.123182 5.118051 0.443606 0.9215 0.4941 0.2078
v 5.291468 5.750624 0.443606 0.9215 0.4941 0.2078
v 5.340314 5.139408 0.443606 0.9215 0.4941 0.2078
v 5.362802 1.637269 0.443606 0.9215 0.4941 0.2078
v -2.938291 -0.370780 0.443606 0.9215 0.4941 0.2078
v -6.788079 -0.370780 0.443606 0.5608 0.2980 0.1530
v -6.788079 3.016430 1.471687 0.9215 0.4941 0.2078
v -6.788079 0.000000 1.471687 0.9215 0.4941 0.2078
v -6.788079 1.508215 1.471687 0.9215 0.4941 0.2078
v -6.788079 0.000000 0.443606 0.9215 0.4941 0.2078
vn -0.0000 -0.0000 -1.0000
vn -0.0000 -0.0000 1.0000
vn -0.0000 -1.0000 -0.0000
vn -0.0000 1.0000 -0.0000
vn 0.9579 0.2870 -0.0000
vn -0.2532 0.9674 -0.0000
vn 0.6588 0.7523 -0.0000
vn -0.9034 0.4288 -0.0000
vn -0.5492 -0.8357 -0.0000
vn -0.9711 0.2387 -0.0000
vn 1.0000 -0.0000 -0.0000
vn -0.9683 0.2500 -0.0000
vn 0.9927 0.1208 -0.0000
vn 0.0979 -0.9952 -0.0000
vn -0.1964 0.9805 -0.0000
vn -1.0000 -0.0000 -0.0000
vn -0.0977 0.9952 -0.0000
vn -0.7953 -0.6062 -0.0000
vn 0.9968 0.0797 -0.0000
vn -0.6588 0.7523 -0.0000
vt 0.875000 0.625000
vt 0.625000 0.625000
vt 0.477163 0.625000
vt 0.457971 0.625000
vt 0.625000 0.125000
vt 0.426082 0.125000
vt 0.477163 0.125000
vt 0.382857 0.682302
vt 0.385848 0.678840
vt 0.375000 0.125000
vt 0.388752 0.496115
vt 0.457971 0.669185
vt 0.426082 0.669185
vt 0.394192 0.669185
vt 0.379694 0.685962
s 0
usemtl vertex_color
f 142/59/43 132/60/43 153/60/43 163/59/43
f 130/61/43 133/62/43 154/62/43 151/61/43
f 145/63/43 143/63/43 164/63/43 166/63/43
f 132/60/43 131/60/43 152/60/43 153/60/43
f 146/63/43 145/63/43 166/63/43 167/63/43
f 143/63/43 141/63/43 162/63/43 164/63/43
f 136/60/43 137/60/43 158/60/43 157/60/43
f 129/60/43 130/61/43 151/61/43 150/60/43
f 139/63/43 144/63/43 165/63/43 160/63/43
f 131/60/43 134/60/43 155/60/43 152/60/43
f 135/60/43 129/60/43 150/60/43 156/60/43
f 141/63/43 142/63/43 163/63/43 162/63/43
f 134/60/43 136/60/43 157/60/43 155/60/43
f 147/64/43 140/65/43 161/65/43 168/64/43
f 149/66/43 148/67/43 169/67/43 170/66/43
f 137/60/43 135/60/43 156/60/43 158/60/43
f 138/68/43 147/64/43 168/64/43 159/68/43
f 140/65/43 139/63/43 160/63/43 161/65/43
f 148/67/43 138/69/43 159/69/43 169/67/43
f 144/63/44 146/63/44 167/63/44 165/63/44
f 126/70/43 128/71/43 173/71/43 171/70/43
f 128/71/43 127/72/43 172/72/43 173/71/43
f 133/62/45 126/70/45 171/70/45 154/62/45
f 127/73/46 149/66/46 174/66/46 172/73/46
f 149/66/43 170/66/43 174/66/43
f 160/63/47 165/63/47 191/63/47 186/63/47
f 150/60/48 151/61/48 177/61/48 176/60/48
f 162/63/49 163/63/49 189/63/49 188/63/49
f 156/60/50 150/60/50 176/60/50 182/60/50
f 151/61/51 130/61/51 175/61/51 177/61/51
f 157/60/52 158/60/52 184/60/52 183/60/52
f 168/64/53 161/65/53 187/65/53 194/64/53
f 159/68/53 168/64/53 194/64/53 185/68/53
f 152/60/54 155/60/54 181/60/54 178/60/54
f 161/65/55 160/63/55 186/63/55 187/65/55
f 165/63/56 167/63/56 193/63/56 191/63/56
f 155/60/57 157/60/57 183/60/57 181/60/57
f 163/59/46 153/60/46 179/60/46 189/59/46
f 174/66/58 170/66/58 196/66/58 200/66/58
f 166/63/59 164/63/59 190/63/59 192/63/59
f 158/60/60 156/60/60 182/60/60 184/60/60
f 170/66/45 169/67/45 195/67/45 196/66/45
f 167/63/61 166/63/61 192/63/61 193/63/61
f 171/70/58 173/71/58 199/71/58 197/70/58
f 151/61/58 154/62/58 180/62/58 177/61/58
f 169/67/45 159/69/45 185/69/45 195/67/45
f 164/63/47 162/63/47 188/63/47 190/63/47
f 173/71/58 172/72/58 198/72/58 199/71/58
f 153/60/62 152/60/62 178/60/62 179/60/62
