# Blender 4.4.3
# www.blender.org
mtllib Mercona_hut_3_interior.mtl
o Mercona_hut_3_interior
v -2.839221 3.714158 2.085939 0.1333 0.1255 0.2039
v -0.997929 3.714158 3.927231 0.1333 0.1255 0.2039
v 5.015240 3.714158 2.085939 0.1333 0.1255 0.2039
v 3.173948 3.714158 3.927231 0.1333 0.1255 0.2039
v 2.819176 0.000000 3.783265 0.0902 0.0353 0.0510
v 4.611742 0.000000 1.938276 0.1098 0.0431 0.0627
v 4.887770 4.762012 2.018233 0.2000 0.0863 0.1137
v 3.106243 4.762012 3.799761 0.2000 0.0863 0.1137
v -2.692269 0.000000 1.731167 0.0902 0.0353 0.0510
v -0.643157 0.000000 3.780279 0.0902 0.0353 0.0510
v -0.930224 4.762012 3.799761 0.2000 0.0863 0.1137
v -2.711751 4.762012 2.018233 0.2000 0.0863 0.1137
v -6.408947 0.000000 2.085939 0.1725 0.1333 0.4314
v -6.408947 3.016430 1.028081 0.1333 0.1255 0.2039
v 2.819176 0.000000 6.645228 0.0902 0.0353 0.0510
v 3.173948 3.714158 7.000000 0.2706 0.1569 0.2353
v -0.997929 3.714158 7.000000 0.2706 0.1569 0.2353
v -0.643157 0.000000 6.645228 0.0902 0.0353 0.0510
v 2.982063 5.955590 3.565965 0.2000 0.0863 0.1137
v 4.653975 5.955590 1.894054 0.2000 0.0863 0.1137
v -2.477956 5.955590 1.894054 0.2000 0.0863 0.1137
v -0.806044 5.955590 3.565965 0.2000 0.0863 0.1137
v 1.729670 8.020208 1.208065 0.1333 0.1255 0.2039
v 2.296074 8.020208 0.641661 0.1333 0.1255 0.2039
v -0.120055 8.020208 0.641661 0.1333 0.1255 0.2039
v 0.446349 8.020208 1.208065 0.1333 0.1255 0.2039
v -6.408947 3.714158 2.085939 0.1333 0.1255 0.2039
v -6.408947 0.000000 1.028081 0.1725 0.1333 0.4314
v 2.130979 0.928540 6.800000 0.1333 0.1255 0.2039
v 2.130979 2.785619 6.800000 0.1333 0.1255 0.2039
v 0.045040 2.785619 6.800000 0.1333 0.1255 0.2039
v 0.045040 0.928540 6.800000 0.1333 0.1255 0.2039
v -2.572090 5.641436 1.944053 0.5451 0.2980 0.0824
v -2.617617 5.076165 1.968234 0.5451 0.2980 0.0824
v -0.880224 5.076165 3.705626 0.5451 0.3019 0.0941
v -0.856043 5.641436 3.660100 0.5373 0.2941 0.0980
v 4.748109 5.641436 1.944053 0.5569 0.3176 0.1176
v 4.793635 5.076165 1.968234 0.5451 0.2980 0.0824
v 3.032063 5.641436 3.660100 0.5451 0.2980 0.0824
v 3.056243 5.076165 3.705626 0.3451 0.1843 0.1059
v -0.963882 5.095917 3.906433 0.5451 0.3019 0.0941
v -0.938853 5.661180 3.861259 0.2000 0.0863 0.1137
v 3.114872 5.661180 3.861259 0.2000 0.0863 0.1137
v 3.139901 5.095917 3.906433 0.5451 0.2980 0.0824
v 4.949268 5.661180 2.026862 0.2000 0.0863 0.1137
v 4.994442 5.095917 2.051892 0.5451 0.2980 0.0824
v -2.773249 5.661180 2.026862 0.2000 0.0863 0.1137
v -2.818424 5.095917 2.051892 0.5451 0.2980 0.0824
v 1.088010 4.762012 3.799761 0.2000 0.0863 0.1137
v 1.088010 0.000000 6.645228 0.0941 0.0353 0.0510
v 1.088010 3.714158 7.000000 0.2706 0.1569 0.2353
v 1.088010 5.955590 3.565965 0.2000 0.0863 0.1137
v 1.088010 8.020208 1.208065 0.1333 0.1255 0.2039
v 1.088010 0.928540 6.800000 0.1333 0.1255 0.2039
v 1.088010 2.785619 6.800000 0.1333 0.1255 0.2039
v 1.088010 5.641436 3.660100 0.5176 0.2863 0.1333
v 1.088010 5.076165 3.705626 0.5294 0.2902 0.0902
v 1.088010 5.661180 3.861259 0.2000 0.0863 0.1137
v 1.088010 5.095917 3.906433 0.4667 0.2549 0.0980
v 3.173948 1.857079 3.927231 0.2941 0.4863 0.8588
v -2.839221 1.857079 2.085939 0.2941 0.4863 0.8588
v 5.015240 1.857079 2.085939 0.2980 0.4784 0.8392
v -0.997929 1.857079 3.927231 0.2941 0.4863 0.8588
v -6.408947 1.857079 2.085939 0.2941 0.4863 0.8588
v 3.173948 1.857079 7.000000 0.3098 0.4550 0.8000
v -0.997929 1.857079 7.000000 0.2941 0.4863 0.8588
v -6.408947 1.508215 1.028081 0.2941 0.4863 0.8588
v 2.130979 1.857079 6.800000 0.1333 0.1255 0.2039
v 0.045040 1.857079 6.800000 0.1333 0.1255 0.2039
v -0.104109 0.795754 7.000000 0.1333 0.1255 0.2039
v 2.280128 0.795754 7.000000 0.1333 0.1255 0.2039
v 2.280128 2.918404 7.000000 0.1333 0.1255 0.2039
v -0.104109 2.918404 7.000000 0.1333 0.1255 0.2039
v 1.088010 2.918404 7.000000 0.1333 0.1255 0.2039
v 1.088010 0.795754 7.000000 0.1333 0.1255 0.2039
v -0.104109 1.857079 7.000000 0.1333 0.1255 0.2039
v 2.280128 1.857079 7.000000 0.1333 0.1255 0.2039
v 2.130979 1.857079 7.094082 0.4000 0.1922 0.2392
v 2.130979 2.785619 7.094082 0.4000 0.1922 0.2392
v 0.045040 1.857079 7.094082 0.4000 0.1922 0.2392
v 0.045040 0.928540 7.094082 0.4000 0.1922 0.2392
v 1.088010 0.928540 7.094082 0.4000 0.1922 0.2392
v 2.130979 0.928540 7.094082 0.4432 0.2196 0.2392
v 1.088010 2.785619 7.094082 0.4000 0.1922 0.2392
v -0.104109 0.795754 7.094082 0.1333 0.1255 0.2039
v 0.045040 2.785619 7.094082 0.4000 0.1922 0.2392
v 1.088010 2.918404 7.094082 0.1333 0.1255 0.2039
v 1.088010 0.795754 7.094082 0.1333 0.1255 0.2039
v -0.104109 1.857079 7.094082 0.1333 0.1255 0.2039
v 2.280128 1.857079 7.094082 0.1333 0.1255 0.2039
v 2.280128 0.795754 7.094082 0.1333 0.1255 0.2039
v 2.280128 2.918404 7.094082 0.1333 0.1255 0.2039
v -0.104109 2.918404 7.094082 0.2000 0.0863 0.1137
v -2.711751 4.762012 0.000000 0.2000 0.0863 0.1137
v -6.408947 3.714158 0.000000 0.1333 0.1255 0.2039
v -2.477956 5.955590 0.000000 0.2000 0.0863 0.1216
v -0.120055 8.020208 0.000000 0.1333 0.1255 0.2039
v -6.408947 3.016430 0.000000 0.1333 0.1255 0.2039
v -2.572090 5.641436 0.000000 0.5451 0.2980 0.0824
v -2.617617 5.076165 0.000000 0.5451 0.2980 0.0824
v -2.773249 5.661180 0.000000 0.2000 0.0863 0.1137
v -2.818424 5.095917 0.000000 0.5451 0.2980 0.0824
v 5.015240 0.000000 0.000000 0.1725 0.1333 0.4314
v 4.887770 4.762012 0.000000 0.2000 0.0863 0.1137
v 5.015240 3.714158 0.000000 0.1333 0.1255 0.2039
v 4.653975 5.955590 0.000000 0.2000 0.0863 0.1137
v 2.296074 8.020208 0.000000 0.1333 0.1255 0.2039
v 4.748109 5.641436 0.000000 0.5569 0.3176 0.1176
v 4.793635 5.076165 0.000000 0.5451 0.2980 0.0824
v 4.949268 5.661180 0.000000 0.2000 0.0863 0.1137
v 4.994442 5.095917 0.000000 0.5451 0.2980 0.0824
v 5.015240 1.857079 0.000000 0.2941 0.4863 0.8588
v -2.661753 0.000000 0.000000 0.1725 0.1333 0.4314
v -6.408947 0.000000 0.000000 0.1725 0.1333 0.4314
v 4.962921 0.000000 2.085938 0.1725 0.1333 0.4314
v 3.173948 0.000000 3.927231 0.1725 0.1333 0.4314
v -0.997929 0.000000 3.927231 0.1725 0.1333 0.4314
v -2.839221 0.000000 2.085939 0.1725 0.1333 0.4314
v 1.088010 0.000000 7.000000 0.1725 0.1333 0.4314
v -6.054174 0.000000 1.731167 0.0902 0.0353 0.0510
v 3.173948 0.000000 7.000000 0.1725 0.1333 0.4196
v -0.997929 0.000000 7.000000 0.1725 0.1333 0.4314
v -6.054174 0.000000 0.354772 0.2000 0.0863 0.1137
v 4.651458 0.000000 0.354772 0.2000 0.0863 0.1137
v -2.661753 0.000000 0.354772 0.2000 0.0863 0.1137
vn 0.7011 -0.1306 -0.7011
vn -0.7011 -0.1306 -0.7011
vn 0.7071 -0.0000 -0.7071
vn -0.7071 -0.0000 -0.7071
vn -0.0000 -0.0000 -1.0000
vn 1.0000 -0.0000 -0.0000
vn -1.0000 -0.0000 -0.0000
vn -0.0000 -0.9504 -0.3112
vn 0.9979 -0.0645 -0.0000
vn -0.0000 -0.0645 -0.9979
vn -0.6588 -0.7523 -0.0000
vn 0.6726 -0.3086 -0.6726
vn -0.6726 -0.3086 -0.6726
vn -0.9579 -0.2870 -0.0000
vn -0.0000 -1.0000 -0.0000
vn -0.4447 -0.7775 -0.4447
vn -0.0000 -0.7523 -0.6588
vn 0.4447 -0.7775 -0.4447
vn -0.0000 1.0000 -0.0000
vn -0.9979 -0.0645 -0.0000
vn -0.0000 -0.2870 -0.9579
vn -0.0977 -0.9952 -0.0000
vn -0.0000 0.9952 -0.0979
vn -0.0691 0.9952 -0.0691
vn -0.0000 -0.0797 -0.9968
vn -0.7044 -0.0875 -0.7044
vn 0.9968 -0.0797 -0.0000
vn 0.7044 -0.0875 -0.7044
vn -0.0692 -0.9952 0.0692
vn -0.0979 0.9952 -0.0000
vn 0.0692 -0.9952 0.0692
vn 0.0691 0.9952 -0.0691
vn -0.0000 -0.9952 0.0977
vn -0.7121 0.0100 -0.7020
vn 0.9579 -0.2870 -0.0000
vn 0.0979 0.9952 -0.0000
vn 0.6588 -0.7523 -0.0000
vn 0.2727 -0.9621 -0.0000
vn -0.9998 0.0141 -0.0125
vn 0.0977 -0.9952 -0.0000
vn -0.9968 -0.0797 -0.0000
vn -0.9927 -0.1208 -0.0000
vt 0.625000 0.808607
vt 0.477163 0.808607
vt 0.477163 0.691393
vt 0.625000 0.691393
vt 0.477163 0.000000
vt 0.625000 0.000000
vt 0.625000 0.058607
vt 0.477163 0.058607
vt 0.426082 0.808607
vt 0.375000 0.808607
vt 0.375000 0.691393
vt 0.426082 0.691393
vt 0.426082 0.000000
vt 0.426082 0.058607
vt 0.375000 0.000000
vt 0.750000 0.750000
vt 0.477163 0.875000
vt 0.683607 0.750000
vt 0.625000 0.125000
vt 0.625000 0.058607
vt 0.625000 0.625000
vt 0.875000 0.625000
vt 0.875000 0.691393
vt 0.816393 0.750000
vt 0.426082 0.669185
vt 0.457971 0.669185
vt 0.375949 0.114720
vt 0.376892 0.689204
vt 0.311221 0.671080
vt 0.383135 0.077534
vt 0.000000 0.000000
vt 0.683607 0.750000
vt 0.625000 0.058607
vt 0.625000 0.000000
vt 0.625000 0.808607
vt 0.625000 0.691393
vt 0.816393 0.750000
vt 0.625000 0.691393
vt 0.477163 0.000000
vt 0.477163 0.941393
vt 0.327429 0.017474
vt 0.388777 0.754697
vt 0.311221 0.671080
vt 0.394192 0.669185
vt 0.375000 0.058607
vt 0.457971 0.625000
vt 0.477163 0.625000
vt 0.426082 0.125000
vt 0.375000 0.125000
vt 0.477163 0.125000
vt 0.376861 0.682200
vt 0.386319 0.436301
vt 0.384009 0.679421
vt 0.376417 0.689754
vt 0.381725 0.683612
vt 0.388752 0.496115
vt 0.382857 0.682302
vt 0.379694 0.685962
vt 0.385848 0.678840
s 0
usemtl vertex_color
f 11/1/1 2/2/1 1/3/1 12/4/1
f 4/5/2 8/6/2 7/7/2 3/8/2
f 63/9/3 117/10/3 118/11/3 61/12/3
f 60/13/4 4/5/4 3/8/4 62/14/4
f 61/12/5 118/11/5 13/11/5 64/12/5
f 63/9/6 2/2/6 17/2/6 66/9/6
f 60/13/7 116/15/7 121/15/7 65/13/7
f 49/16/8 51/17/8 17/2/8 11/18/8
f 2/2/9 11/18/9 17/2/9
f 1/3/10 27/3/10 12/4/10
f 106/19/11 20/7/11 24/7/11 107/19/11
f 11/1/12 12/4/12 34/4/12 35/1/12
f 7/7/13 8/6/13 40/6/13 38/20/13
f 104/19/14 7/7/14 38/7/14 109/19/14
f 97/21/15 107/22/15 24/23/15 23/24/15 53/16/15 26/18/15 25/4/15
f 20/7/16 19/6/16 23/6/16 24/7/16
f 52/16/17 22/18/17 26/18/17 53/16/17
f 22/1/18 21/4/18 25/4/18 26/1/18
f 67/25/6 14/26/6 27/3/6 64/12/6
f 6/27/19 9/28/19 10/29/19 5/30/19
f 31/2/19 86/2/19 84/17/19 55/17/19
f 70/10/6 76/9/6 89/9/6 85/10/6
f 69/9/7 80/9/7 86/2/7 31/2/7
f 54/31/15 82/31/15 81/31/15 32/31/15
f 4/5/20 16/5/20 8/24/20
f 56/16/21 36/32/21 22/18/21 52/16/21
f 37/33/13 39/34/13 19/6/13 20/7/13
f 108/19/14 37/7/14 20/7/14 106/19/14
f 49/16/21 11/18/21 35/18/21 57/16/21
f 36/35/12 33/36/12 21/4/12 22/1/12
f 99/21/22 33/4/22 47/4/22 101/21/22
f 57/16/23 35/18/23 41/18/23 59/16/23
f 38/20/24 40/6/24 44/6/24 46/20/24
f 58/16/25 43/37/25 44/24/25 59/16/25
f 43/34/26 45/33/26 46/20/26 44/6/26
f 101/21/27 47/4/27 48/38/27 102/21/27
f 47/36/28 42/35/28 41/1/28 48/4/28
f 33/36/29 36/35/29 42/35/29 47/36/29
f 109/19/30 38/7/30 46/7/30 111/19/30
f 39/34/31 37/33/31 45/33/31 43/34/31
f 35/1/32 34/4/32 48/4/32 41/1/32
f 56/16/33 39/37/33 43/37/33 58/16/33
f 36/32/33 56/16/33 58/16/33 42/32/33
f 42/32/25 58/16/25 59/16/25 41/18/25
f 40/24/23 57/16/23 59/16/23 44/24/23
f 8/24/21 49/16/21 57/16/21 40/24/21
f 39/37/21 56/16/21 52/16/21 19/24/21
f 68/13/6 78/13/6 83/15/6 29/15/6
f 72/39/7 77/13/7 90/13/7 92/39/7
f 55/17/19 84/17/19 79/40/19 30/40/19
f 19/24/17 52/16/17 53/16/17 23/24/17
f 8/24/8 16/40/8 51/17/8 49/16/8
f 75/31/19 70/31/19 85/31/19 88/31/19
f 29/31/15 83/31/15 82/31/15 54/31/15
f 32/10/7 81/10/7 80/9/7 69/9/7
f 77/13/7 71/15/7 91/15/7 90/13/7
f 15/41/19 5/30/19 10/42/19 50/31/19
f 50/31/19 10/29/19 18/43/19
f 28/44/6 67/25/6 64/12/6 13/11/6
f 4/5/7 60/13/7 65/13/7 16/5/7
f 117/10/6 63/9/6 66/9/6 122/10/6
f 1/3/5 61/12/5 64/12/5 27/3/5
f 116/15/34 60/13/34 62/14/34 115/45/34
f 2/2/3 63/9/3 61/12/3 1/3/3
f 16/5/5 65/13/5 77/13/5 72/39/5
f 122/10/5 66/9/5 76/9/5 70/10/5
f 121/31/5 119/31/5 75/31/5 71/31/5
f 17/2/5 51/17/5 74/17/5 73/2/5
f 66/9/5 17/2/5 73/2/5 76/9/5
f 51/17/5 16/40/5 72/40/5 74/17/5
f 65/13/5 121/15/5 71/15/5 77/13/5
f 119/31/5 122/31/5 70/31/5 75/31/5
f 88/31/5 85/31/5 81/31/5 82/31/5
f 90/13/5 91/15/5 83/15/5 78/13/5
f 87/17/5 92/40/5 79/40/5 84/17/5
f 89/9/5 93/2/5 86/2/5 80/9/5
f 93/2/5 87/17/5 84/17/5 86/2/5
f 91/31/5 88/31/5 82/31/5 83/31/5
f 85/10/5 89/9/5 80/9/5 81/10/5
f 92/39/5 90/13/5 78/13/5 79/5/5
f 71/31/19 75/31/19 88/31/19 91/31/19
f 73/2/15 74/17/15 87/17/15 93/2/15
f 76/9/6 73/2/6 93/2/6 89/9/6
f 74/17/15 72/40/15 92/40/15 87/17/15
f 30/5/6 79/5/6 78/13/6 68/13/6
f 33/4/35 99/21/35 96/21/35 21/4/35
f 34/38/36 100/21/36 102/21/36 48/38/36
f 14/26/6 98/46/6 95/47/6 27/3/6
f 21/4/37 96/21/37 97/21/37 25/4/37
f 12/4/38 27/3/38 95/47/38 94/21/38
f 12/4/35 94/21/35 100/21/35 34/38/35
f 115/45/39 62/14/39 112/48/39 103/49/39
f 37/7/40 108/19/40 110/19/40 45/7/40
f 45/7/41 110/19/41 111/19/41 46/7/41
f 62/14/7 3/8/7 105/50/7 112/48/7
f 3/8/42 7/7/42 104/19/42 105/50/42
f 9/51/19 6/27/19 124/52/19 125/53/19
f 120/54/19 9/28/19 125/53/19 123/55/19
f 5/30/19 116/15/19 115/45/19 6/27/19
f 9/28/19 118/11/19 117/10/19 10/29/19
f 120/54/19 13/11/19 118/11/19 9/28/19
f 50/31/19 119/31/19 121/15/19 15/41/19
f 10/29/19 117/10/19 122/10/19 18/43/19
f 15/41/19 121/15/19 116/15/19 5/30/19
f 18/43/19 122/10/19 119/31/19 50/31/19
f 6/27/19 115/45/19 103/56/19 124/52/19
f 123/55/19 114/57/19 28/58/19 120/54/19
f 125/53/19 113/59/19 114/57/19 123/55/19
f 124/52/19 103/56/19 113/59/19 125/53/19
f 120/54/19 28/58/19 13/11/19
o Mercona_hut_3_interior.001
v -6.408947 3.016430 1.028081 0.2000 0.0863 0.1137
v -6.408947 0.000000 1.028081 0.2000 0.0863 0.1137
v -6.408947 1.508215 1.028081 0.2000 0.0863 0.1137
v -2.711751 4.762012 0.000000 0.2000 0.0863 0.1137
v -6.408947 3.714158 0.000000 0.2000 0.0863 0.1137
v -2.477956 5.955590 0.000000 0.2000 0.0863 0.1137
v -0.120055 8.020208 0.000000 0.2000 0.0863 0.1137
v -6.408947 3.016430 0.000000 0.2000 0.0863 0.1137
v -2.572090 5.641436 0.000000 0.2000 0.0863 0.1137
v -2.617617 5.076165 0.000000 0.2000 0.0863 0.1137
v -2.773249 5.661180 0.000000 0.2000 0.0863 0.1137
v -2.818424 5.095917 0.000000 0.2000 0.0863 0.1137
v 5.015240 0.000000 0.000000 0.2000 0.0863 0.1137
v 4.887770 4.762012 0.000000 0.2000 0.0863 0.1137
v 5.015240 3.714158 0.000000 0.2000 0.0863 0.1137
v 4.653975 5.955590 0.000000 0.2000 0.0863 0.1137
v 2.296074 8.020208 0.000000 0.2000 0.0863 0.1137
v 4.748109 5.641436 0.000000 0.2000 0.0863 0.1137
v 4.793635 5.076165 0.000000 0.2000 0.0863 0.1137
v 4.949268 5.661180 0.000000 0.2000 0.0863 0.1137
v 4.994442 5.095917 0.000000 0.2000 0.0863 0.1137
v 5.015240 1.857079 0.000000 0.2000 0.0863 0.1137
v -2.661753 0.000000 0.000000 0.2000 0.0863 0.1137
v -6.408947 0.000000 0.000000 0.2000 0.0863 0.1137
v -3.094102 4.930093 0.000000 0.9215 0.4941 0.2078
v -6.788079 3.963285 0.000000 0.9215 0.4941 0.2078
v -2.739552 6.068969 0.000000 0.9215 0.4941 0.2078
v -0.189966 8.301430 0.000000 0.9215 0.4941 0.2078
v -6.788079 3.016430 0.000000 0.9215 0.4941 0.2078
v -2.808115 5.803390 0.000000 0.9215 0.4941 0.2078
v -3.063874 4.993773 -0.000000 0.9176 0.4902 0.2078
v -3.020516 5.760847 0.000000 0.9215 0.4941 0.2078
v -3.173667 5.137802 -0.000000 0.9215 0.4941 0.2078
v 5.362802 -0.370780 0.000000 0.9215 0.4941 0.2078
v 5.224969 4.778359 0.000000 0.9215 0.4941 0.2078
v 5.362802 3.645320 0.000000 0.9215 0.4941 0.2078
v 4.972168 6.068969 0.000000 0.9215 0.4941 0.2078
v 2.422583 8.301430 0.000000 0.9215 0.4941 0.2078
v 5.073955 5.729276 0.000000 0.9215 0.4941 0.2078
v 5.123182 5.118051 0.000000 0.9215 0.4941 0.2078
v 5.291468 5.750624 0.000000 0.9215 0.4941 0.2078
v 5.340314 5.139408 0.000000 0.9215 0.4941 0.2078
v 5.362802 1.637269 0.000000 0.9215 0.4941 0.2078
v -2.938291 -0.370780 0.000000 0.9215 0.4941 0.2078
v -6.788079 -0.370780 0.000000 0.5608 0.2980 0.1530
v -6.788079 3.016430 1.028081 0.9215 0.4941 0.2078
v -6.788079 0.000000 1.028081 0.9215 0.4941 0.2078
v -6.788079 1.508215 1.028081 0.9215 0.4941 0.2078
v -6.788079 0.000000 0.000000 0.9215 0.4941 0.2078
v -6.408947 3.714158 0.443606 0.2000 0.0863 0.1137
v -3.094102 4.930093 0.443606 0.9215 0.4941 0.2078
v -6.788079 3.963285 0.443606 0.9215 0.4941 0.2078
v -2.739552 6.068969 0.443606 0.9215 0.4941 0.2078
v -0.189966 8.301430 0.443606 0.9215 0.4941 0.2078
v -6.788079 3.016430 0.443606 0.9215 0.4941 0.2078
v -2.808115 5.803390 0.443606 0.9215 0.4941 0.2078
v -3.063874 4.993773 0.443606 0.9176 0.4902 0.2078
v -3.020516 5.760847 0.443606 0.9215 0.4941 0.2078
v -3.173667 5.137802 0.443606 0.9215 0.4941 0.2078
v 5.362802 -0.370780 0.443606 0.9215 0.4941 0.2078
v 5.224969 4.778359 0.443606 0.9215 0.4941 0.2078
v 5.362802 3.645320 0.443606 0.9215 0.4941 0.2078
v 4.972168 6.068969 0.443606 0.9215 0.4941 0.2078
v 2.422583 8.301430 0.443606 0.9215 0.4941 0.2078
v 5.073955 5.729276 0.443606 0.9215 0.4941 0.2078
v 5.123182 5.118051 0.443606 0.9215 0.4941 0.2078
v 5.291468 5.750624 0.443606 0.9215 0.4941 0.2078
v 5.340314 5.139408 0.443606 0.9215 0.4941 0.2078
v 5.362802 1.637269 0.443606 0.9215 0.4941 0.2078
v -2.938291 -0.370780 0.443606 0.9215 0.4941 0.2078
v -6.788079 -0.370780 0.443606 0.5608 0.2980 0.1530
v -6.788079 3.016430 1.471687 0.9215 0.4941 0.2078
v -6.788079 0.000000 1.471687 0.9215 0.4941 0.2078
v -6.788079 1.508215 1.471687 0.9215 0.4941 0.2078
v -6.788079 0.000000 0.443606 0.9215 0.4941 0.2078
vn -0.0000 -0.0000 -1.0000
vn -0.0000 -0.0000 1.0000
vn -0.0000 -1.0000 -0.0000
vn -0.0000 1.0000 -0.0000
vn 0.9579 0.2870 -0.0000
vn -0.2532 0.9674 -0.0000
vn 0.6588 0.7523 -0.0000
vn -0.9034 0.4288 -0.0000
vn -0.5492 -0.8357 -0.0000
vn -0.9711 0.2387 -0.0000
vn 1.0000 -0.0000 -0.0000
vn -0.9683 0.2500 -0.0000
vn 0.9927 0.1208 -0.0000
vn 0.0979 -0.9952 -0.0000
vn -0.1964 0.9805 -0.0000
vn -1.0000 -0.0000 -0.0000
vn -0.0977 0.9952 -0.0000
vn -0.7953 -0.6062 -0.0000
vn 0.9968 0.0797 -0.0000
vn -0.6588 0.7523 -0.0000
vt 0.875000 0.625000
vt 0.625000 0.625000
vt 0.477163 0.625000
vt 0.457971 0.625000
vt 0.625000 0.125000
vt 0.426082 0.125000
vt 0.477163 0.125000
vt 0.382857 0.682302
vt 0.385848 0.678840
vt 0.375000 0.125000
vt 0.388752 0.496115
vt 0.457971 0.669185
vt 0.426082 0.669185
vt 0.394192 0.669185
vt 0.379694 0.685962
s 0
usemtl vertex_color
f 142/60/43 132/61/43 153/61/43 163/60/43
f 130/62/43 133/63/43 154/63/43 151/62/43
f 145/64/43 143/64/43 164/64/43 166/64/43
f 132/61/43 131/61/43 152/61/43 153/61/43
f 146/64/43 145/64/43 166/64/43 167/64/43
f 143/64/43 141/64/43 162/64/43 164/64/43
f 136/61/43 137/61/43 158/61/43 157/61/43
f 129/61/43 130/62/43 151/62/43 150/61/43
f 139/64/43 144/64/43 165/64/43 160/64/43
f 131/61/43 134/61/43 155/61/43 152/61/43
f 135/61/43 129/61/43 150/61/43 156/61/43
f 141/64/43 142/64/43 163/64/43 162/64/43
f 134/61/43 136/61/43 157/61/43 155/61/43
f 147/65/43 140/66/43 161/66/43 168/65/43
f 149/67/43 148/68/43 169/68/43 170/67/43
f 137/61/43 135/61/43 156/61/43 158/61/43
f 138/69/43 147/65/43 168/65/43 159/69/43
f 140/66/43 139/64/43 160/64/43 161/66/43
f 148/68/43 138/70/43 159/70/43 169/68/43
f 144/64/44 146/64/44 167/64/44 165/64/44
f 126/71/43 128/72/43 173/72/43 171/71/43
f 128/72/43 127/73/43 172/73/43 173/72/43
f 133/63/45 126/71/45 171/71/45 154/63/45
f 127/74/46 149/67/46 174/67/46 172/74/46
f 149/67/43 170/67/43 174/67/43
f 160/64/47 165/64/47 191/64/47 186/64/47
f 150/61/48 151/62/48 177/62/48 176/61/48
f 162/64/49 163/64/49 189/64/49 188/64/49
f 156/61/50 150/61/50 176/61/50 182/61/50
f 151/62/51 130/62/51 175/62/51 177/62/51
f 157/61/52 158/61/52 184/61/52 183/61/52
f 168/65/53 161/66/53 187/66/53 194/65/53
f 159/69/53 168/65/53 194/65/53 185/69/53
f 152/61/54 155/61/54 181/61/54 178/61/54
f 161/66/55 160/64/55 186/64/55 187/66/55
f 165/64/56 167/64/56 193/64/56 191/64/56
f 155/61/57 157/61/57 183/61/57 181/61/57
f 163/60/46 153/61/46 179/61/46 189/60/46
f 174/67/58 170/67/58 196/67/58 200/67/58
f 166/64/59 164/64/59 190/64/59 192/64/59
f 158/61/60 156/61/60 182/61/60 184/61/60
f 170/67/45 169/68/45 195/68/45 196/67/45
f 167/64/61 166/64/61 192/64/61 193/64/61
f 171/71/58 173/72/58 199/72/58 197/71/58
f 151/62/58 154/63/58 180/63/58 177/62/58
f 169/68/45 159/70/45 185/70/45 195/68/45
f 164/64/47 162/64/47 188/64/47 190/64/47
f 173/72/58 172/73/58 198/73/58 199/72/58
f 153/61/62 152/61/62 178/61/62 179/61/62
