# Blender 4.4.3
# www.blender.org
mtllib Mercona_hut_1.mtl
o Mercona_hut_2.001
v 3.927231 3.714158 2.085939 0.9215 0.4941 0.2078
v 2.085939 3.714158 3.927231 0.9215 0.4941 0.2078
v 2.085939 3.714158 -3.927231 0.9215 0.4941 0.2078
v 3.927231 3.714158 -2.085939 0.9215 0.4941 0.2078
v -3.927231 3.714158 -2.085939 0.9215 0.4941 0.2078
v -2.085939 3.714158 -3.927231 0.9215 0.4941 0.2078
v -3.927231 3.714158 2.085939 0.9215 0.4941 0.2078
v -2.085939 3.714158 3.927231 0.9215 0.4941 0.2078
v -2.085939 0.000000 3.927231 0.2000 0.0863 0.1137
v -3.927231 0.000000 2.085939 0.2000 0.0863 0.1137
v -3.799761 4.762012 2.018233 0.8666 0.7137 0.5294
v -2.018233 4.762012 3.799761 0.8745 0.7255 0.5098
v -3.927231 0.000000 -2.085939 0.2000 0.0863 0.1137
v -2.085939 0.000000 -3.927231 0.2000 0.0863 0.1137
v -2.018233 4.762012 -3.799761 0.8784 0.7294 0.4980
v -3.799761 4.762012 -2.018233 0.8666 0.7137 0.5294
v 3.927231 0.000000 2.085939 0.2000 0.0863 0.1137
v 2.085939 0.000000 3.927231 0.2314 0.1098 0.1216
v 2.018233 4.762012 3.799761 0.8666 0.7137 0.5294
v 3.799761 4.762012 2.018233 0.8666 0.7137 0.5294
v 2.085939 0.000000 -3.927231 0.2314 0.1098 0.1216
v 3.927231 0.000000 -2.085939 0.2000 0.0863 0.1137
v 3.799761 4.762012 -2.018233 0.8666 0.7137 0.5294
v 2.018233 4.762012 -3.799761 0.8666 0.7137 0.5294
v 7.496956 0.000000 2.085939 0.2000 0.0863 0.1137
v 7.496956 3.016430 1.028081 0.5451 0.2980 0.0824
v 7.496956 3.016430 -1.028081 0.5451 0.2980 0.0824
v 7.496956 0.000000 -2.085939 0.2000 0.0863 0.1137
v -1.894054 5.955590 3.565965 0.3647 0.0353 0.2275
v -3.565965 5.955590 1.894054 0.3647 0.0353 0.2275
v -3.565965 5.955590 -1.894054 0.3647 0.0353 0.2275
v -1.894054 5.955590 -3.565965 0.3647 0.0353 0.2275
v 1.894054 5.955590 -3.565965 0.3647 0.0353 0.2275
v 3.565965 5.955590 -1.894054 0.3647 0.0353 0.2275
v 3.565965 5.955590 1.894054 0.3647 0.0353 0.2275
v 1.894054 5.955590 3.565965 0.3647 0.0353 0.2275
v -0.641660 8.020208 1.208065 0.6354 0.0941 0.2235
v -1.208065 8.020208 0.641661 0.6354 0.0941 0.2235
v -1.208065 8.020208 -0.641660 0.6354 0.0941 0.2235
v -0.641660 8.020208 -1.208065 0.6354 0.0941 0.2235
v 0.641661 8.020208 -1.208065 0.6354 0.0941 0.2235
v 1.208065 8.020208 -0.641660 0.6354 0.0941 0.2235
v 1.208065 8.020208 0.641661 0.6354 0.0941 0.2235
v 0.641661 8.020208 1.208065 0.6354 0.0980 0.2235
v 7.496956 3.714158 2.085939 0.8902 0.4941 0.2432
v 7.496956 0.000000 1.028081 0.2000 0.0863 0.1137
v 7.496956 3.714158 -2.085939 0.8902 0.4941 0.2432
v 7.496956 0.000000 -1.028081 0.2000 0.0863 0.1137
v 7.134077 0.000000 -1.028081 0.2706 0.1569 0.2353
v 7.134077 0.000000 1.028081 0.2706 0.1569 0.2353
v 7.134077 3.016430 1.028081 0.2706 0.1569 0.2353
v 7.134077 3.016430 -1.028081 0.2706 0.1569 0.2353
v 3.660100 5.641436 1.944053 0.5451 0.2980 0.0824
v 3.705626 5.076165 1.968234 0.5451 0.2980 0.0824
v 1.968234 5.076165 3.705626 0.5451 0.3019 0.0941
v 1.944053 5.641436 3.660100 0.5451 0.2980 0.0824
v 3.660100 5.641436 -1.944053 0.5451 0.2980 0.0824
v 3.705626 5.076165 -1.968234 0.5451 0.2980 0.0824
v 1.944053 5.641436 -3.660100 0.5451 0.2980 0.0824
v 1.968234 5.076165 -3.705626 0.5451 0.3019 0.0941
v -3.660100 5.641436 1.944053 0.5569 0.3176 0.1176
v -3.705626 5.076165 1.968234 0.5451 0.2980 0.0824
v -3.705626 5.076165 -1.968234 0.5451 0.2980 0.0824
v -3.660100 5.641436 -1.944053 0.5569 0.3176 0.1176
v -1.968234 5.076165 -3.705626 0.5451 0.2980 0.0824
v -1.944053 5.641436 -3.660100 0.5451 0.2980 0.0824
v -1.944053 5.641436 3.660100 0.5451 0.2980 0.0824
v -1.968234 5.076165 3.705626 0.5451 0.2980 0.0824
v 2.051892 5.095917 3.906433 0.5451 0.3019 0.0941
v 2.026862 5.661180 3.861259 0.8666 0.7137 0.5294
v -2.026862 5.661180 3.861259 0.8666 0.7137 0.5294
v -2.051892 5.095917 3.906433 0.5451 0.2980 0.0824
v -2.051892 5.095917 -3.906433 0.5451 0.2980 0.0824
v -2.026862 5.661180 -3.861259 0.8666 0.7137 0.5294
v 2.026862 5.661180 -3.861259 0.8666 0.7137 0.5294
v 2.051892 5.095917 -3.906433 0.5451 0.3019 0.0941
v -3.861259 5.661180 2.026862 0.8666 0.7137 0.5294
v -3.906433 5.095917 2.051892 0.5451 0.2980 0.0824
v -3.906433 5.095917 -2.051892 0.5451 0.2980 0.0824
v -3.861259 5.661180 -2.026862 0.8666 0.7137 0.5294
v 3.861259 5.661180 -2.026862 0.8666 0.7137 0.5294
v 3.906433 5.095917 -2.051892 0.5451 0.2980 0.0824
v 3.861259 5.661180 2.026862 0.8666 0.7137 0.5294
v 3.906433 5.095917 2.051892 0.5451 0.2980 0.0824
v 0.000000 4.762012 3.799761 0.8666 0.7176 0.5255
v 0.000000 5.955590 3.565965 0.3647 0.0353 0.2275
v 0.000000 8.020208 1.208065 0.6354 0.0941 0.2235
v 0.000000 5.641436 3.660100 0.5451 0.2980 0.0824
v 0.000000 5.076165 3.705626 0.5451 0.3019 0.0902
v 0.000000 5.661180 3.861259 0.8666 0.7137 0.5294
v 0.000000 5.095917 3.906433 0.5451 0.3019 0.0902
v 2.085939 1.857079 -3.927231 0.5530 0.2863 0.1608
v -2.085939 1.857079 3.927231 0.5608 0.2902 0.1608
v -3.927231 1.857079 -2.085939 0.5608 0.2902 0.1608
v 3.927231 1.857079 2.085939 0.5569 0.2902 0.1608
v -3.927231 1.857079 2.085939 0.5608 0.2902 0.1608
v -2.085939 1.857079 -3.927231 0.5608 0.2902 0.1608
v 3.927231 1.857079 -2.085939 0.5530 0.2863 0.1608
v 2.085939 1.857079 3.927231 0.5098 0.2627 0.1922
v 7.496956 1.857079 2.085939 0.5451 0.2902 0.1804
v 7.496956 1.857079 -2.085939 0.5451 0.2902 0.1804
v 7.496956 1.508215 1.028081 0.3725 0.1922 0.0980
v 7.496956 1.508215 -1.028081 0.3725 0.1922 0.0980
v 7.134077 1.508215 1.028081 0.2706 0.1569 0.2353
v 7.134077 1.508215 -1.028081 0.2706 0.1569 0.2353
v 0.000000 4.762012 -3.799761 0.8745 0.7216 0.5137
v 0.000000 5.955590 -3.565965 0.3647 0.0353 0.2275
v 0.000000 8.020208 -1.208065 0.6354 0.0941 0.2235
v 0.000000 5.641436 -3.660100 0.5451 0.2980 0.0824
v 0.000000 5.076165 -3.705626 0.5451 0.3019 0.0902
v 0.000000 5.661180 -3.861259 0.8666 0.7137 0.5294
v 0.000000 5.095917 -3.906433 0.5451 0.3019 0.0902
v 0.000000 1.857079 -3.927231 0.5530 0.2863 0.1608
v 0.000000 3.714158 -3.927231 0.9215 0.4941 0.2078
v 0.000000 4.762012 -3.799761 0.8745 0.7216 0.5137
v 0.000000 0.000000 -3.927231 0.2157 0.0980 0.1176
v 0.000000 1.857079 3.927231 0.5373 0.2784 0.1765
v 0.000000 3.714158 3.927231 0.9215 0.4941 0.2078
v 0.000000 0.000000 3.927231 0.2157 0.0980 0.1176
vn 0.7011 0.1306 0.7011
vn 0.9579 0.2870 -0.0000
vn -0.9927 0.1208 -0.0000
vn 0.2727 0.9621 -0.0000
vn -0.7011 0.1306 0.7011
vn -0.7071 -0.0000 -0.7071
vn 0.7071 -0.0000 -0.7071
vn 0.7071 -0.0000 0.7071
vn 0.7011 0.1306 -0.7011
vn -0.7011 0.1306 -0.7011
vn -0.7071 -0.0000 0.7071
vn -1.0000 -0.0000 -0.0000
vn -0.0000 -0.0000 1.0000
vn -0.0000 -1.0000 -0.0000
vn -0.0000 -0.0000 -1.0000
vn -0.0000 0.0645 -0.9979
vn -0.0000 0.0645 0.9979
vn -0.6588 0.7523 -0.0000
vn 0.6726 0.3086 0.6726
vn 0.6726 0.3086 -0.6726
vn -0.6726 0.3086 0.6726
vn -0.9579 0.2870 -0.0000
vn -0.0000 0.2870 -0.9579
vn -0.0000 1.0000 -0.0000
vn 0.4447 0.7775 -0.4447
vn -0.4447 0.7775 0.4447
vn -0.0000 0.7523 -0.6588
vn -0.0000 0.7523 0.6588
vn 0.4447 0.7775 0.4447
vn -0.4447 0.7775 -0.4447
vn 0.6588 0.7523 -0.0000
vn 1.0000 -0.0000 -0.0000
vn -0.0000 0.2870 0.9579
vn -0.6726 0.3086 -0.6726
vn 0.0979 -0.9952 -0.0000
vn -0.0691 -0.9952 -0.0691
vn -0.0000 0.9952 0.0977
vn 0.0692 0.9952 0.0692
vn -0.0977 0.9952 -0.0000
vn 0.0691 -0.9952 -0.0691
vn -0.0000 -0.9952 0.0979
vn -0.0691 -0.9952 0.0691
vn -0.0000 0.0797 0.9968
vn -0.0000 0.0797 -0.9968
vn -0.7044 0.0875 0.7044
vn -0.7044 0.0875 -0.7044
vn -0.9968 0.0797 -0.0000
vn 0.7044 0.0875 -0.7044
vn 0.9968 0.0797 -0.0000
vn 0.7044 0.0875 0.7044
vn 0.0977 0.9952 -0.0000
vn -0.0000 -0.9952 -0.0979
vn -0.0692 0.9952 -0.0692
vn -0.0979 -0.9952 -0.0000
vn 0.0692 0.9952 -0.0692
vn 0.0691 -0.9952 0.0691
vn -0.0000 0.9952 -0.0977
vn -0.0692 0.9952 0.0692
vn -0.0000 0.1208 -0.9927
vn -0.0000 0.1208 0.9927
vt 0.625000 0.808607
vt 0.477163 0.808607
vt 0.477163 0.691393
vt 0.625000 0.691393
vt 0.625000 0.558607
vt 0.625000 0.691393
vt 0.477163 0.058607
vt 0.625000 0.058607
vt 0.625000 0.191393
vt 0.477163 0.191393
vt 0.477163 0.558607
vt 0.477163 0.000000
vt 0.625000 0.000000
vt 0.426082 0.308607
vt 0.375000 0.308607
vt 0.375000 0.191393
vt 0.426082 0.191393
vt 0.426082 0.558607
vt 0.375000 0.558607
vt 0.375000 0.441393
vt 0.426082 0.441393
vt 0.426082 0.808607
vt 0.375000 0.808607
vt 0.375000 0.691393
vt 0.426082 0.691393
vt 0.477163 0.441393
vt 0.625000 0.441393
vt 0.625000 0.308607
vt 0.477163 0.308607
vt 0.426082 0.000000
vt 0.426082 0.058607
vt 0.457971 0.580815
vt 0.457971 0.669185
vt 0.625000 0.558607
vt 0.625000 0.058607
vt 0.750000 0.500000
vt 0.816393 0.500000
vt 0.625000 0.441393
vt 0.683607 0.500000
vt 0.875000 0.558607
vt 0.875000 0.691393
vt 0.816393 0.750000
vt 0.750000 0.750000
vt 0.683607 0.750000
vt 0.426082 0.669185
vt 0.426082 0.580815
vt 0.394192 0.580815
vt 0.394192 0.669185
vt 0.683607 0.750000
vt 0.625000 0.058607
vt 0.625000 0.000000
vt 0.625000 0.191393
vt 0.750000 0.500000
vt 0.625000 0.808607
vt 0.625000 0.691393
vt 0.683607 0.500000
vt 0.816393 0.750000
vt 0.375000 0.058607
vt 0.375000 0.000000
vt 0.426082 0.375000
vt 0.375000 0.375000
vt 0.625000 0.375000
vt 0.477163 0.375000
vt 0.426082 0.404303
vt 0.477163 0.404303
vt 0.625000 0.404303
vt 0.375000 0.404303
s 0
usemtl vertex_color
f 19/1/1 2/2/1 1/3/1 20/4/1
f 20/4/2 23/5/2 58/5/2 54/6/2
f 7/7/3 11/8/3 16/9/3 5/10/3
f 20/4/4 45/3/4 47/11/4 23/5/4
f 8/12/5 12/13/5 11/8/5 7/7/5
f 97/14/6 14/15/6 13/16/6 94/17/6
f 98/18/7 22/19/7 21/20/7 92/21/7
f 99/22/8 18/23/8 17/24/8 95/25/8
f 23/5/9 4/11/9 3/26/9 24/27/9
f 15/28/10 6/29/10 5/10/10 16/9/10
f 93/30/11 8/12/11 7/7/11 96/31/11
f 96/31/12 7/7/12 5/10/12 94/17/12
f 95/25/13 17/24/13 25/24/13 100/25/13
f 27/32/14 26/33/14 51/33/14 52/32/14
f 98/18/15 4/11/15 47/11/15 101/18/15
f 4/11/16 23/5/16 47/11/16
f 1/3/17 45/3/17 20/4/17
f 31/9/18 30/8/18 38/8/18 39/9/18
f 19/1/19 20/4/19 54/4/19 55/1/19
f 23/5/20 24/27/20 60/27/20 58/34/20
f 11/8/21 12/13/21 68/13/21 62/35/21
f 16/9/22 11/8/22 62/8/22 63/9/22
f 106/36/23 15/37/23 65/37/23 110/36/23
f 57/5/20 59/38/20 33/27/20 34/5/20
f 42/5/24 41/39/24 108/36/24 40/37/24 39/40/24 38/41/24 37/42/24 87/43/24 44/44/24 43/4/24
f 34/5/25 33/27/25 41/27/25 42/5/25
f 30/8/26 29/13/26 37/13/26 38/8/26
f 107/36/27 32/37/27 40/37/27 108/36/27
f 86/43/28 36/44/28 44/44/28 87/43/28
f 36/1/29 35/4/29 43/4/29 44/1/29
f 32/28/30 31/9/30 39/9/30 40/28/30
f 35/4/31 34/5/31 42/5/31 43/4/31
f 102/45/32 26/33/32 45/3/32 100/25/32
f 103/46/32 48/47/32 28/19/32 101/18/32
f 26/33/32 27/32/32 47/11/32 45/3/32
f 105/46/32 52/32/32 51/33/32 104/45/32
f 102/45/15 46/48/15 50/48/15 104/45/15
f 103/46/13 27/32/13 52/32/13 105/46/13
f 88/43/33 56/49/33 36/44/33 86/43/33
f 61/50/21 67/51/21 29/13/21 30/8/21
f 15/28/34 16/9/34 63/9/34 65/28/34
f 66/28/34 64/52/34 31/9/34 32/28/34
f 64/9/22 61/8/22 30/8/22 31/9/22
f 109/53/23 66/37/23 32/37/23 107/36/23
f 85/43/33 19/44/33 55/44/33 89/43/33
f 56/54/19 53/55/19 35/4/19 36/1/19
f 54/6/35 58/5/35 82/5/35 84/6/35
f 65/28/36 63/9/36 79/9/36 73/28/36
f 109/53/37 59/56/37 75/56/37 111/53/37
f 64/52/38 66/28/38 74/28/38 80/52/38
f 57/5/39 53/4/39 83/4/39 81/5/39
f 58/34/40 60/27/40 76/27/40 82/34/40
f 89/43/41 55/44/41 69/44/41 91/43/41
f 62/35/42 68/13/42 72/13/42 78/35/42
f 53/4/2 57/5/2 34/5/2 35/4/2
f 90/43/43 71/57/43 72/42/43 91/43/43
f 111/53/44 75/56/44 76/39/44 112/36/44
f 71/51/45 77/50/45 78/35/45 72/13/45
f 80/52/46 74/28/46 73/28/46 79/9/46
f 77/8/47 80/9/47 79/9/47 78/8/47
f 75/38/48 81/5/48 82/34/48 76/27/48
f 81/5/49 83/4/49 84/6/49 82/5/49
f 83/55/50 70/54/50 69/1/50 84/4/50
f 61/8/51 64/9/51 80/9/51 77/8/51
f 110/36/52 65/37/52 73/37/52 112/36/52
f 53/55/53 56/54/53 70/54/53 83/55/53
f 63/9/54 62/8/54 78/8/54 79/9/54
f 67/51/55 61/50/55 77/50/55 71/51/55
f 55/1/56 54/4/56 84/4/56 69/1/56
f 88/43/57 67/57/57 71/57/57 90/43/57
f 59/38/58 57/5/58 81/5/58 75/38/58
f 56/49/57 88/43/57 90/43/57 70/49/57
f 70/49/43 90/43/43 91/43/43 69/44/43
f 68/42/41 89/43/41 91/43/41 72/42/41
f 12/42/33 85/43/33 89/43/33 68/42/33
f 67/57/33 88/43/33 86/43/33 29/42/33
f 29/42/28 86/43/28 87/43/28 37/42/28
f 48/47/13 103/46/13 105/46/13 49/47/13
f 26/33/15 102/45/15 104/45/15 51/33/15
f 49/47/32 105/46/32 104/45/32 50/48/32
f 27/32/32 103/46/32 101/18/32 47/11/32
f 46/48/32 102/45/32 100/25/32 25/24/32
f 22/19/15 98/18/15 101/18/15 28/19/15
f 1/3/13 95/25/13 100/25/13 45/3/13
f 10/58/12 96/31/12 94/17/12 13/16/12
f 9/59/11 93/30/11 96/31/11 10/58/11
f 2/2/8 99/22/8 95/25/8 1/3/8
f 4/11/7 98/18/7 92/21/7 3/26/7
f 6/29/6 97/14/6 94/17/6 5/10/6
f 60/39/52 110/36/52 112/36/52 76/39/52
f 74/37/44 111/53/44 112/36/44 73/37/44
f 66/37/37 109/53/37 111/53/37 74/37/37
f 59/56/23 109/53/23 107/36/23 33/39/23
f 33/39/27 107/36/27 108/36/27 41/39/27
f 24/39/23 106/36/23 110/36/23 60/39/23
f 97/14/15 113/60/15 116/61/15 14/15/15
f 15/28/59 115/62/59 114/63/59 6/29/59
f 92/21/15 113/60/15 114/63/15 3/26/15
f 113/60/15 92/21/15 21/20/15 116/61/15
f 115/62/59 24/27/59 3/26/59 114/63/59
f 113/60/15 97/14/15 6/29/15 114/63/15
f 117/64/13 99/22/13 2/2/13 118/65/13
f 85/66/60 12/13/60 8/12/60 118/65/60
f 117/64/13 93/30/13 9/59/13 119/67/13
f 99/22/13 117/64/13 119/67/13 18/23/13
f 19/1/60 85/66/60 118/65/60 2/2/60
f 93/30/13 117/64/13 118/65/13 8/12/13
