# Blender 4.4.3
# www.blender.org
mtllib Mercona_hut_3.mtl
o Mercona_hut_3
v 3.927231 3.714158 2.085939 0.5451 0.2980 0.0824
v 2.085939 3.714158 3.927231 0.5451 0.2980 0.0824
v 2.085939 3.714158 -3.927231 0.5451 0.2980 0.0824
v 3.927231 3.714158 -2.085939 0.5451 0.2980 0.0824
v -3.927231 3.714158 -2.085939 0.9215 0.4941 0.2078
v -2.085939 3.714158 -3.927231 0.9215 0.4941 0.2078
v -3.927231 3.714158 2.085939 0.9215 0.4941 0.2078
v -2.085939 3.714158 3.927231 0.9215 0.4941 0.2078
v -2.085939 0.000000 3.927231 0.2000 0.0863 0.1137
v -3.927231 0.000000 2.085939 0.2000 0.0863 0.1137
v -3.799761 4.762012 2.018233 0.8666 0.7137 0.5294
v -2.018233 4.762012 3.799761 0.8745 0.7255 0.5098
v -3.927231 0.000000 -2.085939 0.2000 0.0863 0.1137
v -2.085939 0.000000 -3.927231 0.2000 0.0863 0.1137
v -2.018233 4.762012 -3.799761 0.8784 0.7294 0.4980
v -3.799761 4.762012 -2.018233 0.8666 0.7137 0.5294
v 3.927231 0.000000 2.085939 0.2000 0.0863 0.1137
v 2.085939 0.000000 3.927231 0.2314 0.1098 0.1216
v 2.018233 4.762012 3.799761 0.8666 0.7137 0.5294
v 3.799761 4.762012 2.018233 0.8666 0.7137 0.5294
v 2.085939 0.000000 -3.927231 0.2314 0.1098 0.1216
v 3.927231 0.000000 -2.085939 0.2000 0.0863 0.1137
v 3.799761 4.762012 -2.018233 0.8666 0.7137 0.5294
v 2.018233 4.762012 -3.799761 0.8666 0.7137 0.5294
v 7.496956 0.000000 2.085939 0.2000 0.0863 0.1137
v 7.496956 3.016430 1.028081 0.5451 0.2980 0.0824
v 7.496956 3.016430 -1.028081 0.5451 0.2980 0.0824
v 7.496956 0.000000 -2.085939 0.2000 0.0863 0.1137
v -2.085939 0.000000 7.000000 0.2000 0.0863 0.1137
v -2.085939 3.714158 7.000000 0.9137 0.4902 0.2039
v 2.085939 3.714158 7.000000 0.9215 0.4941 0.2078
v 2.085939 0.000000 7.000000 0.2000 0.0863 0.1137
v -1.894054 5.955590 3.565965 0.1725 0.1333 0.4314
v -3.565965 5.955590 1.894054 0.1725 0.1333 0.4314
v -3.565965 5.955590 -1.894054 0.1725 0.1333 0.4314
v -1.894054 5.955590 -3.565965 0.1725 0.1333 0.4314
v 1.894054 5.955590 -3.565965 0.1725 0.1333 0.4314
v 3.565965 5.955590 -1.894054 0.1725 0.1333 0.4314
v 3.565965 5.955590 1.894054 0.1725 0.1333 0.4314
v 1.894054 5.955590 3.565965 0.1725 0.1333 0.4314
v -0.641660 8.020208 1.208065 0.2941 0.4863 0.8588
v -1.208065 8.020208 0.641661 0.2941 0.4863 0.8588
v -1.208065 8.020208 -0.641660 0.2941 0.4863 0.8588
v -0.641660 8.020208 -1.208065 0.2941 0.4863 0.8588
v 0.641661 8.020208 -1.208065 0.2941 0.4863 0.8588
v 1.208065 8.020208 -0.641660 0.2941 0.4863 0.8588
v 1.208065 8.020208 0.641661 0.2941 0.4863 0.8588
v 0.641661 8.020208 1.208065 0.2941 0.4863 0.8588
v 7.496956 3.714158 2.085939 0.8902 0.4941 0.2432
v 7.496956 0.000000 1.028081 0.2000 0.0863 0.1137
v 7.496956 3.714158 -2.085939 0.8902 0.4941 0.2432
v 7.496956 0.000000 -1.028081 0.2000 0.0863 0.1137
v 7.134077 0.000000 -1.028081 0.2706 0.1569 0.2353
v 7.134077 0.000000 1.028081 0.2706 0.1569 0.2353
v 7.134077 3.016430 1.028081 0.2706 0.1569 0.2353
v 7.134077 3.016430 -1.028081 0.2706 0.1569 0.2353
v -1.042969 0.928540 6.800000 0.9215 0.7960 0.3490
v -1.042969 2.785619 6.800000 0.9215 0.7960 0.3490
v 1.042969 2.785619 6.800000 0.9215 0.7960 0.3490
v 1.042969 0.928540 6.800000 0.9215 0.7960 0.3490
v 3.660100 5.641436 1.944053 0.5451 0.2980 0.0824
v 3.705626 5.076165 1.968234 0.5451 0.2980 0.0824
v 1.968234 5.076165 3.705626 0.5451 0.3019 0.0941
v 1.944053 5.641436 3.660100 0.5451 0.2980 0.0824
v 3.660100 5.641436 -1.944053 0.5451 0.2980 0.0824
v 3.705626 5.076165 -1.968234 0.5451 0.2980 0.0824
v 1.944053 5.641436 -3.660100 0.5451 0.2980 0.0824
v 1.968234 5.076165 -3.705626 0.5451 0.3019 0.0941
v -3.660100 5.641436 1.944053 0.5569 0.3176 0.1176
v -3.705626 5.076165 1.968234 0.5451 0.2980 0.0824
v -3.705626 5.076165 -1.968234 0.5451 0.2980 0.0824
v -3.660100 5.641436 -1.944053 0.5569 0.3176 0.1176
v -1.968234 5.076165 -3.705626 0.5451 0.2980 0.0824
v -1.944053 5.641436 -3.660100 0.5451 0.2980 0.0824
v -1.944053 5.641436 3.660100 0.5451 0.2980 0.0824
v -1.968234 5.076165 3.705626 0.5451 0.2980 0.0824
v 2.051892 5.095917 3.906433 0.5451 0.3019 0.0941
v 2.026862 5.661180 3.861259 0.8666 0.7137 0.5294
v -2.026862 5.661180 3.861259 0.8666 0.7137 0.5294
v -2.051892 5.095917 3.906433 0.5451 0.2980 0.0824
v -2.051892 5.095917 -3.906433 0.5451 0.2980 0.0824
v -2.026862 5.661180 -3.861259 0.8666 0.7137 0.5294
v 2.026862 5.661180 -3.861259 0.8666 0.7137 0.5294
v 2.051892 5.095917 -3.906433 0.5451 0.3019 0.0941
v -3.861259 5.661180 2.026862 0.8666 0.7137 0.5294
v -3.906433 5.095917 2.051892 0.5451 0.2980 0.0824
v -3.906433 5.095917 -2.051892 0.5451 0.2980 0.0824
v -3.861259 5.661180 -2.026862 0.8666 0.7137 0.5294
v 3.861259 5.661180 -2.026862 0.8666 0.7137 0.5294
v 3.906433 5.095917 -2.051892 0.5451 0.2980 0.0824
v 3.861259 5.661180 2.026862 0.8666 0.7137 0.5294
v 3.906433 5.095917 2.051892 0.5451 0.2980 0.0824
v 0.000000 4.762012 3.799761 0.8666 0.7137 0.5294
v 0.000000 0.000000 7.000000 0.2000 0.0863 0.1137
v 0.000000 3.714158 7.000000 0.9176 0.4941 0.2078
v 0.000000 5.955590 3.565965 0.1725 0.1333 0.4314
v 0.000000 8.020208 1.208065 0.2941 0.4863 0.8588
v 0.000000 0.928540 6.800000 0.9215 0.7960 0.3490
v 0.000000 2.785619 6.800000 0.9215 0.7960 0.3490
v 0.000000 5.641436 3.660100 0.5451 0.2980 0.0824
v 0.000000 5.076165 3.705626 0.5451 0.3019 0.0902
v 0.000000 5.661180 3.861259 0.8666 0.7137 0.5294
v 0.000000 5.095917 3.906433 0.5451 0.3019 0.0902
v 2.085939 1.857079 -3.927231 0.3882 0.2039 0.1020
v -2.085939 1.857079 3.927231 0.5608 0.2902 0.1608
v -3.927231 1.857079 -2.085939 0.5608 0.2902 0.1608
v 3.927231 1.857079 2.085939 0.3725 0.1922 0.0980
v -3.927231 1.857079 2.085939 0.5608 0.2902 0.1608
v -2.085939 1.857079 -3.927231 0.5608 0.2902 0.1608
v 3.927231 1.857079 -2.085939 0.3725 0.1922 0.0980
v 2.085939 1.857079 3.927231 0.3882 0.2039 0.1020
v 7.496956 1.857079 2.085939 0.5451 0.2902 0.1804
v 7.496956 1.857079 -2.085939 0.5451 0.2902 0.1804
v -2.085939 1.857079 7.000000 0.5569 0.2902 0.1608
v 2.085939 1.857079 7.000000 0.5608 0.2902 0.1608
v 7.496956 1.508215 1.028081 0.3725 0.1922 0.0980
v 7.496956 1.508215 -1.028081 0.3725 0.1922 0.0980
v 7.134077 1.508215 1.028081 0.2706 0.1569 0.2353
v 7.134077 1.508215 -1.028081 0.2706 0.1569 0.2353
v -1.042969 1.857079 6.800000 0.9215 0.7960 0.3490
v 1.042969 1.857079 6.800000 0.9215 0.7960 0.3490
v 0.000000 1.857079 6.800000 0.8666 0.7137 0.5294
v 1.192119 0.795754 7.000000 0.8196 0.4353 0.1961
v -1.192119 0.795754 7.000000 0.8196 0.4353 0.1961
v -1.192119 2.918404 7.000000 0.9215 0.4941 0.2078
v 1.192119 2.918404 7.000000 0.9215 0.4980 0.2157
v 0.000000 2.918404 7.000000 0.9215 0.4980 0.2118
v 0.000000 0.795754 7.000000 0.8196 0.4353 0.1961
v 1.192119 1.857079 7.000000 0.8706 0.4706 0.2039
v -1.192119 1.857079 7.000000 0.8706 0.4667 0.2000
v -1.042969 1.857079 7.094082 0.4000 0.1922 0.2392
v -1.042969 2.785619 7.094082 0.4000 0.1922 0.2392
v 1.042969 1.857079 7.094082 0.4000 0.1922 0.2392
v 1.042969 0.928540 7.094082 0.4000 0.1922 0.2392
v 0.000000 0.928540 7.094082 0.4000 0.1922 0.2392
v -1.042969 0.928540 7.094082 0.4432 0.2196 0.2392
v 0.000000 2.785619 7.094082 0.4000 0.1922 0.2392
v 1.192119 0.795754 7.094082 0.7647 0.4628 0.2823
v 1.042969 2.785619 7.094082 0.4000 0.1922 0.2392
v 0.000000 2.918404 7.094082 0.7647 0.4628 0.2823
v 0.000000 0.795754 7.094082 0.7647 0.4628 0.2823
v 1.192119 1.857079 7.094082 0.7647 0.4628 0.2823
v -1.192119 1.857079 7.094082 0.7647 0.4628 0.2823
v -1.192119 0.795754 7.094082 0.7647 0.4628 0.2823
v -1.192119 2.918404 7.094082 0.7647 0.4628 0.2823
v 1.192119 2.918404 7.094082 0.7647 0.4628 0.2823
v 0.000000 4.762012 -3.799761 0.8745 0.7216 0.5137
v 0.000000 3.714158 -7.000000 0.9176 0.4941 0.2078
v 0.000000 5.955590 -3.565965 0.1725 0.1333 0.4314
v 0.000000 8.020208 -1.208065 0.2941 0.4863 0.8588
v 0.000000 5.641436 -3.660100 0.5451 0.2980 0.0824
v 0.000000 5.076165 -3.705626 0.5451 0.3019 0.0902
v 0.000000 5.661180 -3.861259 0.8666 0.7137 0.5294
v 0.000000 5.095917 -3.906433 0.5451 0.3019 0.0902
v 2.085938 0.000000 -7.000000 0.2000 0.0863 0.1137
v 2.085938 3.714158 -7.000000 0.9176 0.4902 0.2039
v -2.085939 3.714158 -7.000000 0.9137 0.4902 0.2039
v -2.085939 0.000000 -7.000000 0.2000 0.0863 0.1137
v 1.042969 0.928540 -6.800000 0.9215 0.7960 0.3490
v 1.042969 2.785619 -6.800000 0.9215 0.7960 0.3490
v -1.042970 2.785619 -6.800000 0.9215 0.7960 0.3490
v -1.042970 0.928540 -6.800000 0.9215 0.7960 0.3490
v -0.000001 0.000000 -7.000000 0.2000 0.0863 0.1137
v -0.000001 0.928540 -6.800000 0.9215 0.7960 0.3490
v -0.000001 2.785619 -6.800000 0.9215 0.7960 0.3490
v 2.085938 1.857079 -7.000000 0.5569 0.2902 0.1608
v -2.085939 1.857079 -7.000000 0.5569 0.2902 0.1608
v 1.042969 1.857079 -6.800000 0.9215 0.7960 0.3490
v -1.042970 1.857079 -6.800000 0.9215 0.7960 0.3490
v -0.000001 1.857079 -6.800000 0.8666 0.7137 0.5294
v -1.192119 0.795754 -7.000000 0.8196 0.4353 0.1961
v 1.192118 0.795754 -7.000000 0.8196 0.4353 0.1961
v 1.192118 2.918404 -7.000000 0.9215 0.4941 0.2078
v -1.192119 2.918404 -7.000000 0.9215 0.4980 0.2157
v -0.000001 2.918404 -7.000000 0.9215 0.4980 0.2118
v -0.000001 0.795754 -7.000000 0.8196 0.4353 0.1961
v -1.192119 1.857079 -7.000000 0.8706 0.4706 0.2039
v 1.192118 1.857079 -7.000000 0.8706 0.4667 0.2000
v 1.042969 1.857079 -7.094082 0.4000 0.1922 0.2392
v 1.042969 2.785619 -7.094082 0.4000 0.1922 0.2392
v -1.042970 1.857079 -7.094082 0.4000 0.1922 0.2392
v -1.042970 0.928540 -7.094082 0.4000 0.1922 0.2392
v -0.000001 0.928540 -7.094082 0.4000 0.1922 0.2392
v 1.042969 0.928540 -7.094082 0.4432 0.2196 0.2392
v -0.000001 2.785619 -7.094082 0.4000 0.1922 0.2392
v -1.192119 0.795754 -7.094082 0.7647 0.4628 0.2823
v -1.042970 2.785619 -7.094082 0.4000 0.1922 0.2392
v -0.000001 2.918404 -7.094082 0.7647 0.4628 0.2823
v -0.000001 0.795754 -7.094082 0.7647 0.4628 0.2823
v -1.192119 1.857079 -7.094082 0.7647 0.4628 0.2823
v 1.192118 1.857079 -7.094082 0.7647 0.4628 0.2823
v 1.192118 0.795754 -7.094082 0.7647 0.4628 0.2823
v 1.192118 2.918404 -7.094082 0.7647 0.4628 0.2823
v -1.192119 2.918404 -7.094082 0.7647 0.4628 0.2823
vn 0.7011 0.1306 0.7011
vn 0.9579 0.2870 -0.0000
vn -0.9927 0.1208 -0.0000
vn 0.2727 0.9621 -0.0000
vn -0.7011 0.1306 0.7011
vn -0.7071 -0.0000 -0.7071
vn 0.7071 -0.0000 -0.7071
vn 0.7071 -0.0000 0.7071
vn 0.7011 0.1306 -0.7011
vn -0.7011 0.1306 -0.7011
vn -0.7071 -0.0000 0.7071
vn -1.0000 -0.0000 -0.0000
vn -0.0000 -0.0000 1.0000
vn -0.0000 -1.0000 -0.0000
vn -0.0000 -0.0000 -1.0000
vn 1.0000 -0.0000 -0.0000
vn -0.0000 0.9504 -0.3112
vn -0.0000 0.9504 0.3112
vn 0.9979 0.0645 -0.0000
vn -0.0000 0.0645 -0.9979
vn -0.9979 0.0645 -0.0000
vn -0.0000 0.0645 0.9979
vn -0.6588 0.7523 -0.0000
vn 0.6726 0.3086 0.6726
vn 0.6726 0.3086 -0.6726
vn -0.6726 0.3086 0.6726
vn -0.9579 0.2870 -0.0000
vn -0.0000 0.2870 -0.9579
vn -0.0000 1.0000 -0.0000
vn 0.4447 0.7775 -0.4447
vn -0.4447 0.7775 0.4447
vn -0.0000 0.7523 -0.6588
vn -0.0000 0.7523 0.6588
vn 0.4447 0.7775 0.4447
vn -0.4447 0.7775 -0.4447
vn 0.6588 0.7523 -0.0000
vn -0.0000 0.2870 0.9579
vn -0.6726 0.3086 -0.6726
vn 0.0979 -0.9952 -0.0000
vn -0.0691 -0.9952 -0.0691
vn -0.0000 0.9952 0.0977
vn 0.0692 0.9952 0.0692
vn -0.0977 0.9952 -0.0000
vn 0.0691 -0.9952 -0.0691
vn -0.0000 -0.9952 0.0979
vn -0.0691 -0.9952 0.0691
vn -0.0000 0.0797 0.9968
vn -0.0000 0.0797 -0.9968
vn -0.7044 0.0875 0.7044
vn -0.7044 0.0875 -0.7044
vn -0.9968 0.0797 -0.0000
vn 0.7044 0.0875 -0.7044
vn 0.9968 0.0797 -0.0000
vn 0.7044 0.0875 0.7044
vn 0.0977 0.9952 -0.0000
vn -0.0000 -0.9952 -0.0979
vn -0.0692 0.9952 -0.0692
vn -0.0979 -0.9952 -0.0000
vn 0.0692 0.9952 -0.0692
vn 0.0691 -0.9952 0.0691
vn -0.0000 0.9952 -0.0977
vn -0.0692 0.9952 0.0692
vt 0.625000 0.808607
vt 0.477163 0.808607
vt 0.477163 0.691393
vt 0.625000 0.691393
vt 0.625000 0.558607
vt 0.625000 0.691393
vt 0.477163 0.058607
vt 0.625000 0.058607
vt 0.625000 0.191393
vt 0.477163 0.191393
vt 0.477163 0.558607
vt 0.477163 0.000000
vt 0.625000 0.000000
vt 0.426082 0.308607
vt 0.375000 0.308607
vt 0.375000 0.191393
vt 0.426082 0.191393
vt 0.426082 0.558607
vt 0.375000 0.558607
vt 0.375000 0.441393
vt 0.426082 0.441393
vt 0.426082 0.808607
vt 0.375000 0.808607
vt 0.375000 0.691393
vt 0.426082 0.691393
vt 0.477163 0.441393
vt 0.625000 0.441393
vt 0.625000 0.308607
vt 0.477163 0.308607
vt 0.426082 0.000000
vt 0.426082 0.058607
vt 0.457971 0.580815
vt 0.457971 0.669185
vt 0.375000 0.000000
vt 0.750000 0.500000
vt 0.477163 0.375000
vt 0.816393 0.500000
vt 0.750000 0.750000
vt 0.477163 0.875000
vt 0.683607 0.750000
vt 0.683607 0.500000
vt 0.625000 0.558607
vt 0.625000 0.058607
vt 0.625000 0.441393
vt 0.875000 0.558607
vt 0.875000 0.691393
vt 0.816393 0.750000
vt 0.426082 0.669185
vt 0.426082 0.580815
vt 0.394192 0.580815
vt 0.394192 0.669185
vt 0.426082 0.875000
vt 0.477163 0.941393
vt 0.426082 0.941393
vt 0.000000 0.000000
vt 0.683607 0.750000
vt 0.625000 0.058607
vt 0.625000 0.000000
vt 0.625000 0.191393
vt 0.750000 0.500000
vt 0.625000 0.808607
vt 0.625000 0.691393
vt 0.683607 0.500000
vt 0.816393 0.750000
vt 0.477163 0.000000
vt 0.375000 0.875000
vt 0.375000 0.941393
vt 0.375000 0.058607
s 0
usemtl vertex_color
f 19/1/1 2/2/1 1/3/1 20/4/1
f 20/4/2 23/5/2 66/5/2 62/6/2
f 7/7/3 11/8/3 16/9/3 5/10/3
f 20/4/4 49/3/4 51/11/4 23/5/4
f 8/12/5 12/13/5 11/8/5 7/7/5
f 109/14/6 14/15/6 13/16/6 106/17/6
f 110/18/7 22/19/7 21/20/7 104/21/7
f 111/22/8 18/23/8 17/24/8 107/25/8
f 23/5/9 4/11/9 3/26/9 24/27/9
f 15/28/10 6/29/10 5/10/10 16/9/10
f 105/30/11 8/12/11 7/7/11 108/31/11
f 108/31/12 7/7/12 5/10/12 106/17/12
f 107/25/13 17/24/13 25/24/13 112/25/13
f 27/32/14 26/33/14 55/33/14 56/32/14
f 110/18/15 4/11/15 51/11/15 113/18/15
f 111/22/16 2/2/16 31/2/16 115/22/16
f 105/30/12 9/34/12 29/34/12 114/30/12
f 147/35/17 148/36/17 157/29/17 15/37/17
f 109/14/12 6/29/12 157/29/12 167/14/12
f 104/21/16 21/20/16 155/20/16 166/21/16
f 93/38/18 95/39/18 31/2/18 19/40/18
f 2/2/19 19/40/19 31/2/19
f 24/41/19 3/26/19 156/26/19
f 4/11/20 23/5/20 51/11/20
f 6/29/21 15/37/21 157/29/21
f 1/3/22 49/3/22 20/4/22
f 35/9/23 34/8/23 42/8/23 43/9/23
f 19/1/24 20/4/24 62/4/24 63/1/24
f 23/5/25 24/27/25 68/27/25 66/42/25
f 11/8/26 12/13/26 76/13/26 70/43/26
f 16/9/27 11/8/27 70/8/27 71/9/27
f 147/35/28 15/37/28 73/37/28 152/35/28
f 65/5/25 67/44/25 37/27/25 38/5/25
f 46/5/29 45/41/29 150/35/29 44/37/29 43/45/29 42/46/29 41/47/29 97/38/29 48/40/29 47/4/29
f 38/5/30 37/27/30 45/27/30 46/5/30
f 34/8/31 33/13/31 41/13/31 42/8/31
f 149/35/32 36/37/32 44/37/32 150/35/32
f 96/38/33 40/40/33 48/40/33 97/38/33
f 40/1/34 39/4/34 47/4/34 48/1/34
f 36/28/35 35/9/35 43/9/35 44/28/35
f 39/4/36 38/5/36 46/5/36 47/4/36
f 116/48/16 26/33/16 49/3/16 112/25/16
f 117/49/16 52/50/16 28/19/16 113/18/16
f 26/33/16 27/32/16 51/11/16 49/3/16
f 119/49/16 56/32/16 55/33/16 118/48/16
f 116/48/15 50/51/15 54/51/15 118/48/15
f 117/49/13 27/32/13 56/32/13 119/49/13
f 59/2/14 139/2/14 137/39/14 99/39/14
f 123/23/16 129/22/16 142/22/16 138/23/16
f 122/52/13 99/39/13 58/53/13 120/54/13
f 121/22/12 133/22/12 139/2/12 59/2/12
f 98/55/29 135/55/29 134/55/29 60/55/29
f 8/12/21 30/12/21 12/47/21
f 100/38/37 64/56/37 40/40/37 96/38/37
f 69/57/26 75/58/26 33/13/26 34/8/26
f 15/28/38 16/9/38 71/9/38 73/28/38
f 74/28/38 72/59/38 35/9/38 36/28/38
f 72/9/27 69/8/27 34/8/27 35/9/27
f 151/60/28 74/37/28 36/37/28 149/35/28
f 93/38/37 19/40/37 63/40/37 101/38/37
f 64/61/24 61/62/24 39/4/24 40/1/24
f 62/6/39 66/5/39 90/5/39 92/6/39
f 73/28/40 71/9/40 87/9/40 81/28/40
f 151/60/41 67/63/41 83/63/41 153/60/41
f 72/59/42 74/28/42 82/28/42 88/59/42
f 65/5/43 61/4/43 91/4/43 89/5/43
f 66/42/44 68/27/44 84/27/44 90/42/44
f 101/38/45 63/40/45 77/40/45 103/38/45
f 70/43/46 76/13/46 80/13/46 86/43/46
f 61/4/2 65/5/2 38/5/2 39/4/2
f 102/38/47 79/64/47 80/47/47 103/38/47
f 153/60/48 83/63/48 84/41/48 154/35/48
f 79/58/49 85/57/49 86/43/49 80/13/49
f 88/59/50 82/28/50 81/28/50 87/9/50
f 85/8/51 88/9/51 87/9/51 86/8/51
f 83/44/52 89/5/52 90/42/52 84/27/52
f 89/5/53 91/4/53 92/6/53 90/5/53
f 91/62/54 78/61/54 77/1/54 92/4/54
f 69/8/55 72/9/55 88/9/55 85/8/55
f 152/35/56 73/37/56 81/37/56 154/35/56
f 61/62/57 64/61/57 78/61/57 91/62/57
f 71/9/58 70/8/58 86/8/58 87/9/58
f 75/58/59 69/57/59 85/57/59 79/58/59
f 63/1/60 62/4/60 92/4/60 77/1/60
f 100/38/61 75/64/61 79/64/61 102/38/61
f 67/44/62 65/5/62 89/5/62 83/44/62
f 64/56/61 100/38/61 102/38/61 78/56/61
f 78/56/47 102/38/47 103/38/47 77/40/47
f 76/47/45 101/38/45 103/38/45 80/47/45
f 12/47/37 93/38/37 101/38/37 76/47/37
f 75/64/37 100/38/37 96/38/37 33/47/37
f 120/30/16 131/30/16 136/34/16 57/34/16
f 121/22/13 59/2/13 99/39/13 122/52/13
f 125/65/12 130/30/12 143/30/12 145/65/12
f 99/39/14 137/39/14 132/53/14 58/53/14
f 33/47/33 96/38/33 97/38/33 41/47/33
f 12/47/18 30/53/18 95/39/18 93/38/18
f 128/55/14 123/55/14 138/55/14 141/55/14
f 60/23/13 121/22/13 122/52/13 98/66/13
f 57/55/29 136/55/29 135/55/29 98/55/29
f 60/23/12 134/23/12 133/22/12 121/22/12
f 98/66/13 122/52/13 120/54/13 57/67/13
f 130/30/12 124/34/12 144/34/12 143/30/12
f 52/50/13 117/49/13 119/49/13 53/50/13
f 26/33/15 116/48/15 118/48/15 55/33/15
f 53/50/16 119/49/16 118/48/16 54/51/16
f 27/32/16 117/49/16 113/18/16 51/11/16
f 50/51/16 116/48/16 112/25/16 25/24/16
f 3/26/16 104/21/16 166/21/16 156/26/16
f 14/15/12 109/14/12 167/14/12 158/15/12
f 8/12/12 105/30/12 114/30/12 30/12/12
f 18/23/16 111/22/16 115/22/16 32/23/16
f 22/19/15 110/18/15 113/18/15 28/19/15
f 1/3/13 107/25/13 112/25/13 49/3/13
f 10/68/12 108/31/12 106/17/12 13/16/12
f 9/34/11 105/30/11 108/31/11 10/68/11
f 2/2/8 111/22/8 107/25/8 1/3/8
f 4/11/7 110/18/7 104/21/7 3/26/7
f 6/29/6 109/14/6 106/17/6 5/10/6
f 30/12/13 114/30/13 130/30/13 125/65/13
f 32/23/13 115/22/13 129/22/13 123/23/13
f 29/55/13 94/55/13 128/55/13 124/55/13
f 31/2/13 95/39/13 127/39/13 126/2/13
f 115/22/13 31/2/13 126/2/13 129/22/13
f 95/39/13 30/53/13 125/53/13 127/39/13
f 114/30/13 29/34/13 124/34/13 130/30/13
f 94/55/13 32/55/13 123/55/13 128/55/13
f 141/55/13 138/55/13 134/55/13 135/55/13
f 143/30/13 144/34/13 136/34/13 131/30/13
f 140/39/13 145/53/13 132/53/13 137/39/13
f 142/22/13 146/2/13 139/2/13 133/22/13
f 146/2/13 140/39/13 137/39/13 139/2/13
f 144/55/13 141/55/13 135/55/13 136/55/13
f 138/23/13 142/22/13 133/22/13 134/23/13
f 145/65/13 143/30/13 131/30/13 132/12/13
f 124/55/14 128/55/14 141/55/14 144/55/14
f 126/2/29 127/39/29 140/39/29 146/2/29
f 129/22/16 126/2/16 146/2/16 142/22/16
f 127/39/29 125/53/29 145/53/29 140/39/29
f 58/12/16 132/12/16 131/30/16 120/30/16
f 68/41/56 152/35/56 154/35/56 84/41/56
f 82/37/48 153/60/48 154/35/48 81/37/48
f 74/37/41 151/60/41 153/60/41 82/37/41
f 67/63/28 151/60/28 149/35/28 37/41/28
f 37/41/32 149/35/32 150/35/32 45/41/32
f 24/41/28 147/35/28 152/35/28 68/41/28
f 24/41/17 156/26/17 148/36/17 147/35/17
f 161/2/14 187/2/14 185/39/14 165/39/14
f 171/23/12 177/22/12 190/22/12 186/23/12
f 170/52/15 165/39/15 160/53/15 168/54/15
f 169/22/16 181/22/16 187/2/16 161/2/16
f 164/55/29 183/55/29 182/55/29 162/55/29
f 168/30/12 179/30/12 184/34/12 159/34/12
f 169/22/15 161/2/15 165/39/15 170/52/15
f 173/65/16 178/30/16 191/30/16 193/65/16
f 165/39/14 185/39/14 180/53/14 160/53/14
f 176/55/14 171/55/14 186/55/14 189/55/14
f 162/23/15 169/22/15 170/52/15 164/66/15
f 159/55/29 184/55/29 183/55/29 164/55/29
f 162/23/16 182/23/16 181/22/16 169/22/16
f 164/66/15 170/52/15 168/54/15 159/67/15
f 178/30/16 172/34/16 192/34/16 191/30/16
f 156/12/15 166/30/15 178/30/15 173/65/15
f 158/23/15 167/22/15 177/22/15 171/23/15
f 155/55/15 163/55/15 176/55/15 172/55/15
f 157/2/15 148/39/15 175/39/15 174/2/15
f 167/22/15 157/2/15 174/2/15 177/22/15
f 148/39/15 156/53/15 173/53/15 175/39/15
f 166/30/15 155/34/15 172/34/15 178/30/15
f 163/55/15 158/55/15 171/55/15 176/55/15
f 189/55/15 186/55/15 182/55/15 183/55/15
f 191/30/15 192/34/15 184/34/15 179/30/15
f 188/39/15 193/53/15 180/53/15 185/39/15
f 190/22/15 194/2/15 187/2/15 181/22/15
f 194/2/15 188/39/15 185/39/15 187/2/15
f 192/55/15 189/55/15 183/55/15 184/55/15
f 186/23/15 190/22/15 181/22/15 182/23/15
f 193/65/15 191/30/15 179/30/15 180/12/15
f 172/55/14 176/55/14 189/55/14 192/55/14
f 174/2/29 175/39/29 188/39/29 194/2/29
f 177/22/12 174/2/12 194/2/12 190/22/12
f 175/39/29 173/53/29 193/53/29 188/39/29
f 160/12/12 180/12/12 179/30/12 168/30/12
