# Blender 4.4.3
# www.blender.org
mtllib Mercona_hut_1_interior.mtl
o Mercona_hut_1_interior
v -2.839220 3.714158 2.085939 0.1333 0.1255 0.2039
v -0.997929 3.714158 3.927231 0.1333 0.1255 0.2039
v 5.015241 3.714158 2.085939 0.1333 0.1255 0.2039
v 3.173949 3.714158 3.927231 0.1333 0.1255 0.2039
v 2.819177 0.000000 3.783265 0.0902 0.0353 0.0510
v 4.611742 0.000000 1.938276 0.1098 0.0431 0.0627
v 4.887771 4.762012 2.018233 0.2000 0.0863 0.1137
v 3.106243 4.762012 3.799761 0.2000 0.0863 0.1137
v -2.692269 0.000000 1.731166 0.0902 0.0353 0.0510
v -0.643156 0.000000 3.780279 0.0902 0.0353 0.0510
v -0.930223 4.762012 3.799761 0.2000 0.0863 0.1137
v -2.711750 4.762012 2.018233 0.2000 0.0863 0.1137
v -6.408947 0.000000 2.085939 0.2432 0.0118 0.2745
v -6.408947 3.016430 1.028081 0.1333 0.1255 0.2039
v 2.982064 5.955590 3.565965 0.2000 0.0863 0.1137
v 4.653975 5.955590 1.894054 0.2000 0.0863 0.1137
v -2.477955 5.955590 1.894054 0.2000 0.0863 0.1137
v -0.806044 5.955590 3.565965 0.2000 0.0863 0.1137
v 1.729671 8.020208 1.208065 0.1333 0.1255 0.2039
v 2.296075 8.020208 0.641661 0.1333 0.1255 0.2039
v -0.120055 8.020208 0.641661 0.1333 0.1255 0.2039
v 0.446349 8.020208 1.208065 0.1333 0.1255 0.2039
v -6.408947 3.714158 2.085939 0.1333 0.1255 0.2039
v -6.408947 0.000000 1.028081 0.2432 0.0118 0.2745
v -2.572089 5.641436 1.944053 0.5451 0.2980 0.0824
v -2.617616 5.076165 1.968234 0.5451 0.2980 0.0824
v -0.880224 5.076165 3.705626 0.5451 0.3019 0.0941
v -0.856043 5.641436 3.660100 0.5373 0.2941 0.0980
v 4.748110 5.641436 1.944053 0.5569 0.3176 0.1176
v 4.793636 5.076165 1.968234 0.5451 0.2980 0.0824
v 3.032063 5.641436 3.660100 0.5451 0.2980 0.0824
v 3.056244 5.076165 3.705626 0.3451 0.1843 0.1059
v -0.963882 5.095917 3.906433 0.5451 0.3019 0.0941
v -0.938852 5.661180 3.861259 0.2000 0.0863 0.1137
v 3.114872 5.661180 3.861259 0.2000 0.0863 0.1137
v 3.139902 5.095917 3.906433 0.5451 0.2980 0.0824
v 4.949268 5.661180 2.026862 0.2000 0.0863 0.1137
v 4.994443 5.095917 2.051892 0.5451 0.2980 0.0824
v -2.773249 5.661180 2.026862 0.2000 0.0863 0.1137
v -2.818423 5.095917 2.051892 0.5451 0.2980 0.0824
v 3.173949 1.857079 3.927231 0.6354 0.0941 0.2235
v -2.839220 1.857079 2.085939 0.6354 0.0941 0.2235
v 5.015241 1.857079 2.085939 0.6354 0.0941 0.2235
v -0.997929 1.857079 3.927231 0.6354 0.0941 0.2235
v -6.408947 1.857079 2.085939 0.6354 0.0941 0.2235
v -6.408947 1.508215 1.028081 0.6354 0.0941 0.2235
v -2.711750 4.762012 0.000000 0.2000 0.0863 0.1137
v -6.408947 3.714158 0.000000 0.1333 0.1255 0.2039
v -2.477955 5.955590 0.000000 0.2000 0.0863 0.1216
v -0.120055 8.020208 0.000000 0.1333 0.1255 0.2039
v -6.408947 3.016430 0.000000 0.1333 0.1255 0.2039
v -2.572089 5.641436 0.000000 0.5451 0.2980 0.0824
v -2.617616 5.076165 0.000000 0.5451 0.2980 0.0824
v -2.773249 5.661180 0.000000 0.2000 0.0863 0.1137
v -2.818423 5.095917 0.000000 0.5451 0.2980 0.0824
v 5.015240 0.000000 0.000000 0.2432 0.0118 0.2745
v 4.887771 4.762012 0.000000 0.2000 0.0863 0.1137
v 5.015241 3.714158 0.000000 0.1333 0.1255 0.2039
v 4.653975 5.955590 0.000000 0.2000 0.0863 0.1137
v 2.296075 8.020208 0.000000 0.1333 0.1255 0.2039
v 4.748110 5.641436 0.000000 0.5569 0.3176 0.1176
v 4.793636 5.076165 0.000000 0.5451 0.2980 0.0824
v 4.949268 5.661180 0.000000 0.2000 0.0863 0.1137
v 4.994443 5.095917 0.000000 0.5451 0.2980 0.0824
v 5.015241 1.857079 0.000000 0.6354 0.0941 0.2235
v -2.661752 0.000000 0.000000 0.2432 0.0118 0.2745
v -6.408947 0.000000 0.000000 0.2432 0.0118 0.2745
v 4.962922 0.000000 2.085938 0.2432 0.0118 0.2745
v 3.173949 0.000000 3.927231 0.2432 0.0118 0.2745
v -0.997929 0.000000 3.927231 0.2432 0.0157 0.2745
v -2.839220 0.000000 2.085939 0.2432 0.0118 0.2745
v -6.054174 0.000000 1.731166 0.0902 0.0353 0.0510
v -6.054174 0.000000 0.354772 0.2000 0.0863 0.1137
v 4.651458 0.000000 0.354772 0.2000 0.0863 0.1137
v -2.661752 0.000000 0.354772 0.2000 0.0863 0.1137
vn 0.7011 -0.1306 -0.7011
vn -0.7011 -0.1306 -0.7011
vn 0.7071 -0.0000 -0.7071
vn -0.7071 -0.0000 -0.7071
vn -0.0000 -0.0000 -1.0000
vn -0.0000 -0.0645 -0.9979
vn -0.6588 -0.7523 -0.0000
vn 0.6726 -0.3086 -0.6726
vn -0.6726 -0.3086 -0.6726
vn -0.9579 -0.2870 -0.0000
vn -0.0000 -1.0000 -0.0000
vn -0.4447 -0.7775 -0.4447
vn 0.4447 -0.7775 -0.4447
vn 1.0000 -0.0000 -0.0000
vn -0.0000 1.0000 -0.0000
vn -0.0000 -0.7523 -0.6588
vn -0.0000 -0.2870 -0.9579
vn -0.0977 -0.9952 -0.0000
vn -0.0691 0.9952 -0.0691
vn -0.0000 0.9952 -0.0979
vn -0.7044 -0.0875 -0.7044
vn 0.9968 -0.0797 -0.0000
vn 0.7044 -0.0875 -0.7044
vn -0.0692 -0.9952 0.0692
vn -0.0979 0.9952 -0.0000
vn 0.0692 -0.9952 0.0692
vn 0.0691 0.9952 -0.0691
vn -0.0000 -0.0797 -0.9968
vn -0.7121 0.0100 -0.7020
vn -0.0000 -0.9952 0.0977
vn 0.9579 -0.2870 -0.0000
vn 0.0979 0.9952 -0.0000
vn 0.6588 -0.7523 -0.0000
vn 0.2727 -0.9621 -0.0000
vn -0.9998 0.0141 -0.0125
vn 0.0977 -0.9952 -0.0000
vn -0.9968 -0.0797 -0.0000
vn -1.0000 -0.0000 -0.0000
vn -0.9927 -0.1208 -0.0000
vn -0.0000 -0.1208 -0.9927
vt 0.625000 0.808607
vt 0.477163 0.808607
vt 0.477163 0.691393
vt 0.625000 0.691393
vt 0.477163 0.000000
vt 0.625000 0.000000
vt 0.625000 0.058607
vt 0.477163 0.058607
vt 0.426082 0.808607
vt 0.375000 0.808607
vt 0.375000 0.691393
vt 0.426082 0.691393
vt 0.426082 0.000000
vt 0.426082 0.058607
vt 0.625000 0.125000
vt 0.625000 0.058607
vt 0.625000 0.625000
vt 0.875000 0.625000
vt 0.875000 0.691393
vt 0.816393 0.750000
vt 0.683607 0.750000
vt 0.426082 0.669185
vt 0.457971 0.669185
vt 0.375949 0.114720
vt 0.376892 0.689204
vt 0.311221 0.671080
vt 0.383135 0.077534
vt 0.625000 0.058607
vt 0.625000 0.000000
vt 0.816393 0.750000
vt 0.683607 0.750000
vt 0.625000 0.808607
vt 0.625000 0.691393
vt 0.625000 0.691393
vt 0.394192 0.669185
vt 0.375000 0.000000
vt 0.375000 0.058607
vt 0.457971 0.625000
vt 0.477163 0.625000
vt 0.426082 0.125000
vt 0.375000 0.125000
vt 0.477163 0.125000
vt 0.376861 0.682200
vt 0.386319 0.436301
vt 0.384009 0.679421
vt 0.376417 0.689754
vt 0.381725 0.683612
vt 0.388752 0.496115
vt 0.382857 0.682302
vt 0.385848 0.678840
s 0
usemtl vertex_color
f 11/1/1 2/2/1 1/3/1 12/4/1
f 4/5/2 8/6/2 7/7/2 3/8/2
f 44/9/3 70/10/3 71/11/3 42/12/3
f 41/13/4 4/5/4 3/8/4 43/14/4
f 42/12/5 71/11/5 13/11/5 45/12/5
f 1/3/6 23/3/6 12/4/6
f 59/15/7 16/7/7 20/7/7 60/15/7
f 11/1/8 12/4/8 26/4/8 27/1/8
f 7/7/9 8/6/9 32/6/9 30/16/9
f 57/15/10 7/7/10 30/7/10 62/15/10
f 50/17/11 60/18/11 20/19/11 19/20/11 22/21/11 21/4/11
f 16/7/12 15/6/12 19/6/12 20/7/12
f 18/1/13 17/4/13 21/4/13 22/1/13
f 46/22/14 14/23/14 23/3/14 45/12/14
f 6/24/15 9/25/15 10/26/15 5/27/15
f 15/20/16 18/21/16 22/21/16 19/20/16
f 29/28/9 31/29/9 15/6/9 16/7/9
f 61/15/10 29/7/10 16/7/10 59/15/10
f 31/30/17 28/31/17 18/21/17 15/20/17
f 28/32/8 25/33/8 17/4/8 18/1/8
f 52/17/18 25/4/18 39/4/18 54/17/18
f 8/20/17 11/21/17 27/21/17 32/20/17
f 30/16/19 32/6/19 36/6/19 38/16/19
f 32/20/20 27/21/20 33/21/20 36/20/20
f 35/29/21 37/28/21 38/16/21 36/6/21
f 54/17/22 39/4/22 40/34/22 55/17/22
f 39/33/23 34/32/23 33/1/23 40/4/23
f 25/33/24 28/32/24 34/32/24 39/33/24
f 62/15/25 30/7/25 38/7/25 64/15/25
f 31/29/26 29/28/26 37/28/26 35/29/26
f 27/1/27 26/4/27 40/4/27 33/1/27
f 34/31/28 35/30/28 36/20/28 33/21/28
f 24/35/14 46/22/14 45/12/14 13/11/14
f 1/3/5 42/12/5 45/12/5 23/3/5
f 69/36/29 41/13/29 43/14/29 68/37/29
f 2/2/3 44/9/3 42/12/3 1/3/3
f 28/31/30 31/30/30 35/30/30 34/31/30
f 25/4/31 52/17/31 49/17/31 17/4/31
f 26/34/32 53/17/32 55/17/32 40/34/32
f 14/23/14 51/38/14 48/39/14 23/3/14
f 17/4/33 49/17/33 50/17/33 21/4/33
f 12/4/34 23/3/34 48/39/34 47/17/34
f 12/4/31 47/17/31 53/17/31 26/34/31
f 68/37/35 43/14/35 65/40/35 56/41/35
f 29/7/36 61/15/36 63/15/36 37/7/36
f 37/7/37 63/15/37 64/15/37 38/7/37
f 43/14/38 3/8/38 58/42/38 65/40/38
f 3/8/39 7/7/39 57/15/39 58/42/39
f 9/43/15 6/24/15 74/44/15 75/45/15
f 72/46/15 9/25/15 75/45/15 73/47/15
f 5/27/15 69/36/15 68/37/15 6/24/15
f 9/25/15 71/11/15 70/10/15 10/26/15
f 72/46/15 13/11/15 71/11/15 9/25/15
f 11/1/40 8/6/40 4/5/40 2/2/40
f 41/13/5 44/9/5 2/2/5 4/5/5
f 44/9/5 41/13/5 69/36/5 70/10/5
f 10/26/15 70/10/15 69/36/15 5/27/15
f 6/24/15 68/37/15 56/48/15 74/44/15
f 73/47/15 67/49/15 13/11/15 72/46/15
f 75/45/15 66/50/15 67/49/15 73/47/15
f 74/44/15 56/48/15 66/50/15 75/45/15
o Mercona_hut_3_interior.002
v -6.408947 3.016430 1.028081 0.2000 0.0863 0.1137
v -6.408947 0.000000 1.028081 0.2000 0.0863 0.1137
v -6.408947 1.508215 1.028081 0.2000 0.0863 0.1137
v -2.711751 4.762012 0.000000 0.2000 0.0863 0.1137
v -6.408947 3.714158 0.000000 0.2000 0.0863 0.1137
v -2.477956 5.955590 0.000000 0.2000 0.0863 0.1137
v -0.120055 8.020208 0.000000 0.2000 0.0863 0.1137
v -6.408947 3.016430 0.000000 0.2000 0.0863 0.1137
v -2.572090 5.641436 0.000000 0.2000 0.0863 0.1137
v -2.617617 5.076165 0.000000 0.2000 0.0863 0.1137
v -2.773249 5.661180 0.000000 0.2000 0.0863 0.1137
v -2.818424 5.095917 0.000000 0.2000 0.0863 0.1137
v 5.015240 0.000000 0.000000 0.2000 0.0863 0.1137
v 4.887770 4.762012 0.000000 0.2000 0.0863 0.1137
v 5.015240 3.714158 0.000000 0.2000 0.0863 0.1137
v 4.653975 5.955590 0.000000 0.2000 0.0863 0.1137
v 2.296074 8.020208 0.000000 0.2000 0.0863 0.1137
v 4.748109 5.641436 0.000000 0.2000 0.0863 0.1137
v 4.793635 5.076165 0.000000 0.2000 0.0863 0.1137
v 4.949268 5.661180 0.000000 0.2000 0.0863 0.1137
v 4.994442 5.095917 0.000000 0.2000 0.0863 0.1137
v 5.015240 1.857079 0.000000 0.2000 0.0863 0.1137
v -2.661753 0.000000 0.000000 0.2000 0.0863 0.1137
v -6.408947 0.000000 0.000000 0.2000 0.0863 0.1137
v -3.094102 4.930093 0.000000 0.9215 0.4941 0.2078
v -6.788079 3.963285 0.000000 0.9215 0.4941 0.2078
v -2.739552 6.068969 0.000000 0.9215 0.4941 0.2078
v -0.189966 8.301430 0.000000 0.9215 0.4941 0.2078
v -6.788079 3.016430 0.000000 0.9215 0.4941 0.2078
v -2.808115 5.803390 0.000000 0.9215 0.4941 0.2078
v -3.063874 4.993773 -0.000000 0.9176 0.4902 0.2078
v -3.020516 5.760847 0.000000 0.9215 0.4941 0.2078
v -3.173667 5.137802 -0.000000 0.9215 0.4941 0.2078
v 5.362802 -0.370780 0.000000 0.9215 0.4941 0.2078
v 5.224969 4.778359 0.000000 0.9215 0.4941 0.2078
v 5.362802 3.645320 0.000000 0.9215 0.4941 0.2078
v 4.972168 6.068969 0.000000 0.9215 0.4941 0.2078
v 2.422583 8.301430 0.000000 0.9215 0.4941 0.2078
v 5.073955 5.729276 0.000000 0.9215 0.4941 0.2078
v 5.123182 5.118051 0.000000 0.9215 0.4941 0.2078
v 5.291468 5.750624 0.000000 0.9215 0.4941 0.2078
v 5.340314 5.139408 0.000000 0.9215 0.4941 0.2078
v 5.362802 1.637269 0.000000 0.9215 0.4941 0.2078
v -2.938291 -0.370780 0.000000 0.9215 0.4941 0.2078
v -6.788079 -0.370780 0.000000 0.5608 0.2980 0.1530
v -6.788079 3.016430 1.028081 0.9215 0.4941 0.2078
v -6.788079 0.000000 1.028081 0.9215 0.4941 0.2078
v -6.788079 1.508215 1.028081 0.9215 0.4941 0.2078
v -6.788079 0.000000 0.000000 0.9215 0.4941 0.2078
v -6.408947 3.714158 0.443606 0.2000 0.0863 0.1137
v -3.094102 4.930093 0.443606 0.9215 0.4941 0.2078
v -6.788079 3.963285 0.443606 0.9215 0.4941 0.2078
v -2.739552 6.068969 0.443606 0.9215 0.4941 0.2078
v -0.189966 8.301430 0.443606 0.9215 0.4941 0.2078
v -6.788079 3.016430 0.443606 0.9215 0.4941 0.2078
v -2.808115 5.803390 0.443606 0.9215 0.4941 0.2078
v -3.063874 4.993773 0.443606 0.9176 0.4902 0.2078
v -3.020516 5.760847 0.443606 0.9215 0.4941 0.2078
v -3.173667 5.137802 0.443606 0.9215 0.4941 0.2078
v 5.362802 -0.370780 0.443606 0.9215 0.4941 0.2078
v 5.224969 4.778359 0.443606 0.9215 0.4941 0.2078
v 5.362802 3.645320 0.443606 0.9215 0.4941 0.2078
v 4.972168 6.068969 0.443606 0.9215 0.4941 0.2078
v 2.422583 8.301430 0.443606 0.9215 0.4941 0.2078
v 5.073955 5.729276 0.443606 0.9215 0.4941 0.2078
v 5.123182 5.118051 0.443606 0.9215 0.4941 0.2078
v 5.291468 5.750624 0.443606 0.9215 0.4941 0.2078
v 5.340314 5.139408 0.443606 0.9215 0.4941 0.2078
v 5.362802 1.637269 0.443606 0.9215 0.4941 0.2078
v -2.938291 -0.370780 0.443606 0.9215 0.4941 0.2078
v -6.788079 -0.370780 0.443606 0.5608 0.2980 0.1530
v -6.788079 3.016430 1.471687 0.9215 0.4941 0.2078
v -6.788079 0.000000 1.471687 0.9215 0.4941 0.2078
v -6.788079 1.508215 1.471687 0.9215 0.4941 0.2078
v -6.788079 0.000000 0.443606 0.9215 0.4941 0.2078
vn -0.0000 -0.0000 -1.0000
vn -0.0000 -0.0000 1.0000
vn -0.0000 -1.0000 -0.0000
vn -0.0000 1.0000 -0.0000
vn 0.9579 0.2870 -0.0000
vn -0.2532 0.9674 -0.0000
vn 0.6588 0.7523 -0.0000
vn -0.9034 0.4288 -0.0000
vn -0.5492 -0.8357 -0.0000
vn -0.9711 0.2387 -0.0000
vn 1.0000 -0.0000 -0.0000
vn -0.9683 0.2500 -0.0000
vn 0.9927 0.1208 -0.0000
vn 0.0979 -0.9952 -0.0000
vn -0.1964 0.9805 -0.0000
vn -1.0000 -0.0000 -0.0000
vn -0.0977 0.9952 -0.0000
vn -0.7953 -0.6062 -0.0000
vn 0.9968 0.0797 -0.0000
vn -0.6588 0.7523 -0.0000
vt 0.875000 0.625000
vt 0.625000 0.625000
vt 0.477163 0.625000
vt 0.457971 0.625000
vt 0.625000 0.125000
vt 0.426082 0.125000
vt 0.477163 0.125000
vt 0.382857 0.682302
vt 0.385848 0.678840
vt 0.375000 0.125000
vt 0.388752 0.496115
vt 0.457971 0.669185
vt 0.426082 0.669185
vt 0.394192 0.669185
vt 0.379694 0.685962
s 0
usemtl vertex_color
f 92/51/41 82/52/41 103/52/41 113/51/41
f 80/53/41 83/54/41 104/54/41 101/53/41
f 95/55/41 93/55/41 114/55/41 116/55/41
f 82/52/41 81/52/41 102/52/41 103/52/41
f 96/55/41 95/55/41 116/55/41 117/55/41
f 93/55/41 91/55/41 112/55/41 114/55/41
f 86/52/41 87/52/41 108/52/41 107/52/41
f 79/52/41 80/53/41 101/53/41 100/52/41
f 89/55/41 94/55/41 115/55/41 110/55/41
f 81/52/41 84/52/41 105/52/41 102/52/41
f 85/52/41 79/52/41 100/52/41 106/52/41
f 91/55/41 92/55/41 113/55/41 112/55/41
f 84/52/41 86/52/41 107/52/41 105/52/41
f 97/56/41 90/57/41 111/57/41 118/56/41
f 99/58/41 98/59/41 119/59/41 120/58/41
f 87/52/41 85/52/41 106/52/41 108/52/41
f 88/60/41 97/56/41 118/56/41 109/60/41
f 90/57/41 89/55/41 110/55/41 111/57/41
f 98/59/41 88/61/41 109/61/41 119/59/41
f 94/55/42 96/55/42 117/55/42 115/55/42
f 76/62/41 78/63/41 123/63/41 121/62/41
f 78/63/41 77/64/41 122/64/41 123/63/41
f 83/54/43 76/62/43 121/62/43 104/54/43
f 77/65/44 99/58/44 124/58/44 122/65/44
f 99/58/41 120/58/41 124/58/41
f 110/55/45 115/55/45 141/55/45 136/55/45
f 100/52/46 101/53/46 127/53/46 126/52/46
f 112/55/47 113/55/47 139/55/47 138/55/47
f 106/52/48 100/52/48 126/52/48 132/52/48
f 101/53/49 80/53/49 125/53/49 127/53/49
f 107/52/50 108/52/50 134/52/50 133/52/50
f 118/56/51 111/57/51 137/57/51 144/56/51
f 109/60/51 118/56/51 144/56/51 135/60/51
f 102/52/52 105/52/52 131/52/52 128/52/52
f 111/57/53 110/55/53 136/55/53 137/57/53
f 115/55/54 117/55/54 143/55/54 141/55/54
f 105/52/55 107/52/55 133/52/55 131/52/55
f 113/51/44 103/52/44 129/52/44 139/51/44
f 124/58/56 120/58/56 146/58/56 150/58/56
f 116/55/57 114/55/57 140/55/57 142/55/57
f 108/52/58 106/52/58 132/52/58 134/52/58
f 120/58/43 119/59/43 145/59/43 146/58/43
f 117/55/59 116/55/59 142/55/59 143/55/59
f 121/62/56 123/63/56 149/63/56 147/62/56
f 101/53/56 104/54/56 130/54/56 127/53/56
f 119/59/43 109/61/43 135/61/43 145/59/43
f 114/55/45 112/55/45 138/55/45 140/55/45
f 123/63/56 122/64/56 148/64/56 149/63/56
f 103/52/60 102/52/60 128/52/60 129/52/60
