# Blender 4.4.3
# www.blender.org
mtllib Mercona_hut_2.mtl
o Mercona_hut_2
v 3.927231 3.714158 2.085939 0.5451 0.2980 0.0824
v 2.085939 3.714158 3.927231 0.5451 0.2980 0.0824
v 2.085939 3.714158 -3.927231 0.9215 0.4941 0.2078
v 3.927231 3.714158 -2.085939 0.9215 0.4941 0.2078
v -3.927231 3.714158 -2.085939 0.9215 0.4941 0.2078
v -2.085939 3.714158 -3.927231 0.9215 0.4941 0.2078
v -3.927231 3.714158 2.085939 0.9215 0.4941 0.2078
v -2.085939 3.714158 3.927231 0.9215 0.4941 0.2078
v -2.085939 0.000000 3.927231 0.2000 0.0863 0.1137
v -3.927231 0.000000 2.085939 0.2000 0.0863 0.1137
v -3.799761 4.762012 2.018233 0.8666 0.7137 0.5294
v -2.018233 4.762012 3.799761 0.8745 0.7255 0.5098
v -3.927231 0.000000 -2.085939 0.2000 0.0863 0.1137
v -2.085939 0.000000 -3.927231 0.2000 0.0863 0.1137
v -2.018233 4.762012 -3.799761 0.8784 0.7294 0.4980
v -3.799761 4.762012 -2.018233 0.8666 0.7137 0.5294
v 3.927231 0.000000 2.085939 0.2000 0.0863 0.1137
v 2.085939 0.000000 3.927231 0.2314 0.1098 0.1216
v 2.018233 4.762012 3.799761 0.8666 0.7137 0.5294
v 3.799761 4.762012 2.018233 0.8666 0.7137 0.5294
v 2.085939 0.000000 -3.927231 0.2314 0.1098 0.1216
v 3.927231 0.000000 -2.085939 0.2000 0.0863 0.1137
v 3.799761 4.762012 -2.018233 0.8666 0.7137 0.5294
v 2.018233 4.762012 -3.799761 0.8666 0.7137 0.5294
v 7.496956 0.000000 2.085939 0.2000 0.0863 0.1137
v 7.496956 3.016430 1.028081 0.5451 0.2980 0.0824
v 7.496956 3.016430 -1.028081 0.5451 0.2980 0.0824
v 7.496956 0.000000 -2.085939 0.2000 0.0863 0.1137
v -2.085939 0.000000 7.000000 0.2000 0.0863 0.1137
v -2.085939 3.714158 7.000000 0.9137 0.4902 0.2039
v 2.085939 3.714158 7.000000 0.9215 0.4941 0.2078
v 2.085939 0.000000 7.000000 0.2000 0.0863 0.1137
v -1.894054 5.955590 3.565965 0.0431 0.1412 0.3451
v -3.565965 5.955590 1.894054 0.0431 0.1412 0.3451
v -3.565965 5.955590 -1.894054 0.0431 0.1412 0.3451
v -1.894054 5.955590 -3.565965 0.0431 0.1412 0.3451
v 1.894054 5.955590 -3.565965 0.0431 0.1412 0.3451
v 3.565965 5.955590 -1.894054 0.0431 0.1412 0.3451
v 3.565965 5.955590 1.894054 0.0431 0.1412 0.3451
v 1.894054 5.955590 3.565965 0.0431 0.1412 0.3451
v -0.641660 8.020208 1.208065 0.0706 0.5686 0.4196
v -1.208065 8.020208 0.641661 0.0706 0.5686 0.4196
v -1.208065 8.020208 -0.641660 0.0706 0.5686 0.4196
v -0.641660 8.020208 -1.208065 0.0706 0.5686 0.4196
v 0.641661 8.020208 -1.208065 0.0706 0.5686 0.4196
v 1.208065 8.020208 -0.641660 0.0706 0.5686 0.4196
v 1.208065 8.020208 0.641661 0.0706 0.5686 0.4196
v 0.641661 8.020208 1.208065 0.0706 0.5686 0.4196
v 7.496956 3.714158 2.085939 0.8902 0.4941 0.2432
v 7.496956 0.000000 1.028081 0.2000 0.0863 0.1137
v 7.496956 3.714158 -2.085939 0.8902 0.4941 0.2432
v 7.496956 0.000000 -1.028081 0.2000 0.0863 0.1137
v 7.134077 0.000000 -1.028081 0.2706 0.1569 0.2353
v 7.134077 0.000000 1.028081 0.2706 0.1569 0.2353
v 7.134077 3.016430 1.028081 0.2706 0.1569 0.2353
v 7.134077 3.016430 -1.028081 0.2706 0.1569 0.2353
v -1.042969 0.928540 6.800000 0.9215 0.7960 0.3490
v -1.042969 2.785619 6.800000 0.9215 0.7960 0.3490
v 1.042969 2.785619 6.800000 0.9215 0.7960 0.3490
v 1.042969 0.928540 6.800000 0.9215 0.7960 0.3490
v 3.660100 5.641436 1.944053 0.5451 0.2980 0.0824
v 3.705626 5.076165 1.968234 0.5451 0.2980 0.0824
v 1.968234 5.076165 3.705626 0.5451 0.3019 0.0941
v 1.944053 5.641436 3.660100 0.5373 0.2941 0.0980
v 3.660100 5.641436 -1.944053 0.5451 0.2980 0.0824
v 3.705626 5.076165 -1.968234 0.5451 0.2980 0.0824
v 1.944053 5.641436 -3.660100 0.5451 0.2980 0.0824
v 1.968234 5.076165 -3.705626 0.5451 0.3019 0.0941
v -3.660100 5.641436 1.944053 0.5569 0.3176 0.1176
v -3.705626 5.076165 1.968234 0.5451 0.2980 0.0824
v -3.705626 5.076165 -1.968234 0.5451 0.2980 0.0824
v -3.660100 5.641436 -1.944053 0.5569 0.3176 0.1176
v -1.968234 5.076165 -3.705626 0.5451 0.2980 0.0824
v -1.944053 5.641436 -3.660100 0.5451 0.2980 0.0824
v -1.944053 5.641436 3.660100 0.5451 0.2980 0.0824
v -1.968234 5.076165 3.705626 0.5451 0.2980 0.0824
v 2.051892 5.095917 3.906433 0.5451 0.3019 0.0941
v 2.026862 5.661180 3.861259 0.8666 0.7137 0.5294
v -2.026862 5.661180 3.861259 0.8666 0.7137 0.5294
v -2.051892 5.095917 3.906433 0.5451 0.2980 0.0824
v -2.051892 5.095917 -3.906433 0.5451 0.2980 0.0824
v -2.026862 5.661180 -3.861259 0.8666 0.7137 0.5294
v 2.026862 5.661180 -3.861259 0.8666 0.7137 0.5294
v 2.051892 5.095917 -3.906433 0.5451 0.3019 0.0941
v -3.861259 5.661180 2.026862 0.8666 0.7137 0.5294
v -3.906433 5.095917 2.051892 0.5451 0.2980 0.0824
v -3.906433 5.095917 -2.051892 0.5451 0.2980 0.0824
v -3.861259 5.661180 -2.026862 0.8666 0.7137 0.5294
v 3.861259 5.661180 -2.026862 0.8666 0.7137 0.5294
v 3.906433 5.095917 -2.051892 0.5451 0.2980 0.0824
v 3.861259 5.661180 2.026862 0.8666 0.7137 0.5294
v 3.906433 5.095917 2.051892 0.5451 0.2980 0.0824
v 0.000000 4.762012 3.799761 0.8666 0.7137 0.5294
v 0.000000 0.000000 7.000000 0.2000 0.0863 0.1137
v 0.000000 3.714158 7.000000 0.9176 0.4941 0.2078
v 0.000000 5.955590 3.565965 0.0431 0.1412 0.3451
v 0.000000 8.020208 1.208065 0.0706 0.5686 0.4196
v 0.000000 0.928540 6.800000 0.9215 0.7960 0.3490
v 0.000000 2.785619 6.800000 0.9215 0.7960 0.3490
v 0.000000 5.641436 3.660100 0.5176 0.2863 0.1333
v 0.000000 5.076165 3.705626 0.5451 0.3019 0.0902
v 0.000000 5.661180 3.861259 0.8666 0.7137 0.5294
v 0.000000 5.095917 3.906433 0.5451 0.3019 0.0902
v 2.085939 1.857079 -3.927231 0.5530 0.2863 0.1608
v -2.085939 1.857079 3.927231 0.5608 0.2902 0.1608
v -3.927231 1.857079 -2.085939 0.5608 0.2902 0.1608
v 3.927231 1.857079 2.085939 0.3725 0.1922 0.0980
v -3.927231 1.857079 2.085939 0.5608 0.2902 0.1608
v -2.085939 1.857079 -3.927231 0.5608 0.2902 0.1608
v 3.927231 1.857079 -2.085939 0.5530 0.2863 0.1608
v 2.085939 1.857079 3.927231 0.3882 0.2039 0.1020
v 7.496956 1.857079 2.085939 0.5451 0.2902 0.1804
v 7.496956 1.857079 -2.085939 0.5451 0.2902 0.1804
v -2.085939 1.857079 7.000000 0.5569 0.2902 0.1608
v 2.085939 1.857079 7.000000 0.5608 0.2902 0.1608
v 7.496956 1.508215 1.028081 0.3725 0.1922 0.0980
v 7.496956 1.508215 -1.028081 0.3725 0.1922 0.0980
v 7.134077 1.508215 1.028081 0.2706 0.1569 0.2353
v 7.134077 1.508215 -1.028081 0.2706 0.1569 0.2353
v -1.042969 1.857079 6.800000 0.9215 0.7960 0.3490
v 1.042969 1.857079 6.800000 0.9215 0.7960 0.3490
v 0.000000 1.857079 6.800000 0.8666 0.7137 0.5294
v 1.192119 0.795754 7.000000 0.8196 0.4353 0.1961
v -1.192119 0.795754 7.000000 0.8196 0.4353 0.1961
v -1.192119 2.918404 7.000000 0.9215 0.4941 0.2078
v 1.192119 2.918404 7.000000 0.9215 0.4980 0.2157
v 0.000000 2.918404 7.000000 0.9215 0.4980 0.2118
v 0.000000 0.795754 7.000000 0.8196 0.4353 0.1961
v 1.192119 1.857079 7.000000 0.8706 0.4706 0.2039
v -1.192119 1.857079 7.000000 0.8706 0.4667 0.2000
v -1.042969 1.857079 7.094082 0.4000 0.1922 0.2392
v -1.042969 2.785619 7.094082 0.4000 0.1922 0.2392
v 1.042969 1.857079 7.094082 0.4000 0.1922 0.2392
v 1.042969 0.928540 7.094082 0.4000 0.1922 0.2392
v 0.000000 0.928540 7.094082 0.4000 0.1922 0.2392
v -1.042969 0.928540 7.094082 0.4432 0.2196 0.2392
v 0.000000 2.785619 7.094082 0.4000 0.1922 0.2392
v 1.192119 0.795754 7.094082 0.7647 0.4628 0.2823
v 1.042969 2.785619 7.094082 0.4000 0.1922 0.2392
v 0.000000 2.918404 7.094082 0.7647 0.4628 0.2823
v 0.000000 0.795754 7.094082 0.7647 0.4628 0.2823
v 1.192119 1.857079 7.094082 0.7647 0.4628 0.2823
v -1.192119 1.857079 7.094082 0.7647 0.4628 0.2823
v -1.192119 0.795754 7.094082 0.7647 0.4628 0.2823
v -1.192119 2.918404 7.094082 0.7647 0.4628 0.2823
v 1.192119 2.918404 7.094082 0.7647 0.4628 0.2823
v 0.000000 4.762012 -3.799761 0.8745 0.7216 0.5137
v 0.000000 5.955590 -3.565965 0.0431 0.1412 0.3451
v 0.000000 8.020208 -1.208065 0.0706 0.5686 0.4196
v 0.000000 5.641436 -3.660100 0.5451 0.2980 0.0824
v 0.000000 5.076165 -3.705626 0.5451 0.3019 0.0902
v 0.000000 5.661180 -3.861259 0.8666 0.7137 0.5294
v 0.000000 5.095917 -3.906433 0.5451 0.3019 0.0902
v 0.000000 1.857079 -3.927231 0.5530 0.2863 0.1608
v 0.000000 3.714158 -3.927231 0.9215 0.4941 0.2078
v 0.000000 4.762012 -3.799761 0.8745 0.7216 0.5137
v 0.000000 0.000000 -3.927231 0.2157 0.0980 0.1176
vn 0.7011 0.1306 0.7011
vn 0.9579 0.2870 -0.0000
vn -0.9927 0.1208 -0.0000
vn 0.2727 0.9621 -0.0000
vn -0.7011 0.1306 0.7011
vn -0.7071 -0.0000 -0.7071
vn 0.7071 -0.0000 -0.7071
vn 0.7071 -0.0000 0.7071
vn 0.7011 0.1306 -0.7011
vn -0.7011 0.1306 -0.7011
vn -0.7071 -0.0000 0.7071
vn -1.0000 -0.0000 -0.0000
vn -0.0000 -0.0000 1.0000
vn -0.0000 -1.0000 -0.0000
vn -0.0000 -0.0000 -1.0000
vn 1.0000 -0.0000 -0.0000
vn -0.0000 0.9504 0.3112
vn 0.9979 0.0645 -0.0000
vn -0.0000 0.0645 -0.9979
vn -0.0000 0.0645 0.9979
vn -0.6588 0.7523 -0.0000
vn 0.6726 0.3086 0.6726
vn 0.6726 0.3086 -0.6726
vn -0.6726 0.3086 0.6726
vn -0.9579 0.2870 -0.0000
vn -0.0000 0.2870 -0.9579
vn -0.0000 1.0000 -0.0000
vn 0.4447 0.7775 -0.4447
vn -0.4447 0.7775 0.4447
vn -0.0000 0.7523 -0.6588
vn -0.0000 0.7523 0.6588
vn 0.4447 0.7775 0.4447
vn -0.4447 0.7775 -0.4447
vn 0.6588 0.7523 -0.0000
vn -0.9979 0.0645 -0.0000
vn -0.0000 0.2870 0.9579
vn -0.6726 0.3086 -0.6726
vn 0.0979 -0.9952 -0.0000
vn -0.0691 -0.9952 -0.0691
vn -0.0000 0.9952 0.0977
vn 0.0692 0.9952 0.0692
vn -0.0977 0.9952 -0.0000
vn 0.0691 -0.9952 -0.0691
vn -0.0000 -0.9952 0.0979
vn -0.0691 -0.9952 0.0691
vn -0.0000 0.0797 0.9968
vn -0.0000 0.0797 -0.9968
vn -0.7044 0.0875 0.7044
vn -0.7044 0.0875 -0.7044
vn -0.9968 0.0797 -0.0000
vn 0.7044 0.0875 -0.7044
vn 0.9968 0.0797 -0.0000
vn 0.7044 0.0875 0.7044
vn 0.0977 0.9952 -0.0000
vn -0.0000 -0.9952 -0.0979
vn -0.0692 0.9952 -0.0692
vn -0.0979 -0.9952 -0.0000
vn 0.0692 0.9952 -0.0692
vn 0.0691 -0.9952 0.0691
vn -0.0000 0.9952 -0.0977
vn -0.0692 0.9952 0.0692
vn -0.0000 0.1208 -0.9927
vt 0.625000 0.808607
vt 0.477163 0.808607
vt 0.477163 0.691393
vt 0.625000 0.691393
vt 0.625000 0.558607
vt 0.625000 0.691393
vt 0.477163 0.058607
vt 0.625000 0.058607
vt 0.625000 0.191393
vt 0.477163 0.191393
vt 0.477163 0.558607
vt 0.477163 0.000000
vt 0.625000 0.000000
vt 0.426082 0.308607
vt 0.375000 0.308607
vt 0.375000 0.191393
vt 0.426082 0.191393
vt 0.426082 0.558607
vt 0.375000 0.558607
vt 0.375000 0.441393
vt 0.426082 0.441393
vt 0.426082 0.808607
vt 0.375000 0.808607
vt 0.375000 0.691393
vt 0.426082 0.691393
vt 0.477163 0.441393
vt 0.625000 0.441393
vt 0.625000 0.308607
vt 0.477163 0.308607
vt 0.426082 0.000000
vt 0.426082 0.058607
vt 0.457971 0.580815
vt 0.457971 0.669185
vt 0.375000 0.000000
vt 0.750000 0.750000
vt 0.477163 0.875000
vt 0.683607 0.750000
vt 0.625000 0.558607
vt 0.625000 0.058607
vt 0.750000 0.500000
vt 0.816393 0.500000
vt 0.625000 0.441393
vt 0.683607 0.500000
vt 0.875000 0.558607
vt 0.875000 0.691393
vt 0.816393 0.750000
vt 0.426082 0.669185
vt 0.426082 0.580815
vt 0.394192 0.580815
vt 0.394192 0.669185
vt 0.426082 0.875000
vt 0.477163 0.941393
vt 0.426082 0.941393
vt 0.000000 0.000000
vt 0.683607 0.750000
vt 0.625000 0.058607
vt 0.625000 0.000000
vt 0.625000 0.191393
vt 0.750000 0.500000
vt 0.625000 0.808607
vt 0.625000 0.691393
vt 0.683607 0.500000
vt 0.816393 0.750000
vt 0.477163 0.000000
vt 0.375000 0.875000
vt 0.375000 0.941393
vt 0.375000 0.058607
vt 0.426082 0.375000
vt 0.375000 0.375000
vt 0.625000 0.375000
vt 0.477163 0.375000
s 0
usemtl vertex_color
f 19/1/1 2/2/1 1/3/1 20/4/1
f 20/4/2 23/5/2 66/5/2 62/6/2
f 7/7/3 11/8/3 16/9/3 5/10/3
f 20/4/4 49/3/4 51/11/4 23/5/4
f 8/12/5 12/13/5 11/8/5 7/7/5
f 109/14/6 14/15/6 13/16/6 106/17/6
f 110/18/7 22/19/7 21/20/7 104/21/7
f 111/22/8 18/23/8 17/24/8 107/25/8
f 23/5/9 4/11/9 3/26/9 24/27/9
f 15/28/10 6/29/10 5/10/10 16/9/10
f 105/30/11 8/12/11 7/7/11 108/31/11
f 108/31/12 7/7/12 5/10/12 106/17/12
f 107/25/13 17/24/13 25/24/13 112/25/13
f 27/32/14 26/33/14 55/33/14 56/32/14
f 110/18/15 4/11/15 51/11/15 113/18/15
f 111/22/16 2/2/16 31/2/16 115/22/16
f 105/30/12 9/34/12 29/34/12 114/30/12
f 93/35/17 95/36/17 31/2/17 19/37/17
f 2/2/18 19/37/18 31/2/18
f 4/11/19 23/5/19 51/11/19
f 1/3/20 49/3/20 20/4/20
f 35/9/21 34/8/21 42/8/21 43/9/21
f 19/1/22 20/4/22 62/4/22 63/1/22
f 23/5/23 24/27/23 68/27/23 66/38/23
f 11/8/24 12/13/24 76/13/24 70/39/24
f 16/9/25 11/8/25 70/8/25 71/9/25
f 147/40/26 15/41/26 73/41/26 151/40/26
f 65/5/23 67/42/23 37/27/23 38/5/23
f 46/5/27 45/43/27 149/40/27 44/41/27 43/44/27 42/45/27 41/46/27 97/35/27 48/37/27 47/4/27
f 38/5/28 37/27/28 45/27/28 46/5/28
f 34/8/29 33/13/29 41/13/29 42/8/29
f 148/40/30 36/41/30 44/41/30 149/40/30
f 96/35/31 40/37/31 48/37/31 97/35/31
f 40/1/32 39/4/32 47/4/32 48/1/32
f 36/28/33 35/9/33 43/9/33 44/28/33
f 39/4/34 38/5/34 46/5/34 47/4/34
f 116/47/16 26/33/16 49/3/16 112/25/16
f 117/48/16 52/49/16 28/19/16 113/18/16
f 26/33/16 27/32/16 51/11/16 49/3/16
f 119/48/16 56/32/16 55/33/16 118/47/16
f 116/47/15 50/50/15 54/50/15 118/47/15
f 117/48/13 27/32/13 56/32/13 119/48/13
f 59/2/14 139/2/14 137/36/14 99/36/14
f 123/23/16 129/22/16 142/22/16 138/23/16
f 122/51/13 99/36/13 58/52/13 120/53/13
f 121/22/12 133/22/12 139/2/12 59/2/12
f 98/54/27 135/54/27 134/54/27 60/54/27
f 8/12/35 30/12/35 12/46/35
f 100/35/36 64/55/36 40/37/36 96/35/36
f 69/56/24 75/57/24 33/13/24 34/8/24
f 15/28/37 16/9/37 71/9/37 73/28/37
f 74/28/37 72/58/37 35/9/37 36/28/37
f 72/9/25 69/8/25 34/8/25 35/9/25
f 150/59/26 74/41/26 36/41/26 148/40/26
f 93/35/36 19/37/36 63/37/36 101/35/36
f 64/60/22 61/61/22 39/4/22 40/1/22
f 62/6/38 66/5/38 90/5/38 92/6/38
f 73/28/39 71/9/39 87/9/39 81/28/39
f 150/59/40 67/62/40 83/62/40 152/59/40
f 72/58/41 74/28/41 82/28/41 88/58/41
f 65/5/42 61/4/42 91/4/42 89/5/42
f 66/38/43 68/27/43 84/27/43 90/38/43
f 101/35/44 63/37/44 77/37/44 103/35/44
f 70/39/45 76/13/45 80/13/45 86/39/45
f 61/4/2 65/5/2 38/5/2 39/4/2
f 102/35/46 79/63/46 80/46/46 103/35/46
f 152/59/47 83/62/47 84/43/47 153/40/47
f 79/57/48 85/56/48 86/39/48 80/13/48
f 88/58/49 82/28/49 81/28/49 87/9/49
f 85/8/50 88/9/50 87/9/50 86/8/50
f 83/42/51 89/5/51 90/38/51 84/27/51
f 89/5/52 91/4/52 92/6/52 90/5/52
f 91/61/53 78/60/53 77/1/53 92/4/53
f 69/8/54 72/9/54 88/9/54 85/8/54
f 151/40/55 73/41/55 81/41/55 153/40/55
f 61/61/56 64/60/56 78/60/56 91/61/56
f 71/9/57 70/8/57 86/8/57 87/9/57
f 75/57/58 69/56/58 85/56/58 79/57/58
f 63/1/59 62/4/59 92/4/59 77/1/59
f 100/35/60 75/63/60 79/63/60 102/35/60
f 67/42/61 65/5/61 89/5/61 83/42/61
f 64/55/60 100/35/60 102/35/60 78/55/60
f 78/55/46 102/35/46 103/35/46 77/37/46
f 76/46/44 101/35/44 103/35/44 80/46/44
f 12/46/36 93/35/36 101/35/36 76/46/36
f 75/63/36 100/35/36 96/35/36 33/46/36
f 120/30/16 131/30/16 136/34/16 57/34/16
f 121/22/13 59/2/13 99/36/13 122/51/13
f 125/64/12 130/30/12 143/30/12 145/64/12
f 99/36/14 137/36/14 132/52/14 58/52/14
f 33/46/31 96/35/31 97/35/31 41/46/31
f 12/46/17 30/52/17 95/36/17 93/35/17
f 128/54/14 123/54/14 138/54/14 141/54/14
f 60/23/13 121/22/13 122/51/13 98/65/13
f 57/54/27 136/54/27 135/54/27 98/54/27
f 60/23/12 134/23/12 133/22/12 121/22/12
f 98/65/13 122/51/13 120/53/13 57/66/13
f 130/30/12 124/34/12 144/34/12 143/30/12
f 52/49/13 117/48/13 119/48/13 53/49/13
f 26/33/15 116/47/15 118/47/15 55/33/15
f 53/49/16 119/48/16 118/47/16 54/50/16
f 27/32/16 117/48/16 113/18/16 51/11/16
f 50/50/16 116/47/16 112/25/16 25/24/16
f 8/12/12 105/30/12 114/30/12 30/12/12
f 18/23/16 111/22/16 115/22/16 32/23/16
f 22/19/15 110/18/15 113/18/15 28/19/15
f 1/3/13 107/25/13 112/25/13 49/3/13
f 10/67/12 108/31/12 106/17/12 13/16/12
f 9/34/11 105/30/11 108/31/11 10/67/11
f 2/2/8 111/22/8 107/25/8 1/3/8
f 4/11/7 110/18/7 104/21/7 3/26/7
f 6/29/6 109/14/6 106/17/6 5/10/6
f 30/12/13 114/30/13 130/30/13 125/64/13
f 32/23/13 115/22/13 129/22/13 123/23/13
f 29/54/13 94/54/13 128/54/13 124/54/13
f 31/2/13 95/36/13 127/36/13 126/2/13
f 115/22/13 31/2/13 126/2/13 129/22/13
f 95/36/13 30/52/13 125/52/13 127/36/13
f 114/30/13 29/34/13 124/34/13 130/30/13
f 94/54/13 32/54/13 123/54/13 128/54/13
f 141/54/13 138/54/13 134/54/13 135/54/13
f 143/30/13 144/34/13 136/34/13 131/30/13
f 140/36/13 145/52/13 132/52/13 137/36/13
f 142/22/13 146/2/13 139/2/13 133/22/13
f 146/2/13 140/36/13 137/36/13 139/2/13
f 144/54/13 141/54/13 135/54/13 136/54/13
f 138/23/13 142/22/13 133/22/13 134/23/13
f 145/64/13 143/30/13 131/30/13 132/12/13
f 124/54/14 128/54/14 141/54/14 144/54/14
f 126/2/27 127/36/27 140/36/27 146/2/27
f 129/22/16 126/2/16 146/2/16 142/22/16
f 127/36/27 125/52/27 145/52/27 140/36/27
f 58/12/16 132/12/16 131/30/16 120/30/16
f 68/43/55 151/40/55 153/40/55 84/43/55
f 82/41/47 152/59/47 153/40/47 81/41/47
f 74/41/40 150/59/40 152/59/40 82/41/40
f 67/62/26 150/59/26 148/40/26 37/43/26
f 37/43/30 148/40/30 149/40/30 45/43/30
f 24/43/26 147/40/26 151/40/26 68/43/26
f 109/14/15 154/68/15 157/69/15 14/15/15
f 15/28/62 156/70/62 155/71/62 6/29/62
f 104/21/15 154/68/15 155/71/15 3/26/15
f 154/68/15 104/21/15 21/20/15 157/69/15
f 156/70/62 24/27/62 3/26/62 155/71/62
f 154/68/15 109/14/15 6/29/15 155/71/15
