# Blender 4.4.3
# www.blender.org
mtllib restuarant.mtl
o restuarant
v -6.754715 0.000000 6.754715 0.3216 0.2078 0.1961
v -6.754715 6.000000 6.754715 0.2706 0.1569 0.2353
v -6.754715 0.000000 -6.754715 0.3216 0.2078 0.1961
v -5.234869 6.000003 -6.754715 0.2706 0.1569 0.2353
v 6.754715 0.000000 6.754715 0.3216 0.2078 0.1961
v 6.754715 4.754849 2.623825 0.5451 0.2980 0.0824
v 6.754715 0.000000 -6.754715 0.3216 0.2078 0.1961
v 5.234869 6.000003 -6.754715 0.2000 0.0863 0.1137
v -6.754715 6.000000 -6.754715 0.2706 0.1569 0.2353
v 5.234869 0.000000 -6.754710 0.2000 0.0863 0.1137
v -5.234869 0.000000 -6.754710 0.3216 0.2078 0.1961
v 6.754715 4.754849 -2.623825 0.5451 0.2980 0.0824
v 5.234869 -0.000006 -9.931127 0.3216 0.2078 0.1961
v -5.234869 -0.000006 -9.931127 0.3216 0.2078 0.1961
v -5.234869 5.999997 -9.931131 0.2706 0.1569 0.2353
v 5.234869 5.999997 -9.931131 0.2706 0.1569 0.2353
v 6.754715 6.000000 -6.754715 0.2706 0.1569 0.2353
v 6.754715 0.000000 2.623825 0.2000 0.0863 0.1137
v 6.754715 0.000000 -2.623825 0.2000 0.0863 0.1137
v 6.754715 6.000000 6.754715 0.2000 0.0863 0.1137
v 10.045749 0.000000 2.623825 0.3216 0.2078 0.1961
v 10.045749 0.000000 -2.623825 0.3216 0.2078 0.1961
v 10.045749 3.555632 -1.424608 0.5451 0.2980 0.0824
v 10.045749 3.555632 1.424608 0.5451 0.2980 0.0824
v -4.586040 7.448053 4.586040 1.0000 0.9529 0.3098
v -4.586040 7.448053 -4.586040 1.0000 0.9529 0.3098
v 4.586040 7.448053 -4.586040 1.0000 0.9529 0.3098
v 4.586040 7.448053 4.586040 1.0000 0.9529 0.3098
v -3.554158 7.448055 -4.586040 1.0000 0.9529 0.3098
v 3.554158 7.448055 -4.586040 1.0000 0.9529 0.3098
v -3.554158 7.448051 -8.431916 1.0000 0.9529 0.3098
v 3.554158 7.448051 -8.431916 1.0000 0.9529 0.3098
v 10.045749 0.000000 1.424608 0.4000 0.2118 0.1020
v 10.045749 0.000000 -1.424608 0.5451 0.2980 0.0824
v 10.045749 4.754849 -2.623825 0.9137 0.4823 0.1294
v 10.045749 4.754849 2.623825 0.9137 0.4823 0.1294
v 9.799471 0.000000 1.424608 0.2000 0.0863 0.1137
v 9.799471 0.000000 -1.424608 0.2000 0.0863 0.1137
v 9.799471 3.555632 -1.424608 0.2000 0.0863 0.1137
v 9.799471 3.555632 1.424608 0.2000 0.0863 0.1137
v -6.754715 3.000000 6.754715 0.9255 0.5608 0.3137
v -6.754715 3.000000 -6.754715 0.9137 0.4823 0.1294
v 6.754715 3.000000 -6.754715 0.9137 0.4823 0.1294
v 6.754715 3.000000 6.754715 0.9137 0.4823 0.1294
v -5.234869 3.000002 -6.754713 0.9137 0.4823 0.1294
v 5.234869 3.000002 -6.754713 0.5451 0.2980 0.0824
v -5.234869 2.999995 -9.931129 0.9137 0.4823 0.1294
v 5.234869 2.999995 -9.931129 0.9137 0.4823 0.1294
v 6.754715 2.377424 -2.623825 0.5451 0.2980 0.0824
v 6.754715 2.377424 2.623825 0.5451 0.2980 0.0824
v 10.045749 2.377424 -2.623825 0.9137 0.4823 0.1294
v 10.045749 2.377424 2.623825 0.9137 0.4823 0.1294
v 10.045749 1.777816 -1.424608 0.5451 0.2980 0.0824
v 10.045749 1.777816 1.424608 0.5451 0.2980 0.0824
v 9.799471 1.777816 -1.424608 0.2000 0.0863 0.1137
v 9.799471 1.777816 1.424608 0.2000 0.0863 0.1137
v 6.485650 6.179658 -6.485650 0.9137 0.4823 0.1294
v 6.485650 6.179658 6.485650 0.9137 0.4823 0.1294
v -6.485650 6.179658 -6.485650 0.9255 0.5412 0.1530
v -6.485650 6.179658 6.485650 0.9137 0.4823 0.1294
v 5.024646 6.181126 -6.483458 0.9137 0.4823 0.1294
v -5.024646 6.181126 -6.483458 0.9137 0.4823 0.1294
v -5.024646 6.181119 -9.381601 0.9137 0.4823 0.1294
v 5.024646 6.181119 -9.381601 0.9137 0.4823 0.1294
vn -1.0000 -0.0000 -0.0000
vn -0.0000 -0.0000 1.0000
vn -0.6527 0.7576 -0.0000
vn -0.0000 -0.0000 -1.0000
vn 1.0000 -0.0000 -0.0000
vn -0.0000 -0.8316 0.5553
vn -0.0000 1.0000 -0.0000
vn -0.0000 0.5998 -0.8002
vn 0.5553 0.8316 -0.0000
vn -0.0000 0.8316 -0.5553
vn 0.6527 0.7576 -0.0000
vn -0.5553 0.8316 -0.0000
vn -0.0000 0.8316 0.5553
vn -0.0000 -1.0000 -0.0000
vn -0.0000 0.9497 -0.3130
vt 0.500000 0.000000
vt 0.625000 0.000000
vt 0.625000 0.250000
vt 0.500000 0.250000
vt 0.500000 0.262900
vt 0.596501 0.262900
vt 0.500000 0.724826
vt 0.430614 0.724826
vt 0.500000 0.750000
vt 0.625000 0.750000
vt 0.625000 1.000000
vt 0.500000 1.000000
vt 0.403499 0.262900
vt 0.375000 0.250000
vt 0.596501 0.487100
vt 0.500000 0.487100
vt 0.625000 0.500000
vt 0.500000 0.500000
vt 0.403499 0.487100
vt 0.000000 0.000000
vt 0.500000 0.525174
vt 0.430614 0.525175
vt 0.375000 0.500000
vt 0.569386 0.724826
vt 0.569386 0.525174
vt 0.875000 0.500000
vt 0.875000 0.750000
vt 0.500000 0.570800
vt 0.534386 0.570800
vt 0.534386 0.679200
vt 0.500000 0.679200
vt 0.465614 0.570800
vt 0.465614 0.679200
vt 0.375000 0.750000
vt 0.375000 1.000000
vt 0.375000 0.000000
s 0
usemtl vertex_color
f 41/1/1 2/2/1 9/3/1 42/4/1
f 45/5/1 4/6/1 15/6/1 47/5/1
f 50/7/2 18/8/2 21/8/2 52/7/2
f 44/9/2 20/10/2 2/11/2 41/12/2
f 63/6/3 62/6/3 29/6/3 31/6/3
f 45/5/4 11/13/4 3/14/4 42/4/4
f 47/5/4 15/6/4 16/15/4 48/16/4
f 46/16/4 8/15/4 17/17/4 43/18/4
f 46/16/5 10/19/5 13/19/5 48/16/5
f 62/20/6 61/20/6 30/20/6 29/20/6
f 49/21/5 19/22/5 7/23/5 43/18/5
f 6/24/5 12/25/5 17/17/5 20/10/5
f 50/7/5 6/24/5 20/10/5 44/9/5
f 12/25/7 6/24/7 36/24/7 35/25/7
f 49/21/4 12/25/4 35/25/4 51/21/4
f 27/17/7 26/26/7 25/27/7 28/10/7
f 29/6/7 30/15/7 32/15/7 31/6/7
f 64/15/8 63/6/8 31/6/8 32/15/8
f 58/10/9 57/17/9 27/17/9 28/10/9
f 57/20/10 59/20/10 26/20/10 27/20/10
f 61/15/11 64/15/11 32/15/11 30/15/11
f 59/3/12 60/2/12 25/2/12 26/3/12
f 60/11/13 58/10/13 28/10/13 25/11/13
f 55/28/5 39/29/5 40/30/5 56/31/5
f 53/28/5 34/32/5 22/22/5 51/21/5
f 24/30/5 23/29/5 35/25/5 36/24/5
f 54/31/5 24/30/5 36/24/5 52/7/5
f 54/31/4 33/33/4 37/33/4 56/31/4
f 53/28/2 23/29/2 39/29/2 55/28/2
f 23/29/14 24/30/14 40/30/14 39/29/14
f 34/32/2 53/28/2 55/28/2 38/32/2
f 24/30/4 54/31/4 56/31/4 40/30/4
f 33/33/5 54/31/5 52/7/5 21/8/5
f 23/29/5 53/28/5 51/21/5 35/25/5
f 38/32/5 55/28/5 56/31/5 37/33/5
f 19/22/4 49/21/4 51/21/4 22/22/4
f 18/8/5 50/7/5 44/9/5 5/34/5
f 12/25/5 49/21/5 43/18/5 17/17/5
f 8/15/5 46/16/5 48/16/5 16/15/5
f 10/19/4 46/16/4 43/18/4 7/23/4
f 14/13/4 47/5/4 48/16/4 13/19/4
f 4/6/4 45/5/4 42/4/4 9/3/4
f 5/34/2 44/9/2 41/12/2 1/35/2
f 6/24/2 50/7/2 52/7/2 36/24/2
f 11/13/1 45/5/1 47/5/1 14/13/1
f 1/36/1 41/1/1 42/4/1 3/14/1
f 2/11/13 20/10/13 58/10/13 60/11/13
f 9/3/12 2/2/12 60/2/12 59/3/12
f 17/20/10 9/20/10 59/20/10 57/20/10
f 20/10/9 17/17/9 57/17/9 58/10/9
f 8/15/11 16/15/11 64/15/11 61/15/11
f 16/15/15 15/6/15 63/6/15 64/15/15
f 4/20/6 8/20/6 61/20/6 62/20/6
f 15/6/3 4/6/3 62/6/3 63/6/3
