# Blender 4.4.3
# www.blender.org
mtllib restuarant_interior.mtl
o restuarant_interior
v 5.648980 0.000000 6.411396 0.1333 0.1255 0.2039
v 5.992299 6.000000 6.754715 0.2706 0.1569 0.2353
v -7.173812 0.000000 6.411396 0.1333 0.1255 0.2039
v -7.517131 4.754849 2.623825 0.2000 0.0863 0.1137
v -7.173812 0.000000 2.280506 0.1333 0.1255 0.2039
v -7.517131 6.000000 6.754715 0.2000 0.0863 0.1137
v -10.808164 0.000000 2.623825 0.3216 0.2078 0.1961
v -10.808164 3.555632 1.424608 0.5451 0.2980 0.0824
v 3.823625 7.448053 4.586040 0.1333 0.1255 0.2039
v -5.348456 7.448053 4.586040 0.1333 0.1255 0.2039
v -10.808164 0.000000 1.424608 0.4000 0.2118 0.1020
v -10.808164 4.754849 2.623825 0.2000 0.0863 0.1137
v 5.992299 3.000000 6.754715 0.5451 0.2980 0.0824
v -7.517131 3.000000 6.754715 0.5451 0.2980 0.0824
v -7.517131 2.377424 2.623825 0.5451 0.2980 0.0824
v -10.808164 2.377424 2.623825 0.5451 0.2980 0.0824
v -10.808164 1.777816 1.424608 0.5451 0.2980 0.0824
v -7.248066 6.179658 6.485650 0.0431 0.1412 0.3451
v 5.723234 6.179658 6.485650 0.0431 0.1412 0.3451
v 5.992299 0.000000 -0.001772 0.3216 0.2078 0.1961
v 5.992299 6.000000 -0.001772 0.2706 0.1569 0.2353
v -7.517131 6.000000 -0.001772 0.2353 0.1216 0.1765
v -7.517131 4.754849 -0.000688 0.5451 0.2980 0.0824
v -10.808164 4.754849 -0.000688 0.2000 0.0863 0.1137
v 3.823625 7.448053 -0.001203 0.1333 0.1255 0.2039
v -5.348456 7.448053 -0.001203 0.1333 0.1255 0.2039
v -10.808164 3.555632 -0.000374 0.5451 0.2980 0.0824
v 5.992299 3.000000 -0.001772 0.5451 0.2980 0.0824
v 5.723234 6.179658 -0.001702 0.0431 0.1412 0.3451
v -7.248066 6.179658 -0.001702 0.0431 0.1412 0.3451
v -7.517131 0.000000 0.000000 0.2000 0.0863 0.1137
v -10.808164 0.000000 0.000000 0.3216 0.2078 0.1961
v 5.992299 0.000000 6.754715 0.3216 0.2078 0.1961
v 5.648980 0.000000 0.341592 0.2000 0.0863 0.1137
v -7.517131 0.000000 6.754715 0.3216 0.2078 0.1961
v -7.517131 0.000000 2.623825 0.2000 0.0863 0.1137
v -7.517108 0.000000 0.343319 0.2000 0.0863 0.1137
v -10.464845 0.000000 2.280506 0.1333 0.1255 0.2039
v -10.464845 0.000000 0.343319 0.2000 0.0863 0.1137
v 5.471402 1.369369 3.035447 0.5451 0.2980 0.0824
v 1.856680 1.369369 3.035447 0.5451 0.2980 0.0824
v 5.471402 -0.057568 3.035447 0.3216 0.2078 0.1961
v 1.856680 -0.057568 3.035447 0.3216 0.2078 0.1961
v 1.856680 1.369369 4.889748 0.5451 0.2980 0.0824
v 1.856680 -0.057568 4.889748 0.3216 0.2078 0.1961
v 5.471402 -0.057568 4.889748 0.3216 0.2078 0.1961
v 5.471402 1.369369 4.889748 0.5451 0.2980 0.0824
v -4.786463 0.749116 3.296075 0.5451 0.2980 0.0824
v -5.011019 0.749116 3.296075 0.5451 0.2980 0.0824
v -4.786463 -0.057568 3.296075 0.3216 0.2078 0.1961
v -5.011019 -0.057568 3.296075 0.3216 0.2078 0.1961
v -5.011019 0.749116 3.551172 0.5451 0.2980 0.0824
v -5.011019 -0.057568 3.551172 0.3216 0.2078 0.1961
v -4.786463 -0.057568 3.551172 0.3216 0.2078 0.1961
v -4.786463 0.749116 3.551172 0.5451 0.2980 0.0824
v -3.926101 1.070377 2.318696 0.5451 0.2980 0.0824
v -5.871381 1.070377 2.318696 0.5451 0.2980 0.0824
v -3.926101 0.777799 2.318696 0.3216 0.2078 0.1961
v -5.871381 0.777799 2.318696 0.3216 0.2078 0.1961
v -5.871381 1.070377 4.528551 0.5451 0.2980 0.0824
v -5.871381 0.777799 4.528551 0.3216 0.2078 0.1961
v -3.926101 0.777799 4.528551 0.3216 0.2078 0.1961
v -3.926101 1.070377 4.528551 0.5451 0.2980 0.0824
v -1.241570 0.749116 3.296075 0.5451 0.2980 0.0824
v -1.466126 0.749116 3.296075 0.5451 0.2980 0.0824
v -1.241570 -0.057568 3.296075 0.3216 0.2078 0.1961
v -1.466126 -0.057568 3.296075 0.3216 0.2078 0.1961
v -1.466126 0.749116 3.551172 0.5451 0.2980 0.0824
v -1.466126 -0.057568 3.551172 0.3216 0.2078 0.1961
v -1.241570 -0.057568 3.551172 0.3216 0.2078 0.1961
v -1.241570 0.749116 3.551172 0.5451 0.2980 0.0824
v -0.381208 1.070377 2.318696 0.5451 0.2980 0.0824
v -2.326488 1.070377 2.318696 0.5451 0.2980 0.0824
v -0.381208 0.777799 2.318696 0.3216 0.2078 0.1961
v -2.326488 0.777799 2.318696 0.3216 0.2078 0.1961
v -2.326488 1.070377 4.528551 0.5451 0.2980 0.0824
v -2.326488 0.777799 4.528551 0.3216 0.2078 0.1961
v -0.381208 0.777799 4.528551 0.3216 0.2078 0.1961
v -0.381208 1.070377 4.528551 0.5451 0.2980 0.0824
vn -0.0000 -0.0000 -1.0000
vn 1.0000 -0.0000 -0.0000
vn -0.0000 -1.0000 -0.0000
vn -0.5553 -0.8316 -0.0000
vn -0.0000 -0.8316 -0.5553
vn 0.5553 -0.8316 -0.0000
vn -1.0000 -0.0000 -0.0000
vn -0.0000 1.0000 -0.0000
vn -0.0000 -0.0000 1.0000
vt 0.500000 0.724826
vt 0.430614 0.724826
vt 0.500000 0.750000
vt 0.625000 0.750000
vt 0.625000 1.000000
vt 0.500000 1.000000
vt 0.569386 0.724826
vt 0.569386 0.624974
vt 0.625000 0.624967
vt 0.875000 0.624967
vt 0.875000 0.750000
vt 0.625000 0.125033
vt 0.625000 0.000000
vt 0.625000 0.125033
vt 0.500000 0.679200
vt 0.534386 0.679200
vt 0.465614 0.679200
vt 0.375000 0.750000
vt 0.375000 1.000000
vt 0.625000 0.125033
vt 0.375000 0.000000
vt 0.500000 0.000000
vt 0.500000 0.125033
vt 0.375000 0.125033
vt 0.534386 0.624986
vt 0.375380 0.952671
vt 0.376413 0.140276
vt 0.379053 0.749044
vt 0.429201 0.709583
s 0
usemtl vertex_color
f 15/1/1 36/2/1 7/2/1 16/1/1
f 14/3/1 6/4/1 2/5/1 13/6/1
f 15/1/2 4/7/2 6/4/2 14/3/2
f 23/8/3 4/7/3 12/7/3 24/8/3
f 26/9/3 25/10/3 9/11/3 10/4/3
f 29/12/4 19/13/4 9/13/4 25/14/4
f 19/5/5 18/4/5 10/4/5 9/5/5
f 17/15/2 8/16/2 12/7/2 16/1/2
f 11/17/2 17/15/2 16/1/2 7/2/2
f 36/2/2 15/1/2 14/3/2 35/18/2
f 35/18/1 14/3/1 13/6/1 33/19/1
f 4/7/1 15/1/1 16/1/1 12/7/1
f 2/5/5 6/4/5 18/4/5 19/5/5
f 21/20/4 2/13/4 19/13/4 29/12/4
f 6/4/6 22/9/6 30/9/6 18/4/6
f 33/21/7 13/22/7 28/23/7 20/24/7
f 8/16/2 27/25/2 24/8/2 12/7/2
f 18/4/6 30/9/6 26/9/6 10/4/6
f 4/7/2 23/8/2 22/9/2 6/4/2
f 13/22/7 2/13/7 21/20/7 28/23/7
f 1/26/8 34/27/8 5/2/8 3/28/8
f 5/2/8 37/2/8 39/2/8 38/2/8
f 5/29/8 34/27/8 37/2/8
f 1/26/8 33/19/8 20/24/8 34/27/8
f 3/28/8 35/18/8 33/19/8 1/26/8
f 5/2/8 36/2/8 35/18/8 3/28/8
f 38/2/8 7/2/8 36/2/8 5/2/8
f 37/2/8 31/2/8 32/2/8 39/2/8
f 39/2/8 32/2/8 7/2/8 38/2/8
f 34/27/8 20/24/8 31/2/8 37/2/8
f 43/18/1 41/3/1 40/6/1 42/19/1
f 45/18/9 46/19/9 47/6/9 44/3/9
f 40/6/8 41/3/8 44/3/8 47/6/8
f 42/19/2 40/6/2 47/6/2 46/19/2
f 41/3/7 43/18/7 45/18/7 44/3/7
f 51/18/1 49/3/1 48/6/1 50/19/1
f 53/18/9 54/19/9 55/6/9 52/3/9
f 48/6/8 49/3/8 52/3/8 55/6/8
f 50/19/2 48/6/2 55/6/2 54/19/2
f 49/3/7 51/18/7 53/18/7 52/3/7
f 59/18/1 57/3/1 56/6/1 58/19/1
f 61/18/9 62/19/9 63/6/9 60/3/9
f 56/6/8 57/3/8 60/3/8 63/6/8
f 58/19/2 56/6/2 63/6/2 62/19/2
f 57/3/7 59/18/7 61/18/7 60/3/7
f 58/19/3 62/19/3 61/18/3 59/18/3
f 67/18/1 65/3/1 64/6/1 66/19/1
f 69/18/9 70/19/9 71/6/9 68/3/9
f 64/6/8 65/3/8 68/3/8 71/6/8
f 66/19/2 64/6/2 71/6/2 70/19/2
f 65/3/7 67/18/7 69/18/7 68/3/7
f 75/18/1 73/3/1 72/6/1 74/19/1
f 77/18/9 78/19/9 79/6/9 76/3/9
f 72/6/8 73/3/8 76/3/8 79/6/8
f 74/19/2 72/6/2 79/6/2 78/19/2
f 73/3/7 75/18/7 77/18/7 76/3/7
f 74/19/3 78/19/3 77/18/3 75/18/3
