# Blender 4.4.3
# www.blender.org
mtllib tree.mtl
o tree.002
v -1.640868 11.795191 1.610309 0.3529 0.6432 0.9058
v -2.327117 11.795191 -0.046444 0.2941 0.4863 0.8588
v -1.640868 11.795191 -1.703196 0.2392 0.3725 0.7843
v 0.015885 11.795191 -2.389445 0.3019 0.5255 0.7020
v 1.672637 11.795191 -1.703196 0.2980 0.4706 0.8000
v 2.358886 11.795191 -0.046444 0.2588 0.2667 0.5255
v 1.672637 11.795191 1.610309 0.2941 0.4863 0.8588
v 0.015885 11.795191 2.296558 0.2706 0.3608 0.6628
v -0.809788 -0.831511 -1.724829 0.1608 0.1098 0.0314
v 1.547854 -0.827382 -0.571303 0.1608 0.1098 0.0314
v 0.524706 -0.829175 1.847588 0.1608 0.1098 0.0353
v 0.548691 11.210116 -0.118645 0.1490 0.1059 0.0431
v 0.090935 11.307745 -0.426902 0.1294 0.0902 0.0314
v 0.384820 11.238821 0.241107 0.2549 0.1882 0.0941
v 0.015886 6.637577 -0.046443 0.1725 0.1333 0.4314
v -2.906004 6.532759 -2.968332 0.2432 0.0118 0.2745
v -1.974655 5.103515 -2.036984 0.1412 0.1412 0.6863
v 4.148058 4.517293 -0.046443 0.0667 0.0275 0.2275
v 2.830934 5.103515 -0.046443 0.1412 0.1412 0.6863
v -4.116289 4.517293 -0.046443 0.0667 0.0275 0.2275
v -2.799163 5.103515 -0.046443 0.1412 0.1412 0.6863
v 2.937774 6.532759 -2.968332 0.0667 0.0275 0.2275
v 2.006426 5.103515 -2.036984 0.1725 0.1333 0.4314
v -2.906004 6.532759 2.875445 0.0667 0.0275 0.2275
v -1.974655 5.103515 1.944097 0.2432 0.0118 0.2745
v 0.015885 4.517293 4.085731 0.0667 0.0275 0.2275
v 0.015886 5.103515 2.768606 0.1412 0.1412 0.6863
v 0.015886 5.103515 -2.861492 0.1412 0.1412 0.6863
v 0.015885 4.517293 -4.178617 0.0667 0.0275 0.2275
v 2.006426 5.103515 1.944097 0.1412 0.1412 0.6863
v 2.937774 6.532759 2.875445 0.2432 0.0118 0.2745
v 0.015885 15.646672 -0.046444 0.1412 0.1412 0.6863
vn 0.4615 0.0659 -0.8847
vn 0.2728 0.2536 0.9281
vn -0.2728 0.2536 0.9281
vn 0.1944 -0.8613 -0.4694
vn -0.9281 0.2536 0.2728
vn 0.4694 -0.8613 -0.1944
vn -0.9281 0.2536 -0.2728
vn -0.4694 -0.8613 0.1944
vn -0.1944 -0.8613 0.4694
vn -0.1944 -0.8613 -0.4694
vn -0.4694 -0.8613 -0.1944
vn 0.2728 0.2536 -0.9281
vn 0.9281 0.2536 -0.2728
vn 0.9281 0.2536 0.2728
vn -0.2728 0.2536 -0.9281
vn 0.4694 -0.8613 0.1944
vn 0.9180 0.0621 0.3916
vn -0.9328 0.0339 0.3587
vn 0.4294 -0.8896 -0.1556
vn 0.4294 -0.8896 0.1556
vn -0.4294 -0.8896 0.1556
vn 0.1556 -0.8896 -0.4294
vn -0.1556 -0.8896 0.4294
vn 0.1556 -0.8896 0.4294
vn -0.1556 -0.8896 -0.4294
vn -0.4294 -0.8896 -0.1556
vn 0.1944 -0.8613 0.4694
vn 0.3336 0.4900 0.8054
vn -0.8054 0.4900 0.3336
vn -0.3336 0.4900 -0.8054
vn 0.3336 0.4900 -0.8054
vn 0.8054 0.4900 0.3336
vn -0.3336 0.4900 0.8054
vn -0.8054 0.4900 -0.3336
vn 0.8054 0.4900 -0.3336
vt 0.625000 0.535802
vt 0.625000 0.535802
vt 0.839198 0.500000
vt 0.839198 0.500000
vt 0.419706 0.080294
vt 0.250000 0.010000
vt 0.250000 0.010000
vt 0.080294 0.080294
vt 0.010000 0.250000
vt 0.080294 0.419706
vt 0.080294 0.419706
vt 0.419706 0.419706
vt 0.490000 0.250000
vt 0.250000 0.490000
vt 0.490000 0.250000
vt 0.625000 0.714198
vt 0.660802 0.750000
s 0
usemtl vertex_lit
f 12/1/1 10/2/1 9/3/1 13/4/1
f 31/5/2 7/5/2 8/6/2 26/7/2
f 26/7/3 8/6/3 1/8/3 24/8/3
f 15/6/4 27/7/4 25/8/4
f 24/8/5 1/8/5 2/9/5 20/9/5
f 15/8/6 25/8/6 21/9/6
f 20/9/7 2/9/7 3/10/7 16/11/7
f 15/12/8 23/12/8 19/13/8
f 15/14/9 28/14/9 23/12/9
f 15/5/10 30/5/10 27/7/10
f 15/15/11 19/13/11 30/5/11
f 22/12/12 29/14/12 4/14/12 5/12/12
f 18/13/13 22/12/13 5/12/13 6/15/13
f 31/5/14 18/13/14 6/15/14 7/5/14
f 29/14/15 16/10/15 3/10/15 4/14/15
f 15/9/16 21/9/16 17/10/16
f 10/2/17 12/16/17 14/17/17 11/17/17
f 13/4/18 9/3/18 11/17/18 14/17/18
f 29/14/19 22/12/19 23/12/19 28/14/19
f 31/5/20 26/7/20 27/7/20 30/5/20
f 26/7/21 24/8/21 25/8/21 27/7/21
f 22/12/22 18/13/22 19/13/22 23/12/22
f 24/8/23 20/9/23 21/9/23 25/8/23
f 18/13/24 31/5/24 30/5/24 19/13/24
f 20/9/25 16/11/25 17/10/25 21/9/25
f 16/10/26 29/14/26 28/14/26 17/11/26
f 15/10/27 17/11/27 28/14/27
f 8/6/28 7/5/28 32/6/28
f 2/9/29 1/8/29 32/9/29
f 4/14/30 3/10/30 32/14/30
f 5/12/31 4/14/31 32/12/31
f 7/5/32 6/15/32 32/5/32
f 1/8/33 8/6/33 32/8/33
f 3/10/34 2/9/34 32/10/34
f 6/15/35 5/12/35 32/15/35
